<?xml version="1.0" encoding="UTF-8" standalone="no"?>
<!DOCTYPE svg PUBLIC "-//W3C//DTD SVG 1.1//EN"
 "http://www.w3.org/Graphics/SVG/1.1/DTD/svg11.dtd">
<!-- Generated by graphviz version 2.43.0 (0)
 -->
<!-- Title: BackEnd Pages: 1 -->
<svg width="372pt" height="572pt"
 viewBox="0.00 0.00 372.00 572.00" xmlns="http://www.w3.org/2000/svg" xmlns:xlink="http://www.w3.org/1999/xlink">
<g id="graph0" class="graph" transform="scale(1 1) rotate(0) translate(4 568)">
<title>BackEnd</title>
<polygon fill="white" stroke="transparent" points="-4,4 -4,-568 368,-568 368,4 -4,4"/>
<!-- Planning_SLH -->
<g id="node1" class="node">
<title>Planning_SLH</title>
<polygon fill="none" stroke="black" points="148,-525.5 148,-563.5 364,-563.5 364,-525.5 148,-525.5"/>
<text text-anchor="middle" x="256" y="-548.3" font-family="Times,serif" font-size="14.00">Planning Switch Level of Hardware </text>
<text text-anchor="middle" x="256" y="-533.3" font-family="Times,serif" font-size="14.00">(magic)</text>
</g>
<!-- Placing_SLH -->
<g id="node2" class="node">
<title>Placing_SLH</title>
<polygon fill="none" stroke="black" points="18.5,-450.5 18.5,-488.5 227.5,-488.5 227.5,-450.5 18.5,-450.5"/>
<text text-anchor="middle" x="123" y="-473.3" font-family="Times,serif" font-size="14.00">Placing Switch Level of Hardware </text>
<text text-anchor="middle" x="123" y="-458.3" font-family="Times,serif" font-size="14.00">(graywolf)</text>
</g>
<!-- Planning_SLH&#45;&gt;Placing_SLH -->
<g id="edge1" class="edge">
<title>Planning_SLH&#45;&gt;Placing_SLH</title>
<path fill="none" stroke="black" d="M223.12,-525.46C205.54,-515.8 183.7,-503.82 164.91,-493.5"/>
<polygon fill="black" stroke="black" points="166.41,-490.33 155.96,-488.59 163.04,-496.47 166.41,-490.33"/>
</g>
<!-- Timing_SLH -->
<g id="node3" class="node">
<title>Timing_SLH</title>
<polygon fill="none" stroke="black" points="18.5,-375.5 18.5,-413.5 227.5,-413.5 227.5,-375.5 18.5,-375.5"/>
<text text-anchor="middle" x="123" y="-398.3" font-family="Times,serif" font-size="14.00">Timing Switch Level of Hardware </text>
<text text-anchor="middle" x="123" y="-383.3" font-family="Times,serif" font-size="14.00">(sta)</text>
</g>
<!-- Placing_SLH&#45;&gt;Timing_SLH -->
<g id="edge2" class="edge">
<title>Placing_SLH&#45;&gt;Timing_SLH</title>
<path fill="none" stroke="black" d="M123,-450.46C123,-442.38 123,-432.68 123,-423.68"/>
<polygon fill="black" stroke="black" points="126.5,-423.59 123,-413.59 119.5,-423.59 126.5,-423.59"/>
</g>
<!-- Routing_SLH -->
<g id="node4" class="node">
<title>Routing_SLH</title>
<polygon fill="none" stroke="black" points="12,-300.5 12,-338.5 224,-338.5 224,-300.5 12,-300.5"/>
<text text-anchor="middle" x="118" y="-323.3" font-family="Times,serif" font-size="14.00">Routing Switch Level of Hardware </text>
<text text-anchor="middle" x="118" y="-308.3" font-family="Times,serif" font-size="14.00">(qrouter)</text>
</g>
<!-- Timing_SLH&#45;&gt;Routing_SLH -->
<g id="edge3" class="edge">
<title>Timing_SLH&#45;&gt;Routing_SLH</title>
<path fill="none" stroke="black" d="M121.76,-375.46C121.21,-367.38 120.55,-357.68 119.93,-348.68"/>
<polygon fill="black" stroke="black" points="123.41,-348.33 119.24,-338.59 116.43,-348.81 123.41,-348.33"/>
</g>
<!-- Simulating_SLH -->
<g id="node5" class="node">
<title>Simulating_SLH</title>
<polygon fill="none" stroke="black" points="0,-225.5 0,-263.5 228,-263.5 228,-225.5 0,-225.5"/>
<text text-anchor="middle" x="114" y="-248.3" font-family="Times,serif" font-size="14.00">Simulating Switch Level of Hardware </text>
<text text-anchor="middle" x="114" y="-233.3" font-family="Times,serif" font-size="14.00">(irsim)</text>
</g>
<!-- Routing_SLH&#45;&gt;Simulating_SLH -->
<g id="edge4" class="edge">
<title>Routing_SLH&#45;&gt;Simulating_SLH</title>
<path fill="none" stroke="black" d="M117.01,-300.46C116.57,-292.38 116.04,-282.68 115.54,-273.68"/>
<polygon fill="black" stroke="black" points="119.03,-273.38 114.99,-263.59 112.04,-273.77 119.03,-273.38"/>
</g>
<!-- Verifying_LVS -->
<g id="node6" class="node">
<title>Verifying_LVS</title>
<polygon fill="none" stroke="black" points="18,-150.5 18,-188.5 266,-188.5 266,-150.5 18,-150.5"/>
<text text-anchor="middle" x="142" y="-173.3" font-family="Times,serif" font-size="14.00">Verifying Switch Level of Hardware LVS </text>
<text text-anchor="middle" x="142" y="-158.3" font-family="Times,serif" font-size="14.00">(netgen)</text>
</g>
<!-- Simulating_SLH&#45;&gt;Verifying_LVS -->
<g id="edge5" class="edge">
<title>Simulating_SLH&#45;&gt;Verifying_LVS</title>
<path fill="none" stroke="black" d="M120.92,-225.46C124.08,-217.21 127.9,-207.25 131.42,-198.1"/>
<polygon fill="black" stroke="black" points="134.75,-199.18 135.06,-188.59 128.21,-196.67 134.75,-199.18"/>
</g>
<!-- Verifying_LVS&#45;&gt;Planning_SLH -->
<g id="edge8" class="edge">
<title>Verifying_LVS&#45;&gt;Planning_SLH</title>
<path fill="none" stroke="black" d="M190.96,-188.62C207.92,-197.2 225.54,-209.12 237,-225 261.82,-259.38 256,-276.1 256,-318.5 256,-395.5 256,-395.5 256,-395.5 256,-437.15 256,-485.39 256,-515.18"/>
<polygon fill="black" stroke="black" points="252.5,-515.27 256,-525.27 259.5,-515.27 252.5,-515.27"/>
</g>
<!-- Checking_DRC -->
<g id="node7" class="node">
<title>Checking_DRC</title>
<polygon fill="none" stroke="black" points="92.5,-75.5 92.5,-113.5 343.5,-113.5 343.5,-75.5 92.5,-75.5"/>
<text text-anchor="middle" x="218" y="-98.3" font-family="Times,serif" font-size="14.00">Checking Switch Level of Hardware DRC </text>
<text text-anchor="middle" x="218" y="-83.3" font-family="Times,serif" font-size="14.00">(magic)</text>
</g>
<!-- Verifying_LVS&#45;&gt;Checking_DRC -->
<g id="edge6" class="edge">
<title>Verifying_LVS&#45;&gt;Checking_DRC</title>
<path fill="none" stroke="black" d="M160.79,-150.46C170.1,-141.51 181.51,-130.55 191.68,-120.78"/>
<polygon fill="black" stroke="black" points="194.38,-123.04 199.17,-113.59 189.53,-117.99 194.38,-123.04"/>
</g>
<!-- Checking_DRC&#45;&gt;Planning_SLH -->
<g id="edge9" class="edge">
<title>Checking_DRC&#45;&gt;Planning_SLH</title>
<path fill="none" stroke="black" d="M243.03,-113.61C254.48,-123.17 267.2,-135.85 275,-150 295.48,-187.13 294,-201.1 294,-243.5 294,-395.5 294,-395.5 294,-395.5 294,-438.45 278.8,-486.27 267.63,-515.62"/>
<polygon fill="black" stroke="black" points="264.26,-514.61 263.87,-525.2 270.78,-517.17 264.26,-514.61"/>
</g>
<!-- Printing_GDS -->
<g id="node8" class="node">
<title>Printing_GDS</title>
<polygon fill="none" stroke="black" points="97,-0.5 97,-38.5 339,-38.5 339,-0.5 97,-0.5"/>
<text text-anchor="middle" x="218" y="-23.3" font-family="Times,serif" font-size="14.00">Printing Switch Level of Hardware GDS </text>
<text text-anchor="middle" x="218" y="-8.3" font-family="Times,serif" font-size="14.00">(magic)</text>
</g>
<!-- Checking_DRC&#45;&gt;Printing_GDS -->
<g id="edge7" class="edge">
<title>Checking_DRC&#45;&gt;Printing_GDS</title>
<path fill="none" stroke="black" d="M218,-75.46C218,-67.38 218,-57.68 218,-48.68"/>
<polygon fill="black" stroke="black" points="221.5,-48.59 218,-38.59 214.5,-48.59 221.5,-48.59"/>
</g>
</g>
</svg>
