<?xml version="1.0" encoding="UTF-8" standalone="no"?>
<!DOCTYPE svg PUBLIC "-//W3C//DTD SVG 1.1//EN"
 "http://www.w3.org/Graphics/SVG/1.1/DTD/svg11.dtd">
<!-- Generated by graphviz version 2.43.0 (0)
 -->
<!-- Title: Project Pages: 1 -->
<svg width="404pt" height="153pt"
 viewBox="0.00 0.00 404.00 153.00" xmlns="http://www.w3.org/2000/svg" xmlns:xlink="http://www.w3.org/1999/xlink">
<g id="graph0" class="graph" transform="scale(1 1) rotate(0) translate(4 149)">
<title>Project</title>
<polygon fill="white" stroke="transparent" points="-4,4 -4,-149 400,-149 400,4 -4,4"/>
<g id="clust1" class="cluster">
<title>cluster TestBench</title>
<polygon fill="none" stroke="black" points="8,-8 8,-137 388,-137 388,-8 8,-8"/>
<text text-anchor="middle" x="198" y="-121.8" font-family="Times,serif" font-size="14.00">TestBench</text>
</g>
<!-- Stimulus -->
<g id="node1" class="node">
<title>Stimulus</title>
<polygon fill="none" stroke="black" points="96,-79 16,-79 16,-43 96,-43 96,-79"/>
<text text-anchor="middle" x="56" y="-57.3" font-family="Times,serif" font-size="14.00">Stimulus</text>
</g>
<!-- Model -->
<g id="node2" class="node">
<title>Model</title>
<polygon fill="none" stroke="black" points="269,-52 132,-52 132,-16 269,-16 269,-52"/>
<text text-anchor="middle" x="200.5" y="-30.3" font-family="Times,serif" font-size="14.00">Model (MSP430)</text>
</g>
<!-- Stimulus&#45;&gt;Model -->
<g id="edge1" class="edge">
<title>Stimulus&#45;&gt;Model</title>
<path fill="none" stroke="black" d="M96.25,-47.5C96.25,-47.5 121.96,-47.5 121.96,-47.5"/>
<polygon fill="black" stroke="black" points="121.96,-51 131.96,-47.5 121.96,-44 121.96,-51"/>
</g>
<!-- DUT -->
<g id="node3" class="node">
<title>DUT</title>
<polygon fill="none" stroke="black" points="263,-106 138,-106 138,-70 263,-70 263,-106"/>
<text text-anchor="middle" x="200.5" y="-84.3" font-family="Times,serif" font-size="14.00">DUT (MSP430)</text>
</g>
<!-- Stimulus&#45;&gt;DUT -->
<g id="edge2" class="edge">
<title>Stimulus&#45;&gt;DUT</title>
<path fill="none" stroke="black" d="M96.25,-74.5C96.25,-74.5 127.73,-74.5 127.73,-74.5"/>
<polygon fill="black" stroke="black" points="127.73,-78 137.73,-74.5 127.73,-71 127.73,-78"/>
</g>
<!-- Checker -->
<g id="node4" class="node">
<title>Checker</title>
<polygon fill="none" stroke="black" points="380,-79 305,-79 305,-43 380,-43 380,-79"/>
<text text-anchor="middle" x="342.5" y="-57.3" font-family="Times,serif" font-size="14.00">Checker</text>
</g>
<!-- Model&#45;&gt;Checker -->
<g id="edge3" class="edge">
<title>Model&#45;&gt;Checker</title>
<path fill="none" stroke="black" d="M269,-47.5C269,-47.5 294.83,-47.5 294.83,-47.5"/>
<polygon fill="black" stroke="black" points="294.83,-51 304.83,-47.5 294.83,-44 294.83,-51"/>
</g>
<!-- DUT&#45;&gt;Checker -->
<g id="edge4" class="edge">
<title>DUT&#45;&gt;Checker</title>
<path fill="none" stroke="black" d="M263.2,-74.5C263.2,-74.5 294.6,-74.5 294.6,-74.5"/>
<polygon fill="black" stroke="black" points="294.6,-78 304.6,-74.5 294.6,-71 294.6,-78"/>
</g>
</g>
</svg>
