<?xml version="1.0" encoding="UTF-8" standalone="no"?>
<!DOCTYPE svg PUBLIC "-//W3C//DTD SVG 1.1//EN"
 "http://www.w3.org/Graphics/SVG/1.1/DTD/svg11.dtd">
<!-- Generated by graphviz version 2.43.0 (0)
 -->
<!-- Title: Project Pages: 1 -->
<svg width="416pt" height="153pt"
 viewBox="0.00 0.00 416.00 153.00" xmlns="http://www.w3.org/2000/svg" xmlns:xlink="http://www.w3.org/1999/xlink">
<g id="graph0" class="graph" transform="scale(1 1) rotate(0) translate(4 149)">
<title>Project</title>
<polygon fill="white" stroke="transparent" points="-4,4 -4,-149 412,-149 412,4 -4,4"/>
<g id="clust1" class="cluster">
<title>cluster TestBench</title>
<polygon fill="none" stroke="black" points="8,-8 8,-137 400,-137 400,-8 8,-8"/>
<text text-anchor="middle" x="204" y="-121.8" font-family="Times,serif" font-size="14.00">TestBench</text>
</g>
<!-- Stimulus -->
<g id="node1" class="node">
<title>Stimulus</title>
<polygon fill="none" stroke="black" points="96,-79 16,-79 16,-43 96,-43 96,-79"/>
<text text-anchor="middle" x="56" y="-57.3" font-family="Times,serif" font-size="14.00">Stimulus</text>
</g>
<!-- Model -->
<g id="node2" class="node">
<title>Model</title>
<polygon fill="none" stroke="black" points="281,-52 132,-52 132,-16 281,-16 281,-52"/>
<text text-anchor="middle" x="206.5" y="-30.3" font-family="Times,serif" font-size="14.00">Model (OpenRISC)</text>
</g>
<!-- Stimulus&#45;&gt;Model -->
<g id="edge1" class="edge">
<title>Stimulus&#45;&gt;Model</title>
<path fill="none" stroke="black" d="M96.33,-47.5C96.33,-47.5 121.77,-47.5 121.77,-47.5"/>
<polygon fill="black" stroke="black" points="121.77,-51 131.77,-47.5 121.77,-44 121.77,-51"/>
</g>
<!-- DUT -->
<g id="node3" class="node">
<title>DUT</title>
<polygon fill="none" stroke="black" points="263,-106 150,-106 150,-70 263,-70 263,-106"/>
<text text-anchor="middle" x="206.5" y="-84.3" font-family="Times,serif" font-size="14.00">DUT (RISC&#45;V)</text>
</g>
<!-- Stimulus&#45;&gt;DUT -->
<g id="edge2" class="edge">
<title>Stimulus&#45;&gt;DUT</title>
<path fill="none" stroke="black" d="M96.33,-74.5C96.33,-74.5 139.93,-74.5 139.93,-74.5"/>
<polygon fill="black" stroke="black" points="139.93,-78 149.93,-74.5 139.93,-71 139.93,-78"/>
</g>
<!-- Checker -->
<g id="node4" class="node">
<title>Checker</title>
<polygon fill="none" stroke="black" points="392,-79 317,-79 317,-43 392,-43 392,-79"/>
<text text-anchor="middle" x="354.5" y="-57.3" font-family="Times,serif" font-size="14.00">Checker</text>
</g>
<!-- Model&#45;&gt;Checker -->
<g id="edge3" class="edge">
<title>Model&#45;&gt;Checker</title>
<path fill="none" stroke="black" d="M281.37,-47.5C281.37,-47.5 306.9,-47.5 306.9,-47.5"/>
<polygon fill="black" stroke="black" points="306.9,-51 316.9,-47.5 306.9,-44 306.9,-51"/>
</g>
<!-- DUT&#45;&gt;Checker -->
<g id="edge4" class="edge">
<title>DUT&#45;&gt;Checker</title>
<path fill="none" stroke="black" d="M263.3,-74.5C263.3,-74.5 306.84,-74.5 306.84,-74.5"/>
<polygon fill="black" stroke="black" points="306.84,-78 316.84,-74.5 306.84,-71 306.84,-78"/>
</g>
</g>
</svg>
