<?xml version="1.0" encoding="UTF-8" standalone="no"?>
<!DOCTYPE svg PUBLIC "-//W3C//DTD SVG 1.1//EN"
 "http://www.w3.org/Graphics/SVG/1.1/DTD/svg11.dtd">
<!-- Generated by graphviz version 2.43.0 (0)
 -->
<!-- Title: Project Pages: 1 -->
<svg width="379pt" height="153pt"
 viewBox="0.00 0.00 379.00 153.00" xmlns="http://www.w3.org/2000/svg" xmlns:xlink="http://www.w3.org/1999/xlink">
<g id="graph0" class="graph" transform="scale(1 1) rotate(0) translate(4 149)">
<title>Project</title>
<polygon fill="white" stroke="transparent" points="-4,4 -4,-149 375,-149 375,4 -4,4"/>
<g id="clust1" class="cluster">
<title>cluster TestBench</title>
<polygon fill="none" stroke="black" points="8,-8 8,-137 363,-137 363,-8 8,-8"/>
<text text-anchor="middle" x="185.5" y="-121.8" font-family="Times,serif" font-size="14.00">TestBench</text>
</g>
<!-- Stimulus -->
<g id="node1" class="node">
<title>Stimulus</title>
<polygon fill="none" stroke="black" points="96,-79 16,-79 16,-43 96,-43 96,-79"/>
<text text-anchor="middle" x="56" y="-57.3" font-family="Times,serif" font-size="14.00">Stimulus</text>
</g>
<!-- Model -->
<g id="node2" class="node">
<title>Model</title>
<polygon fill="none" stroke="black" points="244,-52 132,-52 132,-16 244,-16 244,-52"/>
<text text-anchor="middle" x="188" y="-30.3" font-family="Times,serif" font-size="14.00">Model (4004)</text>
</g>
<!-- Stimulus&#45;&gt;Model -->
<g id="edge1" class="edge">
<title>Stimulus&#45;&gt;Model</title>
<path fill="none" stroke="black" d="M96.32,-47.5C96.32,-47.5 121.89,-47.5 121.89,-47.5"/>
<polygon fill="black" stroke="black" points="121.89,-51 131.89,-47.5 121.89,-44 121.89,-51"/>
</g>
<!-- DUT -->
<g id="node3" class="node">
<title>DUT</title>
<polygon fill="none" stroke="black" points="238,-106 138,-106 138,-70 238,-70 238,-106"/>
<text text-anchor="middle" x="188" y="-84.3" font-family="Times,serif" font-size="14.00">DUT (4004)</text>
</g>
<!-- Stimulus&#45;&gt;DUT -->
<g id="edge2" class="edge">
<title>Stimulus&#45;&gt;DUT</title>
<path fill="none" stroke="black" d="M96.32,-74.5C96.32,-74.5 127.66,-74.5 127.66,-74.5"/>
<polygon fill="black" stroke="black" points="127.66,-78 137.66,-74.5 127.66,-71 127.66,-78"/>
</g>
<!-- Checker -->
<g id="node4" class="node">
<title>Checker</title>
<polygon fill="none" stroke="black" points="355,-79 280,-79 280,-43 355,-43 355,-79"/>
<text text-anchor="middle" x="317.5" y="-57.3" font-family="Times,serif" font-size="14.00">Checker</text>
</g>
<!-- Model&#45;&gt;Checker -->
<g id="edge3" class="edge">
<title>Model&#45;&gt;Checker</title>
<path fill="none" stroke="black" d="M244.05,-47.5C244.05,-47.5 269.66,-47.5 269.66,-47.5"/>
<polygon fill="black" stroke="black" points="269.66,-51 279.66,-47.5 269.66,-44 269.66,-51"/>
</g>
<!-- DUT&#45;&gt;Checker -->
<g id="edge4" class="edge">
<title>DUT&#45;&gt;Checker</title>
<path fill="none" stroke="black" d="M238.07,-74.5C238.07,-74.5 269.62,-74.5 269.62,-74.5"/>
<polygon fill="black" stroke="black" points="269.62,-78 279.62,-74.5 269.62,-71 269.62,-78"/>
</g>
</g>
</svg>
