<?xml version="1.0" encoding="UTF-8" standalone="no"?>
<!DOCTYPE svg PUBLIC "-//W3C//DTD SVG 1.1//EN"
 "http://www.w3.org/Graphics/SVG/1.1/DTD/svg11.dtd">
<!-- Generated by graphviz version 2.43.0 (0)
 -->
<!-- Title: Project Pages: 1 -->
<svg width="1782pt" height="147pt"
 viewBox="0.00 0.00 1782.00 147.00" xmlns="http://www.w3.org/2000/svg" xmlns:xlink="http://www.w3.org/1999/xlink">
<g id="graph0" class="graph" transform="scale(1 1) rotate(0) translate(4 143)">
<title>Project</title>
<polygon fill="white" stroke="transparent" points="-4,4 -4,-143 1778,-143 1778,4 -4,4"/>
<!-- Requirements -->
<g id="node1" class="node">
<title>Requirements</title>
<polygon fill="none" stroke="black" points="0,-33.5 0,-71.5 96,-71.5 96,-33.5 0,-33.5"/>
<text text-anchor="middle" x="48" y="-56.3" font-family="Times,serif" font-size="14.00">Requirements </text>
<text text-anchor="middle" x="48" y="-41.3" font-family="Times,serif" font-size="14.00">(UML) [Dot]</text>
</g>
<!-- Software -->
<g id="node2" class="node">
<title>Software</title>
<polygon fill="none" stroke="black" points="132,-100.5 132,-138.5 275,-138.5 275,-100.5 132,-100.5"/>
<text text-anchor="middle" x="203.5" y="-123.3" font-family="Times,serif" font-size="14.00">Software </text>
<text text-anchor="middle" x="203.5" y="-108.3" font-family="Times,serif" font-size="14.00">(Matlab/Rust) [Emacs]</text>
</g>
<!-- Requirements&#45;&gt;Software -->
<g id="edge1" class="edge">
<title>Requirements&#45;&gt;Software</title>
<path fill="none" stroke="black" d="M48,-71.52C48,-91.33 48,-119.5 48,-119.5 48,-119.5 121.67,-119.5 121.67,-119.5"/>
<polygon fill="black" stroke="black" points="121.67,-123 131.67,-119.5 121.67,-116 121.67,-123"/>
</g>
<!-- Source -->
<g id="node3" class="node">
<title>Source</title>
<polygon fill="none" stroke="black" points="311,-100.5 311,-138.5 428,-138.5 428,-100.5 311,-100.5"/>
<text text-anchor="middle" x="369.5" y="-123.3" font-family="Times,serif" font-size="14.00">Source </text>
<text text-anchor="middle" x="369.5" y="-108.3" font-family="Times,serif" font-size="14.00">(ADA/C) [Emacs]</text>
</g>
<!-- Software&#45;&gt;Source -->
<g id="edge2" class="edge">
<title>Software&#45;&gt;Source</title>
<path fill="none" stroke="black" d="M275.34,-119.5C275.34,-119.5 300.77,-119.5 300.77,-119.5"/>
<polygon fill="black" stroke="black" points="300.77,-123 310.77,-119.5 300.77,-116 300.77,-123"/>
</g>
<!-- Model -->
<g id="node4" class="node">
<title>Model</title>
<polygon fill="none" stroke="black" points="464,-100.5 464,-138.5 620,-138.5 620,-100.5 464,-100.5"/>
<text text-anchor="middle" x="542" y="-123.3" font-family="Times,serif" font-size="14.00">Model </text>
<text text-anchor="middle" x="542" y="-108.3" font-family="Times,serif" font-size="14.00">(VHDL/Verilog) [Emacs]</text>
</g>
<!-- Source&#45;&gt;Model -->
<g id="edge3" class="edge">
<title>Source&#45;&gt;Model</title>
<path fill="none" stroke="black" d="M428.38,-119.5C428.38,-119.5 453.86,-119.5 453.86,-119.5"/>
<polygon fill="black" stroke="black" points="453.86,-123 463.86,-119.5 453.86,-116 453.86,-123"/>
</g>
<!-- Validation -->
<g id="node5" class="node">
<title>Validation</title>
<polygon fill="none" stroke="black" points="656,-62.5 656,-100.5 899,-100.5 899,-62.5 656,-62.5"/>
<text text-anchor="middle" x="777.5" y="-85.3" font-family="Times,serif" font-size="14.00">Validation </text>
<text text-anchor="middle" x="777.5" y="-70.3" font-family="Times,serif" font-size="14.00">(VHDL/Verilog) [GHDL / Icarus Verilog]</text>
</g>
<!-- Model&#45;&gt;Validation -->
<g id="edge4" class="edge">
<title>Model&#45;&gt;Validation</title>
<path fill="none" stroke="black" d="M542,-100.4C542,-92.88 542,-86 542,-86 542,-86 645.96,-86 645.96,-86"/>
<polygon fill="black" stroke="black" points="645.96,-89.5 655.96,-86 645.96,-82.5 645.96,-89.5"/>
</g>
<!-- Validation&#45;&gt;Requirements -->
<g id="edge10" class="edge">
<title>Validation&#45;&gt;Requirements</title>
<path fill="none" stroke="black" d="M655.81,-67C655.81,-67 106.28,-67 106.28,-67"/>
<polygon fill="black" stroke="black" points="106.28,-63.5 96.28,-67 106.28,-70.5 106.28,-63.5"/>
</g>
<!-- Design -->
<g id="node6" class="node">
<title>Design</title>
<polygon fill="none" stroke="black" points="935,-62.5 935,-100.5 1091,-100.5 1091,-62.5 935,-62.5"/>
<text text-anchor="middle" x="1013" y="-85.3" font-family="Times,serif" font-size="14.00">Design </text>
<text text-anchor="middle" x="1013" y="-70.3" font-family="Times,serif" font-size="14.00">(VHDL/Verilog) [Emacs]</text>
</g>
<!-- Validation&#45;&gt;Design -->
<g id="edge5" class="edge">
<title>Validation&#45;&gt;Design</title>
<path fill="none" stroke="black" d="M899.04,-81.5C899.04,-81.5 924.8,-81.5 924.8,-81.5"/>
<polygon fill="black" stroke="black" points="924.8,-85 934.8,-81.5 924.8,-78 924.8,-85"/>
</g>
<!-- Verification -->
<g id="node7" class="node">
<title>Verification</title>
<polygon fill="none" stroke="black" points="1127,-24.5 1127,-62.5 1370,-62.5 1370,-24.5 1127,-24.5"/>
<text text-anchor="middle" x="1248.5" y="-47.3" font-family="Times,serif" font-size="14.00">Verification </text>
<text text-anchor="middle" x="1248.5" y="-32.3" font-family="Times,serif" font-size="14.00">(VHDL/Verilog) [GHDL / Icarus Verilog]</text>
</g>
<!-- Design&#45;&gt;Verification -->
<g id="edge6" class="edge">
<title>Design&#45;&gt;Verification</title>
<path fill="none" stroke="black" d="M1013,-62.21C1013,-56.78 1013,-52.33 1013,-52.33 1013,-52.33 1116.96,-52.33 1116.96,-52.33"/>
<polygon fill="black" stroke="black" points="1116.96,-55.83 1126.96,-52.33 1116.96,-48.83 1116.96,-55.83"/>
</g>
<!-- Verification&#45;&gt;Requirements -->
<g id="edge11" class="edge">
<title>Verification&#45;&gt;Requirements</title>
<path fill="none" stroke="black" d="M1126.78,-42.67C1126.78,-42.67 106.26,-42.67 106.26,-42.67"/>
<polygon fill="black" stroke="black" points="106.26,-39.17 96.26,-42.67 106.26,-46.17 106.26,-39.17"/>
</g>
<!-- Quality -->
<g id="node8" class="node">
<title>Quality</title>
<polygon fill="none" stroke="black" points="1406,-0.5 1406,-38.5 1502,-38.5 1502,-0.5 1406,-0.5"/>
<text text-anchor="middle" x="1454" y="-23.3" font-family="Times,serif" font-size="14.00">Quality </text>
<text text-anchor="middle" x="1454" y="-8.3" font-family="Times,serif" font-size="14.00">(Tex) [Emacs]</text>
</g>
<!-- Verification&#45;&gt;Quality -->
<g id="edge7" class="edge">
<title>Verification&#45;&gt;Quality</title>
<path fill="none" stroke="black" d="M1370.12,-31.5C1370.12,-31.5 1395.63,-31.5 1395.63,-31.5"/>
<polygon fill="black" stroke="black" points="1395.63,-35 1405.63,-31.5 1395.63,-28 1395.63,-35"/>
</g>
<!-- Quality&#45;&gt;Requirements -->
<g id="edge12" class="edge">
<title>Quality&#45;&gt;Requirements</title>
<path fill="none" stroke="black" d="M1405.6,-12C1158.37,-12 48,-12 48,-12 48,-12 48,-23.2 48,-23.2"/>
<polygon fill="black" stroke="black" points="44.5,-23.2 48,-33.2 51.5,-23.2 44.5,-23.2"/>
</g>
<!-- Certification -->
<g id="node9" class="node">
<title>Certification</title>
<polygon fill="none" stroke="black" points="1538,-0.5 1538,-38.5 1634,-38.5 1634,-0.5 1538,-0.5"/>
<text text-anchor="middle" x="1586" y="-23.3" font-family="Times,serif" font-size="14.00">Certification </text>
<text text-anchor="middle" x="1586" y="-8.3" font-family="Times,serif" font-size="14.00">(Tex) [Emacs]</text>
</g>
<!-- Quality&#45;&gt;Certification -->
<g id="edge8" class="edge">
<title>Quality&#45;&gt;Certification</title>
<path fill="none" stroke="black" d="M1502.03,-19.5C1502.03,-19.5 1527.79,-19.5 1527.79,-19.5"/>
<polygon fill="black" stroke="black" points="1527.79,-23 1537.79,-19.5 1527.79,-16 1527.79,-23"/>
</g>
<!-- Documentation -->
<g id="node10" class="node">
<title>Documentation</title>
<polygon fill="none" stroke="black" points="1670,-0.5 1670,-38.5 1774,-38.5 1774,-0.5 1670,-0.5"/>
<text text-anchor="middle" x="1722" y="-23.3" font-family="Times,serif" font-size="14.00">Documentation </text>
<text text-anchor="middle" x="1722" y="-8.3" font-family="Times,serif" font-size="14.00">(Tex) [Emacs]</text>
</g>
<!-- Certification&#45;&gt;Documentation -->
<g id="edge9" class="edge">
<title>Certification&#45;&gt;Documentation</title>
<path fill="none" stroke="black" d="M1634.33,-19.5C1634.33,-19.5 1659.67,-19.5 1659.67,-19.5"/>
<polygon fill="black" stroke="black" points="1659.67,-23 1669.67,-19.5 1659.67,-16 1659.67,-23"/>
</g>
</g>
</svg>
