<?xml version="1.0" encoding="UTF-8" standalone="no"?>
<!DOCTYPE svg PUBLIC "-//W3C//DTD SVG 1.1//EN"
 "http://www.w3.org/Graphics/SVG/1.1/DTD/svg11.dtd">
<!-- Generated by graphviz version 2.43.0 (0)
 -->
<!-- Title: Project Pages: 1 -->
<svg width="384pt" height="153pt"
 viewBox="0.00 0.00 384.00 153.00" xmlns="http://www.w3.org/2000/svg" xmlns:xlink="http://www.w3.org/1999/xlink">
<g id="graph0" class="graph" transform="scale(1 1) rotate(0) translate(4 149)">
<title>Project</title>
<polygon fill="white" stroke="transparent" points="-4,4 -4,-149 380,-149 380,4 -4,4"/>
<g id="clust1" class="cluster">
<title>cluster TestBench</title>
<polygon fill="none" stroke="black" points="8,-8 8,-137 368,-137 368,-8 8,-8"/>
<text text-anchor="middle" x="188" y="-121.8" font-family="Times,serif" font-size="14.00">TestBench</text>
</g>
<!-- Stimulus -->
<g id="node1" class="node">
<title>Stimulus</title>
<polygon fill="none" stroke="black" points="96,-79 16,-79 16,-43 96,-43 96,-79"/>
<text text-anchor="middle" x="56" y="-57.3" font-family="Times,serif" font-size="14.00">Stimulus</text>
</g>
<!-- Model -->
<g id="node2" class="node">
<title>Model</title>
<polygon fill="none" stroke="black" points="254,-52 132,-52 132,-16 254,-16 254,-52"/>
<text text-anchor="middle" x="193" y="-30.3" font-family="Times,serif" font-size="14.00">Model (Target)</text>
</g>
<!-- Stimulus&#45;&gt;Model -->
<g id="edge1" class="edge">
<title>Stimulus&#45;&gt;Model</title>
<path fill="none" stroke="black" d="M96.36,-47.5C96.36,-47.5 121.84,-47.5 121.84,-47.5"/>
<polygon fill="black" stroke="black" points="121.84,-51 131.84,-47.5 121.84,-44 121.84,-51"/>
</g>
<!-- DUT -->
<g id="node3" class="node">
<title>DUT</title>
<polygon fill="none" stroke="black" points="249,-106 137,-106 137,-70 249,-70 249,-106"/>
<text text-anchor="middle" x="193" y="-84.3" font-family="Times,serif" font-size="14.00">DUT (Device)</text>
</g>
<!-- Stimulus&#45;&gt;DUT -->
<g id="edge2" class="edge">
<title>Stimulus&#45;&gt;DUT</title>
<path fill="none" stroke="black" d="M96.36,-74.5C96.36,-74.5 126.94,-74.5 126.94,-74.5"/>
<polygon fill="black" stroke="black" points="126.94,-78 136.94,-74.5 126.94,-71 126.94,-78"/>
</g>
<!-- Asserts -->
<g id="node4" class="node">
<title>Asserts</title>
<polygon fill="none" stroke="black" points="360,-79 290,-79 290,-43 360,-43 360,-79"/>
<text text-anchor="middle" x="325" y="-57.3" font-family="Times,serif" font-size="14.00">Asserts</text>
</g>
<!-- Model&#45;&gt;Asserts -->
<g id="edge3" class="edge">
<title>Model&#45;&gt;Asserts</title>
<path fill="none" stroke="black" d="M254.36,-47.5C254.36,-47.5 279.7,-47.5 279.7,-47.5"/>
<polygon fill="black" stroke="black" points="279.7,-51 289.7,-47.5 279.7,-44 279.7,-51"/>
</g>
<!-- DUT&#45;&gt;Asserts -->
<g id="edge4" class="edge">
<title>DUT&#45;&gt;Asserts</title>
<path fill="none" stroke="black" d="M249.36,-74.5C249.36,-74.5 279.82,-74.5 279.82,-74.5"/>
<polygon fill="black" stroke="black" points="279.82,-78 289.82,-74.5 279.82,-71 279.82,-78"/>
</g>
</g>
</svg>
