<?xml version="1.0" encoding="UTF-8" standalone="no"?>
<!DOCTYPE svg PUBLIC "-//W3C//DTD SVG 1.1//EN"
 "http://www.w3.org/Graphics/SVG/1.1/DTD/svg11.dtd">
<!-- Generated by graphviz version 2.43.0 (0)
 -->
<!-- Title: Project Pages: 1 -->
<svg width="2086pt" height="185pt"
 viewBox="0.00 0.00 2086.00 185.00" xmlns="http://www.w3.org/2000/svg" xmlns:xlink="http://www.w3.org/1999/xlink">
<g id="graph0" class="graph" transform="scale(1 1) rotate(0) translate(4 181)">
<title>Project</title>
<polygon fill="white" stroke="transparent" points="-4,4 -4,-181 2082,-181 2082,4 -4,4"/>
<!-- Requirements -->
<g id="node1" class="node">
<title>Requirements</title>
<polygon fill="none" stroke="black" points="0,-52.5 0,-90.5 158,-90.5 158,-52.5 0,-52.5"/>
<text text-anchor="middle" x="79" y="-75.3" font-family="Times,serif" font-size="14.00">Requirements </text>
<text text-anchor="middle" x="79" y="-60.3" font-family="Times,serif" font-size="14.00">(PSL/UML) [Emacs]</text>
</g>
<!-- Source -->
<g id="node2" class="node">
<title>Source</title>
<polygon fill="none" stroke="black" points="194,-138.5 194,-176.5 421,-176.5 421,-138.5 194,-138.5"/>
<text text-anchor="middle" x="307.5" y="-161.3" font-family="Times,serif" font-size="14.00">Source </text>
<text text-anchor="middle" x="307.5" y="-146.3" font-family="Times,serif" font-size="14.00">(Matlab/Rust/ADA/C) [Emacs]</text>
</g>
<!-- Requirements&#45;&gt;Source -->
<g id="edge1" class="edge">
<title>Requirements&#45;&gt;Source</title>
<path fill="none" stroke="black" d="M53,-90.59C53,-115.92 53,-157.5 53,-157.5 53,-157.5 183.65,-157.5 183.65,-157.5"/>
<polygon fill="black" stroke="black" points="183.65,-161 193.65,-157.5 183.65,-154 183.65,-161"/>
</g>
<!-- Model -->
<g id="node3" class="node">
<title>Model</title>
<polygon fill="none" stroke="black" points="457,-138.5 457,-176.5 643,-176.5 643,-138.5 457,-138.5"/>
<text text-anchor="middle" x="550" y="-161.3" font-family="Times,serif" font-size="14.00">Hardware Model </text>
<text text-anchor="middle" x="550" y="-146.3" font-family="Times,serif" font-size="14.00">(VHDL/Verilog) [Emacs]</text>
</g>
<!-- Source&#45;&gt;Model -->
<g id="edge2" class="edge">
<title>Source&#45;&gt;Model</title>
<path fill="none" stroke="black" d="M421.29,-157.5C421.29,-157.5 446.93,-157.5 446.93,-157.5"/>
<polygon fill="black" stroke="black" points="446.93,-161 456.93,-157.5 446.93,-154 446.93,-161"/>
</g>
<!-- Validation -->
<g id="node4" class="node">
<title>Validation</title>
<polygon fill="none" stroke="black" points="679,-100.5 679,-138.5 974,-138.5 974,-100.5 679,-100.5"/>
<text text-anchor="middle" x="826.5" y="-123.3" font-family="Times,serif" font-size="14.00">Hardware Validation </text>
<text text-anchor="middle" x="826.5" y="-108.3" font-family="Times,serif" font-size="14.00">(VHDL/Verilog) [GHDL / Icarus Verilog]</text>
</g>
<!-- Model&#45;&gt;Validation -->
<g id="edge3" class="edge">
<title>Model&#45;&gt;Validation</title>
<path fill="none" stroke="black" d="M550,-138.42C550,-131.49 550,-125.33 550,-125.33 550,-125.33 668.94,-125.33 668.94,-125.33"/>
<polygon fill="black" stroke="black" points="668.94,-128.83 678.94,-125.33 668.94,-121.83 668.94,-128.83"/>
</g>
<!-- Validation&#45;&gt;Requirements -->
<g id="edge10" class="edge">
<title>Validation&#45;&gt;Requirements</title>
<path fill="none" stroke="black" d="M678.96,-112.67C468.17,-112.67 106,-112.67 106,-112.67 106,-112.67 106,-100.64 106,-100.64"/>
<polygon fill="black" stroke="black" points="109.5,-100.64 106,-90.64 102.5,-100.64 109.5,-100.64"/>
</g>
<!-- Design -->
<g id="node5" class="node">
<title>Design</title>
<polygon fill="none" stroke="black" points="1010,-100.5 1010,-138.5 1196,-138.5 1196,-100.5 1010,-100.5"/>
<text text-anchor="middle" x="1103" y="-123.3" font-family="Times,serif" font-size="14.00">Hardware Design </text>
<text text-anchor="middle" x="1103" y="-108.3" font-family="Times,serif" font-size="14.00">(VHDL/Verilog) [Emacs]</text>
</g>
<!-- Validation&#45;&gt;Design -->
<g id="edge4" class="edge">
<title>Validation&#45;&gt;Design</title>
<path fill="none" stroke="black" d="M974.06,-119.5C974.06,-119.5 999.69,-119.5 999.69,-119.5"/>
<polygon fill="black" stroke="black" points="999.69,-123 1009.69,-119.5 999.69,-116 999.69,-123"/>
</g>
<!-- Verification -->
<g id="node6" class="node">
<title>Verification</title>
<polygon fill="none" stroke="black" points="1232,-62.5 1232,-100.5 1527,-100.5 1527,-62.5 1232,-62.5"/>
<text text-anchor="middle" x="1379.5" y="-85.3" font-family="Times,serif" font-size="14.00">Hardware Verification </text>
<text text-anchor="middle" x="1379.5" y="-70.3" font-family="Times,serif" font-size="14.00">(VHDL/Verilog) [GHDL / Icarus Verilog]</text>
</g>
<!-- Design&#45;&gt;Verification -->
<g id="edge5" class="edge">
<title>Design&#45;&gt;Verification</title>
<path fill="none" stroke="black" d="M1103,-100.13C1103,-97.4 1103,-95.5 1103,-95.5 1103,-95.5 1221.94,-95.5 1221.94,-95.5"/>
<polygon fill="black" stroke="black" points="1221.94,-99 1231.94,-95.5 1221.94,-92 1221.94,-99"/>
</g>
<!-- Verification&#45;&gt;Requirements -->
<g id="edge11" class="edge">
<title>Verification&#45;&gt;Requirements</title>
<path fill="none" stroke="black" d="M1231.9,-76.5C1231.9,-76.5 168.11,-76.5 168.11,-76.5"/>
<polygon fill="black" stroke="black" points="168.11,-73 158.11,-76.5 168.11,-80 168.11,-73"/>
</g>
<!-- Quality -->
<g id="node7" class="node">
<title>Quality</title>
<polygon fill="none" stroke="black" points="1563,-24.5 1563,-62.5 1714,-62.5 1714,-24.5 1563,-24.5"/>
<text text-anchor="middle" x="1638.5" y="-47.3" font-family="Times,serif" font-size="14.00">Quality Assurance </text>
<text text-anchor="middle" x="1638.5" y="-32.3" font-family="Times,serif" font-size="14.00">(TeX) [Emacs]</text>
</g>
<!-- Verification&#45;&gt;Quality -->
<g id="edge6" class="edge">
<title>Verification&#45;&gt;Quality</title>
<path fill="none" stroke="black" d="M1527.07,-82C1585.49,-82 1639,-82 1639,-82 1639,-82 1639,-72.75 1639,-72.75"/>
<polygon fill="black" stroke="black" points="1642.5,-72.75 1639,-62.75 1635.5,-72.75 1642.5,-72.75"/>
</g>
<!-- Quality&#45;&gt;Requirements -->
<g id="edge12" class="edge">
<title>Quality&#45;&gt;Requirements</title>
<path fill="none" stroke="black" d="M1562.76,-57C1562.76,-57 168.45,-57 168.45,-57"/>
<polygon fill="black" stroke="black" points="168.45,-53.5 158.45,-57 168.45,-60.5 168.45,-53.5"/>
</g>
<!-- Certification -->
<g id="node8" class="node">
<title>Certification</title>
<polygon fill="none" stroke="black" points="1750,-24.5 1750,-62.5 1866,-62.5 1866,-24.5 1750,-24.5"/>
<text text-anchor="middle" x="1808" y="-47.3" font-family="Times,serif" font-size="14.00">Certification </text>
<text text-anchor="middle" x="1808" y="-32.3" font-family="Times,serif" font-size="14.00">(TeX) [Emacs]</text>
</g>
<!-- Quality&#45;&gt;Certification -->
<g id="edge7" class="edge">
<title>Quality&#45;&gt;Certification</title>
<path fill="none" stroke="black" d="M1714.33,-43.5C1714.33,-43.5 1739.78,-43.5 1739.78,-43.5"/>
<polygon fill="black" stroke="black" points="1739.78,-47 1749.78,-43.5 1739.78,-40 1739.78,-47"/>
</g>
<!-- Lifecycle -->
<g id="node9" class="node">
<title>Lifecycle</title>
<polygon fill="none" stroke="black" points="1902,-0.5 1902,-38.5 2078,-38.5 2078,-0.5 1902,-0.5"/>
<text text-anchor="middle" x="1990" y="-23.3" font-family="Times,serif" font-size="14.00">Design Lifecycle Data </text>
<text text-anchor="middle" x="1990" y="-8.3" font-family="Times,serif" font-size="14.00">(TeX) [Emacs]</text>
</g>
<!-- Certification&#45;&gt;Lifecycle -->
<g id="edge8" class="edge">
<title>Certification&#45;&gt;Lifecycle</title>
<path fill="none" stroke="black" d="M1866.09,-31.5C1866.09,-31.5 1891.95,-31.5 1891.95,-31.5"/>
<polygon fill="black" stroke="black" points="1891.95,-35 1901.95,-31.5 1891.95,-28 1891.95,-35"/>
</g>
<!-- Lifecycle&#45;&gt;Requirements -->
<g id="edge9" class="edge">
<title>Lifecycle&#45;&gt;Requirements</title>
<path fill="none" stroke="black" d="M1901.98,-12C1526.64,-12 79,-12 79,-12 79,-12 79,-42.35 79,-42.35"/>
<polygon fill="black" stroke="black" points="75.5,-42.35 79,-52.35 82.5,-42.35 75.5,-42.35"/>
</g>
</g>
</svg>
