<?xml version="1.0" encoding="UTF-8" standalone="no"?>
<!DOCTYPE svg PUBLIC "-//W3C//DTD SVG 1.1//EN"
 "http://www.w3.org/Graphics/SVG/1.1/DTD/svg11.dtd">
<!-- Generated by graphviz version 2.43.0 (0)
 -->
<!-- Title: Project Pages: 1 -->
<svg width="2272pt" height="109pt"
 viewBox="0.00 0.00 2272.00 109.00" xmlns="http://www.w3.org/2000/svg" xmlns:xlink="http://www.w3.org/1999/xlink">
<g id="graph0" class="graph" transform="scale(1 1) rotate(0) translate(4 105)">
<title>Project</title>
<polygon fill="white" stroke="transparent" points="-4,4 -4,-105 2268,-105 2268,4 -4,4"/>
<!-- Requirements -->
<g id="node1" class="node">
<title>Requirements</title>
<polygon fill="none" stroke="black" points="0,-14.5 0,-52.5 212,-52.5 212,-14.5 0,-14.5"/>
<text text-anchor="middle" x="106" y="-37.3" font-family="Times,serif" font-size="14.00">Requirements </text>
<text text-anchor="middle" x="106" y="-22.3" font-family="Times,serif" font-size="14.00">(Matlab/PSL/UML) [Emacs]</text>
</g>
<!-- Source -->
<g id="node2" class="node">
<title>Source</title>
<polygon fill="none" stroke="black" points="248,-62.5 248,-100.5 448,-100.5 448,-62.5 248,-62.5"/>
<text text-anchor="middle" x="348" y="-85.3" font-family="Times,serif" font-size="14.00">Source </text>
<text text-anchor="middle" x="348" y="-70.3" font-family="Times,serif" font-size="14.00">(C/C++/Go/Rust) [Emacs]</text>
</g>
<!-- Requirements&#45;&gt;Source -->
<g id="edge1" class="edge">
<title>Requirements&#45;&gt;Source</title>
<path fill="none" stroke="black" d="M212.14,-43.33C277.17,-43.33 348,-43.33 348,-43.33 348,-43.33 348,-52.42 348,-52.42"/>
<polygon fill="black" stroke="black" points="344.5,-52.42 348,-62.42 351.5,-52.42 344.5,-52.42"/>
</g>
<!-- Model -->
<g id="node3" class="node">
<title>Model</title>
<polygon fill="none" stroke="black" points="484,-62.5 484,-100.5 723,-100.5 723,-62.5 484,-62.5"/>
<text text-anchor="middle" x="603.5" y="-85.3" font-family="Times,serif" font-size="14.00">Hardware Model </text>
<text text-anchor="middle" x="603.5" y="-70.3" font-family="Times,serif" font-size="14.00">(VHDL/SystemVerilog) [Emacs]</text>
</g>
<!-- Source&#45;&gt;Model -->
<g id="edge2" class="edge">
<title>Source&#45;&gt;Model</title>
<path fill="none" stroke="black" d="M448.25,-81.5C448.25,-81.5 473.6,-81.5 473.6,-81.5"/>
<polygon fill="black" stroke="black" points="473.6,-85 483.6,-81.5 473.6,-78 473.6,-85"/>
</g>
<!-- Validation -->
<g id="node4" class="node">
<title>Validation</title>
<polygon fill="none" stroke="black" points="759,-62.5 759,-100.5 1107,-100.5 1107,-62.5 759,-62.5"/>
<text text-anchor="middle" x="933" y="-85.3" font-family="Times,serif" font-size="14.00">Hardware Validation </text>
<text text-anchor="middle" x="933" y="-70.3" font-family="Times,serif" font-size="14.00">(VHDL/SystemVerilog) [GHDL / Icarus Verilog]</text>
</g>
<!-- Model&#45;&gt;Validation -->
<g id="edge3" class="edge">
<title>Model&#45;&gt;Validation</title>
<path fill="none" stroke="black" d="M723.39,-75C723.39,-75 748.87,-75 748.87,-75"/>
<polygon fill="black" stroke="black" points="748.87,-78.5 758.87,-75 748.87,-71.5 748.87,-78.5"/>
</g>
<!-- Validation&#45;&gt;Model -->
<g id="edge10" class="edge">
<title>Validation&#45;&gt;Model</title>
<path fill="none" stroke="black" d="M758.6,-88C758.6,-88 733.39,-88 733.39,-88"/>
<polygon fill="black" stroke="black" points="733.39,-84.5 723.39,-88 733.39,-91.5 733.39,-84.5"/>
</g>
<!-- Design -->
<g id="node5" class="node">
<title>Design</title>
<polygon fill="none" stroke="black" points="1143,-62.5 1143,-100.5 1329,-100.5 1329,-62.5 1143,-62.5"/>
<text text-anchor="middle" x="1236" y="-85.3" font-family="Times,serif" font-size="14.00">Hardware Design </text>
<text text-anchor="middle" x="1236" y="-70.3" font-family="Times,serif" font-size="14.00">(VHDL/Verilog) [Emacs]</text>
</g>
<!-- Validation&#45;&gt;Design -->
<g id="edge4" class="edge">
<title>Validation&#45;&gt;Design</title>
<path fill="none" stroke="black" d="M1107.06,-81.5C1107.06,-81.5 1132.92,-81.5 1132.92,-81.5"/>
<polygon fill="black" stroke="black" points="1132.92,-85 1142.92,-81.5 1132.92,-78 1132.92,-85"/>
</g>
<!-- Verification -->
<g id="node6" class="node">
<title>Verification</title>
<polygon fill="none" stroke="black" points="1365,-62.5 1365,-100.5 1713,-100.5 1713,-62.5 1365,-62.5"/>
<text text-anchor="middle" x="1539" y="-85.3" font-family="Times,serif" font-size="14.00">Hardware Verification </text>
<text text-anchor="middle" x="1539" y="-70.3" font-family="Times,serif" font-size="14.00">(VHDL/SystemVerilog) [GHDL / Icarus Verilog]</text>
</g>
<!-- Design&#45;&gt;Verification -->
<g id="edge5" class="edge">
<title>Design&#45;&gt;Verification</title>
<path fill="none" stroke="black" d="M1329.38,-75C1329.38,-75 1354.78,-75 1354.78,-75"/>
<polygon fill="black" stroke="black" points="1354.78,-78.5 1364.78,-75 1354.78,-71.5 1354.78,-78.5"/>
</g>
<!-- Verification&#45;&gt;Design -->
<g id="edge11" class="edge">
<title>Verification&#45;&gt;Design</title>
<path fill="none" stroke="black" d="M1364.94,-88C1364.94,-88 1339.08,-88 1339.08,-88"/>
<polygon fill="black" stroke="black" points="1339.08,-84.5 1329.08,-88 1339.08,-91.5 1339.08,-84.5"/>
</g>
<!-- Quality -->
<g id="node7" class="node">
<title>Quality</title>
<polygon fill="none" stroke="black" points="1749,-24.5 1749,-62.5 1900,-62.5 1900,-24.5 1749,-24.5"/>
<text text-anchor="middle" x="1824.5" y="-47.3" font-family="Times,serif" font-size="14.00">Quality Assurance </text>
<text text-anchor="middle" x="1824.5" y="-32.3" font-family="Times,serif" font-size="14.00">(TeX) [Emacs]</text>
</g>
<!-- Verification&#45;&gt;Quality -->
<g id="edge6" class="edge">
<title>Verification&#45;&gt;Quality</title>
<path fill="none" stroke="black" d="M1713.2,-82C1772.91,-82 1825,-82 1825,-82 1825,-82 1825,-72.75 1825,-72.75"/>
<polygon fill="black" stroke="black" points="1828.5,-72.75 1825,-62.75 1821.5,-72.75 1828.5,-72.75"/>
</g>
<!-- Quality&#45;&gt;Requirements -->
<g id="edge12" class="edge">
<title>Quality&#45;&gt;Requirements</title>
<path fill="none" stroke="black" d="M1749,-33.67C1749,-33.67 222.27,-33.67 222.27,-33.67"/>
<polygon fill="black" stroke="black" points="222.27,-30.17 212.27,-33.67 222.27,-37.17 222.27,-30.17"/>
</g>
<!-- Certification -->
<g id="node8" class="node">
<title>Certification</title>
<polygon fill="none" stroke="black" points="1936,-24.5 1936,-62.5 2052,-62.5 2052,-24.5 1936,-24.5"/>
<text text-anchor="middle" x="1994" y="-47.3" font-family="Times,serif" font-size="14.00">Certification </text>
<text text-anchor="middle" x="1994" y="-32.3" font-family="Times,serif" font-size="14.00">(TeX) [Emacs]</text>
</g>
<!-- Quality&#45;&gt;Certification -->
<g id="edge7" class="edge">
<title>Quality&#45;&gt;Certification</title>
<path fill="none" stroke="black" d="M1900.33,-43.5C1900.33,-43.5 1925.78,-43.5 1925.78,-43.5"/>
<polygon fill="black" stroke="black" points="1925.78,-47 1935.78,-43.5 1925.78,-40 1925.78,-47"/>
</g>
<!-- Lifecycle -->
<g id="node9" class="node">
<title>Lifecycle</title>
<polygon fill="none" stroke="black" points="2088,-0.5 2088,-38.5 2264,-38.5 2264,-0.5 2088,-0.5"/>
<text text-anchor="middle" x="2176" y="-23.3" font-family="Times,serif" font-size="14.00">Design Lifecycle Data </text>
<text text-anchor="middle" x="2176" y="-8.3" font-family="Times,serif" font-size="14.00">(TeX) [Emacs]</text>
</g>
<!-- Certification&#45;&gt;Lifecycle -->
<g id="edge8" class="edge">
<title>Certification&#45;&gt;Lifecycle</title>
<path fill="none" stroke="black" d="M2052.09,-31.5C2052.09,-31.5 2077.95,-31.5 2077.95,-31.5"/>
<polygon fill="black" stroke="black" points="2077.95,-35 2087.95,-31.5 2077.95,-28 2077.95,-35"/>
</g>
<!-- Lifecycle&#45;&gt;Requirements -->
<g id="edge9" class="edge">
<title>Lifecycle&#45;&gt;Requirements</title>
<path fill="none" stroke="black" d="M2087.72,-19C2087.72,-19 222.24,-19 222.24,-19"/>
<polygon fill="black" stroke="black" points="222.24,-15.5 212.24,-19 222.24,-22.5 222.24,-15.5"/>
</g>
</g>
</svg>
