<?xml version="1.0" encoding="UTF-8" standalone="no"?>
<!DOCTYPE svg PUBLIC "-//W3C//DTD SVG 1.1//EN"
 "http://www.w3.org/Graphics/SVG/1.1/DTD/svg11.dtd">
<!-- Generated by graphviz version 2.43.0 (0)
 -->
<!-- Title: Project Pages: 1 -->
<svg width="1976pt" height="109pt"
 viewBox="0.00 0.00 1976.00 109.00" xmlns="http://www.w3.org/2000/svg" xmlns:xlink="http://www.w3.org/1999/xlink">
<g id="graph0" class="graph" transform="scale(1 1) rotate(0) translate(4 105)">
<title>Project</title>
<polygon fill="white" stroke="transparent" points="-4,4 -4,-105 1972,-105 1972,4 -4,4"/>
<!-- Requirements -->
<g id="node1" class="node">
<title>Requirements</title>
<polygon fill="none" stroke="black" points="0,-14.5 0,-52.5 267,-52.5 267,-14.5 0,-14.5"/>
<text text-anchor="middle" x="133.5" y="-37.3" font-family="Times,serif" font-size="14.00">Requirements </text>
<text text-anchor="middle" x="133.5" y="-22.3" font-family="Times,serif" font-size="14.00">(Matlab/Python/PSL/UML) [Emacs]</text>
</g>
<!-- Source -->
<g id="node2" class="node">
<title>Source</title>
<polygon fill="none" stroke="black" points="303,-62.5 303,-100.5 503,-100.5 503,-62.5 303,-62.5"/>
<text text-anchor="middle" x="403" y="-85.3" font-family="Times,serif" font-size="14.00">Source </text>
<text text-anchor="middle" x="403" y="-70.3" font-family="Times,serif" font-size="14.00">(C/C++/Go/Rust) [Emacs]</text>
</g>
<!-- Requirements&#45;&gt;Source -->
<g id="edge1" class="edge">
<title>Requirements&#45;&gt;Source</title>
<path fill="none" stroke="black" d="M267.07,-43.33C334.83,-43.33 403,-43.33 403,-43.33 403,-43.33 403,-52.42 403,-52.42"/>
<polygon fill="black" stroke="black" points="399.5,-52.42 403,-62.42 406.5,-52.42 399.5,-52.42"/>
</g>
<!-- Model -->
<g id="node3" class="node">
<title>Model</title>
<polygon fill="none" stroke="black" points="539,-62.5 539,-100.5 739,-100.5 739,-62.5 539,-62.5"/>
<text text-anchor="middle" x="639" y="-85.3" font-family="Times,serif" font-size="14.00">Software Model </text>
<text text-anchor="middle" x="639" y="-70.3" font-family="Times,serif" font-size="14.00">(C/C++/Go/Rust) [Emacs]</text>
</g>
<!-- Source&#45;&gt;Model -->
<g id="edge2" class="edge">
<title>Source&#45;&gt;Model</title>
<path fill="none" stroke="black" d="M503.09,-81.5C503.09,-81.5 528.76,-81.5 528.76,-81.5"/>
<polygon fill="black" stroke="black" points="528.76,-85 538.76,-81.5 528.76,-78 528.76,-85"/>
</g>
<!-- Validation -->
<g id="node4" class="node">
<title>Validation</title>
<polygon fill="none" stroke="black" points="775,-62.5 775,-100.5 960,-100.5 960,-62.5 775,-62.5"/>
<text text-anchor="middle" x="867.5" y="-85.3" font-family="Times,serif" font-size="14.00">Software Validation </text>
<text text-anchor="middle" x="867.5" y="-70.3" font-family="Times,serif" font-size="14.00">(C/C++/Go/Rust) [GCC]</text>
</g>
<!-- Model&#45;&gt;Validation -->
<g id="edge3" class="edge">
<title>Model&#45;&gt;Validation</title>
<path fill="none" stroke="black" d="M739.22,-75C739.22,-75 764.93,-75 764.93,-75"/>
<polygon fill="black" stroke="black" points="764.93,-78.5 774.93,-75 764.93,-71.5 764.93,-78.5"/>
</g>
<!-- Validation&#45;&gt;Model -->
<g id="edge10" class="edge">
<title>Validation&#45;&gt;Model</title>
<path fill="none" stroke="black" d="M774.89,-88C774.89,-88 749.2,-88 749.2,-88"/>
<polygon fill="black" stroke="black" points="749.2,-84.5 739.2,-88 749.2,-91.5 749.2,-84.5"/>
</g>
<!-- Design -->
<g id="node5" class="node">
<title>Design</title>
<polygon fill="none" stroke="black" points="996,-62.5 996,-100.5 1196,-100.5 1196,-62.5 996,-62.5"/>
<text text-anchor="middle" x="1096" y="-85.3" font-family="Times,serif" font-size="14.00">Software Design </text>
<text text-anchor="middle" x="1096" y="-70.3" font-family="Times,serif" font-size="14.00">(C/C++/Go/Rust) [Emacs]</text>
</g>
<!-- Validation&#45;&gt;Design -->
<g id="edge4" class="edge">
<title>Validation&#45;&gt;Design</title>
<path fill="none" stroke="black" d="M960.11,-81.5C960.11,-81.5 985.8,-81.5 985.8,-81.5"/>
<polygon fill="black" stroke="black" points="985.8,-85 995.8,-81.5 985.8,-78 985.8,-85"/>
</g>
<!-- Verification -->
<g id="node6" class="node">
<title>Verification</title>
<polygon fill="none" stroke="black" points="1232,-62.5 1232,-100.5 1417,-100.5 1417,-62.5 1232,-62.5"/>
<text text-anchor="middle" x="1324.5" y="-85.3" font-family="Times,serif" font-size="14.00">Software Verification </text>
<text text-anchor="middle" x="1324.5" y="-70.3" font-family="Times,serif" font-size="14.00">(C/C++/Go/Rust) [GCC]</text>
</g>
<!-- Design&#45;&gt;Verification -->
<g id="edge5" class="edge">
<title>Design&#45;&gt;Verification</title>
<path fill="none" stroke="black" d="M1196.22,-75C1196.22,-75 1221.93,-75 1221.93,-75"/>
<polygon fill="black" stroke="black" points="1221.93,-78.5 1231.93,-75 1221.93,-71.5 1221.93,-78.5"/>
</g>
<!-- Verification&#45;&gt;Design -->
<g id="edge11" class="edge">
<title>Verification&#45;&gt;Design</title>
<path fill="none" stroke="black" d="M1231.89,-88C1231.89,-88 1206.2,-88 1206.2,-88"/>
<polygon fill="black" stroke="black" points="1206.2,-84.5 1196.2,-88 1206.2,-91.5 1206.2,-84.5"/>
</g>
<!-- Quality -->
<g id="node7" class="node">
<title>Quality</title>
<polygon fill="none" stroke="black" points="1453,-24.5 1453,-62.5 1604,-62.5 1604,-24.5 1453,-24.5"/>
<text text-anchor="middle" x="1528.5" y="-47.3" font-family="Times,serif" font-size="14.00">Quality Assurance </text>
<text text-anchor="middle" x="1528.5" y="-32.3" font-family="Times,serif" font-size="14.00">(Ada) [Emacs]</text>
</g>
<!-- Verification&#45;&gt;Quality -->
<g id="edge6" class="edge">
<title>Verification&#45;&gt;Quality</title>
<path fill="none" stroke="black" d="M1417.18,-82C1471.28,-82 1529,-82 1529,-82 1529,-82 1529,-72.75 1529,-72.75"/>
<polygon fill="black" stroke="black" points="1532.5,-72.75 1529,-62.75 1525.5,-72.75 1532.5,-72.75"/>
</g>
<!-- Quality&#45;&gt;Requirements -->
<g id="edge12" class="edge">
<title>Quality&#45;&gt;Requirements</title>
<path fill="none" stroke="black" d="M1452.51,-33.67C1452.51,-33.67 277.17,-33.67 277.17,-33.67"/>
<polygon fill="black" stroke="black" points="277.17,-30.17 267.17,-33.67 277.17,-37.17 277.17,-30.17"/>
</g>
<!-- Certification -->
<g id="node8" class="node">
<title>Certification</title>
<polygon fill="none" stroke="black" points="1640,-24.5 1640,-62.5 1756,-62.5 1756,-24.5 1640,-24.5"/>
<text text-anchor="middle" x="1698" y="-47.3" font-family="Times,serif" font-size="14.00">Certification </text>
<text text-anchor="middle" x="1698" y="-32.3" font-family="Times,serif" font-size="14.00">(TeX) [Emacs]</text>
</g>
<!-- Quality&#45;&gt;Certification -->
<g id="edge7" class="edge">
<title>Quality&#45;&gt;Certification</title>
<path fill="none" stroke="black" d="M1604.33,-43.5C1604.33,-43.5 1629.78,-43.5 1629.78,-43.5"/>
<polygon fill="black" stroke="black" points="1629.78,-47 1639.78,-43.5 1629.78,-40 1629.78,-47"/>
</g>
<!-- Lifecycle -->
<g id="node9" class="node">
<title>Lifecycle</title>
<polygon fill="none" stroke="black" points="1792,-0.5 1792,-38.5 1968,-38.5 1968,-0.5 1792,-0.5"/>
<text text-anchor="middle" x="1880" y="-23.3" font-family="Times,serif" font-size="14.00">Design Lifecycle Data </text>
<text text-anchor="middle" x="1880" y="-8.3" font-family="Times,serif" font-size="14.00">(Java/Scala) [Emacs]</text>
</g>
<!-- Certification&#45;&gt;Lifecycle -->
<g id="edge8" class="edge">
<title>Certification&#45;&gt;Lifecycle</title>
<path fill="none" stroke="black" d="M1756.09,-31.5C1756.09,-31.5 1781.95,-31.5 1781.95,-31.5"/>
<polygon fill="black" stroke="black" points="1781.95,-35 1791.95,-31.5 1781.95,-28 1781.95,-35"/>
</g>
<!-- Lifecycle&#45;&gt;Requirements -->
<g id="edge9" class="edge">
<title>Lifecycle&#45;&gt;Requirements</title>
<path fill="none" stroke="black" d="M1791.89,-19C1791.89,-19 277.16,-19 277.16,-19"/>
<polygon fill="black" stroke="black" points="277.16,-15.5 267.16,-19 277.16,-22.5 277.16,-15.5"/>
</g>
</g>
</svg>
