<?xml version="1.0" encoding="UTF-8" standalone="no"?>
<!DOCTYPE svg PUBLIC "-//W3C//DTD SVG 1.1//EN"
 "http://www.w3.org/Graphics/SVG/1.1/DTD/svg11.dtd">
<!-- Generated by graphviz version 2.43.0 (0)
 -->
<!-- Title: Project Pages: 1 -->
<svg width="1921pt" height="109pt"
 viewBox="0.00 0.00 1921.00 109.00" xmlns="http://www.w3.org/2000/svg" xmlns:xlink="http://www.w3.org/1999/xlink">
<g id="graph0" class="graph" transform="scale(1 1) rotate(0) translate(4 105)">
<title>Project</title>
<polygon fill="white" stroke="transparent" points="-4,4 -4,-105 1917,-105 1917,4 -4,4"/>
<!-- Requirements -->
<g id="node1" class="node">
<title>Requirements</title>
<polygon fill="none" stroke="black" points="0,-14.5 0,-52.5 212,-52.5 212,-14.5 0,-14.5"/>
<text text-anchor="middle" x="106" y="-37.3" font-family="Times,serif" font-size="14.00">Requirements </text>
<text text-anchor="middle" x="106" y="-22.3" font-family="Times,serif" font-size="14.00">(Matlab/PSL/UML) [Emacs]</text>
</g>
<!-- Source -->
<g id="node2" class="node">
<title>Source</title>
<polygon fill="none" stroke="black" points="248,-62.5 248,-100.5 448,-100.5 448,-62.5 248,-62.5"/>
<text text-anchor="middle" x="348" y="-85.3" font-family="Times,serif" font-size="14.00">Source </text>
<text text-anchor="middle" x="348" y="-70.3" font-family="Times,serif" font-size="14.00">(C/C++/Go/Rust) [Emacs]</text>
</g>
<!-- Requirements&#45;&gt;Source -->
<g id="edge1" class="edge">
<title>Requirements&#45;&gt;Source</title>
<path fill="none" stroke="black" d="M212.14,-43.33C277.17,-43.33 348,-43.33 348,-43.33 348,-43.33 348,-52.42 348,-52.42"/>
<polygon fill="black" stroke="black" points="344.5,-52.42 348,-62.42 351.5,-52.42 344.5,-52.42"/>
</g>
<!-- Model -->
<g id="node3" class="node">
<title>Model</title>
<polygon fill="none" stroke="black" points="484,-62.5 484,-100.5 684,-100.5 684,-62.5 484,-62.5"/>
<text text-anchor="middle" x="584" y="-85.3" font-family="Times,serif" font-size="14.00">Software Model </text>
<text text-anchor="middle" x="584" y="-70.3" font-family="Times,serif" font-size="14.00">(C/C++/Go/Rust) [Emacs]</text>
</g>
<!-- Source&#45;&gt;Model -->
<g id="edge2" class="edge">
<title>Source&#45;&gt;Model</title>
<path fill="none" stroke="black" d="M448.09,-81.5C448.09,-81.5 473.76,-81.5 473.76,-81.5"/>
<polygon fill="black" stroke="black" points="473.76,-85 483.76,-81.5 473.76,-78 473.76,-85"/>
</g>
<!-- Validation -->
<g id="node4" class="node">
<title>Validation</title>
<polygon fill="none" stroke="black" points="720,-62.5 720,-100.5 905,-100.5 905,-62.5 720,-62.5"/>
<text text-anchor="middle" x="812.5" y="-85.3" font-family="Times,serif" font-size="14.00">Software Validation </text>
<text text-anchor="middle" x="812.5" y="-70.3" font-family="Times,serif" font-size="14.00">(C/C++/Go/Rust) [GCC]</text>
</g>
<!-- Model&#45;&gt;Validation -->
<g id="edge3" class="edge">
<title>Model&#45;&gt;Validation</title>
<path fill="none" stroke="black" d="M684.22,-75C684.22,-75 709.93,-75 709.93,-75"/>
<polygon fill="black" stroke="black" points="709.93,-78.5 719.93,-75 709.93,-71.5 709.93,-78.5"/>
</g>
<!-- Validation&#45;&gt;Model -->
<g id="edge10" class="edge">
<title>Validation&#45;&gt;Model</title>
<path fill="none" stroke="black" d="M719.89,-88C719.89,-88 694.2,-88 694.2,-88"/>
<polygon fill="black" stroke="black" points="694.2,-84.5 684.2,-88 694.2,-91.5 694.2,-84.5"/>
</g>
<!-- Design -->
<g id="node5" class="node">
<title>Design</title>
<polygon fill="none" stroke="black" points="941,-62.5 941,-100.5 1141,-100.5 1141,-62.5 941,-62.5"/>
<text text-anchor="middle" x="1041" y="-85.3" font-family="Times,serif" font-size="14.00">Software Design </text>
<text text-anchor="middle" x="1041" y="-70.3" font-family="Times,serif" font-size="14.00">(C/C++/Go/Rust) [Emacs]</text>
</g>
<!-- Validation&#45;&gt;Design -->
<g id="edge4" class="edge">
<title>Validation&#45;&gt;Design</title>
<path fill="none" stroke="black" d="M905.11,-81.5C905.11,-81.5 930.8,-81.5 930.8,-81.5"/>
<polygon fill="black" stroke="black" points="930.8,-85 940.8,-81.5 930.8,-78 930.8,-85"/>
</g>
<!-- Verification -->
<g id="node6" class="node">
<title>Verification</title>
<polygon fill="none" stroke="black" points="1177,-62.5 1177,-100.5 1362,-100.5 1362,-62.5 1177,-62.5"/>
<text text-anchor="middle" x="1269.5" y="-85.3" font-family="Times,serif" font-size="14.00">Software Verification </text>
<text text-anchor="middle" x="1269.5" y="-70.3" font-family="Times,serif" font-size="14.00">(C/C++/Go/Rust) [GCC]</text>
</g>
<!-- Design&#45;&gt;Verification -->
<g id="edge5" class="edge">
<title>Design&#45;&gt;Verification</title>
<path fill="none" stroke="black" d="M1141.22,-75C1141.22,-75 1166.93,-75 1166.93,-75"/>
<polygon fill="black" stroke="black" points="1166.93,-78.5 1176.93,-75 1166.93,-71.5 1166.93,-78.5"/>
</g>
<!-- Verification&#45;&gt;Design -->
<g id="edge11" class="edge">
<title>Verification&#45;&gt;Design</title>
<path fill="none" stroke="black" d="M1176.89,-88C1176.89,-88 1151.2,-88 1151.2,-88"/>
<polygon fill="black" stroke="black" points="1151.2,-84.5 1141.2,-88 1151.2,-91.5 1151.2,-84.5"/>
</g>
<!-- Quality -->
<g id="node7" class="node">
<title>Quality</title>
<polygon fill="none" stroke="black" points="1398,-24.5 1398,-62.5 1549,-62.5 1549,-24.5 1398,-24.5"/>
<text text-anchor="middle" x="1473.5" y="-47.3" font-family="Times,serif" font-size="14.00">Quality Assurance </text>
<text text-anchor="middle" x="1473.5" y="-32.3" font-family="Times,serif" font-size="14.00">(Ada) [Emacs]</text>
</g>
<!-- Verification&#45;&gt;Quality -->
<g id="edge6" class="edge">
<title>Verification&#45;&gt;Quality</title>
<path fill="none" stroke="black" d="M1362.18,-82C1416.28,-82 1474,-82 1474,-82 1474,-82 1474,-72.75 1474,-72.75"/>
<polygon fill="black" stroke="black" points="1477.5,-72.75 1474,-62.75 1470.5,-72.75 1477.5,-72.75"/>
</g>
<!-- Quality&#45;&gt;Requirements -->
<g id="edge12" class="edge">
<title>Quality&#45;&gt;Requirements</title>
<path fill="none" stroke="black" d="M1397.54,-33.67C1397.54,-33.67 222.44,-33.67 222.44,-33.67"/>
<polygon fill="black" stroke="black" points="222.44,-30.17 212.44,-33.67 222.44,-37.17 222.44,-30.17"/>
</g>
<!-- Certification -->
<g id="node8" class="node">
<title>Certification</title>
<polygon fill="none" stroke="black" points="1585,-24.5 1585,-62.5 1701,-62.5 1701,-24.5 1585,-24.5"/>
<text text-anchor="middle" x="1643" y="-47.3" font-family="Times,serif" font-size="14.00">Certification </text>
<text text-anchor="middle" x="1643" y="-32.3" font-family="Times,serif" font-size="14.00">(TeX) [Emacs]</text>
</g>
<!-- Quality&#45;&gt;Certification -->
<g id="edge7" class="edge">
<title>Quality&#45;&gt;Certification</title>
<path fill="none" stroke="black" d="M1549.33,-43.5C1549.33,-43.5 1574.78,-43.5 1574.78,-43.5"/>
<polygon fill="black" stroke="black" points="1574.78,-47 1584.78,-43.5 1574.78,-40 1574.78,-47"/>
</g>
<!-- Lifecycle -->
<g id="node9" class="node">
<title>Lifecycle</title>
<polygon fill="none" stroke="black" points="1737,-0.5 1737,-38.5 1913,-38.5 1913,-0.5 1737,-0.5"/>
<text text-anchor="middle" x="1825" y="-23.3" font-family="Times,serif" font-size="14.00">Design Lifecycle Data </text>
<text text-anchor="middle" x="1825" y="-8.3" font-family="Times,serif" font-size="14.00">(TeX) [Emacs]</text>
</g>
<!-- Certification&#45;&gt;Lifecycle -->
<g id="edge8" class="edge">
<title>Certification&#45;&gt;Lifecycle</title>
<path fill="none" stroke="black" d="M1701.09,-31.5C1701.09,-31.5 1726.95,-31.5 1726.95,-31.5"/>
<polygon fill="black" stroke="black" points="1726.95,-35 1736.95,-31.5 1726.95,-28 1726.95,-35"/>
</g>
<!-- Lifecycle&#45;&gt;Requirements -->
<g id="edge9" class="edge">
<title>Lifecycle&#45;&gt;Requirements</title>
<path fill="none" stroke="black" d="M1736.8,-19C1736.8,-19 222.07,-19 222.07,-19"/>
<polygon fill="black" stroke="black" points="222.07,-15.5 212.07,-19 222.07,-22.5 222.07,-15.5"/>
</g>
</g>
</svg>
