<?xml version="1.0" encoding="UTF-8" standalone="no"?>
<!DOCTYPE svg PUBLIC "-//W3C//DTD SVG 1.1//EN"
 "http://www.w3.org/Graphics/SVG/1.1/DTD/svg11.dtd">
<!-- Generated by graphviz version 2.43.0 (0)
 -->
<!-- Title: Project Pages: 1 -->
<svg width="806pt" height="216pt"
 viewBox="0.00 0.00 806.00 216.00" xmlns="http://www.w3.org/2000/svg" xmlns:xlink="http://www.w3.org/1999/xlink">
<g id="graph0" class="graph" transform="scale(1 1) rotate(0) translate(4 212)">
<title>Project</title>
<polygon fill="white" stroke="transparent" points="-4,4 -4,-212 802,-212 802,4 -4,4"/>
<g id="clust1" class="cluster">
<title>cluster TestBench</title>
<polygon fill="none" stroke="black" points="8,-8 8,-200 790,-200 790,-8 8,-8"/>
<text text-anchor="middle" x="399" y="-184.8" font-family="Times,serif" font-size="14.00">OSVVM TestBench</text>
</g>
<g id="clust2" class="cluster">
<title>cluster Test</title>
<polygon fill="none" stroke="black" points="94,-16 94,-169 782,-169 782,-16 94,-16"/>
<text text-anchor="middle" x="438" y="-153.8" font-family="Times,serif" font-size="14.00">Test</text>
</g>
<g id="clust3" class="cluster">
<title>cluster Environment</title>
<polygon fill="none" stroke="black" points="356,-24 356,-138 774,-138 774,-24 356,-24"/>
<text text-anchor="middle" x="565" y="-122.8" font-family="Times,serif" font-size="14.00">Environment</text>
</g>
<g id="clust4" class="cluster">
<title>cluster Agent</title>
<polygon fill="none" stroke="black" points="486,-32 486,-107 766,-107 766,-32 486,-32"/>
<text text-anchor="middle" x="626" y="-91.8" font-family="Times,serif" font-size="14.00">Agent</text>
</g>
<g id="clust5" class="cluster">
<title>cluster Scoreboard</title>
<polygon fill="none" stroke="black" points="364,-32 364,-107 478,-107 478,-32 364,-32"/>
<text text-anchor="middle" x="421" y="-91.8" font-family="Times,serif" font-size="14.00">Scoreboard</text>
</g>
<g id="clust6" class="cluster">
<title>cluster Sequences</title>
<polygon fill="none" stroke="black" points="240,-32 240,-107 348,-107 348,-32 240,-32"/>
<text text-anchor="middle" x="294" y="-91.8" font-family="Times,serif" font-size="14.00">Sequences</text>
</g>
<g id="clust7" class="cluster">
<title>cluster Configuration</title>
<polygon fill="none" stroke="black" points="102,-32 102,-107 232,-107 232,-32 102,-32"/>
<text text-anchor="middle" x="167" y="-91.8" font-family="Times,serif" font-size="14.00">Configuration</text>
</g>
<g id="clust8" class="cluster">
<title>cluster DUT</title>
<polygon fill="none" stroke="black" points="16,-32 16,-107 86,-107 86,-32 16,-32"/>
<text text-anchor="middle" x="51" y="-91.8" font-family="Times,serif" font-size="14.00">DUT</text>
</g>
<!-- Sequencer -->
<g id="node1" class="node">
<title>Sequencer</title>
<polygon fill="none" stroke="black" points="758,-76 666,-76 666,-40 758,-40 758,-76"/>
<text text-anchor="middle" x="712" y="-54.3" font-family="Times,serif" font-size="14.00">Sequencer</text>
</g>
<!-- Driver -->
<g id="node2" class="node">
<title>Driver</title>
<polygon fill="none" stroke="black" points="648,-76 586,-76 586,-40 648,-40 648,-76"/>
<text text-anchor="middle" x="617" y="-54.3" font-family="Times,serif" font-size="14.00">Driver</text>
</g>
<!-- Monitor -->
<g id="node3" class="node">
<title>Monitor</title>
<polygon fill="none" stroke="black" points="568,-76 494,-76 494,-40 568,-40 568,-76"/>
<text text-anchor="middle" x="531" y="-54.3" font-family="Times,serif" font-size="14.00">Monitor</text>
</g>
<!-- Scoreboard -->
<g id="node4" class="node">
<title>Scoreboard</title>
<polygon fill="none" stroke="black" points="470,-76 372,-76 372,-40 470,-40 470,-76"/>
<text text-anchor="middle" x="421" y="-54.3" font-family="Times,serif" font-size="14.00">Scoreboard</text>
</g>
<!-- Sequences -->
<g id="node5" class="node">
<title>Sequences</title>
<polygon fill="none" stroke="black" points="340.5,-76 247.5,-76 247.5,-40 340.5,-40 340.5,-76"/>
<text text-anchor="middle" x="294" y="-54.3" font-family="Times,serif" font-size="14.00">Sequences</text>
</g>
<!-- Configuration -->
<g id="node6" class="node">
<title>Configuration</title>
<polygon fill="none" stroke="black" points="224,-76 110,-76 110,-40 224,-40 224,-76"/>
<text text-anchor="middle" x="167" y="-54.3" font-family="Times,serif" font-size="14.00">Configuration</text>
</g>
<!-- DUT -->
<g id="node7" class="node">
<title>DUT</title>
<polygon fill="none" stroke="black" points="78,-76 24,-76 24,-40 78,-40 78,-76"/>
<text text-anchor="middle" x="51" y="-54.3" font-family="Times,serif" font-size="14.00">DUT</text>
</g>
</g>
</svg>
