<?xml version="1.0" encoding="UTF-8" standalone="no"?>
<svg
   xmlns:dc="http://purl.org/dc/elements/1.1/"
   xmlns:cc="http://creativecommons.org/ns#"
   xmlns:rdf="http://www.w3.org/1999/02/22-rdf-syntax-ns#"
   xmlns:svg="http://www.w3.org/2000/svg"
   xmlns="http://www.w3.org/2000/svg"
   xmlns:sodipodi="http://sodipodi.sourceforge.net/DTD/sodipodi-0.dtd"
   xmlns:inkscape="http://www.inkscape.org/namespaces/inkscape"
   version="1.2"
   id="Layer_1"
   width="400"
   height="399.99997"
   x="0px"
   y="0px"
   viewBox="0 0 229.65067 241.3253"
   xml:space="preserve"
   sodipodi:docname="open-source-hardware.svg"
   inkscape:version="0.92.4 5da689c313, 2019-01-14"><metadata
   id="metadata937"><rdf:RDF><cc:Work
       rdf:about=""><dc:format>image/svg+xml</dc:format><dc:type
         rdf:resource="http://purl.org/dc/dcmitype/StillImage" /><dc:title></dc:title></cc:Work></rdf:RDF></metadata><defs
   id="defs935" /><sodipodi:namedview
   pagecolor="#ffffff"
   bordercolor="#666666"
   borderopacity="1"
   objecttolerance="10"
   gridtolerance="10"
   guidetolerance="10"
   inkscape:pageopacity="0"
   inkscape:pageshadow="2"
   inkscape:window-width="1533"
   inkscape:window-height="845"
   id="namedview933"
   showgrid="false"
   inkscape:zoom="1.6450003"
   inkscape:cx="30.851086"
   inkscape:cy="199.99998"
   inkscape:window-x="67"
   inkscape:window-y="27"
   inkscape:window-maximized="1"
   inkscape:current-layer="Layer_1"
   fit-margin-top="0"
   fit-margin-left="0"
   fit-margin-right="0"
   fit-margin-bottom="0" />
<path
   d="m 235.63656,115.35186 -29.63029,-6.12166 c -0.72099,-0.15017 -1.51046,-0.90312 -1.75379,-1.67607 L 195.17,84.012768 c -0.33885,-0.726906 -0.27397,-1.868333 0.14419,-2.545172 l 17.26376,-27.954863 c 0.41276,-0.672838 0.33165,-1.696116 -0.18926,-2.274837 L 190.82612,27.282022 c -0.52091,-0.578722 -1.44015,-0.672839 -2.04577,-0.210262 l -25.60364,19.520342 c -0.60563,0.462577 -1.64383,0.544679 -2.30171,0.184231 l -20.5406,-9.341649 c -0.69754,-0.25632 -1.37706,-1.123402 -1.51404,-1.926404 L 133.11563,1.45982 C 132.98225,0.65682 132.27028,0 131.53489,0 h -30.49727 c -0.73359,0 -1.445554,0.65682 -1.578934,1.45982 l -5.702912,34.04846 c -0.136985,0.803002 -0.814701,1.670084 -1.514048,1.926404 l -20.542395,9.341649 c -0.659692,0.360448 -1.697897,0.278346 -2.301713,-0.184231 L 43.795778,27.07176 C 43.188357,26.609183 42.26731,26.7033 41.748208,27.282022 L 20.18383,51.237896 c -0.519101,0.578721 -0.605618,1.601999 -0.189254,2.274837 l 17.26556,27.954863 c 0.41456,0.676839 0.479449,1.818266 0.142392,2.545172 l -9.084291,23.541362 c -0.241527,0.77295 -1.029192,1.5259 -1.753774,1.67607 l -29.628481,6.12166 c -0.7245888,0.15218 -1.3139778,0.94116 -1.3139778,1.75818 l 0.002,33.88026 c 0,0.81701 0.591199,1.61201 1.3139878,1.75818 l 28.902101,5.97546 c 0.722778,0.14618 1.496025,0.90914 1.715921,1.6881 l 9.023009,25.04122 c 0.322636,0.73492 0.246934,1.88435 -0.171232,2.55719 L 19.99118,214.5896 c -0.414562,0.67284 -0.329847,1.69812 0.189254,2.27684 l 21.56618,23.95587 c 0.519103,0.57472 1.44015,0.66884 2.047571,0.21026 l 23.500196,-17.92034 c 0.60562,-0.46057 1.620393,-0.49661 2.253049,-0.0861 l 10.364022,6.14765 c 0.656088,0.37248 1.422124,0.0581 1.703304,-0.69685 l 21.369504,-57.36556 c 0.28298,-0.75494 0,-1.71814 -0.62725,-2.14466 l -2.593704,-1.7642 c -0.47945,-0.32442 -1.130132,-0.88311 -1.640223,-1.39575 -9.356459,-6.65625 -15.564058,-18.30078 -15.564058,-31.56131 0,-20.69382 15.100831,-37.468733 33.725435,-37.468733 18.6246,0 33.72362,16.774913 33.72362,37.468733 0,13.26053 -6.20578,24.90506 -15.56406,31.56135 -0.50648,0.51264 -1.15896,1.07133 -1.63661,1.39575 l -2.59371,1.7642 c -0.62365,0.42652 -0.90842,1.38972 -0.62725,2.14466 l 21.36793,57.36754 c 0.28117,0.75495 1.04541,1.06734 1.70329,0.69687 l 10.36403,-6.14767 c 0.63445,-0.41052 1.64744,-0.37646 2.25305,0.0861 l 23.502,17.92034 c 0.60562,0.45856 1.52846,0.36444 2.04577,-0.21027 l 21.56617,-23.95583 c 0.52091,-0.57872 0.60562,-1.604 0.18926,-2.27684 l -16.41842,-26.57919 c -0.41456,-0.67283 -0.49206,-1.82226 -0.16942,-2.55717 l 9.02301,-25.04123 c 0.22169,-0.77896 0.98953,-1.54192 1.71411,-1.68809 l 28.90211,-5.97546 c 0.72096,-0.14618 1.31398,-0.94118 1.31398,-1.7582 l 0.004,-33.88025 c 0.003,-0.81903 -0.5894,-1.608 -1.31036,-1.76019"
   id="path896"
   style="fill:#000000;fill-opacity:1;stroke-width:1.89983666"
   inkscape:connector-curvature="0" />

















</svg>