<?xml version="1.0" encoding="UTF-8" standalone="no"?>
<!DOCTYPE svg PUBLIC "-//W3C//DTD SVG 1.1//EN"
 "http://www.w3.org/Graphics/SVG/1.1/DTD/svg11.dtd">
<!-- Generated by graphviz version 2.43.0 (0)
 -->
<!-- Title: Project Pages: 1 -->
<svg width="301pt" height="509pt"
 viewBox="0.00 0.00 301.00 509.00" xmlns="http://www.w3.org/2000/svg" xmlns:xlink="http://www.w3.org/1999/xlink">
<g id="graph0" class="graph" transform="scale(1 1) rotate(0) translate(4 505)">
<title>Project</title>
<polygon fill="white" stroke="transparent" points="-4,4 -4,-505 297,-505 297,4 -4,4"/>
<g id="clust1" class="cluster">
<title>cluster Architecture</title>
<polygon fill="none" stroke="black" points="8,-8 8,-493 285,-493 285,-8 8,-8"/>
<text text-anchor="middle" x="146.5" y="-477.8" font-family="Times,serif" font-size="14.00">Architecture</text>
</g>
<g id="clust2" class="cluster">
<title>cluster MPSoC</title>
<polygon fill="none" stroke="black" points="85,-294 85,-462 208,-462 208,-294 85,-294"/>
<text text-anchor="middle" x="146.5" y="-446.8" font-family="Times,serif" font-size="14.00">MPSoC</text>
</g>
<g id="clust3" class="cluster">
<title>cluster SoC</title>
<polygon fill="none" stroke="black" points="93,-302 93,-431 200,-431 200,-302 93,-302"/>
<text text-anchor="middle" x="146.5" y="-415.8" font-family="Times,serif" font-size="14.00">SoC</text>
</g>
<g id="clust4" class="cluster">
<title>cluster Accelerator</title>
<polygon fill="none" stroke="black" points="16,-16 16,-286 277,-286 277,-16 16,-16"/>
<text text-anchor="middle" x="146.5" y="-270.8" font-family="Times,serif" font-size="14.00">Accelerator</text>
</g>
<g id="clust5" class="cluster">
<title>cluster NTM/DNC</title>
<polygon fill="none" stroke="black" points="24,-24 24,-255 269,-255 269,-24 24,-24"/>
<text text-anchor="middle" x="146.5" y="-239.8" font-family="Times,serif" font-size="14.00">NTM/DNC</text>
</g>
<g id="clust6" class="cluster">
<title>cluster Trainer/State</title>
<polygon fill="none" stroke="black" points="32,-32 32,-224 261,-224 261,-32 32,-32"/>
<text text-anchor="middle" x="146.5" y="-208.8" font-family="Times,serif" font-size="14.00">Trainer/State</text>
</g>
<g id="clust7" class="cluster">
<title>cluster Transformer</title>
<polygon fill="none" stroke="black" points="40,-40 40,-193 253,-193 253,-40 40,-40"/>
<text text-anchor="middle" x="146.5" y="-177.8" font-family="Times,serif" font-size="14.00">Transformer</text>
</g>
<g id="clust8" class="cluster">
<title>cluster FNN/LSTM</title>
<polygon fill="none" stroke="black" points="48,-48 48,-162 245,-162 245,-48 48,-48"/>
<text text-anchor="middle" x="146.5" y="-146.8" font-family="Times,serif" font-size="14.00">FNN/LSTM</text>
</g>
<g id="clust9" class="cluster">
<title>cluster Math</title>
<polygon fill="none" stroke="black" points="56,-56 56,-131 237,-131 237,-56 56,-56"/>
<text text-anchor="middle" x="146.5" y="-115.8" font-family="Times,serif" font-size="14.00">Math</text>
</g>
<!-- PU -->
<g id="node1" class="node">
<title>PU</title>
<polygon fill="none" stroke="black" points="173.5,-400 119.5,-400 119.5,-364 173.5,-364 173.5,-400"/>
<text text-anchor="middle" x="146.5" y="-378.3" font-family="Times,serif" font-size="14.00">PU</text>
</g>
<!-- PRF -->
<g id="node2" class="node">
<title>PRF</title>
<polygon fill="none" stroke="black" points="192,-346 101,-346 101,-310 192,-310 192,-346"/>
<text text-anchor="middle" x="146.5" y="-324.3" font-family="Times,serif" font-size="14.00">Peripheral</text>
</g>
<!-- arithmetic -->
<g id="node3" class="node">
<title>arithmetic</title>
<polygon fill="none" stroke="black" points="229,-100 64,-100 64,-64 229,-64 229,-100"/>
<text text-anchor="middle" x="146.5" y="-78.3" font-family="Times,serif" font-size="14.00">Arithmetic IEEE 754</text>
</g>
</g>
</svg>
