<?xml version="1.0" encoding="UTF-8" standalone="no"?>
<!DOCTYPE svg PUBLIC "-//W3C//DTD SVG 1.1//EN"
 "http://www.w3.org/Graphics/SVG/1.1/DTD/svg11.dtd">
<!-- Generated by graphviz version 2.43.0 (0)
 -->
<!-- Title: Project Pages: 1 -->
<svg width="407pt" height="216pt"
 viewBox="0.00 0.00 407.00 216.00" xmlns="http://www.w3.org/2000/svg" xmlns:xlink="http://www.w3.org/1999/xlink">
<g id="graph0" class="graph" transform="scale(1 1) rotate(0) translate(4 212)">
<title>Project</title>
<polygon fill="white" stroke="transparent" points="-4,4 -4,-212 403,-212 403,4 -4,4"/>
<g id="clust1" class="cluster">
<title>cluster MPSoC</title>
<polygon fill="none" stroke="black" points="8,-8 8,-200 391,-200 391,-8 8,-8"/>
<text text-anchor="middle" x="199.5" y="-184.8" font-family="Times,serif" font-size="14.00">MPSoC</text>
</g>
<g id="clust2" class="cluster">
<title>cluster FPGA</title>
<polygon fill="none" stroke="black" points="237,-16 237,-169 383,-169 383,-16 237,-16"/>
<text text-anchor="middle" x="310" y="-153.8" font-family="Times,serif" font-size="14.00">FPGA</text>
</g>
<g id="clust3" class="cluster">
<title>cluster SoC</title>
<polygon fill="none" stroke="black" points="245,-24 245,-138 375,-138 375,-24 245,-24"/>
<text text-anchor="middle" x="310" y="-122.8" font-family="Times,serif" font-size="14.00">SoC</text>
</g>
<g id="clust4" class="cluster">
<title>cluster Unit</title>
<polygon fill="none" stroke="black" points="253,-32 253,-107 367,-107 367,-32 253,-32"/>
<text text-anchor="middle" x="310" y="-91.8" font-family="Times,serif" font-size="14.00">Unit</text>
</g>
<g id="clust5" class="cluster">
<title>cluster ASIC</title>
<polygon fill="none" stroke="black" points="16,-16 16,-169 229,-169 229,-16 16,-16"/>
<text text-anchor="middle" x="122.5" y="-153.8" font-family="Times,serif" font-size="14.00">ASIC</text>
</g>
<g id="clust6" class="cluster">
<title>cluster SoC</title>
<polygon fill="none" stroke="black" points="24,-24 24,-138 221,-138 221,-24 24,-24"/>
<text text-anchor="middle" x="122.5" y="-122.8" font-family="Times,serif" font-size="14.00">SoC</text>
</g>
<g id="clust7" class="cluster">
<title>cluster Peripheral</title>
<polygon fill="none" stroke="black" points="122,-32 122,-107 213,-107 213,-32 122,-32"/>
<text text-anchor="middle" x="167.5" y="-91.8" font-family="Times,serif" font-size="14.00">Peripheral</text>
</g>
<g id="clust8" class="cluster">
<title>cluster PU</title>
<polygon fill="none" stroke="black" points="32,-32 32,-107 114,-107 114,-32 32,-32"/>
<text text-anchor="middle" x="73" y="-91.8" font-family="Times,serif" font-size="14.00">PU</text>
</g>
<!-- Accelerator -->
<g id="node1" class="node">
<title>Accelerator</title>
<polygon fill="none" stroke="black" points="359,-76 261,-76 261,-40 359,-40 359,-76"/>
<text text-anchor="middle" x="310" y="-54.3" font-family="Times,serif" font-size="14.00">Accelerator</text>
</g>
<!-- Noc -->
<g id="node2" class="node">
<title>Noc</title>
<polygon fill="none" stroke="black" points="194,-76 140,-76 140,-40 194,-40 194,-76"/>
<text text-anchor="middle" x="167" y="-54.3" font-family="Times,serif" font-size="14.00">Noc</text>
</g>
<!-- RISCV -->
<g id="node3" class="node">
<title>RISCV</title>
<polygon fill="none" stroke="black" points="106,-76 40,-76 40,-40 106,-40 106,-76"/>
<text text-anchor="middle" x="73" y="-54.3" font-family="Times,serif" font-size="14.00">RISC&#45;V</text>
</g>
</g>
</svg>
