<?xml version="1.0" encoding="UTF-8" standalone="no"?>
<!DOCTYPE svg PUBLIC "-//W3C//DTD SVG 1.1//EN"
 "http://www.w3.org/Graphics/SVG/1.1/DTD/svg11.dtd">
<!-- Generated by graphviz version 2.43.0 (0)
 -->
<!-- Title: Project Pages: 1 -->
<svg width="398pt" height="216pt"
 viewBox="0.00 0.00 398.00 216.00" xmlns="http://www.w3.org/2000/svg" xmlns:xlink="http://www.w3.org/1999/xlink">
<g id="graph0" class="graph" transform="scale(1 1) rotate(0) translate(4 212)">
<title>Project</title>
<polygon fill="white" stroke="transparent" points="-4,4 -4,-212 394,-212 394,4 -4,4"/>
<g id="clust1" class="cluster">
<title>cluster MPSoC</title>
<polygon fill="none" stroke="black" points="8,-8 8,-200 382,-200 382,-8 8,-8"/>
<text text-anchor="middle" x="195" y="-184.8" font-family="Times,serif" font-size="14.00">MPSoC</text>
</g>
<g id="clust2" class="cluster">
<title>cluster FPGA</title>
<polygon fill="none" stroke="black" points="260,-16 260,-169 374,-169 374,-16 260,-16"/>
<text text-anchor="middle" x="317" y="-153.8" font-family="Times,serif" font-size="14.00">FPGA</text>
</g>
<g id="clust3" class="cluster">
<title>cluster Accelerator</title>
<polygon fill="none" stroke="black" points="268,-24 268,-138 366,-138 366,-24 268,-24"/>
<text text-anchor="middle" x="317" y="-122.8" font-family="Times,serif" font-size="14.00">Accelerator</text>
</g>
<g id="clust4" class="cluster">
<title>cluster Complex</title>
<polygon fill="none" stroke="black" points="277,-32 277,-107 356,-107 356,-32 277,-32"/>
<text text-anchor="middle" x="316.5" y="-91.8" font-family="Times,serif" font-size="14.00">Complex</text>
</g>
<g id="clust5" class="cluster">
<title>cluster ASIC</title>
<polygon fill="none" stroke="black" points="16,-16 16,-169 252,-169 252,-16 16,-16"/>
<text text-anchor="middle" x="134" y="-153.8" font-family="Times,serif" font-size="14.00">ASIC</text>
</g>
<g id="clust6" class="cluster">
<title>cluster SoC</title>
<polygon fill="none" stroke="black" points="24,-24 24,-138 244,-138 244,-24 24,-24"/>
<text text-anchor="middle" x="134" y="-122.8" font-family="Times,serif" font-size="14.00">SoC</text>
</g>
<g id="clust7" class="cluster">
<title>cluster PRF</title>
<polygon fill="none" stroke="black" points="134,-32 134,-107 236,-107 236,-32 134,-32"/>
<text text-anchor="middle" x="185" y="-91.8" font-family="Times,serif" font-size="14.00">PRF</text>
</g>
<g id="clust8" class="cluster">
<title>cluster PU</title>
<polygon fill="none" stroke="black" points="32,-32 32,-107 126,-107 126,-32 32,-32"/>
<text text-anchor="middle" x="79" y="-91.8" font-family="Times,serif" font-size="14.00">PU</text>
</g>
<!-- Real -->
<g id="node1" class="node">
<title>Real</title>
<polygon fill="none" stroke="black" points="343,-76 289,-76 289,-40 343,-40 343,-76"/>
<text text-anchor="middle" x="316" y="-54.3" font-family="Times,serif" font-size="14.00">Real</text>
</g>
<!-- BFM_PRF -->
<g id="node2" class="node">
<title>BFM_PRF</title>
<polygon fill="none" stroke="black" points="228,-76 142,-76 142,-40 228,-40 228,-76"/>
<text text-anchor="middle" x="185" y="-54.3" font-family="Times,serif" font-size="14.00">BFM&#45;PRF</text>
</g>
<!-- BFM_PU -->
<g id="node3" class="node">
<title>BFM_PU</title>
<polygon fill="none" stroke="black" points="117.5,-76 40.5,-76 40.5,-40 117.5,-40 117.5,-76"/>
<text text-anchor="middle" x="79" y="-54.3" font-family="Times,serif" font-size="14.00">BFM&#45;PU</text>
</g>
</g>
</svg>
