<?xml version="1.0" encoding="UTF-8" standalone="no"?>
<!DOCTYPE svg PUBLIC "-//W3C//DTD SVG 1.1//EN"
 "http://www.w3.org/Graphics/SVG/1.1/DTD/svg11.dtd">
<!-- Generated by graphviz version 2.43.0 (0)
 -->
<!-- Title: Project Pages: 1 -->
<svg width="728pt" height="255pt"
 viewBox="0.00 0.00 728.00 255.00" xmlns="http://www.w3.org/2000/svg" xmlns:xlink="http://www.w3.org/1999/xlink">
<g id="graph0" class="graph" transform="scale(1 1) rotate(0) translate(4 251)">
<title>Project</title>
<polygon fill="white" stroke="transparent" points="-4,4 -4,-251 724,-251 724,4 -4,4"/>
<g id="clust1" class="cluster">
<title>cluster Device</title>
<polygon fill="none" stroke="black" points="8,-8 8,-239 712,-239 712,-8 8,-8"/>
<text text-anchor="middle" x="360" y="-223.8" font-family="Times,serif" font-size="14.00">Device</text>
</g>
<g id="clust2" class="cluster">
<title>cluster FPGA</title>
<polygon fill="none" stroke="black" points="276,-16 276,-208 704,-208 704,-16 276,-16"/>
<text text-anchor="middle" x="490" y="-192.8" font-family="Times,serif" font-size="14.00">FPGA</text>
</g>
<g id="clust3" class="cluster">
<title>cluster Trainer</title>
<polygon fill="none" stroke="black" points="508,-24 508,-177 696,-177 696,-24 508,-24"/>
<text text-anchor="middle" x="602" y="-161.8" font-family="Times,serif" font-size="14.00">Trainer</text>
</g>
<g id="clust4" class="cluster">
<title>cluster ComplexTrainer</title>
<polygon fill="none" stroke="black" points="516,-32 516,-146 688,-146 688,-32 516,-32"/>
<text text-anchor="middle" x="602" y="-130.8" font-family="Times,serif" font-size="14.00">Complex Trainer</text>
</g>
<g id="clust5" class="cluster">
<title>cluster RealTrainer</title>
<polygon fill="none" stroke="black" points="524,-40 524,-115 680,-115 680,-40 524,-40"/>
<text text-anchor="middle" x="602" y="-99.8" font-family="Times,serif" font-size="14.00">Real Trainer</text>
</g>
<g id="clust6" class="cluster">
<title>cluster Accelerator</title>
<polygon fill="none" stroke="black" points="284,-24 284,-177 500,-177 500,-24 284,-24"/>
<text text-anchor="middle" x="392" y="-161.8" font-family="Times,serif" font-size="14.00">Accelerator</text>
</g>
<g id="clust7" class="cluster">
<title>cluster ComplexAccelerator</title>
<polygon fill="none" stroke="black" points="292,-32 292,-146 492,-146 492,-32 292,-32"/>
<text text-anchor="middle" x="392" y="-130.8" font-family="Times,serif" font-size="14.00">Complex Accelerator</text>
</g>
<g id="clust8" class="cluster">
<title>cluster RealAccelerator</title>
<polygon fill="none" stroke="black" points="300,-40 300,-115 484,-115 484,-40 300,-40"/>
<text text-anchor="middle" x="392" y="-99.8" font-family="Times,serif" font-size="14.00">Real Accelerator</text>
</g>
<g id="clust9" class="cluster">
<title>cluster ASIC</title>
<polygon fill="none" stroke="black" points="16,-16 16,-208 268,-208 268,-16 16,-16"/>
<text text-anchor="middle" x="142" y="-192.8" font-family="Times,serif" font-size="14.00">ASIC</text>
</g>
<g id="clust10" class="cluster">
<title>cluster MPSoC</title>
<polygon fill="none" stroke="black" points="24,-24 24,-177 260,-177 260,-24 24,-24"/>
<text text-anchor="middle" x="142" y="-161.8" font-family="Times,serif" font-size="14.00">MPSoC</text>
</g>
<g id="clust11" class="cluster">
<title>cluster SoC</title>
<polygon fill="none" stroke="black" points="32,-32 32,-146 252,-146 252,-32 32,-32"/>
<text text-anchor="middle" x="142" y="-130.8" font-family="Times,serif" font-size="14.00">SoC</text>
</g>
<g id="clust12" class="cluster">
<title>cluster PRF</title>
<polygon fill="none" stroke="black" points="142,-40 142,-115 244,-115 244,-40 142,-40"/>
<text text-anchor="middle" x="193" y="-99.8" font-family="Times,serif" font-size="14.00">PRF</text>
</g>
<g id="clust13" class="cluster">
<title>cluster PU</title>
<polygon fill="none" stroke="black" points="40,-40 40,-115 134,-115 134,-40 40,-40"/>
<text text-anchor="middle" x="87" y="-99.8" font-family="Times,serif" font-size="14.00">PU</text>
</g>
<!-- StandardTrainer -->
<g id="node1" class="node">
<title>StandardTrainer</title>
<polygon fill="none" stroke="black" points="672,-84 532,-84 532,-48 672,-48 672,-84"/>
<text text-anchor="middle" x="602" y="-62.3" font-family="Times,serif" font-size="14.00">Standard Trainer</text>
</g>
<!-- StandardAccelerator -->
<g id="node2" class="node">
<title>StandardAccelerator</title>
<polygon fill="none" stroke="black" points="476.5,-84 307.5,-84 307.5,-48 476.5,-48 476.5,-84"/>
<text text-anchor="middle" x="392" y="-62.3" font-family="Times,serif" font-size="14.00">Standard Accelerator</text>
</g>
<!-- BFM_PRF -->
<g id="node3" class="node">
<title>BFM_PRF</title>
<polygon fill="none" stroke="black" points="236,-84 150,-84 150,-48 236,-48 236,-84"/>
<text text-anchor="middle" x="193" y="-62.3" font-family="Times,serif" font-size="14.00">BFM&#45;PRF</text>
</g>
<!-- BFM_PU -->
<g id="node4" class="node">
<title>BFM_PU</title>
<polygon fill="none" stroke="black" points="125.5,-84 48.5,-84 48.5,-48 125.5,-48 125.5,-84"/>
<text text-anchor="middle" x="87" y="-62.3" font-family="Times,serif" font-size="14.00">BFM&#45;PU</text>
</g>
</g>
</svg>
