<?xml version="1.0" encoding="UTF-8" standalone="no"?>
<!DOCTYPE svg PUBLIC "-//W3C//DTD SVG 1.1//EN"
 "http://www.w3.org/Graphics/SVG/1.1/DTD/svg11.dtd">
<!-- Generated by graphviz version 2.43.0 (0)
 -->
<!-- Title: Project Pages: 1 -->
<svg width="1464pt" height="216pt"
 viewBox="0.00 0.00 1464.00 216.00" xmlns="http://www.w3.org/2000/svg" xmlns:xlink="http://www.w3.org/1999/xlink">
<g id="graph0" class="graph" transform="scale(1 1) rotate(0) translate(4 212)">
<title>Project</title>
<polygon fill="white" stroke="transparent" points="-4,4 -4,-212 1460,-212 1460,4 -4,4"/>
<g id="clust1" class="cluster">
<title>cluster FPGA Architecture</title>
<polygon fill="none" stroke="black" points="8,-8 8,-200 1448,-200 1448,-8 8,-8"/>
<text text-anchor="middle" x="728" y="-184.8" font-family="Times,serif" font-size="14.00">FPGA Architecture</text>
</g>
<g id="clust2" class="cluster">
<title>cluster Accelerator</title>
<polygon fill="none" stroke="black" points="1308,-16 1308,-169 1440,-169 1440,-16 1308,-16"/>
<text text-anchor="middle" x="1374" y="-153.8" font-family="Times,serif" font-size="14.00">Accelerator</text>
</g>
<g id="clust3" class="cluster">
<title>cluster Complex</title>
<polygon fill="none" stroke="black" points="1316,-24 1316,-138 1432,-138 1432,-24 1316,-24"/>
<text text-anchor="middle" x="1374" y="-122.8" font-family="Times,serif" font-size="14.00">Complex</text>
</g>
<g id="clust4" class="cluster">
<title>cluster Real</title>
<polygon fill="none" stroke="black" points="1324,-32 1324,-107 1424,-107 1424,-32 1324,-32"/>
<text text-anchor="middle" x="1374" y="-91.8" font-family="Times,serif" font-size="14.00">Real</text>
</g>
<g id="clust5" class="cluster">
<title>cluster MPSoC</title>
<polygon fill="none" stroke="black" points="16,-16 16,-169 1300,-169 1300,-16 16,-16"/>
<text text-anchor="middle" x="658" y="-153.8" font-family="Times,serif" font-size="14.00">MPSoC</text>
</g>
<g id="clust6" class="cluster">
<title>cluster SoC-3</title>
<polygon fill="none" stroke="black" points="981,-24 981,-138 1292,-138 1292,-24 981,-24"/>
<text text-anchor="middle" x="1136.5" y="-122.8" font-family="Times,serif" font-size="14.00">SoC-3</text>
</g>
<g id="clust7" class="cluster">
<title>cluster PU-3</title>
<polygon fill="none" stroke="black" points="1077,-32 1077,-107 1284,-107 1284,-32 1077,-32"/>
<text text-anchor="middle" x="1180.5" y="-91.8" font-family="Times,serif" font-size="14.00">PU-3</text>
</g>
<g id="clust8" class="cluster">
<title>cluster NoC-3</title>
<polygon fill="none" stroke="black" points="989,-32 989,-107 1069,-107 1069,-32 989,-32"/>
<text text-anchor="middle" x="1029" y="-91.8" font-family="Times,serif" font-size="14.00">NoC-3</text>
</g>
<g id="clust9" class="cluster">
<title>cluster SoC-2</title>
<polygon fill="none" stroke="black" points="662,-24 662,-138 973,-138 973,-24 662,-24"/>
<text text-anchor="middle" x="817.5" y="-122.8" font-family="Times,serif" font-size="14.00">SoC-2</text>
</g>
<g id="clust10" class="cluster">
<title>cluster PU-2</title>
<polygon fill="none" stroke="black" points="758,-32 758,-107 965,-107 965,-32 758,-32"/>
<text text-anchor="middle" x="861.5" y="-91.8" font-family="Times,serif" font-size="14.00">PU-2</text>
</g>
<g id="clust11" class="cluster">
<title>cluster NoC-2</title>
<polygon fill="none" stroke="black" points="670,-32 670,-107 750,-107 750,-32 670,-32"/>
<text text-anchor="middle" x="710" y="-91.8" font-family="Times,serif" font-size="14.00">NoC-2</text>
</g>
<g id="clust12" class="cluster">
<title>cluster SoC-1</title>
<polygon fill="none" stroke="black" points="343,-24 343,-138 654,-138 654,-24 343,-24"/>
<text text-anchor="middle" x="498.5" y="-122.8" font-family="Times,serif" font-size="14.00">SoC-1</text>
</g>
<g id="clust13" class="cluster">
<title>cluster PU-1</title>
<polygon fill="none" stroke="black" points="439,-32 439,-107 646,-107 646,-32 439,-32"/>
<text text-anchor="middle" x="542.5" y="-91.8" font-family="Times,serif" font-size="14.00">PU-1</text>
</g>
<g id="clust14" class="cluster">
<title>cluster NoC-1</title>
<polygon fill="none" stroke="black" points="351,-32 351,-107 431,-107 431,-32 351,-32"/>
<text text-anchor="middle" x="391" y="-91.8" font-family="Times,serif" font-size="14.00">NoC-1</text>
</g>
<g id="clust15" class="cluster">
<title>cluster SoC-0</title>
<polygon fill="none" stroke="black" points="24,-24 24,-138 335,-138 335,-24 24,-24"/>
<text text-anchor="middle" x="179.5" y="-122.8" font-family="Times,serif" font-size="14.00">SoC-0</text>
</g>
<g id="clust16" class="cluster">
<title>cluster PU-0</title>
<polygon fill="none" stroke="black" points="120,-32 120,-107 327,-107 327,-32 120,-32"/>
<text text-anchor="middle" x="223.5" y="-91.8" font-family="Times,serif" font-size="14.00">PU-0</text>
</g>
<g id="clust17" class="cluster">
<title>cluster NoC-0</title>
<polygon fill="none" stroke="black" points="32,-32 32,-107 112,-107 112,-32 32,-32"/>
<text text-anchor="middle" x="72" y="-91.8" font-family="Times,serif" font-size="14.00">NoC-0</text>
</g>
<!-- Standard -->
<g id="node1" class="node">
<title>Standard</title>
<polygon fill="none" stroke="black" points="1415.5,-76 1332.5,-76 1332.5,-40 1415.5,-40 1415.5,-76"/>
<text text-anchor="middle" x="1374" y="-54.3" font-family="Times,serif" font-size="14.00">Standard</text>
</g>
<!-- Core-3 -->
<g id="node2" class="node">
<title>Core-3</title>
<polygon fill="none" stroke="black" points="1276,-76 1210,-76 1210,-40 1276,-40 1276,-76"/>
<text text-anchor="middle" x="1243" y="-54.3" font-family="Times,serif" font-size="14.00">Core-3</text>
</g>
<!-- Peripheral-3 -->
<g id="node3" class="node">
<title>Peripheral-3</title>
<polygon fill="none" stroke="black" points="1191.5,-76 1084.5,-76 1084.5,-40 1191.5,-40 1191.5,-76"/>
<text text-anchor="middle" x="1138" y="-54.3" font-family="Times,serif" font-size="14.00">Peripheral-3</text>
</g>
<!-- NoC-3 -->
<g id="node4" class="node">
<title>NoC-3</title>
<polygon fill="none" stroke="black" points="1060.5,-76 997.5,-76 997.5,-40 1060.5,-40 1060.5,-76"/>
<text text-anchor="middle" x="1029" y="-54.3" font-family="Times,serif" font-size="14.00">NoC-3</text>
</g>
<!-- Core-2 -->
<g id="node5" class="node">
<title>Core-2</title>
<polygon fill="none" stroke="black" points="957,-76 891,-76 891,-40 957,-40 957,-76"/>
<text text-anchor="middle" x="924" y="-54.3" font-family="Times,serif" font-size="14.00">Core-2</text>
</g>
<!-- Peripheral-2 -->
<g id="node6" class="node">
<title>Peripheral-2</title>
<polygon fill="none" stroke="black" points="872.5,-76 765.5,-76 765.5,-40 872.5,-40 872.5,-76"/>
<text text-anchor="middle" x="819" y="-54.3" font-family="Times,serif" font-size="14.00">Peripheral-2</text>
</g>
<!-- NoC-2 -->
<g id="node7" class="node">
<title>NoC-2</title>
<polygon fill="none" stroke="black" points="741.5,-76 678.5,-76 678.5,-40 741.5,-40 741.5,-76"/>
<text text-anchor="middle" x="710" y="-54.3" font-family="Times,serif" font-size="14.00">NoC-2</text>
</g>
<!-- Core-1 -->
<g id="node8" class="node">
<title>Core-1</title>
<polygon fill="none" stroke="black" points="638,-76 572,-76 572,-40 638,-40 638,-76"/>
<text text-anchor="middle" x="605" y="-54.3" font-family="Times,serif" font-size="14.00">Core-1</text>
</g>
<!-- Peripheral-1 -->
<g id="node9" class="node">
<title>Peripheral-1</title>
<polygon fill="none" stroke="black" points="553.5,-76 446.5,-76 446.5,-40 553.5,-40 553.5,-76"/>
<text text-anchor="middle" x="500" y="-54.3" font-family="Times,serif" font-size="14.00">Peripheral-1</text>
</g>
<!-- NoC-1 -->
<g id="node10" class="node">
<title>NoC-1</title>
<polygon fill="none" stroke="black" points="422.5,-76 359.5,-76 359.5,-40 422.5,-40 422.5,-76"/>
<text text-anchor="middle" x="391" y="-54.3" font-family="Times,serif" font-size="14.00">NoC-1</text>
</g>
<!-- Core-0 -->
<g id="node11" class="node">
<title>Core-0</title>
<polygon fill="none" stroke="black" points="319,-76 253,-76 253,-40 319,-40 319,-76"/>
<text text-anchor="middle" x="286" y="-54.3" font-family="Times,serif" font-size="14.00">Core-0</text>
</g>
<!-- Peripheral-0 -->
<g id="node12" class="node">
<title>Peripheral-0</title>
<polygon fill="none" stroke="black" points="234.5,-76 127.5,-76 127.5,-40 234.5,-40 234.5,-76"/>
<text text-anchor="middle" x="181" y="-54.3" font-family="Times,serif" font-size="14.00">Peripheral-0</text>
</g>
<!-- NoC-0 -->
<g id="node13" class="node">
<title>NoC-0</title>
<polygon fill="none" stroke="black" points="103.5,-76 40.5,-76 40.5,-40 103.5,-40 103.5,-76"/>
<text text-anchor="middle" x="72" y="-54.3" font-family="Times,serif" font-size="14.00">NoC-0</text>
</g>
</g>
</svg>
