<?xml version="1.0" encoding="UTF-8" standalone="no"?>
<!DOCTYPE svg PUBLIC "-//W3C//DTD SVG 1.1//EN"
 "http://www.w3.org/Graphics/SVG/1.1/DTD/svg11.dtd">
<!-- Generated by graphviz version 2.43.0 (0)
 -->
<!-- Title: Project Pages: 1 -->
<svg width="855pt" height="217pt"
 viewBox="0.00 0.00 855.00 217.00" xmlns="http://www.w3.org/2000/svg" xmlns:xlink="http://www.w3.org/1999/xlink">
<g id="graph0" class="graph" transform="scale(1 1) rotate(0) translate(4 213)">
<title>Project</title>
<polygon fill="white" stroke="transparent" points="-4,4 -4,-213 851,-213 851,4 -4,4"/>
<g id="clust1" class="cluster">
<title>cluster FPGA Architecture</title>
<polygon fill="none" stroke="black" points="8,-8 8,-201 839,-201 839,-8 8,-8"/>
<text text-anchor="middle" x="423.5" y="-185.8" font-family="Times,serif" font-size="14.00">FPGA Architecture</text>
</g>
<g id="clust2" class="cluster">
<title>cluster Accelerator</title>
<polygon fill="none" stroke="black" points="699,-16.5 699,-169.5 831,-169.5 831,-16.5 699,-16.5"/>
<text text-anchor="middle" x="765" y="-154.3" font-family="Times,serif" font-size="14.00">Accelerator</text>
</g>
<g id="clust3" class="cluster">
<title>cluster Complex</title>
<polygon fill="none" stroke="black" points="707,-24.5 707,-138.5 823,-138.5 823,-24.5 707,-24.5"/>
<text text-anchor="middle" x="765" y="-123.3" font-family="Times,serif" font-size="14.00">Complex</text>
</g>
<g id="clust4" class="cluster">
<title>cluster Real</title>
<polygon fill="none" stroke="black" points="715,-32.5 715,-107.5 815,-107.5 815,-32.5 715,-32.5"/>
<text text-anchor="middle" x="765" y="-92.3" font-family="Times,serif" font-size="14.00">Real</text>
</g>
<g id="clust5" class="cluster">
<title>cluster MPSoC</title>
<polygon fill="none" stroke="black" points="16,-16 16,-170 691,-170 691,-16 16,-16"/>
<text text-anchor="middle" x="353.5" y="-154.8" font-family="Times,serif" font-size="14.00">MPSoC</text>
</g>
<g id="clust6" class="cluster">
<title>cluster SoC&#45;3</title>
<polygon fill="none" stroke="black" points="330,-24 330,-139 683,-139 683,-24 330,-24"/>
<text text-anchor="middle" x="506.5" y="-123.8" font-family="Times,serif" font-size="14.00">SoC&#45;3</text>
</g>
<g id="clust7" class="cluster">
<title>cluster PU&#45;3</title>
<polygon fill="none" stroke="black" points="416,-32 416,-108 675,-108 675,-32 416,-32"/>
<text text-anchor="middle" x="545.5" y="-92.8" font-family="Times,serif" font-size="14.00">PU&#45;3</text>
</g>
<g id="clust8" class="cluster">
<title>cluster NoC&#45;3</title>
<polygon fill="none" stroke="black" points="338,-32 338,-108 408,-108 408,-32 338,-32"/>
<text text-anchor="middle" x="373" y="-92.8" font-family="Times,serif" font-size="14.00">NoC&#45;3</text>
</g>
<g id="clust9" class="cluster">
<title>cluster SoC&#45;2</title>
<polygon fill="none" stroke="black" points="228,-24.5 228,-138.5 322,-138.5 322,-24.5 228,-24.5"/>
<text text-anchor="middle" x="275" y="-123.3" font-family="Times,serif" font-size="14.00">SoC&#45;2</text>
</g>
<g id="clust10" class="cluster">
<title>cluster PU&#45;2</title>
<polygon fill="none" stroke="black" points="236,-32.5 236,-107.5 314,-107.5 314,-32.5 236,-32.5"/>
<text text-anchor="middle" x="275" y="-92.3" font-family="Times,serif" font-size="14.00">PU&#45;2</text>
</g>
<g id="clust12" class="cluster">
<title>cluster SoC&#45;1</title>
<polygon fill="none" stroke="black" points="126,-24.5 126,-138.5 220,-138.5 220,-24.5 126,-24.5"/>
<text text-anchor="middle" x="173" y="-123.3" font-family="Times,serif" font-size="14.00">SoC&#45;1</text>
</g>
<g id="clust13" class="cluster">
<title>cluster PU&#45;1</title>
<polygon fill="none" stroke="black" points="134,-32.5 134,-107.5 212,-107.5 212,-32.5 134,-32.5"/>
<text text-anchor="middle" x="173" y="-92.3" font-family="Times,serif" font-size="14.00">PU&#45;1</text>
</g>
<g id="clust15" class="cluster">
<title>cluster SoC&#45;0</title>
<polygon fill="none" stroke="black" points="24,-24.5 24,-138.5 118,-138.5 118,-24.5 24,-24.5"/>
<text text-anchor="middle" x="71" y="-123.3" font-family="Times,serif" font-size="14.00">SoC&#45;0</text>
</g>
<g id="clust16" class="cluster">
<title>cluster PU&#45;0</title>
<polygon fill="none" stroke="black" points="32,-32.5 32,-107.5 110,-107.5 110,-32.5 32,-32.5"/>
<text text-anchor="middle" x="71" y="-92.3" font-family="Times,serif" font-size="14.00">PU&#45;0</text>
</g>
<!-- Standard -->
<g id="node1" class="node">
<title>Standard</title>
<polygon fill="none" stroke="black" points="806.5,-76.5 723.5,-76.5 723.5,-40.5 806.5,-40.5 806.5,-76.5"/>
<text text-anchor="middle" x="765" y="-54.8" font-family="Times,serif" font-size="14.00">Standard</text>
</g>
<!-- Core -->
<g id="node2" class="node">
<title>Core</title>
<polygon fill="none" stroke="black" points="613,-40.5 613,-76.5 667,-76.5 667,-40.5 613,-40.5"/>
<text text-anchor="middle" x="640" y="-54.8" font-family="Times,serif" font-size="14.00">Core</text>
</g>
<!-- &#45;3 -->
<g id="node3" class="node">
<title>&#45;3</title>
<polygon fill="none" stroke="black" points="594.5,-76.5 533.5,-76.5 533.5,-40.5 594.5,-40.5 594.5,-76.5"/>
<text text-anchor="middle" x="564" y="-54.8" font-family="Times,serif" font-size="14.00">NoC&#45;3</text>
</g>
<!-- Peripheral -->
<g id="node4" class="node">
<title>Peripheral</title>
<polygon fill="none" stroke="black" points="424.5,-40.5 424.5,-76.5 515.5,-76.5 515.5,-40.5 424.5,-40.5"/>
<text text-anchor="middle" x="470" y="-54.8" font-family="Times,serif" font-size="14.00">Peripheral</text>
</g>
<!-- NoC -->
<g id="node5" class="node">
<title>NoC</title>
<polygon fill="none" stroke="black" points="346,-40.5 346,-76.5 400,-76.5 400,-40.5 346,-40.5"/>
<text text-anchor="middle" x="373" y="-54.8" font-family="Times,serif" font-size="14.00">NoC</text>
</g>
<!-- &#45;2 -->
<g id="node6" class="node">
<title>&#45;2</title>
<polygon fill="none" stroke="black" points="305.5,-76.5 244.5,-76.5 244.5,-40.5 305.5,-40.5 305.5,-76.5"/>
<text text-anchor="middle" x="275" y="-54.8" font-family="Times,serif" font-size="14.00">NoC&#45;2</text>
</g>
<!-- &#45;1 -->
<g id="node7" class="node">
<title>&#45;1</title>
<polygon fill="none" stroke="black" points="203.5,-76.5 142.5,-76.5 142.5,-40.5 203.5,-40.5 203.5,-76.5"/>
<text text-anchor="middle" x="173" y="-54.8" font-family="Times,serif" font-size="14.00">NoC&#45;1</text>
</g>
<!-- &#45;0 -->
<g id="node8" class="node">
<title>&#45;0</title>
<polygon fill="none" stroke="black" points="101.5,-76.5 40.5,-76.5 40.5,-40.5 101.5,-40.5 101.5,-76.5"/>
<text text-anchor="middle" x="71" y="-54.8" font-family="Times,serif" font-size="14.00">NoC&#45;0</text>
</g>
</g>
</svg>
