<?xml version="1.0" encoding="UTF-8" standalone="no"?>
<!DOCTYPE svg PUBLIC "-//W3C//DTD SVG 1.1//EN"
 "http://www.w3.org/Graphics/SVG/1.1/DTD/svg11.dtd">
<!-- Generated by graphviz version 2.43.0 (0)
 -->
<!-- Title: Project Pages: 1 -->
<svg width="1969pt" height="147pt"
 viewBox="0.00 0.00 1969.00 147.00" xmlns="http://www.w3.org/2000/svg" xmlns:xlink="http://www.w3.org/1999/xlink">
<g id="graph0" class="graph" transform="scale(1 1) rotate(0) translate(4 143)">
<title>Project</title>
<polygon fill="white" stroke="transparent" points="-4,4 -4,-143 1965,-143 1965,4 -4,4"/>
<!-- Requirements -->
<g id="node1" class="node">
<title>Requirements</title>
<polygon fill="none" stroke="black" points="0,-33.5 0,-71.5 122,-71.5 122,-33.5 0,-33.5"/>
<text text-anchor="middle" x="61" y="-56.3" font-family="Times,serif" font-size="14.00">Requirements </text>
<text text-anchor="middle" x="61" y="-41.3" font-family="Times,serif" font-size="14.00">(UML) [Dot]</text>
</g>
<!-- Source -->
<g id="node2" class="node">
<title>Source</title>
<polygon fill="none" stroke="black" points="158,-100.5 158,-138.5 385,-138.5 385,-100.5 158,-100.5"/>
<text text-anchor="middle" x="271.5" y="-123.3" font-family="Times,serif" font-size="14.00">Source </text>
<text text-anchor="middle" x="271.5" y="-108.3" font-family="Times,serif" font-size="14.00">(Matlab/Rust/ADA/C) [Emacs]</text>
</g>
<!-- Requirements&#45;&gt;Source -->
<g id="edge1" class="edge">
<title>Requirements&#45;&gt;Source</title>
<path fill="none" stroke="black" d="M61,-71.52C61,-91.33 61,-119.5 61,-119.5 61,-119.5 147.93,-119.5 147.93,-119.5"/>
<polygon fill="black" stroke="black" points="147.93,-123 157.93,-119.5 147.93,-116 147.93,-123"/>
</g>
<!-- Model -->
<g id="node3" class="node">
<title>Model</title>
<polygon fill="none" stroke="black" points="421,-100.5 421,-138.5 607,-138.5 607,-100.5 421,-100.5"/>
<text text-anchor="middle" x="514" y="-123.3" font-family="Times,serif" font-size="14.00">Model </text>
<text text-anchor="middle" x="514" y="-108.3" font-family="Times,serif" font-size="14.00">(VHDL/Verilog) [Emacs]</text>
</g>
<!-- Source&#45;&gt;Model -->
<g id="edge2" class="edge">
<title>Source&#45;&gt;Model</title>
<path fill="none" stroke="black" d="M385.29,-119.5C385.29,-119.5 410.93,-119.5 410.93,-119.5"/>
<polygon fill="black" stroke="black" points="410.93,-123 420.93,-119.5 410.93,-116 410.93,-123"/>
</g>
<!-- Validation -->
<g id="node4" class="node">
<title>Validation</title>
<polygon fill="none" stroke="black" points="643,-62.5 643,-100.5 938,-100.5 938,-62.5 643,-62.5"/>
<text text-anchor="middle" x="790.5" y="-85.3" font-family="Times,serif" font-size="14.00">Validation </text>
<text text-anchor="middle" x="790.5" y="-70.3" font-family="Times,serif" font-size="14.00">(VHDL/Verilog) [GHDL / Icarus Verilog]</text>
</g>
<!-- Model&#45;&gt;Validation -->
<g id="edge3" class="edge">
<title>Model&#45;&gt;Validation</title>
<path fill="none" stroke="black" d="M514,-100.4C514,-92.88 514,-86 514,-86 514,-86 632.94,-86 632.94,-86"/>
<polygon fill="black" stroke="black" points="632.94,-89.5 642.94,-86 632.94,-82.5 632.94,-89.5"/>
</g>
<!-- Validation&#45;&gt;Requirements -->
<g id="edge9" class="edge">
<title>Validation&#45;&gt;Requirements</title>
<path fill="none" stroke="black" d="M642.87,-67C642.87,-67 132.39,-67 132.39,-67"/>
<polygon fill="black" stroke="black" points="132.39,-63.5 122.39,-67 132.39,-70.5 132.39,-63.5"/>
</g>
<!-- Design -->
<g id="node5" class="node">
<title>Design</title>
<polygon fill="none" stroke="black" points="974,-62.5 974,-100.5 1160,-100.5 1160,-62.5 974,-62.5"/>
<text text-anchor="middle" x="1067" y="-85.3" font-family="Times,serif" font-size="14.00">Design </text>
<text text-anchor="middle" x="1067" y="-70.3" font-family="Times,serif" font-size="14.00">(VHDL/Verilog) [Emacs]</text>
</g>
<!-- Validation&#45;&gt;Design -->
<g id="edge4" class="edge">
<title>Validation&#45;&gt;Design</title>
<path fill="none" stroke="black" d="M938.06,-81.5C938.06,-81.5 963.69,-81.5 963.69,-81.5"/>
<polygon fill="black" stroke="black" points="963.69,-85 973.69,-81.5 963.69,-78 963.69,-85"/>
</g>
<!-- Verification -->
<g id="node6" class="node">
<title>Verification</title>
<polygon fill="none" stroke="black" points="1196,-24.5 1196,-62.5 1491,-62.5 1491,-24.5 1196,-24.5"/>
<text text-anchor="middle" x="1343.5" y="-47.3" font-family="Times,serif" font-size="14.00">Verification </text>
<text text-anchor="middle" x="1343.5" y="-32.3" font-family="Times,serif" font-size="14.00">(VHDL/Verilog) [GHDL / Icarus Verilog]</text>
</g>
<!-- Design&#45;&gt;Verification -->
<g id="edge5" class="edge">
<title>Design&#45;&gt;Verification</title>
<path fill="none" stroke="black" d="M1067,-62.21C1067,-56.78 1067,-52.33 1067,-52.33 1067,-52.33 1185.94,-52.33 1185.94,-52.33"/>
<polygon fill="black" stroke="black" points="1185.94,-55.83 1195.94,-52.33 1185.94,-48.83 1185.94,-55.83"/>
</g>
<!-- Verification&#45;&gt;Requirements -->
<g id="edge10" class="edge">
<title>Verification&#45;&gt;Requirements</title>
<path fill="none" stroke="black" d="M1195.76,-42.67C1195.76,-42.67 132.2,-42.67 132.2,-42.67"/>
<polygon fill="black" stroke="black" points="132.2,-39.17 122.2,-42.67 132.2,-46.17 132.2,-39.17"/>
</g>
<!-- Quality -->
<g id="node7" class="node">
<title>Quality</title>
<polygon fill="none" stroke="black" points="1527,-0.5 1527,-38.5 1643,-38.5 1643,-0.5 1527,-0.5"/>
<text text-anchor="middle" x="1585" y="-23.3" font-family="Times,serif" font-size="14.00">Quality </text>
<text text-anchor="middle" x="1585" y="-8.3" font-family="Times,serif" font-size="14.00">(TeX) [Emacs]</text>
</g>
<!-- Verification&#45;&gt;Quality -->
<g id="edge6" class="edge">
<title>Verification&#45;&gt;Quality</title>
<path fill="none" stroke="black" d="M1491.28,-31.5C1491.28,-31.5 1516.82,-31.5 1516.82,-31.5"/>
<polygon fill="black" stroke="black" points="1516.82,-35 1526.82,-31.5 1516.82,-28 1516.82,-35"/>
</g>
<!-- Quality&#45;&gt;Requirements -->
<g id="edge11" class="edge">
<title>Quality&#45;&gt;Requirements</title>
<path fill="none" stroke="black" d="M1526.66,-12C1247.43,-12 61,-12 61,-12 61,-12 61,-23.2 61,-23.2"/>
<polygon fill="black" stroke="black" points="57.5,-23.2 61,-33.2 64.5,-23.2 57.5,-23.2"/>
</g>
<!-- Certification -->
<g id="node8" class="node">
<title>Certification</title>
<polygon fill="none" stroke="black" points="1679,-0.5 1679,-38.5 1795,-38.5 1795,-0.5 1679,-0.5"/>
<text text-anchor="middle" x="1737" y="-23.3" font-family="Times,serif" font-size="14.00">Certification </text>
<text text-anchor="middle" x="1737" y="-8.3" font-family="Times,serif" font-size="14.00">(TeX) [Emacs]</text>
</g>
<!-- Quality&#45;&gt;Certification -->
<g id="edge7" class="edge">
<title>Quality&#45;&gt;Certification</title>
<path fill="none" stroke="black" d="M1643.33,-19.5C1643.33,-19.5 1668.82,-19.5 1668.82,-19.5"/>
<polygon fill="black" stroke="black" points="1668.82,-23 1678.82,-19.5 1668.82,-16 1668.82,-23"/>
</g>
<!-- Documentation -->
<g id="node9" class="node">
<title>Documentation</title>
<polygon fill="none" stroke="black" points="1831,-0.5 1831,-38.5 1961,-38.5 1961,-0.5 1831,-0.5"/>
<text text-anchor="middle" x="1896" y="-23.3" font-family="Times,serif" font-size="14.00">Documentation </text>
<text text-anchor="middle" x="1896" y="-8.3" font-family="Times,serif" font-size="14.00">(TeX) [Emacs]</text>
</g>
<!-- Certification&#45;&gt;Documentation -->
<g id="edge8" class="edge">
<title>Certification&#45;&gt;Documentation</title>
<path fill="none" stroke="black" d="M1795.3,-19.5C1795.3,-19.5 1820.99,-19.5 1820.99,-19.5"/>
<polygon fill="black" stroke="black" points="1820.99,-23 1830.99,-19.5 1820.99,-16 1820.99,-23"/>
</g>
</g>
</svg>
