<?xml version="1.0" encoding="UTF-8" standalone="no"?>
<!DOCTYPE svg PUBLIC "-//W3C//DTD SVG 1.1//EN"
 "http://www.w3.org/Graphics/SVG/1.1/DTD/svg11.dtd">
<!-- Generated by graphviz version 2.43.0 (0)
 -->
<!-- Title: Project Pages: 1 -->
<svg width="2707pt" height="216pt"
 viewBox="0.00 0.00 2707.00 216.00" xmlns="http://www.w3.org/2000/svg" xmlns:xlink="http://www.w3.org/1999/xlink">
<g id="graph0" class="graph" transform="scale(1 1) rotate(0) translate(4 212)">
<title>Project</title>
<polygon fill="white" stroke="transparent" points="-4,4 -4,-212 2703,-212 2703,4 -4,4"/>
<g id="clust1" class="cluster">
<title>cluster MPSoC</title>
<polygon fill="none" stroke="black" points="8,-8 8,-200 2691,-200 2691,-8 8,-8"/>
<text text-anchor="middle" x="1349.5" y="-184.8" font-family="Times,serif" font-size="14.00">MPSoC</text>
</g>
<g id="clust2" class="cluster">
<title>cluster FPGA</title>
<polygon fill="none" stroke="black" points="2328,-32 2328,-107 2683,-107 2683,-32 2328,-32"/>
<text text-anchor="middle" x="2505.5" y="-91.8" font-family="Times,serif" font-size="14.00">FPGA</text>
</g>
<g id="clust3" class="cluster">
<title>cluster ASIC</title>
<polygon fill="none" stroke="black" points="16,-16 16,-169 2320,-169 2320,-16 16,-16"/>
<text text-anchor="middle" x="1168" y="-153.8" font-family="Times,serif" font-size="14.00">ASIC</text>
</g>
<g id="clust4" class="cluster">
<title>cluster SoC3</title>
<polygon fill="none" stroke="black" points="1746,-24 1746,-138 2312,-138 2312,-24 1746,-24"/>
<text text-anchor="middle" x="2029" y="-122.8" font-family="Times,serif" font-size="14.00">SoC&#45;3</text>
</g>
<g id="clust5" class="cluster">
<title>cluster Memory3</title>
<polygon fill="none" stroke="black" points="2200,-32 2200,-107 2304,-107 2304,-32 2200,-32"/>
<text text-anchor="middle" x="2252" y="-91.8" font-family="Times,serif" font-size="14.00">Memory&#45;3</text>
</g>
<g id="clust6" class="cluster">
<title>cluster PU</title>
<polygon fill="none" stroke="black" points="1754,-32 1754,-107 2192,-107 2192,-32 1754,-32"/>
<text text-anchor="middle" x="1973" y="-91.8" font-family="Times,serif" font-size="14.00">PU&#45;3</text>
</g>
<g id="clust7" class="cluster">
<title>cluster SoC2</title>
<polygon fill="none" stroke="black" points="1172,-24 1172,-138 1738,-138 1738,-24 1172,-24"/>
<text text-anchor="middle" x="1455" y="-122.8" font-family="Times,serif" font-size="14.00">SoC&#45;2</text>
</g>
<g id="clust9" class="cluster">
<title>cluster PU</title>
<polygon fill="none" stroke="black" points="1292,-32 1292,-107 1730,-107 1730,-32 1292,-32"/>
<text text-anchor="middle" x="1511" y="-91.8" font-family="Times,serif" font-size="14.00">PU&#45;2</text>
</g>
<g id="clust8" class="cluster">
<title>cluster Memory2</title>
<polygon fill="none" stroke="black" points="1180,-32 1180,-107 1284,-107 1284,-32 1180,-32"/>
<text text-anchor="middle" x="1232" y="-91.8" font-family="Times,serif" font-size="14.00">Memory&#45;2</text>
</g>
<g id="clust10" class="cluster">
<title>cluster SoC1</title>
<polygon fill="none" stroke="black" points="598,-24 598,-138 1164,-138 1164,-24 598,-24"/>
<text text-anchor="middle" x="881" y="-122.8" font-family="Times,serif" font-size="14.00">SoC&#45;1</text>
</g>
<g id="clust12" class="cluster">
<title>cluster PU</title>
<polygon fill="none" stroke="black" points="718,-32 718,-107 1156,-107 1156,-32 718,-32"/>
<text text-anchor="middle" x="937" y="-91.8" font-family="Times,serif" font-size="14.00">PU&#45;1</text>
</g>
<g id="clust11" class="cluster">
<title>cluster Memory1</title>
<polygon fill="none" stroke="black" points="606,-32 606,-107 710,-107 710,-32 606,-32"/>
<text text-anchor="middle" x="658" y="-91.8" font-family="Times,serif" font-size="14.00">Memory&#45;1</text>
</g>
<g id="clust13" class="cluster">
<title>cluster SoC0</title>
<polygon fill="none" stroke="black" points="24,-24 24,-138 590,-138 590,-24 24,-24"/>
<text text-anchor="middle" x="307" y="-122.8" font-family="Times,serif" font-size="14.00">SoC&#45;0</text>
</g>
<g id="clust14" class="cluster">
<title>cluster Memory0</title>
<polygon fill="none" stroke="black" points="478,-32 478,-107 582,-107 582,-32 478,-32"/>
<text text-anchor="middle" x="530" y="-91.8" font-family="Times,serif" font-size="14.00">Memory&#45;0</text>
</g>
<g id="clust15" class="cluster">
<title>cluster PU0</title>
<polygon fill="none" stroke="black" points="32,-32 32,-107 470,-107 470,-32 32,-32"/>
<text text-anchor="middle" x="251" y="-91.8" font-family="Times,serif" font-size="14.00">PU&#45;0</text>
</g>
<!-- FPGA3 -->
<g id="node1" class="node">
<title>FPGA3</title>
<polygon fill="none" stroke="black" points="2674.5,-76 2603.5,-76 2603.5,-40 2674.5,-40 2674.5,-76"/>
<text text-anchor="middle" x="2639" y="-54.3" font-family="Times,serif" font-size="14.00">FPGA&#45;3</text>
</g>
<!-- FPGA2 -->
<g id="node2" class="node">
<title>FPGA2</title>
<polygon fill="none" stroke="black" points="2585.5,-76 2514.5,-76 2514.5,-40 2585.5,-40 2585.5,-76"/>
<text text-anchor="middle" x="2550" y="-54.3" font-family="Times,serif" font-size="14.00">FPGA&#45;2</text>
</g>
<!-- FPGA1 -->
<g id="node3" class="node">
<title>FPGA1</title>
<polygon fill="none" stroke="black" points="2496.5,-76 2425.5,-76 2425.5,-40 2496.5,-40 2496.5,-76"/>
<text text-anchor="middle" x="2461" y="-54.3" font-family="Times,serif" font-size="14.00">FPGA&#45;1</text>
</g>
<!-- FPGA0 -->
<g id="node4" class="node">
<title>FPGA0</title>
<polygon fill="none" stroke="black" points="2407.5,-76 2336.5,-76 2336.5,-40 2407.5,-40 2407.5,-76"/>
<text text-anchor="middle" x="2372" y="-54.3" font-family="Times,serif" font-size="14.00">FPGA&#45;0</text>
</g>
<!-- MPRAM3 -->
<g id="node5" class="node">
<title>MPRAM3</title>
<polygon fill="none" stroke="black" points="2296.5,-76 2207.5,-76 2207.5,-40 2296.5,-40 2296.5,-76"/>
<text text-anchor="middle" x="2252" y="-54.3" font-family="Times,serif" font-size="14.00">MPRAM&#45;3</text>
</g>
<!-- RISCV33 -->
<g id="node6" class="node">
<title>RISCV33</title>
<polygon fill="none" stroke="black" points="2184,-76 2092,-76 2092,-40 2184,-40 2184,-76"/>
<text text-anchor="middle" x="2138" y="-54.3" font-family="Times,serif" font-size="14.00">RISC&#45;V&#45;3&#45;3</text>
</g>
<!-- RISCV32 -->
<g id="node7" class="node">
<title>RISCV32</title>
<polygon fill="none" stroke="black" points="2074,-76 1982,-76 1982,-40 2074,-40 2074,-76"/>
<text text-anchor="middle" x="2028" y="-54.3" font-family="Times,serif" font-size="14.00">RISC&#45;V&#45;3&#45;2</text>
</g>
<!-- RISCV31 -->
<g id="node8" class="node">
<title>RISCV31</title>
<polygon fill="none" stroke="black" points="1964,-76 1872,-76 1872,-40 1964,-40 1964,-76"/>
<text text-anchor="middle" x="1918" y="-54.3" font-family="Times,serif" font-size="14.00">RISC&#45;V&#45;3&#45;1</text>
</g>
<!-- RISCV30 -->
<g id="node9" class="node">
<title>RISCV30</title>
<polygon fill="none" stroke="black" points="1854,-76 1762,-76 1762,-40 1854,-40 1854,-76"/>
<text text-anchor="middle" x="1808" y="-54.3" font-family="Times,serif" font-size="14.00">RISC&#45;V&#45;3&#45;0</text>
</g>
<!-- MPRAM2 -->
<g id="node10" class="node">
<title>MPRAM2</title>
<polygon fill="none" stroke="black" points="1276.5,-76 1187.5,-76 1187.5,-40 1276.5,-40 1276.5,-76"/>
<text text-anchor="middle" x="1232" y="-54.3" font-family="Times,serif" font-size="14.00">MPRAM&#45;2</text>
</g>
<!-- RISCV23 -->
<g id="node11" class="node">
<title>RISCV23</title>
<polygon fill="none" stroke="black" points="1722,-76 1630,-76 1630,-40 1722,-40 1722,-76"/>
<text text-anchor="middle" x="1676" y="-54.3" font-family="Times,serif" font-size="14.00">RISC&#45;V&#45;2&#45;3</text>
</g>
<!-- RISCV22 -->
<g id="node12" class="node">
<title>RISCV22</title>
<polygon fill="none" stroke="black" points="1612,-76 1520,-76 1520,-40 1612,-40 1612,-76"/>
<text text-anchor="middle" x="1566" y="-54.3" font-family="Times,serif" font-size="14.00">RISC&#45;V&#45;2&#45;2</text>
</g>
<!-- RISCV21 -->
<g id="node13" class="node">
<title>RISCV21</title>
<polygon fill="none" stroke="black" points="1502,-76 1410,-76 1410,-40 1502,-40 1502,-76"/>
<text text-anchor="middle" x="1456" y="-54.3" font-family="Times,serif" font-size="14.00">RISC&#45;V&#45;2&#45;1</text>
</g>
<!-- RISCV20 -->
<g id="node14" class="node">
<title>RISCV20</title>
<polygon fill="none" stroke="black" points="1392,-76 1300,-76 1300,-40 1392,-40 1392,-76"/>
<text text-anchor="middle" x="1346" y="-54.3" font-family="Times,serif" font-size="14.00">RISC&#45;V&#45;2&#45;0</text>
</g>
<!-- MPRAM1 -->
<g id="node15" class="node">
<title>MPRAM1</title>
<polygon fill="none" stroke="black" points="702.5,-76 613.5,-76 613.5,-40 702.5,-40 702.5,-76"/>
<text text-anchor="middle" x="658" y="-54.3" font-family="Times,serif" font-size="14.00">MPRAM&#45;1</text>
</g>
<!-- RISCV13 -->
<g id="node16" class="node">
<title>RISCV13</title>
<polygon fill="none" stroke="black" points="1148,-76 1056,-76 1056,-40 1148,-40 1148,-76"/>
<text text-anchor="middle" x="1102" y="-54.3" font-family="Times,serif" font-size="14.00">RISC&#45;V&#45;1&#45;3</text>
</g>
<!-- RISCV12 -->
<g id="node17" class="node">
<title>RISCV12</title>
<polygon fill="none" stroke="black" points="1038,-76 946,-76 946,-40 1038,-40 1038,-76"/>
<text text-anchor="middle" x="992" y="-54.3" font-family="Times,serif" font-size="14.00">RISC&#45;V&#45;1&#45;2</text>
</g>
<!-- RISCV11 -->
<g id="node18" class="node">
<title>RISCV11</title>
<polygon fill="none" stroke="black" points="928,-76 836,-76 836,-40 928,-40 928,-76"/>
<text text-anchor="middle" x="882" y="-54.3" font-family="Times,serif" font-size="14.00">RISC&#45;V&#45;1&#45;1</text>
</g>
<!-- RISCV10 -->
<g id="node19" class="node">
<title>RISCV10</title>
<polygon fill="none" stroke="black" points="818,-76 726,-76 726,-40 818,-40 818,-76"/>
<text text-anchor="middle" x="772" y="-54.3" font-family="Times,serif" font-size="14.00">RISC&#45;V&#45;1&#45;0</text>
</g>
<!-- MPRAM0 -->
<g id="node20" class="node">
<title>MPRAM0</title>
<polygon fill="none" stroke="black" points="574.5,-76 485.5,-76 485.5,-40 574.5,-40 574.5,-76"/>
<text text-anchor="middle" x="530" y="-54.3" font-family="Times,serif" font-size="14.00">MPRAM&#45;0</text>
</g>
<!-- RISCV03 -->
<g id="node21" class="node">
<title>RISCV03</title>
<polygon fill="none" stroke="black" points="462,-76 370,-76 370,-40 462,-40 462,-76"/>
<text text-anchor="middle" x="416" y="-54.3" font-family="Times,serif" font-size="14.00">RISC&#45;V&#45;0&#45;3</text>
</g>
<!-- RISCV02 -->
<g id="node22" class="node">
<title>RISCV02</title>
<polygon fill="none" stroke="black" points="352,-76 260,-76 260,-40 352,-40 352,-76"/>
<text text-anchor="middle" x="306" y="-54.3" font-family="Times,serif" font-size="14.00">RISC&#45;V&#45;0&#45;2</text>
</g>
<!-- RISCV01 -->
<g id="node23" class="node">
<title>RISCV01</title>
<polygon fill="none" stroke="black" points="242,-76 150,-76 150,-40 242,-40 242,-76"/>
<text text-anchor="middle" x="196" y="-54.3" font-family="Times,serif" font-size="14.00">RISC&#45;V&#45;0&#45;1</text>
</g>
<!-- RISCV00 -->
<g id="node24" class="node">
<title>RISCV00</title>
<polygon fill="none" stroke="black" points="132,-76 40,-76 40,-40 132,-40 132,-76"/>
<text text-anchor="middle" x="86" y="-54.3" font-family="Times,serif" font-size="14.00">RISC&#45;V&#45;0&#45;0</text>
</g>
</g>
</svg>
