<?xml version="1.0" encoding="UTF-8" standalone="no"?>
<!DOCTYPE svg PUBLIC "-//W3C//DTD SVG 1.1//EN"
 "http://www.w3.org/Graphics/SVG/1.1/DTD/svg11.dtd">
<!-- Generated by graphviz version 2.43.0 (0)
 -->
<!-- Title: Project Pages: 1 -->
<svg width="2968pt" height="216pt"
 viewBox="0.00 0.00 2968.00 216.00" xmlns="http://www.w3.org/2000/svg" xmlns:xlink="http://www.w3.org/1999/xlink">
<g id="graph0" class="graph" transform="scale(1 1) rotate(0) translate(4 212)">
<title>Project</title>
<polygon fill="white" stroke="transparent" points="-4,4 -4,-212 2964,-212 2964,4 -4,4"/>
<g id="clust1" class="cluster">
<title>cluster MPSoC</title>
<polygon fill="none" stroke="black" points="8,-8 8,-200 2952,-200 2952,-8 8,-8"/>
<text text-anchor="middle" x="1480" y="-184.8" font-family="Times,serif" font-size="14.00">MPSoC</text>
</g>
<g id="clust2" class="cluster">
<title>cluster FPGA</title>
<polygon fill="none" stroke="black" points="2328,-16 2328,-169 2944,-169 2944,-16 2328,-16"/>
<text text-anchor="middle" x="2636" y="-153.8" font-family="Times,serif" font-size="14.00">FPGA</text>
</g>
<g id="clust3" class="cluster">
<title>cluster SoC3</title>
<polygon fill="none" stroke="black" points="2792,-24 2792,-138 2936,-138 2936,-24 2792,-24"/>
<text text-anchor="middle" x="2864" y="-122.8" font-family="Times,serif" font-size="14.00">SoC&#45;3</text>
</g>
<g id="clust4" class="cluster">
<title>cluster Unit3</title>
<polygon fill="none" stroke="black" points="2800,-32 2800,-107 2928,-107 2928,-32 2800,-32"/>
<text text-anchor="middle" x="2864" y="-91.8" font-family="Times,serif" font-size="14.00">Unit&#45;3</text>
</g>
<g id="clust5" class="cluster">
<title>cluster SoC2</title>
<polygon fill="none" stroke="black" points="2640,-24 2640,-138 2784,-138 2784,-24 2640,-24"/>
<text text-anchor="middle" x="2712" y="-122.8" font-family="Times,serif" font-size="14.00">SoC&#45;2</text>
</g>
<g id="clust6" class="cluster">
<title>cluster Unit2</title>
<polygon fill="none" stroke="black" points="2648,-32 2648,-107 2776,-107 2776,-32 2648,-32"/>
<text text-anchor="middle" x="2712" y="-91.8" font-family="Times,serif" font-size="14.00">Unit&#45;2</text>
</g>
<g id="clust7" class="cluster">
<title>cluster SoC1</title>
<polygon fill="none" stroke="black" points="2488,-24 2488,-138 2632,-138 2632,-24 2488,-24"/>
<text text-anchor="middle" x="2560" y="-122.8" font-family="Times,serif" font-size="14.00">SoC&#45;1</text>
</g>
<g id="clust8" class="cluster">
<title>cluster Unit1</title>
<polygon fill="none" stroke="black" points="2496,-32 2496,-107 2624,-107 2624,-32 2496,-32"/>
<text text-anchor="middle" x="2560" y="-91.8" font-family="Times,serif" font-size="14.00">Unit&#45;1</text>
</g>
<g id="clust9" class="cluster">
<title>cluster SoC0</title>
<polygon fill="none" stroke="black" points="2336,-24 2336,-138 2480,-138 2480,-24 2336,-24"/>
<text text-anchor="middle" x="2408" y="-122.8" font-family="Times,serif" font-size="14.00">SoC&#45;0</text>
</g>
<g id="clust10" class="cluster">
<title>cluster Unit0</title>
<polygon fill="none" stroke="black" points="2344,-32 2344,-107 2472,-107 2472,-32 2344,-32"/>
<text text-anchor="middle" x="2408" y="-91.8" font-family="Times,serif" font-size="14.00">Unit&#45;0</text>
</g>
<g id="clust11" class="cluster">
<title>cluster ASIC</title>
<polygon fill="none" stroke="black" points="16,-16 16,-169 2320,-169 2320,-16 16,-16"/>
<text text-anchor="middle" x="1168" y="-153.8" font-family="Times,serif" font-size="14.00">ASIC</text>
</g>
<g id="clust12" class="cluster">
<title>cluster SoC3</title>
<polygon fill="none" stroke="black" points="1746,-24 1746,-138 2312,-138 2312,-24 1746,-24"/>
<text text-anchor="middle" x="2029" y="-122.8" font-family="Times,serif" font-size="14.00">SoC&#45;3</text>
</g>
<g id="clust13" class="cluster">
<title>cluster Memory3</title>
<polygon fill="none" stroke="black" points="2200,-32 2200,-107 2304,-107 2304,-32 2200,-32"/>
<text text-anchor="middle" x="2252" y="-91.8" font-family="Times,serif" font-size="14.00">Memory&#45;3</text>
</g>
<g id="clust14" class="cluster">
<title>cluster PU3</title>
<polygon fill="none" stroke="black" points="1754,-32 1754,-107 2192,-107 2192,-32 1754,-32"/>
<text text-anchor="middle" x="1973" y="-91.8" font-family="Times,serif" font-size="14.00">PU&#45;3</text>
</g>
<g id="clust15" class="cluster">
<title>cluster SoC2</title>
<polygon fill="none" stroke="black" points="1172,-24 1172,-138 1738,-138 1738,-24 1172,-24"/>
<text text-anchor="middle" x="1455" y="-122.8" font-family="Times,serif" font-size="14.00">SoC&#45;2</text>
</g>
<g id="clust16" class="cluster">
<title>cluster Memory2</title>
<polygon fill="none" stroke="black" points="1626,-32 1626,-107 1730,-107 1730,-32 1626,-32"/>
<text text-anchor="middle" x="1678" y="-91.8" font-family="Times,serif" font-size="14.00">Memory&#45;2</text>
</g>
<g id="clust17" class="cluster">
<title>cluster PU2</title>
<polygon fill="none" stroke="black" points="1180,-32 1180,-107 1618,-107 1618,-32 1180,-32"/>
<text text-anchor="middle" x="1399" y="-91.8" font-family="Times,serif" font-size="14.00">PU&#45;2</text>
</g>
<g id="clust18" class="cluster">
<title>cluster SoC1</title>
<polygon fill="none" stroke="black" points="598,-24 598,-138 1164,-138 1164,-24 598,-24"/>
<text text-anchor="middle" x="881" y="-122.8" font-family="Times,serif" font-size="14.00">SoC&#45;1</text>
</g>
<g id="clust19" class="cluster">
<title>cluster Memory1</title>
<polygon fill="none" stroke="black" points="1052,-32 1052,-107 1156,-107 1156,-32 1052,-32"/>
<text text-anchor="middle" x="1104" y="-91.8" font-family="Times,serif" font-size="14.00">Memory&#45;1</text>
</g>
<g id="clust20" class="cluster">
<title>cluster PU1</title>
<polygon fill="none" stroke="black" points="606,-32 606,-107 1044,-107 1044,-32 606,-32"/>
<text text-anchor="middle" x="825" y="-91.8" font-family="Times,serif" font-size="14.00">PU&#45;1</text>
</g>
<g id="clust21" class="cluster">
<title>cluster SoC0</title>
<polygon fill="none" stroke="black" points="24,-24 24,-138 590,-138 590,-24 24,-24"/>
<text text-anchor="middle" x="307" y="-122.8" font-family="Times,serif" font-size="14.00">SoC&#45;0</text>
</g>
<g id="clust22" class="cluster">
<title>cluster Memory0</title>
<polygon fill="none" stroke="black" points="478,-32 478,-107 582,-107 582,-32 478,-32"/>
<text text-anchor="middle" x="530" y="-91.8" font-family="Times,serif" font-size="14.00">Memory&#45;0</text>
</g>
<g id="clust23" class="cluster">
<title>cluster PU0</title>
<polygon fill="none" stroke="black" points="32,-32 32,-107 470,-107 470,-32 32,-32"/>
<text text-anchor="middle" x="251" y="-91.8" font-family="Times,serif" font-size="14.00">PU&#45;0</text>
</g>
<!-- Accelerator3 -->
<g id="node1" class="node">
<title>Accelerator3</title>
<polygon fill="none" stroke="black" points="2920,-76 2808,-76 2808,-40 2920,-40 2920,-76"/>
<text text-anchor="middle" x="2864" y="-54.3" font-family="Times,serif" font-size="14.00">Accelerator&#45;3</text>
</g>
<!-- Accelerator2 -->
<g id="node2" class="node">
<title>Accelerator2</title>
<polygon fill="none" stroke="black" points="2768,-76 2656,-76 2656,-40 2768,-40 2768,-76"/>
<text text-anchor="middle" x="2712" y="-54.3" font-family="Times,serif" font-size="14.00">Accelerator&#45;2</text>
</g>
<!-- Accelerator1 -->
<g id="node3" class="node">
<title>Accelerator1</title>
<polygon fill="none" stroke="black" points="2616,-76 2504,-76 2504,-40 2616,-40 2616,-76"/>
<text text-anchor="middle" x="2560" y="-54.3" font-family="Times,serif" font-size="14.00">Accelerator&#45;1</text>
</g>
<!-- Accelerator0 -->
<g id="node4" class="node">
<title>Accelerator0</title>
<polygon fill="none" stroke="black" points="2464,-76 2352,-76 2352,-40 2464,-40 2464,-76"/>
<text text-anchor="middle" x="2408" y="-54.3" font-family="Times,serif" font-size="14.00">Accelerator&#45;0</text>
</g>
<!-- MPRAM3 -->
<g id="node5" class="node">
<title>MPRAM3</title>
<polygon fill="none" stroke="black" points="2296.5,-76 2207.5,-76 2207.5,-40 2296.5,-40 2296.5,-76"/>
<text text-anchor="middle" x="2252" y="-54.3" font-family="Times,serif" font-size="14.00">MPRAM&#45;3</text>
</g>
<!-- RISCV33 -->
<g id="node6" class="node">
<title>RISCV33</title>
<polygon fill="none" stroke="black" points="2184,-76 2092,-76 2092,-40 2184,-40 2184,-76"/>
<text text-anchor="middle" x="2138" y="-54.3" font-family="Times,serif" font-size="14.00">RISC&#45;V&#45;3&#45;3</text>
</g>
<!-- RISCV32 -->
<g id="node7" class="node">
<title>RISCV32</title>
<polygon fill="none" stroke="black" points="2074,-76 1982,-76 1982,-40 2074,-40 2074,-76"/>
<text text-anchor="middle" x="2028" y="-54.3" font-family="Times,serif" font-size="14.00">RISC&#45;V&#45;3&#45;2</text>
</g>
<!-- RISCV31 -->
<g id="node8" class="node">
<title>RISCV31</title>
<polygon fill="none" stroke="black" points="1964,-76 1872,-76 1872,-40 1964,-40 1964,-76"/>
<text text-anchor="middle" x="1918" y="-54.3" font-family="Times,serif" font-size="14.00">RISC&#45;V&#45;3&#45;1</text>
</g>
<!-- RISCV30 -->
<g id="node9" class="node">
<title>RISCV30</title>
<polygon fill="none" stroke="black" points="1854,-76 1762,-76 1762,-40 1854,-40 1854,-76"/>
<text text-anchor="middle" x="1808" y="-54.3" font-family="Times,serif" font-size="14.00">RISC&#45;V&#45;3&#45;0</text>
</g>
<!-- MPRAM2 -->
<g id="node10" class="node">
<title>MPRAM2</title>
<polygon fill="none" stroke="black" points="1722.5,-76 1633.5,-76 1633.5,-40 1722.5,-40 1722.5,-76"/>
<text text-anchor="middle" x="1678" y="-54.3" font-family="Times,serif" font-size="14.00">MPRAM&#45;2</text>
</g>
<!-- RISCV23 -->
<g id="node11" class="node">
<title>RISCV23</title>
<polygon fill="none" stroke="black" points="1610,-76 1518,-76 1518,-40 1610,-40 1610,-76"/>
<text text-anchor="middle" x="1564" y="-54.3" font-family="Times,serif" font-size="14.00">RISC&#45;V&#45;2&#45;3</text>
</g>
<!-- RISCV22 -->
<g id="node12" class="node">
<title>RISCV22</title>
<polygon fill="none" stroke="black" points="1500,-76 1408,-76 1408,-40 1500,-40 1500,-76"/>
<text text-anchor="middle" x="1454" y="-54.3" font-family="Times,serif" font-size="14.00">RISC&#45;V&#45;2&#45;2</text>
</g>
<!-- RISCV21 -->
<g id="node13" class="node">
<title>RISCV21</title>
<polygon fill="none" stroke="black" points="1390,-76 1298,-76 1298,-40 1390,-40 1390,-76"/>
<text text-anchor="middle" x="1344" y="-54.3" font-family="Times,serif" font-size="14.00">RISC&#45;V&#45;2&#45;1</text>
</g>
<!-- RISCV20 -->
<g id="node14" class="node">
<title>RISCV20</title>
<polygon fill="none" stroke="black" points="1280,-76 1188,-76 1188,-40 1280,-40 1280,-76"/>
<text text-anchor="middle" x="1234" y="-54.3" font-family="Times,serif" font-size="14.00">RISC&#45;V&#45;2&#45;0</text>
</g>
<!-- MPRAM1 -->
<g id="node15" class="node">
<title>MPRAM1</title>
<polygon fill="none" stroke="black" points="1148.5,-76 1059.5,-76 1059.5,-40 1148.5,-40 1148.5,-76"/>
<text text-anchor="middle" x="1104" y="-54.3" font-family="Times,serif" font-size="14.00">MPRAM&#45;1</text>
</g>
<!-- RISCV13 -->
<g id="node16" class="node">
<title>RISCV13</title>
<polygon fill="none" stroke="black" points="1036,-76 944,-76 944,-40 1036,-40 1036,-76"/>
<text text-anchor="middle" x="990" y="-54.3" font-family="Times,serif" font-size="14.00">RISC&#45;V&#45;1&#45;3</text>
</g>
<!-- RISCV12 -->
<g id="node17" class="node">
<title>RISCV12</title>
<polygon fill="none" stroke="black" points="926,-76 834,-76 834,-40 926,-40 926,-76"/>
<text text-anchor="middle" x="880" y="-54.3" font-family="Times,serif" font-size="14.00">RISC&#45;V&#45;1&#45;2</text>
</g>
<!-- RISCV11 -->
<g id="node18" class="node">
<title>RISCV11</title>
<polygon fill="none" stroke="black" points="816,-76 724,-76 724,-40 816,-40 816,-76"/>
<text text-anchor="middle" x="770" y="-54.3" font-family="Times,serif" font-size="14.00">RISC&#45;V&#45;1&#45;1</text>
</g>
<!-- RISCV10 -->
<g id="node19" class="node">
<title>RISCV10</title>
<polygon fill="none" stroke="black" points="706,-76 614,-76 614,-40 706,-40 706,-76"/>
<text text-anchor="middle" x="660" y="-54.3" font-family="Times,serif" font-size="14.00">RISC&#45;V&#45;1&#45;0</text>
</g>
<!-- MPRAM0 -->
<g id="node20" class="node">
<title>MPRAM0</title>
<polygon fill="none" stroke="black" points="574.5,-76 485.5,-76 485.5,-40 574.5,-40 574.5,-76"/>
<text text-anchor="middle" x="530" y="-54.3" font-family="Times,serif" font-size="14.00">MPRAM&#45;0</text>
</g>
<!-- RISCV03 -->
<g id="node21" class="node">
<title>RISCV03</title>
<polygon fill="none" stroke="black" points="462,-76 370,-76 370,-40 462,-40 462,-76"/>
<text text-anchor="middle" x="416" y="-54.3" font-family="Times,serif" font-size="14.00">RISC&#45;V&#45;0&#45;3</text>
</g>
<!-- RISCV02 -->
<g id="node22" class="node">
<title>RISCV02</title>
<polygon fill="none" stroke="black" points="352,-76 260,-76 260,-40 352,-40 352,-76"/>
<text text-anchor="middle" x="306" y="-54.3" font-family="Times,serif" font-size="14.00">RISC&#45;V&#45;0&#45;2</text>
</g>
<!-- RISCV01 -->
<g id="node23" class="node">
<title>RISCV01</title>
<polygon fill="none" stroke="black" points="242,-76 150,-76 150,-40 242,-40 242,-76"/>
<text text-anchor="middle" x="196" y="-54.3" font-family="Times,serif" font-size="14.00">RISC&#45;V&#45;0&#45;1</text>
</g>
<!-- RISCV00 -->
<g id="node24" class="node">
<title>RISCV00</title>
<polygon fill="none" stroke="black" points="132,-76 40,-76 40,-40 132,-40 132,-76"/>
<text text-anchor="middle" x="86" y="-54.3" font-family="Times,serif" font-size="14.00">RISC&#45;V&#45;0&#45;0</text>
</g>
</g>
</svg>
