<?xml version="1.0" encoding="UTF-8" standalone="no"?>
<!DOCTYPE svg PUBLIC "-//W3C//DTD SVG 1.1//EN"
 "http://www.w3.org/Graphics/SVG/1.1/DTD/svg11.dtd">
<!-- Generated by graphviz version 2.43.0 (0)
 -->
<!-- Title: Project Pages: 1 -->
<svg width="3204pt" height="255pt"
 viewBox="0.00 0.00 3204.00 255.00" xmlns="http://www.w3.org/2000/svg" xmlns:xlink="http://www.w3.org/1999/xlink">
<g id="graph0" class="graph" transform="scale(1 1) rotate(0) translate(4 251)">
<title>Project</title>
<polygon fill="white" stroke="transparent" points="-4,4 -4,-251 3200,-251 3200,4 -4,4"/>
<g id="clust1" class="cluster">
<title>cluster Prototype</title>
<polygon fill="none" stroke="black" points="8,-8 8,-239 3188,-239 3188,-8 8,-8"/>
<text text-anchor="middle" x="1598" y="-223.8" font-family="Times,serif" font-size="14.00">Prototype</text>
</g>
<g id="clust2" class="cluster">
<title>cluster FPGA</title>
<polygon fill="none" stroke="black" points="2564,-16 2564,-208 3180,-208 3180,-16 2564,-16"/>
<text text-anchor="middle" x="2872" y="-192.8" font-family="Times,serif" font-size="14.00">FPGA</text>
</g>
<g id="clust3" class="cluster">
<title>cluster Accelerator3</title>
<polygon fill="none" stroke="black" points="3028,-24 3028,-177 3172,-177 3172,-24 3028,-24"/>
<text text-anchor="middle" x="3100" y="-161.8" font-family="Times,serif" font-size="14.00">Accelerator&#45;3</text>
</g>
<g id="clust4" class="cluster">
<title>cluster Complex3</title>
<polygon fill="none" stroke="black" points="3036,-32 3036,-146 3164,-146 3164,-32 3036,-32"/>
<text text-anchor="middle" x="3100" y="-130.8" font-family="Times,serif" font-size="14.00">Complex&#45;3</text>
</g>
<g id="clust5" class="cluster">
<title>cluster Real3</title>
<polygon fill="none" stroke="black" points="3044,-40 3044,-115 3156,-115 3156,-40 3044,-40"/>
<text text-anchor="middle" x="3100" y="-99.8" font-family="Times,serif" font-size="14.00">Real&#45;3</text>
</g>
<g id="clust6" class="cluster">
<title>cluster Accelerator2</title>
<polygon fill="none" stroke="black" points="2876,-24 2876,-177 3020,-177 3020,-24 2876,-24"/>
<text text-anchor="middle" x="2948" y="-161.8" font-family="Times,serif" font-size="14.00">Accelerator&#45;2</text>
</g>
<g id="clust7" class="cluster">
<title>cluster Complex2</title>
<polygon fill="none" stroke="black" points="2884,-32 2884,-146 3012,-146 3012,-32 2884,-32"/>
<text text-anchor="middle" x="2948" y="-130.8" font-family="Times,serif" font-size="14.00">Complex&#45;2</text>
</g>
<g id="clust8" class="cluster">
<title>cluster Real2</title>
<polygon fill="none" stroke="black" points="2892,-40 2892,-115 3004,-115 3004,-40 2892,-40"/>
<text text-anchor="middle" x="2948" y="-99.8" font-family="Times,serif" font-size="14.00">Real&#45;2</text>
</g>
<g id="clust9" class="cluster">
<title>cluster Accelerator1</title>
<polygon fill="none" stroke="black" points="2724,-24 2724,-177 2868,-177 2868,-24 2724,-24"/>
<text text-anchor="middle" x="2796" y="-161.8" font-family="Times,serif" font-size="14.00">Accelerator&#45;1</text>
</g>
<g id="clust10" class="cluster">
<title>cluster Complex1</title>
<polygon fill="none" stroke="black" points="2732,-32 2732,-146 2860,-146 2860,-32 2732,-32"/>
<text text-anchor="middle" x="2796" y="-130.8" font-family="Times,serif" font-size="14.00">Complex&#45;1</text>
</g>
<g id="clust11" class="cluster">
<title>cluster Real1</title>
<polygon fill="none" stroke="black" points="2740,-40 2740,-115 2852,-115 2852,-40 2740,-40"/>
<text text-anchor="middle" x="2796" y="-99.8" font-family="Times,serif" font-size="14.00">Real&#45;1</text>
</g>
<g id="clust12" class="cluster">
<title>cluster Accelerator0</title>
<polygon fill="none" stroke="black" points="2572,-24 2572,-177 2716,-177 2716,-24 2572,-24"/>
<text text-anchor="middle" x="2644" y="-161.8" font-family="Times,serif" font-size="14.00">Accelerator&#45;0</text>
</g>
<g id="clust13" class="cluster">
<title>cluster Complex0</title>
<polygon fill="none" stroke="black" points="2580,-32 2580,-146 2708,-146 2708,-32 2580,-32"/>
<text text-anchor="middle" x="2644" y="-130.8" font-family="Times,serif" font-size="14.00">Complex&#45;0</text>
</g>
<g id="clust14" class="cluster">
<title>cluster Real0</title>
<polygon fill="none" stroke="black" points="2588,-40 2588,-115 2700,-115 2700,-40 2588,-40"/>
<text text-anchor="middle" x="2644" y="-99.8" font-family="Times,serif" font-size="14.00">Real&#45;0</text>
</g>
<g id="clust15" class="cluster">
<title>cluster ASIC</title>
<polygon fill="none" stroke="black" points="16,-16 16,-208 2556,-208 2556,-16 16,-16"/>
<text text-anchor="middle" x="1286" y="-192.8" font-family="Times,serif" font-size="14.00">ASIC</text>
</g>
<g id="clust16" class="cluster">
<title>cluster MPSoC</title>
<polygon fill="none" stroke="black" points="24,-24 24,-177 2548,-177 2548,-24 24,-24"/>
<text text-anchor="middle" x="1286" y="-161.8" font-family="Times,serif" font-size="14.00">MPSoC</text>
</g>
<g id="clust17" class="cluster">
<title>cluster SoC3</title>
<polygon fill="none" stroke="black" points="1919,-32 1919,-146 2540,-146 2540,-32 1919,-32"/>
<text text-anchor="middle" x="2229.5" y="-130.8" font-family="Times,serif" font-size="14.00">SoC&#45;3</text>
</g>
<g id="clust18" class="cluster">
<title>cluster PRF3</title>
<polygon fill="none" stroke="black" points="2418,-40 2418,-115 2532,-115 2532,-40 2418,-40"/>
<text text-anchor="middle" x="2475" y="-99.8" font-family="Times,serif" font-size="14.00">PRF&#45;3</text>
</g>
<g id="clust19" class="cluster">
<title>cluster PU3</title>
<polygon fill="none" stroke="black" points="1927,-40 1927,-115 2410,-115 2410,-40 1927,-40"/>
<text text-anchor="middle" x="2168.5" y="-99.8" font-family="Times,serif" font-size="14.00">PU&#45;3</text>
</g>
<g id="clust20" class="cluster">
<title>cluster SoC2</title>
<polygon fill="none" stroke="black" points="1290,-32 1290,-146 1911,-146 1911,-32 1290,-32"/>
<text text-anchor="middle" x="1600.5" y="-130.8" font-family="Times,serif" font-size="14.00">SoC&#45;2</text>
</g>
<g id="clust21" class="cluster">
<title>cluster PRF2</title>
<polygon fill="none" stroke="black" points="1789,-40 1789,-115 1903,-115 1903,-40 1789,-40"/>
<text text-anchor="middle" x="1846" y="-99.8" font-family="Times,serif" font-size="14.00">PRF&#45;2</text>
</g>
<g id="clust22" class="cluster">
<title>cluster PU2</title>
<polygon fill="none" stroke="black" points="1298,-40 1298,-115 1781,-115 1781,-40 1298,-40"/>
<text text-anchor="middle" x="1539.5" y="-99.8" font-family="Times,serif" font-size="14.00">PU&#45;2</text>
</g>
<g id="clust23" class="cluster">
<title>cluster SoC1</title>
<polygon fill="none" stroke="black" points="661,-32 661,-146 1282,-146 1282,-32 661,-32"/>
<text text-anchor="middle" x="971.5" y="-130.8" font-family="Times,serif" font-size="14.00">SoC&#45;1</text>
</g>
<g id="clust24" class="cluster">
<title>cluster PRF1</title>
<polygon fill="none" stroke="black" points="1160,-40 1160,-115 1274,-115 1274,-40 1160,-40"/>
<text text-anchor="middle" x="1217" y="-99.8" font-family="Times,serif" font-size="14.00">PRF&#45;1</text>
</g>
<g id="clust25" class="cluster">
<title>cluster PU1</title>
<polygon fill="none" stroke="black" points="669,-40 669,-115 1152,-115 1152,-40 669,-40"/>
<text text-anchor="middle" x="910.5" y="-99.8" font-family="Times,serif" font-size="14.00">PU&#45;1</text>
</g>
<g id="clust26" class="cluster">
<title>cluster SoC0</title>
<polygon fill="none" stroke="black" points="32,-32 32,-146 653,-146 653,-32 32,-32"/>
<text text-anchor="middle" x="342.5" y="-130.8" font-family="Times,serif" font-size="14.00">SoC&#45;0</text>
</g>
<g id="clust27" class="cluster">
<title>cluster PRF0</title>
<polygon fill="none" stroke="black" points="531,-40 531,-115 645,-115 645,-40 531,-40"/>
<text text-anchor="middle" x="588" y="-99.8" font-family="Times,serif" font-size="14.00">PRF&#45;0</text>
</g>
<g id="clust28" class="cluster">
<title>cluster PU0</title>
<polygon fill="none" stroke="black" points="40,-40 40,-115 523,-115 523,-40 40,-40"/>
<text text-anchor="middle" x="281.5" y="-99.8" font-family="Times,serif" font-size="14.00">PU&#45;0</text>
</g>
<!-- Standard3 -->
<g id="node1" class="node">
<title>Standard3</title>
<polygon fill="none" stroke="black" points="3148,-84 3052,-84 3052,-48 3148,-48 3148,-84"/>
<text text-anchor="middle" x="3100" y="-62.3" font-family="Times,serif" font-size="14.00">Standard&#45;3</text>
</g>
<!-- Standard2 -->
<g id="node2" class="node">
<title>Standard2</title>
<polygon fill="none" stroke="black" points="2996,-84 2900,-84 2900,-48 2996,-48 2996,-84"/>
<text text-anchor="middle" x="2948" y="-62.3" font-family="Times,serif" font-size="14.00">Standard&#45;2</text>
</g>
<!-- Standard1 -->
<g id="node3" class="node">
<title>Standard1</title>
<polygon fill="none" stroke="black" points="2844,-84 2748,-84 2748,-48 2844,-48 2844,-84"/>
<text text-anchor="middle" x="2796" y="-62.3" font-family="Times,serif" font-size="14.00">Standard&#45;1</text>
</g>
<!-- Standard0 -->
<g id="node4" class="node">
<title>Standard0</title>
<polygon fill="none" stroke="black" points="2692,-84 2596,-84 2596,-48 2692,-48 2692,-84"/>
<text text-anchor="middle" x="2644" y="-62.3" font-family="Times,serif" font-size="14.00">Standard&#45;0</text>
</g>
<!-- BFM_PRF3 -->
<g id="node5" class="node">
<title>BFM_PRF3</title>
<polygon fill="none" stroke="black" points="2524,-84 2426,-84 2426,-48 2524,-48 2524,-84"/>
<text text-anchor="middle" x="2475" y="-62.3" font-family="Times,serif" font-size="14.00">BFM&#45;PRF&#45;3</text>
</g>
<!-- BFM_PU33 -->
<g id="node6" class="node">
<title>BFM_PU33</title>
<polygon fill="none" stroke="black" points="2401.5,-84 2298.5,-84 2298.5,-48 2401.5,-48 2401.5,-84"/>
<text text-anchor="middle" x="2350" y="-62.3" font-family="Times,serif" font-size="14.00">BFM&#45;PU&#45;3&#45;3</text>
</g>
<!-- BFM_PU32 -->
<g id="node7" class="node">
<title>BFM_PU32</title>
<polygon fill="none" stroke="black" points="2280.5,-84 2177.5,-84 2177.5,-48 2280.5,-48 2280.5,-84"/>
<text text-anchor="middle" x="2229" y="-62.3" font-family="Times,serif" font-size="14.00">BFM&#45;PU&#45;3&#45;2</text>
</g>
<!-- BFM_PU31 -->
<g id="node8" class="node">
<title>BFM_PU31</title>
<polygon fill="none" stroke="black" points="2159.5,-84 2056.5,-84 2056.5,-48 2159.5,-48 2159.5,-84"/>
<text text-anchor="middle" x="2108" y="-62.3" font-family="Times,serif" font-size="14.00">BFM&#45;PU&#45;3&#45;1</text>
</g>
<!-- BFM_PU30 -->
<g id="node9" class="node">
<title>BFM_PU30</title>
<polygon fill="none" stroke="black" points="2038.5,-84 1935.5,-84 1935.5,-48 2038.5,-48 2038.5,-84"/>
<text text-anchor="middle" x="1987" y="-62.3" font-family="Times,serif" font-size="14.00">BFM&#45;PU&#45;3&#45;0</text>
</g>
<!-- BFM_PRF2 -->
<g id="node10" class="node">
<title>BFM_PRF2</title>
<polygon fill="none" stroke="black" points="1895,-84 1797,-84 1797,-48 1895,-48 1895,-84"/>
<text text-anchor="middle" x="1846" y="-62.3" font-family="Times,serif" font-size="14.00">BFM&#45;PRF&#45;2</text>
</g>
<!-- BFM_PU23 -->
<g id="node11" class="node">
<title>BFM_PU23</title>
<polygon fill="none" stroke="black" points="1772.5,-84 1669.5,-84 1669.5,-48 1772.5,-48 1772.5,-84"/>
<text text-anchor="middle" x="1721" y="-62.3" font-family="Times,serif" font-size="14.00">BFM&#45;PU&#45;2&#45;3</text>
</g>
<!-- BFM_PU22 -->
<g id="node12" class="node">
<title>BFM_PU22</title>
<polygon fill="none" stroke="black" points="1651.5,-84 1548.5,-84 1548.5,-48 1651.5,-48 1651.5,-84"/>
<text text-anchor="middle" x="1600" y="-62.3" font-family="Times,serif" font-size="14.00">BFM&#45;PU&#45;2&#45;2</text>
</g>
<!-- BFM_PU21 -->
<g id="node13" class="node">
<title>BFM_PU21</title>
<polygon fill="none" stroke="black" points="1530.5,-84 1427.5,-84 1427.5,-48 1530.5,-48 1530.5,-84"/>
<text text-anchor="middle" x="1479" y="-62.3" font-family="Times,serif" font-size="14.00">BFM&#45;PU&#45;2&#45;1</text>
</g>
<!-- BFM_PU20 -->
<g id="node14" class="node">
<title>BFM_PU20</title>
<polygon fill="none" stroke="black" points="1409.5,-84 1306.5,-84 1306.5,-48 1409.5,-48 1409.5,-84"/>
<text text-anchor="middle" x="1358" y="-62.3" font-family="Times,serif" font-size="14.00">BFM&#45;PU&#45;2&#45;0</text>
</g>
<!-- BFM_PRF1 -->
<g id="node15" class="node">
<title>BFM_PRF1</title>
<polygon fill="none" stroke="black" points="1266,-84 1168,-84 1168,-48 1266,-48 1266,-84"/>
<text text-anchor="middle" x="1217" y="-62.3" font-family="Times,serif" font-size="14.00">BFM&#45;PRF&#45;1</text>
</g>
<!-- BFM_PU13 -->
<g id="node16" class="node">
<title>BFM_PU13</title>
<polygon fill="none" stroke="black" points="1143.5,-84 1040.5,-84 1040.5,-48 1143.5,-48 1143.5,-84"/>
<text text-anchor="middle" x="1092" y="-62.3" font-family="Times,serif" font-size="14.00">BFM&#45;PU&#45;1&#45;3</text>
</g>
<!-- BFM_PU12 -->
<g id="node17" class="node">
<title>BFM_PU12</title>
<polygon fill="none" stroke="black" points="1022.5,-84 919.5,-84 919.5,-48 1022.5,-48 1022.5,-84"/>
<text text-anchor="middle" x="971" y="-62.3" font-family="Times,serif" font-size="14.00">BFM&#45;PU&#45;1&#45;2</text>
</g>
<!-- BFM_PU11 -->
<g id="node18" class="node">
<title>BFM_PU11</title>
<polygon fill="none" stroke="black" points="901.5,-84 798.5,-84 798.5,-48 901.5,-48 901.5,-84"/>
<text text-anchor="middle" x="850" y="-62.3" font-family="Times,serif" font-size="14.00">BFM&#45;PU&#45;1&#45;1</text>
</g>
<!-- BFM_PU10 -->
<g id="node19" class="node">
<title>BFM_PU10</title>
<polygon fill="none" stroke="black" points="780.5,-84 677.5,-84 677.5,-48 780.5,-48 780.5,-84"/>
<text text-anchor="middle" x="729" y="-62.3" font-family="Times,serif" font-size="14.00">BFM&#45;PU&#45;1&#45;0</text>
</g>
<!-- BFM_PRF0 -->
<g id="node20" class="node">
<title>BFM_PRF0</title>
<polygon fill="none" stroke="black" points="637,-84 539,-84 539,-48 637,-48 637,-84"/>
<text text-anchor="middle" x="588" y="-62.3" font-family="Times,serif" font-size="14.00">BFM&#45;PRF&#45;0</text>
</g>
<!-- BFM_PU03 -->
<g id="node21" class="node">
<title>BFM_PU03</title>
<polygon fill="none" stroke="black" points="514.5,-84 411.5,-84 411.5,-48 514.5,-48 514.5,-84"/>
<text text-anchor="middle" x="463" y="-62.3" font-family="Times,serif" font-size="14.00">BFM&#45;PU&#45;0&#45;3</text>
</g>
<!-- BFM_PU02 -->
<g id="node22" class="node">
<title>BFM_PU02</title>
<polygon fill="none" stroke="black" points="393.5,-84 290.5,-84 290.5,-48 393.5,-48 393.5,-84"/>
<text text-anchor="middle" x="342" y="-62.3" font-family="Times,serif" font-size="14.00">BFM&#45;PU&#45;0&#45;2</text>
</g>
<!-- BFM_PU01 -->
<g id="node23" class="node">
<title>BFM_PU01</title>
<polygon fill="none" stroke="black" points="272.5,-84 169.5,-84 169.5,-48 272.5,-48 272.5,-84"/>
<text text-anchor="middle" x="221" y="-62.3" font-family="Times,serif" font-size="14.00">BFM&#45;PU&#45;0&#45;1</text>
</g>
<!-- BFM_PU00 -->
<g id="node24" class="node">
<title>BFM_PU00</title>
<polygon fill="none" stroke="black" points="151.5,-84 48.5,-84 48.5,-48 151.5,-48 151.5,-84"/>
<text text-anchor="middle" x="100" y="-62.3" font-family="Times,serif" font-size="14.00">BFM&#45;PU&#45;0&#45;0</text>
</g>
</g>
</svg>
