<?xml version="1.0" encoding="UTF-8" standalone="no"?>
<!DOCTYPE svg PUBLIC "-//W3C//DTD SVG 1.1//EN"
 "http://www.w3.org/Graphics/SVG/1.1/DTD/svg11.dtd">
<!-- Generated by graphviz version 2.43.0 (0)
 -->
<!-- Title: Project Pages: 1 -->
<svg width="1642pt" height="416pt"
 viewBox="0.00 0.00 1642.00 416.00" xmlns="http://www.w3.org/2000/svg" xmlns:xlink="http://www.w3.org/1999/xlink">
<g id="graph0" class="graph" transform="scale(1 1) rotate(0) translate(4 412)">
<title>Project</title>
<polygon fill="white" stroke="transparent" points="-4,4 -4,-412 1638,-412 1638,4 -4,4"/>
<g id="clust1" class="cluster">
<title>cluster Prototype</title>
<polygon fill="none" stroke="black" points="8,-8 8,-400 1626,-400 1626,-8 8,-8"/>
<text text-anchor="middle" x="817" y="-384.8" font-family="Times,serif" font-size="14.00">Prototype</text>
</g>
<g id="clust2" class="cluster">
<title>cluster FPGA</title>
<polygon fill="none" stroke="black" points="1306,-16 1306,-369 1618,-369 1618,-16 1306,-16"/>
<text text-anchor="middle" x="1462" y="-353.8" font-family="Times,serif" font-size="14.00">FPGA</text>
</g>
<g id="clust3" class="cluster">
<title>cluster Accelerator3</title>
<polygon fill="none" stroke="black" points="1466,-24 1466,-177 1610,-177 1610,-24 1466,-24"/>
<text text-anchor="middle" x="1538" y="-161.8" font-family="Times,serif" font-size="14.00">Accelerator&#45;3</text>
</g>
<g id="clust4" class="cluster">
<title>cluster Complex3</title>
<polygon fill="none" stroke="black" points="1474,-32 1474,-146 1602,-146 1602,-32 1474,-32"/>
<text text-anchor="middle" x="1538" y="-130.8" font-family="Times,serif" font-size="14.00">Complex&#45;3</text>
</g>
<g id="clust5" class="cluster">
<title>cluster Real3</title>
<polygon fill="none" stroke="black" points="1482,-40 1482,-115 1594,-115 1594,-40 1482,-40"/>
<text text-anchor="middle" x="1538" y="-99.8" font-family="Times,serif" font-size="14.00">Real&#45;3</text>
</g>
<g id="clust6" class="cluster">
<title>cluster Accelerator2</title>
<polygon fill="none" stroke="black" points="1314,-24 1314,-177 1458,-177 1458,-24 1314,-24"/>
<text text-anchor="middle" x="1386" y="-161.8" font-family="Times,serif" font-size="14.00">Accelerator&#45;2</text>
</g>
<g id="clust7" class="cluster">
<title>cluster Complex2</title>
<polygon fill="none" stroke="black" points="1322,-32 1322,-146 1450,-146 1450,-32 1322,-32"/>
<text text-anchor="middle" x="1386" y="-130.8" font-family="Times,serif" font-size="14.00">Complex&#45;2</text>
</g>
<g id="clust8" class="cluster">
<title>cluster Real2</title>
<polygon fill="none" stroke="black" points="1330,-40 1330,-115 1442,-115 1442,-40 1330,-40"/>
<text text-anchor="middle" x="1386" y="-99.8" font-family="Times,serif" font-size="14.00">Real&#45;2</text>
</g>
<g id="clust9" class="cluster">
<title>cluster Accelerator1</title>
<polygon fill="none" stroke="black" points="1466,-185 1466,-338 1610,-338 1610,-185 1466,-185"/>
<text text-anchor="middle" x="1538" y="-322.8" font-family="Times,serif" font-size="14.00">Accelerator&#45;1</text>
</g>
<g id="clust10" class="cluster">
<title>cluster Complex1</title>
<polygon fill="none" stroke="black" points="1474,-193 1474,-307 1602,-307 1602,-193 1474,-193"/>
<text text-anchor="middle" x="1538" y="-291.8" font-family="Times,serif" font-size="14.00">Complex&#45;1</text>
</g>
<g id="clust11" class="cluster">
<title>cluster Real1</title>
<polygon fill="none" stroke="black" points="1482,-201 1482,-276 1594,-276 1594,-201 1482,-201"/>
<text text-anchor="middle" x="1538" y="-260.8" font-family="Times,serif" font-size="14.00">Real&#45;1</text>
</g>
<g id="clust12" class="cluster">
<title>cluster Accelerator0</title>
<polygon fill="none" stroke="black" points="1314,-185 1314,-338 1458,-338 1458,-185 1314,-185"/>
<text text-anchor="middle" x="1386" y="-322.8" font-family="Times,serif" font-size="14.00">Accelerator&#45;0</text>
</g>
<g id="clust13" class="cluster">
<title>cluster Complex0</title>
<polygon fill="none" stroke="black" points="1322,-193 1322,-307 1450,-307 1450,-193 1322,-193"/>
<text text-anchor="middle" x="1386" y="-291.8" font-family="Times,serif" font-size="14.00">Complex&#45;0</text>
</g>
<g id="clust14" class="cluster">
<title>cluster Real0</title>
<polygon fill="none" stroke="black" points="1330,-201 1330,-276 1442,-276 1442,-201 1330,-201"/>
<text text-anchor="middle" x="1386" y="-260.8" font-family="Times,serif" font-size="14.00">Real&#45;0</text>
</g>
<g id="clust15" class="cluster">
<title>cluster ASIC</title>
<polygon fill="none" stroke="black" points="16,-16 16,-369 1298,-369 1298,-16 16,-16"/>
<text text-anchor="middle" x="657" y="-353.8" font-family="Times,serif" font-size="14.00">ASIC</text>
</g>
<g id="clust16" class="cluster">
<title>cluster MPSoC</title>
<polygon fill="none" stroke="black" points="24,-24 24,-338 1290,-338 1290,-24 24,-24"/>
<text text-anchor="middle" x="657" y="-322.8" font-family="Times,serif" font-size="14.00">MPSoC</text>
</g>
<g id="clust17" class="cluster">
<title>cluster SoC3</title>
<polygon fill="none" stroke="black" points="661,-32 661,-146 1282,-146 1282,-32 661,-32"/>
<text text-anchor="middle" x="971.5" y="-130.8" font-family="Times,serif" font-size="14.00">SoC&#45;3</text>
</g>
<g id="clust18" class="cluster">
<title>cluster PRF3</title>
<polygon fill="none" stroke="black" points="1160,-40 1160,-115 1274,-115 1274,-40 1160,-40"/>
<text text-anchor="middle" x="1217" y="-99.8" font-family="Times,serif" font-size="14.00">PRF&#45;3</text>
</g>
<g id="clust19" class="cluster">
<title>cluster PU3</title>
<polygon fill="none" stroke="black" points="669,-40 669,-115 1152,-115 1152,-40 669,-40"/>
<text text-anchor="middle" x="910.5" y="-99.8" font-family="Times,serif" font-size="14.00">PU&#45;3</text>
</g>
<g id="clust20" class="cluster">
<title>cluster SoC2</title>
<polygon fill="none" stroke="black" points="32,-32 32,-146 653,-146 653,-32 32,-32"/>
<text text-anchor="middle" x="342.5" y="-130.8" font-family="Times,serif" font-size="14.00">SoC&#45;2</text>
</g>
<g id="clust21" class="cluster">
<title>cluster PRF2</title>
<polygon fill="none" stroke="black" points="531,-40 531,-115 645,-115 645,-40 531,-40"/>
<text text-anchor="middle" x="588" y="-99.8" font-family="Times,serif" font-size="14.00">PRF&#45;2</text>
</g>
<g id="clust22" class="cluster">
<title>cluster PU2</title>
<polygon fill="none" stroke="black" points="40,-40 40,-115 523,-115 523,-40 40,-40"/>
<text text-anchor="middle" x="281.5" y="-99.8" font-family="Times,serif" font-size="14.00">PU&#45;2</text>
</g>
<g id="clust23" class="cluster">
<title>cluster SoC1</title>
<polygon fill="none" stroke="black" points="661,-193 661,-307 1282,-307 1282,-193 661,-193"/>
<text text-anchor="middle" x="971.5" y="-291.8" font-family="Times,serif" font-size="14.00">SoC&#45;1</text>
</g>
<g id="clust24" class="cluster">
<title>cluster PRF1</title>
<polygon fill="none" stroke="black" points="1160,-201 1160,-276 1274,-276 1274,-201 1160,-201"/>
<text text-anchor="middle" x="1217" y="-260.8" font-family="Times,serif" font-size="14.00">PRF&#45;1</text>
</g>
<g id="clust25" class="cluster">
<title>cluster PU1</title>
<polygon fill="none" stroke="black" points="669,-201 669,-276 1152,-276 1152,-201 669,-201"/>
<text text-anchor="middle" x="910.5" y="-260.8" font-family="Times,serif" font-size="14.00">PU&#45;1</text>
</g>
<g id="clust26" class="cluster">
<title>cluster SoC0</title>
<polygon fill="none" stroke="black" points="32,-193 32,-307 653,-307 653,-193 32,-193"/>
<text text-anchor="middle" x="342.5" y="-291.8" font-family="Times,serif" font-size="14.00">SoC&#45;0</text>
</g>
<g id="clust27" class="cluster">
<title>cluster PRF0</title>
<polygon fill="none" stroke="black" points="531,-201 531,-276 645,-276 645,-201 531,-201"/>
<text text-anchor="middle" x="588" y="-260.8" font-family="Times,serif" font-size="14.00">PRF&#45;0</text>
</g>
<g id="clust28" class="cluster">
<title>cluster PU0</title>
<polygon fill="none" stroke="black" points="40,-201 40,-276 523,-276 523,-201 40,-201"/>
<text text-anchor="middle" x="281.5" y="-260.8" font-family="Times,serif" font-size="14.00">PU&#45;0</text>
</g>
<!-- Standard3 -->
<g id="node1" class="node">
<title>Standard3</title>
<polygon fill="none" stroke="black" points="1586,-84 1490,-84 1490,-48 1586,-48 1586,-84"/>
<text text-anchor="middle" x="1538" y="-62.3" font-family="Times,serif" font-size="14.00">Standard&#45;3</text>
</g>
<!-- Standard2 -->
<g id="node2" class="node">
<title>Standard2</title>
<polygon fill="none" stroke="black" points="1434,-84 1338,-84 1338,-48 1434,-48 1434,-84"/>
<text text-anchor="middle" x="1386" y="-62.3" font-family="Times,serif" font-size="14.00">Standard&#45;2</text>
</g>
<!-- Standard1 -->
<g id="node3" class="node">
<title>Standard1</title>
<polygon fill="none" stroke="black" points="1586,-245 1490,-245 1490,-209 1586,-209 1586,-245"/>
<text text-anchor="middle" x="1538" y="-223.3" font-family="Times,serif" font-size="14.00">Standard&#45;1</text>
</g>
<!-- Standard1&#45;&gt;Standard3 -->
<!-- Standard0 -->
<g id="node4" class="node">
<title>Standard0</title>
<polygon fill="none" stroke="black" points="1434,-245 1338,-245 1338,-209 1434,-209 1434,-245"/>
<text text-anchor="middle" x="1386" y="-223.3" font-family="Times,serif" font-size="14.00">Standard&#45;0</text>
</g>
<!-- Standard0&#45;&gt;Standard2 -->
<!-- BFM_PRF3 -->
<g id="node5" class="node">
<title>BFM_PRF3</title>
<polygon fill="none" stroke="black" points="1266,-84 1168,-84 1168,-48 1266,-48 1266,-84"/>
<text text-anchor="middle" x="1217" y="-62.3" font-family="Times,serif" font-size="14.00">BFM&#45;PRF&#45;3</text>
</g>
<!-- BFM_PU33 -->
<g id="node6" class="node">
<title>BFM_PU33</title>
<polygon fill="none" stroke="black" points="1143.5,-84 1040.5,-84 1040.5,-48 1143.5,-48 1143.5,-84"/>
<text text-anchor="middle" x="1092" y="-62.3" font-family="Times,serif" font-size="14.00">BFM&#45;PU&#45;3&#45;3</text>
</g>
<!-- BFM_PU32 -->
<g id="node7" class="node">
<title>BFM_PU32</title>
<polygon fill="none" stroke="black" points="1022.5,-84 919.5,-84 919.5,-48 1022.5,-48 1022.5,-84"/>
<text text-anchor="middle" x="971" y="-62.3" font-family="Times,serif" font-size="14.00">BFM&#45;PU&#45;3&#45;2</text>
</g>
<!-- BFM_PU31 -->
<g id="node8" class="node">
<title>BFM_PU31</title>
<polygon fill="none" stroke="black" points="901.5,-84 798.5,-84 798.5,-48 901.5,-48 901.5,-84"/>
<text text-anchor="middle" x="850" y="-62.3" font-family="Times,serif" font-size="14.00">BFM&#45;PU&#45;3&#45;1</text>
</g>
<!-- BFM_PU30 -->
<g id="node9" class="node">
<title>BFM_PU30</title>
<polygon fill="none" stroke="black" points="780.5,-84 677.5,-84 677.5,-48 780.5,-48 780.5,-84"/>
<text text-anchor="middle" x="729" y="-62.3" font-family="Times,serif" font-size="14.00">BFM&#45;PU&#45;3&#45;0</text>
</g>
<!-- BFM_PRF2 -->
<g id="node10" class="node">
<title>BFM_PRF2</title>
<polygon fill="none" stroke="black" points="637,-84 539,-84 539,-48 637,-48 637,-84"/>
<text text-anchor="middle" x="588" y="-62.3" font-family="Times,serif" font-size="14.00">BFM&#45;PRF&#45;2</text>
</g>
<!-- BFM_PU23 -->
<g id="node11" class="node">
<title>BFM_PU23</title>
<polygon fill="none" stroke="black" points="514.5,-84 411.5,-84 411.5,-48 514.5,-48 514.5,-84"/>
<text text-anchor="middle" x="463" y="-62.3" font-family="Times,serif" font-size="14.00">BFM&#45;PU&#45;2&#45;3</text>
</g>
<!-- BFM_PU22 -->
<g id="node12" class="node">
<title>BFM_PU22</title>
<polygon fill="none" stroke="black" points="393.5,-84 290.5,-84 290.5,-48 393.5,-48 393.5,-84"/>
<text text-anchor="middle" x="342" y="-62.3" font-family="Times,serif" font-size="14.00">BFM&#45;PU&#45;2&#45;2</text>
</g>
<!-- BFM_PU21 -->
<g id="node13" class="node">
<title>BFM_PU21</title>
<polygon fill="none" stroke="black" points="272.5,-84 169.5,-84 169.5,-48 272.5,-48 272.5,-84"/>
<text text-anchor="middle" x="221" y="-62.3" font-family="Times,serif" font-size="14.00">BFM&#45;PU&#45;2&#45;1</text>
</g>
<!-- BFM_PU20 -->
<g id="node14" class="node">
<title>BFM_PU20</title>
<polygon fill="none" stroke="black" points="151.5,-84 48.5,-84 48.5,-48 151.5,-48 151.5,-84"/>
<text text-anchor="middle" x="100" y="-62.3" font-family="Times,serif" font-size="14.00">BFM&#45;PU&#45;2&#45;0</text>
</g>
<!-- BFM_PRF1 -->
<g id="node15" class="node">
<title>BFM_PRF1</title>
<polygon fill="none" stroke="black" points="1266,-245 1168,-245 1168,-209 1266,-209 1266,-245"/>
<text text-anchor="middle" x="1217" y="-223.3" font-family="Times,serif" font-size="14.00">BFM&#45;PRF&#45;1</text>
</g>
<!-- BFM_PRF1&#45;&gt;BFM_PRF3 -->
<!-- BFM_PU13 -->
<g id="node16" class="node">
<title>BFM_PU13</title>
<polygon fill="none" stroke="black" points="1143.5,-245 1040.5,-245 1040.5,-209 1143.5,-209 1143.5,-245"/>
<text text-anchor="middle" x="1092" y="-223.3" font-family="Times,serif" font-size="14.00">BFM&#45;PU&#45;1&#45;3</text>
</g>
<!-- BFM_PU12 -->
<g id="node17" class="node">
<title>BFM_PU12</title>
<polygon fill="none" stroke="black" points="1022.5,-245 919.5,-245 919.5,-209 1022.5,-209 1022.5,-245"/>
<text text-anchor="middle" x="971" y="-223.3" font-family="Times,serif" font-size="14.00">BFM&#45;PU&#45;1&#45;2</text>
</g>
<!-- BFM_PU11 -->
<g id="node18" class="node">
<title>BFM_PU11</title>
<polygon fill="none" stroke="black" points="901.5,-245 798.5,-245 798.5,-209 901.5,-209 901.5,-245"/>
<text text-anchor="middle" x="850" y="-223.3" font-family="Times,serif" font-size="14.00">BFM&#45;PU&#45;1&#45;1</text>
</g>
<!-- BFM_PU10 -->
<g id="node19" class="node">
<title>BFM_PU10</title>
<polygon fill="none" stroke="black" points="780.5,-245 677.5,-245 677.5,-209 780.5,-209 780.5,-245"/>
<text text-anchor="middle" x="729" y="-223.3" font-family="Times,serif" font-size="14.00">BFM&#45;PU&#45;1&#45;0</text>
</g>
<!-- BFM_PRF0 -->
<g id="node20" class="node">
<title>BFM_PRF0</title>
<polygon fill="none" stroke="black" points="637,-245 539,-245 539,-209 637,-209 637,-245"/>
<text text-anchor="middle" x="588" y="-223.3" font-family="Times,serif" font-size="14.00">BFM&#45;PRF&#45;0</text>
</g>
<!-- BFM_PRF0&#45;&gt;BFM_PRF2 -->
<!-- BFM_PU03 -->
<g id="node21" class="node">
<title>BFM_PU03</title>
<polygon fill="none" stroke="black" points="514.5,-245 411.5,-245 411.5,-209 514.5,-209 514.5,-245"/>
<text text-anchor="middle" x="463" y="-223.3" font-family="Times,serif" font-size="14.00">BFM&#45;PU&#45;0&#45;3</text>
</g>
<!-- BFM_PU02 -->
<g id="node22" class="node">
<title>BFM_PU02</title>
<polygon fill="none" stroke="black" points="393.5,-245 290.5,-245 290.5,-209 393.5,-209 393.5,-245"/>
<text text-anchor="middle" x="342" y="-223.3" font-family="Times,serif" font-size="14.00">BFM&#45;PU&#45;0&#45;2</text>
</g>
<!-- BFM_PU01 -->
<g id="node23" class="node">
<title>BFM_PU01</title>
<polygon fill="none" stroke="black" points="272.5,-245 169.5,-245 169.5,-209 272.5,-209 272.5,-245"/>
<text text-anchor="middle" x="221" y="-223.3" font-family="Times,serif" font-size="14.00">BFM&#45;PU&#45;0&#45;1</text>
</g>
<!-- BFM_PU00 -->
<g id="node24" class="node">
<title>BFM_PU00</title>
<polygon fill="none" stroke="black" points="151.5,-245 48.5,-245 48.5,-209 151.5,-209 151.5,-245"/>
<text text-anchor="middle" x="100" y="-223.3" font-family="Times,serif" font-size="14.00">BFM&#45;PU&#45;0&#45;0</text>
</g>
</g>
</svg>
