<?xml version="1.0" encoding="UTF-8" standalone="no"?>
<!DOCTYPE svg PUBLIC "-//W3C//DTD SVG 1.1//EN"
 "http://www.w3.org/Graphics/SVG/1.1/DTD/svg11.dtd">
<!-- Generated by graphviz version 2.43.0 (0)
 -->
<!-- Title: Project Pages: 1 -->
<svg width="323pt" height="538pt"
 viewBox="0.00 0.00 323.00 538.00" xmlns="http://www.w3.org/2000/svg" xmlns:xlink="http://www.w3.org/1999/xlink">
<g id="graph0" class="graph" transform="scale(1 1) rotate(0) translate(4 534)">
<title>Project</title>
<polygon fill="white" stroke="transparent" points="-4,4 -4,-534 319,-534 319,4 -4,4"/>
<g id="clust1" class="cluster">
<title>cluster Architecture</title>
<polygon fill="none" stroke="black" points="0,-8 0,-522 315,-522 315,-8 0,-8"/>
<text text-anchor="middle" x="157.5" y="-506.8" font-family="Times,serif" font-size="14.00">Architecture</text>
</g>
<g id="clust2" class="cluster">
<title>cluster MPSoC</title>
<polygon fill="none" stroke="black" points="88,-255 88,-491 227,-491 227,-255 88,-255"/>
<text text-anchor="middle" x="157.5" y="-475.8" font-family="Times,serif" font-size="14.00">MPSoC</text>
</g>
<g id="clust3" class="cluster">
<title>cluster SoC</title>
<polygon fill="none" stroke="black" points="96,-263 96,-460 219,-460 219,-263 96,-263"/>
<text text-anchor="middle" x="157.5" y="-444.8" font-family="Times,serif" font-size="14.00">SoC</text>
</g>
<g id="clust4" class="cluster">
<title>cluster PU</title>
<polygon fill="none" stroke="black" points="104,-354 104,-429 211,-429 211,-354 104,-354"/>
<text text-anchor="middle" x="157.5" y="-413.8" font-family="Times,serif" font-size="14.00">PU</text>
</g>
<g id="clust5" class="cluster">
<title>cluster NoC</title>
<polygon fill="none" stroke="black" points="122.5,-271 122.5,-346 192.5,-346 192.5,-271 122.5,-271"/>
<text text-anchor="middle" x="157.5" y="-330.8" font-family="Times,serif" font-size="14.00">NoC</text>
</g>
<g id="clust6" class="cluster">
<title>cluster Accelerator</title>
<polygon fill="none" stroke="black" points="8,-16 8,-247 307,-247 307,-16 8,-16"/>
<text text-anchor="middle" x="157.5" y="-231.8" font-family="Times,serif" font-size="14.00">Accelerator</text>
</g>
<g id="clust7" class="cluster">
<title>cluster Trainer/State</title>
<polygon fill="none" stroke="black" points="16,-24 16,-216 299,-216 299,-24 16,-24"/>
<text text-anchor="middle" x="157.5" y="-200.8" font-family="Times,serif" font-size="14.00">Trainer/State</text>
</g>
<g id="clust8" class="cluster">
<title>cluster Neural_Network</title>
<polygon fill="none" stroke="black" points="24,-32 24,-185 291,-185 291,-32 24,-32"/>
<text text-anchor="middle" x="157.5" y="-169.8" font-family="Times,serif" font-size="14.00">Neural Network</text>
</g>
<g id="clust9" class="cluster">
<title>cluster NN</title>
<polygon fill="none" stroke="black" points="32,-40 32,-154 283,-154 283,-40 32,-40"/>
<text text-anchor="middle" x="157.5" y="-138.8" font-family="Times,serif" font-size="14.00">PNN/FNN/LSTM/NTM/DNC/ANN</text>
</g>
<g id="clust10" class="cluster">
<title>cluster Math</title>
<polygon fill="none" stroke="black" points="67,-48 67,-123 248,-123 248,-48 67,-48"/>
<text text-anchor="middle" x="157.5" y="-107.8" font-family="Times,serif" font-size="14.00">Math</text>
</g>
<!-- Peripheral -->
<g id="node1" class="node">
<title>Peripheral</title>
<polygon fill="none" stroke="black" points="203,-398 112,-398 112,-362 203,-362 203,-398"/>
<text text-anchor="middle" x="157.5" y="-376.3" font-family="Times,serif" font-size="14.00">Peripheral</text>
</g>
<!-- NoC -->
<g id="node2" class="node">
<title>NoC</title>
<polygon fill="none" stroke="black" points="184.5,-315 130.5,-315 130.5,-279 184.5,-279 184.5,-315"/>
<text text-anchor="middle" x="157.5" y="-293.3" font-family="Times,serif" font-size="14.00">NoC</text>
</g>
<!-- arithmetic -->
<g id="node3" class="node">
<title>arithmetic</title>
<polygon fill="none" stroke="black" points="240,-92 75,-92 75,-56 240,-56 240,-92"/>
<text text-anchor="middle" x="157.5" y="-70.3" font-family="Times,serif" font-size="14.00">Arithmetic IEEE 754</text>
</g>
</g>
</svg>
