<?xml version="1.0" encoding="UTF-8" standalone="no"?>
<!DOCTYPE svg PUBLIC "-//W3C//DTD SVG 1.1//EN"
 "http://www.w3.org/Graphics/SVG/1.1/DTD/svg11.dtd">
<!-- Generated by graphviz version 2.43.0 (0)
 -->
<!-- Title: Project Pages: 1 -->
<svg width="301pt" height="577pt"
 viewBox="0.00 0.00 301.00 577.00" xmlns="http://www.w3.org/2000/svg" xmlns:xlink="http://www.w3.org/1999/xlink">
<g id="graph0" class="graph" transform="scale(1 1) rotate(0) translate(4 573)">
<title>Project</title>
<polygon fill="white" stroke="transparent" points="-4,4 -4,-573 297,-573 297,4 -4,4"/>
<g id="clust1" class="cluster">
<title>cluster Architecture</title>
<polygon fill="none" stroke="black" points="8,-8 8,-561 285,-561 285,-8 8,-8"/>
<text text-anchor="middle" x="146.5" y="-545.8" font-family="Times,serif" font-size="14.00">Architecture</text>
</g>
<g id="clust2" class="cluster">
<title>cluster MPSoC</title>
<polygon fill="none" stroke="black" points="77,-294 77,-530 216,-530 216,-294 77,-294"/>
<text text-anchor="middle" x="146.5" y="-514.8" font-family="Times,serif" font-size="14.00">MPSoC</text>
</g>
<g id="clust3" class="cluster">
<title>cluster SoC</title>
<polygon fill="none" stroke="black" points="85,-302 85,-499 208,-499 208,-302 85,-302"/>
<text text-anchor="middle" x="146.5" y="-483.8" font-family="Times,serif" font-size="14.00">SoC</text>
</g>
<g id="clust4" class="cluster">
<title>cluster PU</title>
<polygon fill="none" stroke="black" points="93,-393 93,-468 200,-468 200,-393 93,-393"/>
<text text-anchor="middle" x="146.5" y="-452.8" font-family="Times,serif" font-size="14.00">PU</text>
</g>
<g id="clust5" class="cluster">
<title>cluster NoC</title>
<polygon fill="none" stroke="black" points="111.5,-310 111.5,-385 181.5,-385 181.5,-310 111.5,-310"/>
<text text-anchor="middle" x="146.5" y="-369.8" font-family="Times,serif" font-size="14.00">NoC</text>
</g>
<g id="clust6" class="cluster">
<title>cluster Accelerator</title>
<polygon fill="none" stroke="black" points="16,-16 16,-286 277,-286 277,-16 16,-16"/>
<text text-anchor="middle" x="146.5" y="-270.8" font-family="Times,serif" font-size="14.00">Accelerator</text>
</g>
<g id="clust7" class="cluster">
<title>cluster NTM/DNC</title>
<polygon fill="none" stroke="black" points="24,-24 24,-255 269,-255 269,-24 24,-24"/>
<text text-anchor="middle" x="146.5" y="-239.8" font-family="Times,serif" font-size="14.00">NTM/DNC</text>
</g>
<g id="clust8" class="cluster">
<title>cluster Trainer/State</title>
<polygon fill="none" stroke="black" points="32,-32 32,-224 261,-224 261,-32 32,-32"/>
<text text-anchor="middle" x="146.5" y="-208.8" font-family="Times,serif" font-size="14.00">Trainer/State</text>
</g>
<g id="clust9" class="cluster">
<title>cluster Transformer</title>
<polygon fill="none" stroke="black" points="40,-40 40,-193 253,-193 253,-40 40,-40"/>
<text text-anchor="middle" x="146.5" y="-177.8" font-family="Times,serif" font-size="14.00">Transformer</text>
</g>
<g id="clust10" class="cluster">
<title>cluster FNN/LSTM</title>
<polygon fill="none" stroke="black" points="48,-48 48,-162 245,-162 245,-48 48,-48"/>
<text text-anchor="middle" x="146.5" y="-146.8" font-family="Times,serif" font-size="14.00">FNN/LSTM</text>
</g>
<g id="clust11" class="cluster">
<title>cluster Math</title>
<polygon fill="none" stroke="black" points="56,-56 56,-131 237,-131 237,-56 56,-56"/>
<text text-anchor="middle" x="146.5" y="-115.8" font-family="Times,serif" font-size="14.00">Math</text>
</g>
<!-- Peripheral -->
<g id="node1" class="node">
<title>Peripheral</title>
<polygon fill="none" stroke="black" points="192,-437 101,-437 101,-401 192,-401 192,-437"/>
<text text-anchor="middle" x="146.5" y="-415.3" font-family="Times,serif" font-size="14.00">Peripheral</text>
</g>
<!-- NoC -->
<g id="node2" class="node">
<title>NoC</title>
<polygon fill="none" stroke="black" points="173.5,-354 119.5,-354 119.5,-318 173.5,-318 173.5,-354"/>
<text text-anchor="middle" x="146.5" y="-332.3" font-family="Times,serif" font-size="14.00">NoC</text>
</g>
<!-- arithmetic -->
<g id="node3" class="node">
<title>arithmetic</title>
<polygon fill="none" stroke="black" points="229,-100 64,-100 64,-64 229,-64 229,-100"/>
<text text-anchor="middle" x="146.5" y="-78.3" font-family="Times,serif" font-size="14.00">Arithmetic IEEE 754</text>
</g>
</g>
</svg>
