<?xml version="1.0" encoding="UTF-8" standalone="no"?>
<!DOCTYPE svg PUBLIC "-//W3C//DTD SVG 1.1//EN"
 "http://www.w3.org/Graphics/SVG/1.1/DTD/svg11.dtd">
<!-- Generated by graphviz version 2.43.0 (0)
 -->
<!-- Title: Project Pages: 1 -->
<svg width="1782pt" height="185pt"
 viewBox="0.00 0.00 1782.00 185.00" xmlns="http://www.w3.org/2000/svg" xmlns:xlink="http://www.w3.org/1999/xlink">
<g id="graph0" class="graph" transform="scale(1 1) rotate(0) translate(4 181)">
<title>Project</title>
<polygon fill="white" stroke="transparent" points="-4,4 -4,-181 1778,-181 1778,4 -4,4"/>
<!-- Requirements -->
<g id="node1" class="node">
<title>Requirements</title>
<polygon fill="none" stroke="black" points="0,-52.5 0,-90.5 158,-90.5 158,-52.5 0,-52.5"/>
<text text-anchor="middle" x="79" y="-75.3" font-family="Times,serif" font-size="14.00">Requirements </text>
<text text-anchor="middle" x="79" y="-60.3" font-family="Times,serif" font-size="14.00">(PSL/UML) [Emacs]</text>
</g>
<!-- Source -->
<g id="node2" class="node">
<title>Source</title>
<polygon fill="none" stroke="black" points="194,-138.5 194,-176.5 421,-176.5 421,-138.5 194,-138.5"/>
<text text-anchor="middle" x="307.5" y="-161.3" font-family="Times,serif" font-size="14.00">Source </text>
<text text-anchor="middle" x="307.5" y="-146.3" font-family="Times,serif" font-size="14.00">(Matlab/Rust/ADA/C) [Emacs]</text>
</g>
<!-- Requirements&#45;&gt;Source -->
<g id="edge1" class="edge">
<title>Requirements&#45;&gt;Source</title>
<path fill="none" stroke="black" d="M79,-90.59C79,-115.92 79,-157.5 79,-157.5 79,-157.5 183.92,-157.5 183.92,-157.5"/>
<polygon fill="black" stroke="black" points="183.92,-161 193.92,-157.5 183.92,-154 183.92,-161"/>
</g>
<!-- Model -->
<g id="node3" class="node">
<title>Model</title>
<polygon fill="none" stroke="black" points="457,-138.5 457,-176.5 620,-176.5 620,-138.5 457,-138.5"/>
<text text-anchor="middle" x="538.5" y="-161.3" font-family="Times,serif" font-size="14.00">Software Model </text>
<text text-anchor="middle" x="538.5" y="-146.3" font-family="Times,serif" font-size="14.00">(C/C++/Go) [Emacs]</text>
</g>
<!-- Source&#45;&gt;Model -->
<g id="edge2" class="edge">
<title>Source&#45;&gt;Model</title>
<path fill="none" stroke="black" d="M421.31,-157.5C421.31,-157.5 446.74,-157.5 446.74,-157.5"/>
<polygon fill="black" stroke="black" points="446.74,-161 456.74,-157.5 446.74,-154 446.74,-161"/>
</g>
<!-- Validation -->
<g id="node4" class="node">
<title>Validation</title>
<polygon fill="none" stroke="black" points="656,-100.5 656,-138.5 817,-138.5 817,-100.5 656,-100.5"/>
<text text-anchor="middle" x="736.5" y="-123.3" font-family="Times,serif" font-size="14.00">Software Validation </text>
<text text-anchor="middle" x="736.5" y="-108.3" font-family="Times,serif" font-size="14.00">(C/C++/Go) [GCC]</text>
</g>
<!-- Model&#45;&gt;Validation -->
<g id="edge3" class="edge">
<title>Model&#45;&gt;Validation</title>
<path fill="none" stroke="black" d="M620.1,-158C674.85,-158 737,-158 737,-158 737,-158 737,-148.75 737,-148.75"/>
<polygon fill="black" stroke="black" points="740.5,-148.75 737,-138.75 733.5,-148.75 740.5,-148.75"/>
</g>
<!-- Validation&#45;&gt;Requirements -->
<g id="edge10" class="edge">
<title>Validation&#45;&gt;Requirements</title>
<path fill="none" stroke="black" d="M737,-100.42C737,-90.88 737,-81.33 737,-81.33 737,-81.33 168.04,-81.33 168.04,-81.33"/>
<polygon fill="black" stroke="black" points="168.04,-77.83 158.04,-81.33 168.04,-84.83 168.04,-77.83"/>
</g>
<!-- Design -->
<g id="node5" class="node">
<title>Design</title>
<polygon fill="none" stroke="black" points="853,-100.5 853,-138.5 1016,-138.5 1016,-100.5 853,-100.5"/>
<text text-anchor="middle" x="934.5" y="-123.3" font-family="Times,serif" font-size="14.00">Software Design </text>
<text text-anchor="middle" x="934.5" y="-108.3" font-family="Times,serif" font-size="14.00">(C/C++/Go) [Emacs]</text>
</g>
<!-- Validation&#45;&gt;Design -->
<g id="edge4" class="edge">
<title>Validation&#45;&gt;Design</title>
<path fill="none" stroke="black" d="M817.03,-119.5C817.03,-119.5 842.75,-119.5 842.75,-119.5"/>
<polygon fill="black" stroke="black" points="842.75,-123 852.75,-119.5 842.75,-116 842.75,-123"/>
</g>
<!-- Verification -->
<g id="node6" class="node">
<title>Verification</title>
<polygon fill="none" stroke="black" points="1052,-62.5 1052,-100.5 1223,-100.5 1223,-62.5 1052,-62.5"/>
<text text-anchor="middle" x="1137.5" y="-85.3" font-family="Times,serif" font-size="14.00">Software Verification </text>
<text text-anchor="middle" x="1137.5" y="-70.3" font-family="Times,serif" font-size="14.00">(C/C++/Go) [GCC]</text>
</g>
<!-- Design&#45;&gt;Verification -->
<g id="edge5" class="edge">
<title>Design&#45;&gt;Verification</title>
<path fill="none" stroke="black" d="M935,-100.13C935,-97.4 935,-95.5 935,-95.5 935,-95.5 1041.92,-95.5 1041.92,-95.5"/>
<polygon fill="black" stroke="black" points="1041.92,-99 1051.92,-95.5 1041.92,-92 1041.92,-99"/>
</g>
<!-- Verification&#45;&gt;Requirements -->
<g id="edge11" class="edge">
<title>Verification&#45;&gt;Requirements</title>
<path fill="none" stroke="black" d="M1051.78,-71.67C1051.78,-71.67 168.25,-71.67 168.25,-71.67"/>
<polygon fill="black" stroke="black" points="168.25,-68.17 158.25,-71.67 168.25,-75.17 168.25,-68.17"/>
</g>
<!-- Quality -->
<g id="node7" class="node">
<title>Quality</title>
<polygon fill="none" stroke="black" points="1259,-24.5 1259,-62.5 1410,-62.5 1410,-24.5 1259,-24.5"/>
<text text-anchor="middle" x="1334.5" y="-47.3" font-family="Times,serif" font-size="14.00">Quality Assurance </text>
<text text-anchor="middle" x="1334.5" y="-32.3" font-family="Times,serif" font-size="14.00">(TeX) [Emacs]</text>
</g>
<!-- Verification&#45;&gt;Quality -->
<g id="edge6" class="edge">
<title>Verification&#45;&gt;Quality</title>
<path fill="none" stroke="black" d="M1138,-62.23C1138,-60.09 1138,-58.67 1138,-58.67 1138,-58.67 1248.81,-58.67 1248.81,-58.67"/>
<polygon fill="black" stroke="black" points="1248.81,-62.17 1258.81,-58.67 1248.81,-55.17 1248.81,-62.17"/>
</g>
<!-- Quality&#45;&gt;Requirements -->
<g id="edge12" class="edge">
<title>Quality&#45;&gt;Requirements</title>
<path fill="none" stroke="black" d="M1258.79,-55.33C1258.79,-55.33 168.02,-55.33 168.02,-55.33"/>
<polygon fill="black" stroke="black" points="168.02,-51.83 158.02,-55.33 168.02,-58.83 168.02,-51.83"/>
</g>
<!-- Certification -->
<g id="node8" class="node">
<title>Certification</title>
<polygon fill="none" stroke="black" points="1446,-24.5 1446,-62.5 1562,-62.5 1562,-24.5 1446,-24.5"/>
<text text-anchor="middle" x="1504" y="-47.3" font-family="Times,serif" font-size="14.00">Certification </text>
<text text-anchor="middle" x="1504" y="-32.3" font-family="Times,serif" font-size="14.00">(TeX) [Emacs]</text>
</g>
<!-- Quality&#45;&gt;Certification -->
<g id="edge7" class="edge">
<title>Quality&#45;&gt;Certification</title>
<path fill="none" stroke="black" d="M1410.33,-43.5C1410.33,-43.5 1435.78,-43.5 1435.78,-43.5"/>
<polygon fill="black" stroke="black" points="1435.78,-47 1445.78,-43.5 1435.78,-40 1435.78,-47"/>
</g>
<!-- Lifecycle -->
<g id="node9" class="node">
<title>Lifecycle</title>
<polygon fill="none" stroke="black" points="1598,-0.5 1598,-38.5 1774,-38.5 1774,-0.5 1598,-0.5"/>
<text text-anchor="middle" x="1686" y="-23.3" font-family="Times,serif" font-size="14.00">Design Lifecycle Data </text>
<text text-anchor="middle" x="1686" y="-8.3" font-family="Times,serif" font-size="14.00">(TeX) [Emacs]</text>
</g>
<!-- Certification&#45;&gt;Lifecycle -->
<g id="edge8" class="edge">
<title>Certification&#45;&gt;Lifecycle</title>
<path fill="none" stroke="black" d="M1562.09,-31.5C1562.09,-31.5 1587.95,-31.5 1587.95,-31.5"/>
<polygon fill="black" stroke="black" points="1587.95,-35 1597.95,-31.5 1587.95,-28 1587.95,-35"/>
</g>
<!-- Lifecycle&#45;&gt;Requirements -->
<g id="edge9" class="edge">
<title>Lifecycle&#45;&gt;Requirements</title>
<path fill="none" stroke="black" d="M1597.89,-12C1261.77,-12 79,-12 79,-12 79,-12 79,-42.35 79,-42.35"/>
<polygon fill="black" stroke="black" points="75.5,-42.35 79,-52.35 82.5,-42.35 75.5,-42.35"/>
</g>
</g>
</svg>
