<?xml version="1.0" encoding="UTF-8" standalone="no"?>
<!DOCTYPE svg PUBLIC "-//W3C//DTD SVG 1.1//EN"
 "http://www.w3.org/Graphics/SVG/1.1/DTD/svg11.dtd">
<!-- Generated by graphviz version 2.43.0 (0)
 -->
<!-- Title: Project Pages: 1 -->
<svg width="1746pt" height="147pt"
 viewBox="0.00 0.00 1746.00 147.00" xmlns="http://www.w3.org/2000/svg" xmlns:xlink="http://www.w3.org/1999/xlink">
<g id="graph0" class="graph" transform="scale(1 1) rotate(0) translate(4 143)">
<title>Project</title>
<polygon fill="white" stroke="transparent" points="-4,4 -4,-143 1742,-143 1742,4 -4,4"/>
<!-- Requirements -->
<g id="node1" class="node">
<title>Requirements</title>
<polygon fill="none" stroke="black" points="0,-33.5 0,-71.5 122,-71.5 122,-33.5 0,-33.5"/>
<text text-anchor="middle" x="61" y="-56.3" font-family="Times,serif" font-size="14.00">Requirements </text>
<text text-anchor="middle" x="61" y="-41.3" font-family="Times,serif" font-size="14.00">(UML) [Dot]</text>
</g>
<!-- Software -->
<g id="node2" class="node">
<title>Software</title>
<polygon fill="none" stroke="black" points="158,-100.5 158,-138.5 335,-138.5 335,-100.5 158,-100.5"/>
<text text-anchor="middle" x="246.5" y="-123.3" font-family="Times,serif" font-size="14.00">Software </text>
<text text-anchor="middle" x="246.5" y="-108.3" font-family="Times,serif" font-size="14.00">(Matlab/Rust) [Emacs]</text>
</g>
<!-- Requirements&#45;&gt;Software -->
<g id="edge1" class="edge">
<title>Requirements&#45;&gt;Software</title>
<path fill="none" stroke="black" d="M61,-71.52C61,-91.33 61,-119.5 61,-119.5 61,-119.5 147.82,-119.5 147.82,-119.5"/>
<polygon fill="black" stroke="black" points="147.82,-123 157.82,-119.5 147.82,-116 147.82,-123"/>
</g>
<!-- Source -->
<g id="node3" class="node">
<title>Source</title>
<polygon fill="none" stroke="black" points="371,-100.5 371,-138.5 506,-138.5 506,-100.5 371,-100.5"/>
<text text-anchor="middle" x="438.5" y="-123.3" font-family="Times,serif" font-size="14.00">Source </text>
<text text-anchor="middle" x="438.5" y="-108.3" font-family="Times,serif" font-size="14.00">(ADA/C) [Emacs]</text>
</g>
<!-- Software&#45;&gt;Source -->
<g id="edge2" class="edge">
<title>Software&#45;&gt;Source</title>
<path fill="none" stroke="black" d="M335.19,-119.5C335.19,-119.5 360.86,-119.5 360.86,-119.5"/>
<polygon fill="black" stroke="black" points="360.86,-123 370.86,-119.5 360.86,-116 360.86,-123"/>
</g>
<!-- Model -->
<g id="node4" class="node">
<title>Model</title>
<polygon fill="none" stroke="black" points="542,-100.5 542,-138.5 705,-138.5 705,-100.5 542,-100.5"/>
<text text-anchor="middle" x="623.5" y="-123.3" font-family="Times,serif" font-size="14.00">Model </text>
<text text-anchor="middle" x="623.5" y="-108.3" font-family="Times,serif" font-size="14.00">(C/C++/Go) [Emacs]</text>
</g>
<!-- Source&#45;&gt;Model -->
<g id="edge3" class="edge">
<title>Source&#45;&gt;Model</title>
<path fill="none" stroke="black" d="M506.07,-119.5C506.07,-119.5 531.96,-119.5 531.96,-119.5"/>
<polygon fill="black" stroke="black" points="531.96,-123 541.96,-119.5 531.96,-116 531.96,-123"/>
</g>
<!-- Validation -->
<g id="node5" class="node">
<title>Validation</title>
<polygon fill="none" stroke="black" points="741,-62.5 741,-100.5 889,-100.5 889,-62.5 741,-62.5"/>
<text text-anchor="middle" x="815" y="-85.3" font-family="Times,serif" font-size="14.00">Validation </text>
<text text-anchor="middle" x="815" y="-70.3" font-family="Times,serif" font-size="14.00">(C/C++/Go) [GCC]</text>
</g>
<!-- Model&#45;&gt;Validation -->
<g id="edge4" class="edge">
<title>Model&#45;&gt;Validation</title>
<path fill="none" stroke="black" d="M705.27,-120C757.32,-120 815,-120 815,-120 815,-120 815,-110.75 815,-110.75"/>
<polygon fill="black" stroke="black" points="818.5,-110.75 815,-100.75 811.5,-110.75 818.5,-110.75"/>
</g>
<!-- Validation&#45;&gt;Requirements -->
<g id="edge10" class="edge">
<title>Validation&#45;&gt;Requirements</title>
<path fill="none" stroke="black" d="M740.99,-67C740.99,-67 132.04,-67 132.04,-67"/>
<polygon fill="black" stroke="black" points="132.04,-63.5 122.04,-67 132.04,-70.5 132.04,-63.5"/>
</g>
<!-- Design -->
<g id="node6" class="node">
<title>Design</title>
<polygon fill="none" stroke="black" points="925,-62.5 925,-100.5 1088,-100.5 1088,-62.5 925,-62.5"/>
<text text-anchor="middle" x="1006.5" y="-85.3" font-family="Times,serif" font-size="14.00">Design </text>
<text text-anchor="middle" x="1006.5" y="-70.3" font-family="Times,serif" font-size="14.00">(C/C++/Go) [Emacs]</text>
</g>
<!-- Validation&#45;&gt;Design -->
<g id="edge5" class="edge">
<title>Validation&#45;&gt;Design</title>
<path fill="none" stroke="black" d="M889.04,-81.5C889.04,-81.5 914.71,-81.5 914.71,-81.5"/>
<polygon fill="black" stroke="black" points="914.71,-85 924.71,-81.5 914.71,-78 914.71,-85"/>
</g>
<!-- Verification -->
<g id="node7" class="node">
<title>Verification</title>
<polygon fill="none" stroke="black" points="1124,-24.5 1124,-62.5 1272,-62.5 1272,-24.5 1124,-24.5"/>
<text text-anchor="middle" x="1198" y="-47.3" font-family="Times,serif" font-size="14.00">Verification </text>
<text text-anchor="middle" x="1198" y="-32.3" font-family="Times,serif" font-size="14.00">(C/C++/Go) [GCC]</text>
</g>
<!-- Design&#45;&gt;Verification -->
<g id="edge6" class="edge">
<title>Design&#45;&gt;Verification</title>
<path fill="none" stroke="black" d="M1088.27,-82C1140.32,-82 1198,-82 1198,-82 1198,-82 1198,-72.75 1198,-72.75"/>
<polygon fill="black" stroke="black" points="1201.5,-72.75 1198,-62.75 1194.5,-72.75 1201.5,-72.75"/>
</g>
<!-- Verification&#45;&gt;Requirements -->
<g id="edge11" class="edge">
<title>Verification&#45;&gt;Requirements</title>
<path fill="none" stroke="black" d="M1123.84,-47.5C1123.84,-47.5 132.08,-47.5 132.08,-47.5"/>
<polygon fill="black" stroke="black" points="132.08,-44 122.08,-47.5 132.08,-51 132.08,-44"/>
</g>
<!-- Quality -->
<g id="node8" class="node">
<title>Quality</title>
<polygon fill="none" stroke="black" points="1308,-0.5 1308,-38.5 1422,-38.5 1422,-0.5 1308,-0.5"/>
<text text-anchor="middle" x="1365" y="-23.3" font-family="Times,serif" font-size="14.00">Quality </text>
<text text-anchor="middle" x="1365" y="-8.3" font-family="Times,serif" font-size="14.00">(Tex) [Emacs]</text>
</g>
<!-- Verification&#45;&gt;Quality -->
<g id="edge7" class="edge">
<title>Verification&#45;&gt;Quality</title>
<path fill="none" stroke="black" d="M1272.22,-31.5C1272.22,-31.5 1297.8,-31.5 1297.8,-31.5"/>
<polygon fill="black" stroke="black" points="1297.8,-35 1307.8,-31.5 1297.8,-28 1297.8,-35"/>
</g>
<!-- Quality&#45;&gt;Requirements -->
<g id="edge12" class="edge">
<title>Quality&#45;&gt;Requirements</title>
<path fill="none" stroke="black" d="M1307.71,-12C1056.04,-12 61,-12 61,-12 61,-12 61,-23.2 61,-23.2"/>
<polygon fill="black" stroke="black" points="57.5,-23.2 61,-33.2 64.5,-23.2 57.5,-23.2"/>
</g>
<!-- Certification -->
<g id="node9" class="node">
<title>Certification</title>
<polygon fill="none" stroke="black" points="1458,-0.5 1458,-38.5 1572,-38.5 1572,-0.5 1458,-0.5"/>
<text text-anchor="middle" x="1515" y="-23.3" font-family="Times,serif" font-size="14.00">Certification </text>
<text text-anchor="middle" x="1515" y="-8.3" font-family="Times,serif" font-size="14.00">(Tex) [Emacs]</text>
</g>
<!-- Quality&#45;&gt;Certification -->
<g id="edge8" class="edge">
<title>Quality&#45;&gt;Certification</title>
<path fill="none" stroke="black" d="M1422.14,-19.5C1422.14,-19.5 1447.53,-19.5 1447.53,-19.5"/>
<polygon fill="black" stroke="black" points="1447.53,-23 1457.53,-19.5 1447.53,-16 1447.53,-23"/>
</g>
<!-- Documentation -->
<g id="node10" class="node">
<title>Documentation</title>
<polygon fill="none" stroke="black" points="1608,-0.5 1608,-38.5 1738,-38.5 1738,-0.5 1608,-0.5"/>
<text text-anchor="middle" x="1673" y="-23.3" font-family="Times,serif" font-size="14.00">Documentation </text>
<text text-anchor="middle" x="1673" y="-8.3" font-family="Times,serif" font-size="14.00">(Tex) [Emacs]</text>
</g>
<!-- Certification&#45;&gt;Documentation -->
<g id="edge9" class="edge">
<title>Certification&#45;&gt;Documentation</title>
<path fill="none" stroke="black" d="M1572.04,-19.5C1572.04,-19.5 1597.99,-19.5 1597.99,-19.5"/>
<polygon fill="black" stroke="black" points="1597.99,-23 1607.99,-19.5 1597.99,-16 1597.99,-23"/>
</g>
</g>
</svg>
