<?xml version="1.0" encoding="UTF-8" standalone="no"?>
<!DOCTYPE svg PUBLIC "-//W3C//DTD SVG 1.1//EN"
 "http://www.w3.org/Graphics/SVG/1.1/DTD/svg11.dtd">
<!-- Generated by graphviz version 2.43.0 (0)
 -->
<!-- Title: Project Pages: 1 -->
<svg width="1629pt" height="147pt"
 viewBox="0.00 0.00 1629.00 147.00" xmlns="http://www.w3.org/2000/svg" xmlns:xlink="http://www.w3.org/1999/xlink">
<g id="graph0" class="graph" transform="scale(1 1) rotate(0) translate(4 143)">
<title>Project</title>
<polygon fill="white" stroke="transparent" points="-4,4 -4,-143 1625,-143 1625,4 -4,4"/>
<!-- Requirements -->
<g id="node1" class="node">
<title>Requirements</title>
<polygon fill="none" stroke="black" points="0,-33.5 0,-71.5 122,-71.5 122,-33.5 0,-33.5"/>
<text text-anchor="middle" x="61" y="-56.3" font-family="Times,serif" font-size="14.00">Requirements </text>
<text text-anchor="middle" x="61" y="-41.3" font-family="Times,serif" font-size="14.00">(UML) [Dot]</text>
</g>
<!-- Source -->
<g id="node2" class="node">
<title>Source</title>
<polygon fill="none" stroke="black" points="158,-100.5 158,-138.5 385,-138.5 385,-100.5 158,-100.5"/>
<text text-anchor="middle" x="271.5" y="-123.3" font-family="Times,serif" font-size="14.00">Source </text>
<text text-anchor="middle" x="271.5" y="-108.3" font-family="Times,serif" font-size="14.00">(Matlab/Rust/ADA/C) [Emacs]</text>
</g>
<!-- Requirements&#45;&gt;Source -->
<g id="edge1" class="edge">
<title>Requirements&#45;&gt;Source</title>
<path fill="none" stroke="black" d="M61,-71.52C61,-91.33 61,-119.5 61,-119.5 61,-119.5 147.93,-119.5 147.93,-119.5"/>
<polygon fill="black" stroke="black" points="147.93,-123 157.93,-119.5 147.93,-116 147.93,-123"/>
</g>
<!-- Model -->
<g id="node3" class="node">
<title>Model</title>
<polygon fill="none" stroke="black" points="421,-100.5 421,-138.5 584,-138.5 584,-100.5 421,-100.5"/>
<text text-anchor="middle" x="502.5" y="-123.3" font-family="Times,serif" font-size="14.00">Model </text>
<text text-anchor="middle" x="502.5" y="-108.3" font-family="Times,serif" font-size="14.00">(C/C++/Go) [Emacs]</text>
</g>
<!-- Source&#45;&gt;Model -->
<g id="edge2" class="edge">
<title>Source&#45;&gt;Model</title>
<path fill="none" stroke="black" d="M385.31,-119.5C385.31,-119.5 410.74,-119.5 410.74,-119.5"/>
<polygon fill="black" stroke="black" points="410.74,-123 420.74,-119.5 410.74,-116 410.74,-123"/>
</g>
<!-- Validation -->
<g id="node4" class="node">
<title>Validation</title>
<polygon fill="none" stroke="black" points="620,-62.5 620,-100.5 768,-100.5 768,-62.5 620,-62.5"/>
<text text-anchor="middle" x="694" y="-85.3" font-family="Times,serif" font-size="14.00">Validation </text>
<text text-anchor="middle" x="694" y="-70.3" font-family="Times,serif" font-size="14.00">(C/C++/Go) [GCC]</text>
</g>
<!-- Model&#45;&gt;Validation -->
<g id="edge3" class="edge">
<title>Model&#45;&gt;Validation</title>
<path fill="none" stroke="black" d="M584.27,-120C636.32,-120 694,-120 694,-120 694,-120 694,-110.75 694,-110.75"/>
<polygon fill="black" stroke="black" points="697.5,-110.75 694,-100.75 690.5,-110.75 697.5,-110.75"/>
</g>
<!-- Validation&#45;&gt;Requirements -->
<g id="edge9" class="edge">
<title>Validation&#45;&gt;Requirements</title>
<path fill="none" stroke="black" d="M619.84,-67C619.84,-67 132.07,-67 132.07,-67"/>
<polygon fill="black" stroke="black" points="132.07,-63.5 122.07,-67 132.07,-70.5 132.07,-63.5"/>
</g>
<!-- Design -->
<g id="node5" class="node">
<title>Design</title>
<polygon fill="none" stroke="black" points="804,-62.5 804,-100.5 967,-100.5 967,-62.5 804,-62.5"/>
<text text-anchor="middle" x="885.5" y="-85.3" font-family="Times,serif" font-size="14.00">Design </text>
<text text-anchor="middle" x="885.5" y="-70.3" font-family="Times,serif" font-size="14.00">(C/C++/Go) [Emacs]</text>
</g>
<!-- Validation&#45;&gt;Design -->
<g id="edge4" class="edge">
<title>Validation&#45;&gt;Design</title>
<path fill="none" stroke="black" d="M768.04,-81.5C768.04,-81.5 793.71,-81.5 793.71,-81.5"/>
<polygon fill="black" stroke="black" points="793.71,-85 803.71,-81.5 793.71,-78 793.71,-85"/>
</g>
<!-- Verification -->
<g id="node6" class="node">
<title>Verification</title>
<polygon fill="none" stroke="black" points="1003,-24.5 1003,-62.5 1151,-62.5 1151,-24.5 1003,-24.5"/>
<text text-anchor="middle" x="1077" y="-47.3" font-family="Times,serif" font-size="14.00">Verification </text>
<text text-anchor="middle" x="1077" y="-32.3" font-family="Times,serif" font-size="14.00">(C/C++/Go) [GCC]</text>
</g>
<!-- Design&#45;&gt;Verification -->
<g id="edge5" class="edge">
<title>Design&#45;&gt;Verification</title>
<path fill="none" stroke="black" d="M967.27,-82C1019.32,-82 1077,-82 1077,-82 1077,-82 1077,-72.75 1077,-72.75"/>
<polygon fill="black" stroke="black" points="1080.5,-72.75 1077,-62.75 1073.5,-72.75 1080.5,-72.75"/>
</g>
<!-- Verification&#45;&gt;Requirements -->
<g id="edge10" class="edge">
<title>Verification&#45;&gt;Requirements</title>
<path fill="none" stroke="black" d="M1002.7,-47.5C1002.7,-47.5 132.05,-47.5 132.05,-47.5"/>
<polygon fill="black" stroke="black" points="132.05,-44 122.05,-47.5 132.05,-51 132.05,-44"/>
</g>
<!-- Quality -->
<g id="node7" class="node">
<title>Quality</title>
<polygon fill="none" stroke="black" points="1187,-0.5 1187,-38.5 1303,-38.5 1303,-0.5 1187,-0.5"/>
<text text-anchor="middle" x="1245" y="-23.3" font-family="Times,serif" font-size="14.00">Quality </text>
<text text-anchor="middle" x="1245" y="-8.3" font-family="Times,serif" font-size="14.00">(TeX) [Emacs]</text>
</g>
<!-- Verification&#45;&gt;Quality -->
<g id="edge6" class="edge">
<title>Verification&#45;&gt;Quality</title>
<path fill="none" stroke="black" d="M1151.18,-31.5C1151.18,-31.5 1176.86,-31.5 1176.86,-31.5"/>
<polygon fill="black" stroke="black" points="1176.86,-35 1186.86,-31.5 1176.86,-28 1176.86,-35"/>
</g>
<!-- Quality&#45;&gt;Requirements -->
<g id="edge11" class="edge">
<title>Quality&#45;&gt;Requirements</title>
<path fill="none" stroke="black" d="M1186.69,-12C948.38,-12 61,-12 61,-12 61,-12 61,-23.2 61,-23.2"/>
<polygon fill="black" stroke="black" points="57.5,-23.2 61,-33.2 64.5,-23.2 57.5,-23.2"/>
</g>
<!-- Certification -->
<g id="node8" class="node">
<title>Certification</title>
<polygon fill="none" stroke="black" points="1339,-0.5 1339,-38.5 1455,-38.5 1455,-0.5 1339,-0.5"/>
<text text-anchor="middle" x="1397" y="-23.3" font-family="Times,serif" font-size="14.00">Certification </text>
<text text-anchor="middle" x="1397" y="-8.3" font-family="Times,serif" font-size="14.00">(TeX) [Emacs]</text>
</g>
<!-- Quality&#45;&gt;Certification -->
<g id="edge7" class="edge">
<title>Quality&#45;&gt;Certification</title>
<path fill="none" stroke="black" d="M1303.33,-19.5C1303.33,-19.5 1328.82,-19.5 1328.82,-19.5"/>
<polygon fill="black" stroke="black" points="1328.82,-23 1338.82,-19.5 1328.82,-16 1328.82,-23"/>
</g>
<!-- Documentation -->
<g id="node9" class="node">
<title>Documentation</title>
<polygon fill="none" stroke="black" points="1491,-0.5 1491,-38.5 1621,-38.5 1621,-0.5 1491,-0.5"/>
<text text-anchor="middle" x="1556" y="-23.3" font-family="Times,serif" font-size="14.00">Documentation </text>
<text text-anchor="middle" x="1556" y="-8.3" font-family="Times,serif" font-size="14.00">(TeX) [Emacs]</text>
</g>
<!-- Certification&#45;&gt;Documentation -->
<g id="edge8" class="edge">
<title>Certification&#45;&gt;Documentation</title>
<path fill="none" stroke="black" d="M1455.3,-19.5C1455.3,-19.5 1480.99,-19.5 1480.99,-19.5"/>
<polygon fill="black" stroke="black" points="1480.99,-23 1490.99,-19.5 1480.99,-16 1480.99,-23"/>
</g>
</g>
</svg>
