<?xml version="1.0" encoding="UTF-8" standalone="no"?>
<!DOCTYPE svg PUBLIC "-//W3C//DTD SVG 1.1//EN"
 "http://www.w3.org/Graphics/SVG/1.1/DTD/svg11.dtd">
<!-- Generated by graphviz version 2.43.0 (0)
 -->
<!-- Title: Project Pages: 1 -->
<svg width="1841pt" height="109pt"
 viewBox="0.00 0.00 1841.00 109.00" xmlns="http://www.w3.org/2000/svg" xmlns:xlink="http://www.w3.org/1999/xlink">
<g id="graph0" class="graph" transform="scale(1 1) rotate(0) translate(4 105)">
<title>Project</title>
<polygon fill="white" stroke="transparent" points="-4,4 -4,-105 1837,-105 1837,4 -4,4"/>
<!-- Requirements -->
<g id="node1" class="node">
<title>Requirements</title>
<polygon fill="none" stroke="black" points="0,-14.5 0,-52.5 234,-52.5 234,-14.5 0,-14.5"/>
<text text-anchor="middle" x="117" y="-37.3" font-family="Times,serif" font-size="14.00">Requirements </text>
<text text-anchor="middle" x="117" y="-22.3" font-family="Times,serif" font-size="14.00">(Matlab/Python/PSL/UML) [Vi]</text>
</g>
<!-- Model -->
<g id="node2" class="node">
<title>Model</title>
<polygon fill="none" stroke="black" points="270,-62.5 270,-100.5 437,-100.5 437,-62.5 270,-62.5"/>
<text text-anchor="middle" x="353.5" y="-85.3" font-family="Times,serif" font-size="14.00">Software Model </text>
<text text-anchor="middle" x="353.5" y="-70.3" font-family="Times,serif" font-size="14.00">(C/C++/Go/Rust) [Vi]</text>
</g>
<!-- Requirements&#45;&gt;Model -->
<g id="edge1" class="edge">
<title>Requirements&#45;&gt;Model</title>
<path fill="none" stroke="black" d="M234.11,-43.33C293.82,-43.33 354,-43.33 354,-43.33 354,-43.33 354,-52.42 354,-52.42"/>
<polygon fill="black" stroke="black" points="350.5,-52.42 354,-62.42 357.5,-52.42 350.5,-52.42"/>
</g>
<!-- Validation -->
<g id="node3" class="node">
<title>Validation</title>
<polygon fill="none" stroke="black" points="473,-62.5 473,-100.5 658,-100.5 658,-62.5 473,-62.5"/>
<text text-anchor="middle" x="565.5" y="-85.3" font-family="Times,serif" font-size="14.00">Software Validation </text>
<text text-anchor="middle" x="565.5" y="-70.3" font-family="Times,serif" font-size="14.00">(C/C++/Go/Rust) [GCC]</text>
</g>
<!-- Model&#45;&gt;Validation -->
<g id="edge2" class="edge">
<title>Model&#45;&gt;Validation</title>
<path fill="none" stroke="black" d="M437.29,-75C437.29,-75 462.88,-75 462.88,-75"/>
<polygon fill="black" stroke="black" points="462.88,-78.5 472.88,-75 462.88,-71.5 462.88,-78.5"/>
</g>
<!-- Validation&#45;&gt;Model -->
<g id="edge10" class="edge">
<title>Validation&#45;&gt;Model</title>
<path fill="none" stroke="black" d="M472.82,-88C472.82,-88 447.32,-88 447.32,-88"/>
<polygon fill="black" stroke="black" points="447.32,-84.5 437.32,-88 447.32,-91.5 447.32,-84.5"/>
</g>
<!-- Design -->
<g id="node4" class="node">
<title>Design</title>
<polygon fill="none" stroke="black" points="694,-62.5 694,-100.5 861,-100.5 861,-62.5 694,-62.5"/>
<text text-anchor="middle" x="777.5" y="-85.3" font-family="Times,serif" font-size="14.00">Software Design </text>
<text text-anchor="middle" x="777.5" y="-70.3" font-family="Times,serif" font-size="14.00">(C/C++/Go/Rust) [Vi]</text>
</g>
<!-- Validation&#45;&gt;Design -->
<g id="edge3" class="edge">
<title>Validation&#45;&gt;Design</title>
<path fill="none" stroke="black" d="M658.18,-81.5C658.18,-81.5 683.68,-81.5 683.68,-81.5"/>
<polygon fill="black" stroke="black" points="683.68,-85 693.68,-81.5 683.68,-78 683.68,-85"/>
</g>
<!-- Verification -->
<g id="node5" class="node">
<title>Verification</title>
<polygon fill="none" stroke="black" points="897,-62.5 897,-100.5 1082,-100.5 1082,-62.5 897,-62.5"/>
<text text-anchor="middle" x="989.5" y="-85.3" font-family="Times,serif" font-size="14.00">Software Verification </text>
<text text-anchor="middle" x="989.5" y="-70.3" font-family="Times,serif" font-size="14.00">(C/C++/Go/Rust) [GCC]</text>
</g>
<!-- Design&#45;&gt;Verification -->
<g id="edge4" class="edge">
<title>Design&#45;&gt;Verification</title>
<path fill="none" stroke="black" d="M861.29,-75C861.29,-75 886.88,-75 886.88,-75"/>
<polygon fill="black" stroke="black" points="886.88,-78.5 896.88,-75 886.88,-71.5 886.88,-78.5"/>
</g>
<!-- Verification&#45;&gt;Design -->
<g id="edge11" class="edge">
<title>Verification&#45;&gt;Design</title>
<path fill="none" stroke="black" d="M896.82,-88C896.82,-88 871.32,-88 871.32,-88"/>
<polygon fill="black" stroke="black" points="871.32,-84.5 861.32,-88 871.32,-91.5 871.32,-84.5"/>
</g>
<!-- Configuration -->
<g id="node6" class="node">
<title>Configuration</title>
<polygon fill="none" stroke="black" points="1118,-62.5 1118,-100.5 1285,-100.5 1285,-62.5 1118,-62.5"/>
<text text-anchor="middle" x="1201.5" y="-85.3" font-family="Times,serif" font-size="14.00">Configuration </text>
<text text-anchor="middle" x="1201.5" y="-70.3" font-family="Times,serif" font-size="14.00">(C/C++/Go/Rust) [Vi]</text>
</g>
<!-- Verification&#45;&gt;Configuration -->
<g id="edge5" class="edge">
<title>Verification&#45;&gt;Configuration</title>
<path fill="none" stroke="black" d="M1082.18,-81.5C1082.18,-81.5 1107.68,-81.5 1107.68,-81.5"/>
<polygon fill="black" stroke="black" points="1107.68,-85 1117.68,-81.5 1107.68,-78 1107.68,-85"/>
</g>
<!-- Quality -->
<g id="node7" class="node">
<title>Quality</title>
<polygon fill="none" stroke="black" points="1321,-24.5 1321,-62.5 1472,-62.5 1472,-24.5 1321,-24.5"/>
<text text-anchor="middle" x="1396.5" y="-47.3" font-family="Times,serif" font-size="14.00">Quality Assurance </text>
<text text-anchor="middle" x="1396.5" y="-32.3" font-family="Times,serif" font-size="14.00">(Ada) [Vi]</text>
</g>
<!-- Configuration&#45;&gt;Quality -->
<g id="edge6" class="edge">
<title>Configuration&#45;&gt;Quality</title>
<path fill="none" stroke="black" d="M1202,-62.13C1202,-59.4 1202,-57.5 1202,-57.5 1202,-57.5 1310.74,-57.5 1310.74,-57.5"/>
<polygon fill="black" stroke="black" points="1310.74,-61 1320.74,-57.5 1310.74,-54 1310.74,-61"/>
</g>
<!-- Quality&#45;&gt;Requirements -->
<g id="edge12" class="edge">
<title>Quality&#45;&gt;Requirements</title>
<path fill="none" stroke="black" d="M1320.77,-33.67C1320.77,-33.67 244.26,-33.67 244.26,-33.67"/>
<polygon fill="black" stroke="black" points="244.26,-30.17 234.26,-33.67 244.26,-37.17 244.26,-30.17"/>
</g>
<!-- Certification -->
<g id="node8" class="node">
<title>Certification</title>
<polygon fill="none" stroke="black" points="1508,-24.5 1508,-62.5 1618,-62.5 1618,-24.5 1508,-24.5"/>
<text text-anchor="middle" x="1563" y="-47.3" font-family="Times,serif" font-size="14.00">Certification </text>
<text text-anchor="middle" x="1563" y="-32.3" font-family="Times,serif" font-size="14.00">(Java) [Vi]</text>
</g>
<!-- Quality&#45;&gt;Certification -->
<g id="edge7" class="edge">
<title>Quality&#45;&gt;Certification</title>
<path fill="none" stroke="black" d="M1472.44,-43.5C1472.44,-43.5 1497.58,-43.5 1497.58,-43.5"/>
<polygon fill="black" stroke="black" points="1497.58,-47 1507.58,-43.5 1497.58,-40 1497.58,-47"/>
</g>
<!-- LifeCycle -->
<g id="node9" class="node">
<title>LifeCycle</title>
<polygon fill="none" stroke="black" points="1654,-0.5 1654,-38.5 1833,-38.5 1833,-0.5 1654,-0.5"/>
<text text-anchor="middle" x="1743.5" y="-23.3" font-family="Times,serif" font-size="14.00">Design LifeCycle Data </text>
<text text-anchor="middle" x="1743.5" y="-8.3" font-family="Times,serif" font-size="14.00">(Scala) [Vi]</text>
</g>
<!-- Certification&#45;&gt;LifeCycle -->
<g id="edge8" class="edge">
<title>Certification&#45;&gt;LifeCycle</title>
<path fill="none" stroke="black" d="M1618.14,-31.5C1618.14,-31.5 1643.77,-31.5 1643.77,-31.5"/>
<polygon fill="black" stroke="black" points="1643.77,-35 1653.77,-31.5 1643.77,-28 1643.77,-35"/>
</g>
<!-- LifeCycle&#45;&gt;Requirements -->
<g id="edge9" class="edge">
<title>LifeCycle&#45;&gt;Requirements</title>
<path fill="none" stroke="black" d="M1653.74,-19C1653.74,-19 244.05,-19 244.05,-19"/>
<polygon fill="black" stroke="black" points="244.05,-15.5 234.05,-19 244.05,-22.5 244.05,-15.5"/>
</g>
</g>
</svg>
