<?xml version="1.0" encoding="UTF-8" standalone="no"?>
<!DOCTYPE svg PUBLIC "-//W3C//DTD SVG 1.1//EN"
 "http://www.w3.org/Graphics/SVG/1.1/DTD/svg11.dtd">
<!-- Generated by graphviz version 2.43.0 (0)
 -->
<!-- Title: Project Pages: 1 -->
<svg width="384pt" height="100pt"
 viewBox="0.00 0.00 384.00 100.00" xmlns="http://www.w3.org/2000/svg" xmlns:xlink="http://www.w3.org/1999/xlink">
<g id="graph0" class="graph" transform="scale(1 1) rotate(0) translate(4 96)">
<title>Project</title>
<polygon fill="white" stroke="transparent" points="-4,4 -4,-96 380,-96 380,4 -4,4"/>
<!-- BFM -->
<g id="node1" class="node">
<title>BFM</title>
<polygon fill="none" stroke="black" points="0,-27.5 0,-63.5 54,-63.5 54,-27.5 0,-27.5"/>
<text text-anchor="middle" x="27" y="-41.8" font-family="Times,serif" font-size="14.00">BFM</text>
</g>
<!-- Peripheral -->
<g id="node2" class="node">
<title>Peripheral</title>
<polygon fill="none" stroke="black" points="90,-55.5 90,-91.5 181,-91.5 181,-55.5 90,-55.5"/>
<text text-anchor="middle" x="135.5" y="-69.8" font-family="Times,serif" font-size="14.00">Peripheral</text>
</g>
<!-- BFM&#45;&gt;Peripheral -->
<g id="edge1" class="edge">
<title>BFM&#45;&gt;Peripheral</title>
<path fill="none" stroke="black" d="M54.1,-59.5C54.1,-59.5 79.77,-59.5 79.77,-59.5"/>
<polygon fill="black" stroke="black" points="79.77,-63 89.77,-59.5 79.77,-56 79.77,-63"/>
</g>
<!-- PU -->
<g id="node3" class="node">
<title>PU</title>
<polygon fill="none" stroke="black" points="108.5,-0.5 108.5,-36.5 162.5,-36.5 162.5,-0.5 108.5,-0.5"/>
<text text-anchor="middle" x="135.5" y="-14.8" font-family="Times,serif" font-size="14.00">PU</text>
</g>
<!-- BFM&#45;&gt;PU -->
<g id="edge2" class="edge">
<title>BFM&#45;&gt;PU</title>
<path fill="none" stroke="black" d="M54.1,-32C54.1,-32 98.37,-32 98.37,-32"/>
<polygon fill="black" stroke="black" points="98.37,-35.5 108.37,-32 98.37,-28.5 98.37,-35.5"/>
</g>
<!-- SoC -->
<g id="node4" class="node">
<title>SoC</title>
<polygon fill="none" stroke="black" points="217,-27.5 217,-63.5 271,-63.5 271,-27.5 217,-27.5"/>
<text text-anchor="middle" x="244" y="-41.8" font-family="Times,serif" font-size="14.00">SoC</text>
</g>
<!-- Peripheral&#45;&gt;SoC -->
<g id="edge3" class="edge">
<title>Peripheral&#45;&gt;SoC</title>
<path fill="none" stroke="black" d="M181.2,-59.5C181.2,-59.5 206.92,-59.5 206.92,-59.5"/>
<polygon fill="black" stroke="black" points="206.92,-63 216.92,-59.5 206.92,-56 206.92,-63"/>
</g>
<!-- PU&#45;&gt;SoC -->
<g id="edge4" class="edge">
<title>PU&#45;&gt;SoC</title>
<path fill="none" stroke="black" d="M162.6,-32C162.6,-32 206.87,-32 206.87,-32"/>
<polygon fill="black" stroke="black" points="206.87,-35.5 216.87,-32 206.87,-28.5 206.87,-35.5"/>
</g>
<!-- MPSoC -->
<g id="node5" class="node">
<title>MPSoC</title>
<polygon fill="none" stroke="black" points="307,-27.5 307,-63.5 376,-63.5 376,-27.5 307,-27.5"/>
<text text-anchor="middle" x="341.5" y="-41.8" font-family="Times,serif" font-size="14.00">MPSoC</text>
</g>
<!-- SoC&#45;&gt;MPSoC -->
<g id="edge5" class="edge">
<title>SoC&#45;&gt;MPSoC</title>
<path fill="none" stroke="black" d="M271.16,-45.5C271.16,-45.5 296.81,-45.5 296.81,-45.5"/>
<polygon fill="black" stroke="black" points="296.81,-49 306.81,-45.5 296.81,-42 296.81,-49"/>
</g>
</g>
</svg>
