<?xml version="1.0" encoding="UTF-8" standalone="no"?>
<!DOCTYPE svg PUBLIC "-//W3C//DTD SVG 1.1//EN"
 "http://www.w3.org/Graphics/SVG/1.1/DTD/svg11.dtd">
<!-- Generated by graphviz version 2.43.0 (0)
 -->
<!-- Title: Project Pages: 1 -->
<svg width="185pt" height="45pt"
 viewBox="0.00 0.00 185.00 45.00" xmlns="http://www.w3.org/2000/svg" xmlns:xlink="http://www.w3.org/1999/xlink">
<g id="graph0" class="graph" transform="scale(1 1) rotate(0) translate(4 41)">
<title>Project</title>
<polygon fill="white" stroke="transparent" points="-4,4 -4,-41 181,-41 181,4 -4,4"/>
<!-- user -->
<g id="node1" class="node">
<title>user</title>
<polygon fill="none" stroke="black" points="0,-0.5 0,-36.5 54,-36.5 54,-0.5 0,-0.5"/>
<text text-anchor="middle" x="27" y="-14.8" font-family="Times,serif" font-size="14.00">user</text>
</g>
<!-- developer -->
<g id="node2" class="node">
<title>developer</title>
<polygon fill="none" stroke="black" points="90,-0.5 90,-36.5 177,-36.5 177,-0.5 90,-0.5"/>
<text text-anchor="middle" x="133.5" y="-14.8" font-family="Times,serif" font-size="14.00">developer</text>
</g>
<!-- user&#45;&gt;developer -->
<g id="edge1" class="edge">
<title>user&#45;&gt;developer</title>
<path fill="none" stroke="black" d="M54.15,-12.33C54.15,-12.33 79.85,-12.33 79.85,-12.33"/>
<polygon fill="black" stroke="black" points="79.85,-15.83 89.85,-12.33 79.85,-8.83 79.85,-15.83"/>
</g>
<!-- developer&#45;&gt;user -->
<g id="edge2" class="edge">
<title>developer&#45;&gt;user</title>
<path fill="none" stroke="black" d="M89.88,-24.67C89.88,-24.67 64.23,-24.67 64.23,-24.67"/>
<polygon fill="black" stroke="black" points="64.23,-21.17 54.23,-24.67 64.23,-28.17 64.23,-21.17"/>
</g>
</g>
</svg>
