<svg xmlns="http://www.w3.org/2000/svg" width="730" height="250"  xmlns:v="https://vecta.io/nano"><path d="M0 0h730v250H0z" fill="#fff" pointer-events="none"/><g stroke="#4f4f4f"><path d="M61.29 153.603c0 1.507-.547 2.683-1.64 3.53-1.093.84-2.577 1.26-4.45 1.26-2.033 0-3.597-.26-4.7-.78v-1.92c.707.293 1.473.527 2.3.7a11.96 11.96 0 0 0 2.46.26c1.327 0 2.327-.253 3-.76.673-.5 1-1.2 1-2.1 0-.593-.12-1.08-.36-1.46s-.637-.73-1.2-1.05c-.56-.32-1.4-.683-2.55-1.1-1.593-.567-2.733-1.243-3.42-2.03-.687-.78-1.03-1.797-1.03-3.05 0-1.327.497-2.38 1.5-3.16s2.307-1.17 3.94-1.17c1.707 0 3.273.313 4.7.94l-.62 1.73c-1.413-.593-2.8-.9-4.13-.9-1.053 0-1.877.227-2.47.68s-.9 1.083-.9 1.9c0 .593.1 1.08.33 1.46s.6.727 1.1 1.04c.52.32 1.313.67 2.38 1.05 1.8.64 3.037 1.327 3.7 2.06s1 1.687 1 2.86zm7.36 3.2c.347 0 .68-.027 1-.08.32-.047.573-.1.76-.16v1.5c-.213.107-.523.2-.93.25-.413.067-.783.1-1.1.1-2.487 0-3.73-1.307-3.73-3.92v-7.64H62.8v-.94l1.84-.8.82-2.74h1.13v2.98h3.73v1.5h-3.73v7.56c0 .773.183 1.367.55 1.78s.87.62 1.5.62zm6.272 1.37h-1.95v-12.84h1.95v12.84m-2.1-16.32c0-.447.1-.773.33-.98.213-.207.487-.3.82-.3a1.16 1.16 0 0 1 .81.31c.227.213.34.54.34.98 0 .433-.113.757-.34.97a1.12 1.12 0 0 1-.81.33c-.333 0-.607-.1-.82-.33-.22-.213-.33-.537-.33-.97zm22.6 16.32v-8.36c0-1.02-.217-1.787-.65-2.3-.44-.513-1.12-.77-2.04-.77-1.213 0-2.1.35-2.7 1.05-.573.693-.86 1.763-.86 3.2v7.17h-1.95v-8.36c0-1.02-.217-1.787-.65-2.3-.44-.513-1.123-.77-2.05-.77-1.22 0-2.113.367-2.68 1.1s-.85 1.93-.85 3.6v6.74h-1.95v-12.84h1.58l.32 1.75h.1c.373-.62.893-1.107 1.56-1.46s1.413-.53 2.24-.53c2.007 0 3.32.727 3.94 2.18h.1a4.09 4.09 0 0 1 1.67-1.59c.727-.393 1.553-.6 2.48-.6 1.453 0 2.54.373 3.26 1.12.727.747 1.1 1.94 1.1 3.58v8.38h-1.95zm7.78-12.84v8.33c0 1.047.24 1.827.72 2.34.473.52 1.217.78 2.23.78 1.347 0 2.33-.37 2.95-1.1.62-.733.93-1.93.93-3.6v-6.75h1.95v12.84h-1.6l-.28-1.72h-.1c-.4.633-.953 1.117-1.66 1.45s-1.513.5-2.42.5c-1.567 0-2.737-.37-3.5-1.1-.78-.74-1.17-1.927-1.17-3.56v-8.4h1.97zm14.85 12.84h-1.95v-18.23h1.95v18.23zm5.95-12.84v8.33c0 1.047.24 1.827.72 2.34.473.52 1.217.78 2.23.78 1.347 0 2.33-.37 2.95-1.1.62-.733.93-1.93.93-3.6v-6.75h1.95v12.84h-1.6l-.28-1.72h-.1c-.4.633-.953 1.117-1.66 1.45s-1.513.5-2.42.5c-1.567 0-2.737-.37-3.5-1.1-.78-.74-1.17-1.927-1.17-3.56v-8.4H124zm21.19 9.34c0 1.193-.447 2.113-1.34 2.76-.887.647-2.137.97-3.75.97-1.7 0-3.027-.267-3.98-.8v-1.8a9.48 9.48 0 0 0 1.98.74c.707.18 1.4.27 2.05.27 1.013 0 1.793-.163 2.34-.5.547-.32.82-.813.82-1.48 0-.5-.217-.927-.65-1.28-.433-.36-1.277-.78-2.53-1.26-1.2-.447-2.05-.837-2.55-1.17-.507-.333-.883-.7-1.13-1.13s-.37-.923-.37-1.5a2.88 2.88 0 0 1 1.28-2.48c.853-.607 2.02-.9 3.5-.9 1.387 0 2.74.283 4.06.85l-.7 1.58c-1.293-.533-2.463-.8-3.5-.8-.92 0-1.613.143-2.08.43-.473.293-.7.693-.7 1.2 0 .347.1.64.27.88.173.24.457.47.85.7.387.22 1.137.537 2.25.95 1.52.553 2.547 1.1 3.08 1.67.54.567.8 1.277.8 2.13z" fill="#4f4f4f"/><g fill="#cfcfcf" stroke-width="3.596"><path d="M722.74 242.557L7.86 244.15 7.308 5.53l715.433-.066v237.093z"/><path d="M201.612 231.643H21.804V51.835h179.808v179.808z"/></g><path d="M75.555 146.097c0 1.507-.547 2.683-1.64 3.53-1.093.84-2.577 1.26-4.45 1.26-2.033 0-3.597-.26-4.7-.78v-1.92c.707.293 1.473.527 2.3.7a11.96 11.96 0 0 0 2.46.26c1.327 0 2.327-.253 3-.76.673-.5 1-1.2 1-2.1 0-.593-.12-1.08-.36-1.46s-.637-.73-1.2-1.05c-.56-.32-1.4-.683-2.55-1.1-1.593-.567-2.733-1.243-3.42-2.03-.687-.78-1.03-1.797-1.03-3.05 0-1.327.497-2.38 1.5-3.16s2.307-1.17 3.94-1.17c1.707 0 3.273.313 4.7.94l-.62 1.73c-1.413-.593-2.8-.9-4.13-.9-1.053 0-1.877.227-2.47.68s-.9 1.083-.9 1.9c0 .593.1 1.08.33 1.46s.6.727 1.1 1.04c.52.32 1.313.67 2.38 1.05 1.8.64 3.037 1.327 3.7 2.06s1 1.687 1 2.86zm7.36 3.2c.347 0 .68-.027 1-.08.32-.047.573-.1.76-.16v1.5c-.213.107-.523.2-.93.25-.413.067-.783.1-1.1.1-2.487 0-3.73-1.307-3.73-3.92v-7.64h-1.84v-.94l1.84-.8.82-2.74h1.13v2.98h3.73v1.5h-3.73v7.56c0 .773.183 1.367.55 1.78s.87.62 1.5.62zm6.272 1.37h-1.95v-12.84h1.95v12.84m-2.1-16.32c0-.447.1-.773.33-.98.213-.207.487-.3.82-.3a1.16 1.16 0 0 1 .81.31c.227.213.34.54.34.98 0 .433-.113.757-.34.97a1.12 1.12 0 0 1-.81.33c-.333 0-.607-.1-.82-.33-.22-.213-.33-.537-.33-.97zm22.6 16.32v-8.36c0-1.02-.217-1.787-.65-2.3-.44-.513-1.12-.77-2.04-.77-1.213 0-2.1.35-2.7 1.05-.573.693-.86 1.763-.86 3.2v7.17h-1.95v-8.36c0-1.02-.217-1.787-.65-2.3-.44-.513-1.123-.77-2.05-.77-1.22 0-2.113.367-2.68 1.1s-.85 1.93-.85 3.6v6.74h-1.95v-12.84h1.58l.32 1.75h.1c.373-.62.893-1.107 1.56-1.46s1.413-.53 2.24-.53c2.007 0 3.32.727 3.94 2.18h.1a4.09 4.09 0 0 1 1.67-1.59c.727-.393 1.553-.6 2.48-.6 1.453 0 2.54.373 3.26 1.12.727.747 1.1 1.94 1.1 3.58v8.38h-1.95zm7.78-12.84v8.33c0 1.047.24 1.827.72 2.34.473.52 1.217.78 2.23.78 1.347 0 2.33-.37 2.95-1.1.62-.733.93-1.93.93-3.6v-6.75h1.95v12.84h-1.6l-.28-1.72h-.1c-.4.633-.953 1.117-1.66 1.45s-1.513.5-2.42.5c-1.567 0-2.737-.37-3.5-1.1-.78-.74-1.17-1.927-1.17-3.56v-8.4h1.97zm14.85 12.84h-1.95v-18.23h1.95v18.23zm5.95-12.84v8.33c0 1.047.24 1.827.72 2.34.473.52 1.217.78 2.23.78 1.347 0 2.33-.37 2.95-1.1.62-.733.93-1.93.93-3.6v-6.75h1.95v12.84h-1.6l-.28-1.72h-.1c-.4.633-.953 1.117-1.66 1.45s-1.513.5-2.42.5c-1.567 0-2.737-.37-3.5-1.1-.78-.74-1.17-1.927-1.17-3.56v-8.4h1.97zm21.19 9.34c0 1.193-.447 2.113-1.34 2.76-.887.647-2.137.97-3.75.97-1.7 0-3.027-.267-3.98-.8v-1.8a9.48 9.48 0 0 0 1.98.74c.707.18 1.4.27 2.05.27 1.013 0 1.793-.163 2.34-.5.547-.32.82-.813.82-1.48 0-.5-.217-.927-.65-1.28-.433-.36-1.277-.78-2.53-1.26-1.2-.447-2.05-.837-2.55-1.17-.507-.333-.883-.7-1.13-1.13s-.37-.923-.37-1.5a2.88 2.88 0 0 1 1.28-2.48c.853-.607 2.02-.9 3.5-.9 1.387 0 2.74.283 4.06.85l-.7 1.58c-1.293-.533-2.463-.8-3.5-.8-.92 0-1.613.143-2.08.43-.473.293-.7.693-.7 1.2 0 .347.1.64.27.88.173.24.457.47.85.7.387.22 1.137.537 2.25.95 1.52.553 2.547 1.1 3.08 1.67.54.567.8 1.277.8 2.13z" fill="#4f4f4f"/><path d="M453.533 231.643H273.726V51.835h179.808v179.808z" fill="#cfcfcf" stroke-width="3.596"/><path d="M313.592 168.494h-2v-15.36h-5.43v-1.77h12.84v1.77h-5.42v15.36zm13.136.23c-1.9 0-3.4-.577-4.5-1.73-1.093-1.153-1.64-2.76-1.64-4.82 0-2.067.5-3.7 1.53-4.93s2.387-1.83 4.1-1.83c1.613 0 2.887.53 3.82 1.6.94 1.06 1.4 2.457 1.4 4.2v1.23h-8.85c.04 1.507.423 2.65 1.15 3.43.72.787 1.737 1.18 3.05 1.18 1.38 0 2.747-.3 4.1-.87v1.73c-.687.3-1.337.513-1.95.64s-1.353.2-2.22.2m-.53-11.68c-1.033 0-1.857.337-2.47 1s-.973 1.603-1.08 2.8h6.72c0-1.227-.277-2.167-.83-2.82-.547-.653-1.327-.98-2.34-.98zm16.853 7.95c0 1.193-.447 2.113-1.34 2.76-.887.647-2.137.97-3.75.97-1.7 0-3.027-.267-3.98-.8v-1.8a9.48 9.48 0 0 0 1.98.74c.707.18 1.4.27 2.05.27 1.013 0 1.793-.163 2.34-.5.547-.32.82-.813.82-1.48 0-.5-.217-.927-.65-1.28-.433-.36-1.277-.78-2.53-1.26-1.2-.447-2.05-.837-2.55-1.17-.507-.333-.883-.7-1.13-1.13s-.37-.923-.37-1.5a2.88 2.88 0 0 1 1.28-2.48c.853-.607 2.02-.9 3.5-.9a10.19 10.19 0 0 1 4.06.85l-.7 1.58c-1.293-.533-2.463-.8-3.5-.8-.92 0-1.613.143-2.08.43-.473.293-.7.693-.7 1.2a1.49 1.49 0 0 0 .27.88c.173.24.457.47.85.7.387.22 1.137.537 2.25.95 1.52.553 2.547 1.1 3.08 1.67.54.567.8 1.277.8 2.13zm7.308 2.13a6.11 6.11 0 0 0 1-.08c.32-.047.573-.1.76-.16v1.5c-.213.107-.523.2-.93.25-.413.067-.783.1-1.1.1-2.487 0-3.73-1.307-3.73-3.92v-7.64h-1.84v-.94l1.84-.8.82-2.74h1.13v2.98h3.73v1.5h-3.73v7.56c0 .773.183 1.367.55 1.78s.87.62 1.5.62zm9.455-5.2c0-2.073.303-4.013.9-5.82.607-1.8 1.48-3.38 2.62-4.74h1.9c-1.127 1.507-1.973 3.163-2.54 4.97-.567 1.8-.85 3.653-.85 5.56 0 1.873.3 3.707.87 5.5a16.75 16.75 0 0 0 2.5 4.9h-1.87c-1.147-1.333-2.023-2.887-2.63-4.66-.6-1.773-.9-3.677-.9-5.7zm22.17-2.16c0 2.827-.767 5-2.3 6.5-1.533 1.493-3.743 2.24-6.63 2.24h-4.74v-17.13h5.25c2.66 0 4.73.737 6.2 2.2 1.473 1.48 2.2 3.543 2.2 6.2m-2.1.07c0-2.233-.56-3.917-1.68-5.05s-2.787-1.7-5-1.7h-2.9v13.7h2.42c2.38 0 4.167-.583 5.36-1.75 1.193-1.173 1.8-2.903 1.8-5.2zm18.864-8.47v11.08c0 1.953-.6 3.5-1.77 4.6-1.18 1.113-2.8 1.67-4.86 1.67s-3.657-.56-4.8-1.68c-1.127-1.127-1.7-2.673-1.7-4.64v-11.04h2v11.18c0 1.427.4 2.523 1.17 3.3.787.767 1.937 1.15 3.45 1.15 1.447 0 2.56-.387 3.34-1.16.78-.767 1.17-1.87 1.17-3.3v-11.15h2zm9.8 17.13h-2v-15.36h-5.43v-1.77h12.84v1.77h-5.42v15.36zm11.786-6.57c0 2.053-.303 3.967-.9 5.74s-1.48 3.317-2.62 4.63h-1.87a17.08 17.08 0 0 0 2.5-4.9c.58-1.793.87-3.627.87-5.5 0-1.907-.283-3.76-.85-5.56-.567-1.807-1.413-3.463-2.54-4.97h1.9c1.153 1.367 2.03 2.953 2.63 4.76s.9 3.74.9 5.8zM303.3 124.1c0 2.827-.767 5-2.3 6.5-1.533 1.493-3.743 2.24-6.63 2.24h-4.74V115.7h5.25c2.66 0 4.73.737 6.2 2.2 1.473 1.48 2.2 3.543 2.2 6.2m-2.1.07c0-2.233-.56-3.917-1.68-5.05s-2.787-1.7-5-1.7h-2.9v13.7h2.42c2.38 0 4.167-.583 5.36-1.75 1.193-1.173 1.8-2.903 1.8-5.2zm11.064 8.9c-1.9 0-3.4-.577-4.5-1.73-1.093-1.153-1.64-2.76-1.64-4.82 0-2.067.5-3.7 1.53-4.93s2.387-1.83 4.1-1.83c1.613 0 2.887.53 3.82 1.6.94 1.06 1.4 2.457 1.4 4.2v1.23h-8.85c.04 1.507.423 2.65 1.15 3.43.72.787 1.737 1.18 3.05 1.18 1.38 0 2.747-.3 4.1-.87v1.73c-.687.3-1.337.513-1.95.64s-1.353.2-2.22.2m-.53-11.68c-1.033 0-1.857.337-2.47 1s-.973 1.603-1.08 2.8h6.72c0-1.227-.277-2.167-.83-2.82-.547-.653-1.327-.98-2.34-.98zm16.853 7.95c0 1.193-.447 2.113-1.34 2.76-.887.647-2.137.97-3.75.97-1.7 0-3.027-.267-3.98-.8v-1.8a9.48 9.48 0 0 0 1.98.74c.707.18 1.4.27 2.05.27 1.013 0 1.793-.163 2.34-.5.547-.32.82-.813.82-1.48 0-.5-.217-.927-.65-1.28-.433-.36-1.277-.78-2.53-1.26-1.2-.447-2.05-.837-2.55-1.17-.507-.333-.883-.7-1.13-1.13s-.37-.923-.37-1.5a2.88 2.88 0 0 1 1.28-2.48c.853-.607 2.02-.9 3.5-.9a10.19 10.19 0 0 1 4.06.85l-.7 1.58c-1.293-.533-2.463-.8-3.5-.8-.92 0-1.613.143-2.08.43-.473.293-.7.693-.7 1.2a1.49 1.49 0 0 0 .27.88c.173.24.457.47.85.7.387.22 1.137.537 2.25.95 1.52.553 2.547 1.1 3.08 1.67.54.567.8 1.277.8 2.13zm5.108 3.5h-1.95v-12.84h1.95v12.84m-2.1-16.32c0-.447.1-.773.33-.98.213-.207.487-.3.82-.3a1.16 1.16 0 0 1 .81.31c.227.213.34.54.34.98 0 .433-.113.757-.34.97a1.12 1.12 0 0 1-.81.33c-.333 0-.607-.1-.82-.33-.22-.213-.33-.537-.33-.97zm16.74 3.48v1.23l-2.37.28c.213.273.407.63.58 1.07s.26.937.26 1.5c0 1.26-.43 2.267-1.3 3.02-.86.747-2.04 1.12-3.54 1.12a6.21 6.21 0 0 1-1.08-.09c-.827.433-1.24.983-1.24 1.65 0 .353.143.613.43.78.293.167.8.25 1.5.25h2.28c1.387 0 2.453.293 3.2.88s1.12 1.437 1.12 2.55c0 1.427-.57 2.513-1.7 3.26s-2.803 1.12-5 1.12c-1.68 0-2.977-.313-3.9-.94-.907-.627-1.36-1.5-1.36-2.65 0-.78.25-1.457.75-2.03.5-.567 1.203-.953 2.1-1.16-.333-.147-.6-.377-.83-.7s-.33-.677-.33-1.1a2.09 2.09 0 0 1 .37-1.23c.253-.353.647-.693 1.18-1.02-.66-.273-1.2-.737-1.62-1.4s-.63-1.4-.63-2.25c0-1.407.423-2.493 1.27-3.26.847-.76 2.043-1.14 3.6-1.14.667 0 1.27.08 1.8.24h4.44m-10.24 15a1.74 1.74 0 0 0 .88 1.58c.587.36 1.427.54 2.52.54 1.633 0 2.843-.247 3.63-.74.787-.487 1.18-1.147 1.18-1.98 0-.693-.217-1.177-.65-1.45-.427-.267-1.237-.4-2.43-.4h-2.33c-.88 0-1.567.2-2.06.63s-.74 1.027-.74 1.82m1.06-10.9c0 .9.253 1.58.76 2.04s1.213.7 2.12.7c1.9 0 2.85-.923 2.85-2.77 0-1.927-.963-2.9-2.9-2.9-.913 0-1.613.247-2.1.74-.493.493-.74 1.223-.74 2.2zm20.607 8.73v-8.3c0-1.047-.237-1.827-.7-2.34-.48-.52-1.227-.78-2.24-.78-1.347 0-2.33.363-2.95 1.1-.627.727-.94 1.927-.94 3.6v6.74h-1.95v-12.84h1.58l.32 1.75h.1c.4-.633.96-1.123 1.68-1.47s1.52-.52 2.4-.52c1.547 0 2.713.373 3.5 1.12.78.747 1.17 1.94 1.17 3.58v8.38h-1.95zm25.402-17.13v11.08c0 1.953-.6 3.5-1.77 4.6-1.18 1.113-2.8 1.67-4.86 1.67s-3.657-.56-4.8-1.68c-1.127-1.127-1.7-2.673-1.7-4.64V115.7h2v11.18c0 1.427.4 2.523 1.17 3.3.787.767 1.937 1.15 3.45 1.15 1.447 0 2.56-.387 3.34-1.16.78-.767 1.17-1.87 1.17-3.3v-11.15h2zm13.03 17.13v-8.3c0-1.047-.237-1.827-.7-2.34-.48-.52-1.227-.78-2.24-.78-1.347 0-2.33.363-2.95 1.1-.627.727-.94 1.927-.94 3.6v6.74h-1.95v-12.84h1.58l.32 1.75h.1c.4-.633.96-1.123 1.68-1.47s1.52-.52 2.4-.52c1.547 0 2.713.373 3.5 1.12.78.747 1.17 1.94 1.17 3.58v8.38h-1.95zm14.68-1.72h-.1c-.9 1.3-2.243 1.95-4.03 1.95-1.68 0-2.987-.573-3.92-1.72s-1.4-2.78-1.4-4.9c0-2.113.467-3.757 1.4-4.93.94-1.173 2.247-1.76 3.92-1.76 1.74 0 3.077.633 4 1.9h.15l-.08-.93-.05-.9v-5.22h1.94v18.23h-1.58l-.26-1.72m-3.9.33c1.333 0 2.297-.363 2.9-1.1.6-.72.9-1.887.9-3.5v-.4c0-1.82-.303-3.117-.9-3.9-.607-.78-1.573-1.17-2.9-1.17-1.14 0-2.013.443-2.62 1.33s-.9 2.14-.9 3.76c0 1.64.303 2.877.9 3.7.6.84 1.48 1.26 2.64 1.26zm15.285 1.62c-1.9 0-3.4-.577-4.5-1.73-1.093-1.153-1.64-2.76-1.64-4.82 0-2.067.5-3.7 1.53-4.93s2.387-1.83 4.1-1.83c1.613 0 2.887.53 3.82 1.6.94 1.06 1.4 2.457 1.4 4.2v1.23h-8.85c.04 1.507.423 2.65 1.15 3.43.72.787 1.737 1.18 3.05 1.18 1.38 0 2.747-.3 4.1-.87v1.73c-.687.3-1.337.513-1.95.64s-1.353.2-2.22.2m-.53-11.68c-1.033 0-1.857.337-2.47 1s-.973 1.603-1.08 2.8h6.72c0-1.227-.277-2.167-.83-2.82-.547-.653-1.327-.98-2.34-.98zm14.423-1.63a7.7 7.7 0 0 1 1.54.14l-.27 1.8c-.533-.12-1.003-.18-1.4-.18-1.04 0-1.927.423-2.66 1.27-.74.84-1.1 1.9-1.1 3.15v6.9h-1.95v-12.84h1.6l.22 2.38h.1c.48-.84 1.057-1.487 1.73-1.94a3.84 3.84 0 0 1 2.2-.68z" fill="#4f4f4f"/><g fill="#cfcfcf"><path d="M706.9 231.643H527.093V51.835H706.9v179.808z" stroke-width="3.596"/><path d="M202.016 141.7l63.333.056m187.797-.132l67.285.2" paint-order="stroke" stroke-width="2.692"/></g><g fill="#4f4f4f"><path d="M525.665 141.58l-20.16-11.3.18 22.935 19.978-11.625m-253.925-.01l-20.16-11.3.18 22.935 19.978-11.625" stroke-width=".23"/><path d="M581.383 151.448c-1.88 0-3.367.627-4.46 1.88-1.087 1.253-1.63 2.97-1.63 5.15 0 2.247.523 3.98 1.57 5.2 1.053 1.22 2.553 1.83 4.5 1.83 1.193 0 2.557-.213 4.1-.64v1.75c-1.187.44-2.653.66-4.4.66-2.52 0-4.467-.763-5.84-2.3s-2.06-3.7-2.06-6.53c0-1.767.333-3.313 1-4.64.66-1.327 1.6-2.35 2.85-3.07s2.713-1.08 4.4-1.08c1.8 0 3.373.33 4.72 1l-.85 1.7c-1.293-.613-2.6-.92-3.9-.92zm16.3 15.6v-8.3c0-1.047-.237-1.827-.7-2.34-.48-.52-1.227-.78-2.24-.78-1.353 0-2.34.37-2.96 1.1s-.93 1.937-.93 3.6v6.7h-1.95v-18.23h1.95v5.52c0 .66-.033 1.2-.1 1.65h.12c.387-.62.933-1.107 1.64-1.46s1.513-.53 2.42-.53c1.567 0 2.743.37 3.53 1.1.787.747 1.18 1.933 1.18 3.56v8.38h-1.95zm11.37.23c-1.9 0-3.4-.577-4.5-1.73-1.093-1.153-1.64-2.76-1.64-4.82 0-2.067.5-3.7 1.53-4.93s2.387-1.83 4.1-1.83c1.613 0 2.887.53 3.82 1.6.94 1.06 1.4 2.457 1.4 4.2v1.23h-8.85c.04 1.507.423 2.65 1.15 3.43.72.787 1.737 1.18 3.05 1.18 1.38 0 2.747-.3 4.1-.87v1.73c-.687.3-1.337.513-1.95.64s-1.353.2-2.22.2m-.53-11.68c-1.033 0-1.857.337-2.47 1s-.973 1.603-1.08 2.8h6.72c0-1.227-.277-2.167-.83-2.82-.547-.653-1.327-.98-2.34-.98zm13.703 11.68c-1.86 0-3.3-.57-4.32-1.7-1.02-1.147-1.53-2.767-1.53-4.86 0-2.147.517-3.807 1.55-4.98s2.507-1.76 4.42-1.76c.62 0 1.24.067 1.86.2.613.133 1.097.3 1.45.47l-.6 1.65a8.85 8.85 0 0 0-1.4-.43c-.513-.113-.963-.17-1.35-.17-2.613 0-3.92 1.667-3.92 5 0 1.573.32 2.783.96 3.63.633.847 1.577 1.27 2.83 1.27 1.067 0 2.163-.233 3.3-.7v1.73c-.86.44-1.94.66-3.24.66zm8.204-6.8c.34-.48.853-1.107 1.54-1.88l4.15-4.4h2.3l-5.2 5.47 5.57 7.37h-2.36l-4.53-6.07-1.47 1.27v4.8h-1.92v-18.23h1.92v9.66l-.1 2h.1zm16.106 6.8c-1.9 0-3.4-.577-4.5-1.73-1.093-1.153-1.64-2.76-1.64-4.82 0-2.067.5-3.7 1.53-4.93s2.387-1.83 4.1-1.83c1.613 0 2.887.53 3.82 1.6.94 1.06 1.4 2.457 1.4 4.2v1.23h-8.85c.04 1.507.423 2.65 1.15 3.43.72.787 1.737 1.18 3.05 1.18 1.38 0 2.747-.3 4.1-.87v1.73c-.687.3-1.337.513-1.95.64s-1.353.2-2.22.2m-.53-11.68c-1.033 0-1.857.337-2.47 1s-.973 1.603-1.08 2.8h6.72c0-1.227-.277-2.167-.83-2.82-.547-.653-1.327-.98-2.34-.98zm14.423-1.63a7.7 7.7 0 0 1 1.54.14l-.27 1.8c-.533-.12-1.003-.18-1.4-.18-1.04 0-1.927.423-2.66 1.27-.74.84-1.1 1.9-1.1 3.15v6.9h-1.95v-12.84h1.6l.22 2.38h.1c.48-.84 1.057-1.487 1.73-1.94a3.84 3.84 0 0 1 2.2-.68zM594.33 125.8c0 2.74-.693 4.897-2.08 6.47-1.387 1.567-3.317 2.35-5.8 2.35-2.52 0-4.467-.77-5.84-2.3s-2.06-3.717-2.06-6.53c0-2.793.7-4.957 2.07-6.5 1.373-1.533 3.327-2.3 5.86-2.3 2.46 0 4.38.78 5.76 2.34 1.387 1.567 2.08 3.723 2.08 6.47m-13.66 0c0 2.32.497 4.08 1.5 5.28.987 1.2 2.42 1.8 4.3 1.8 1.9 0 3.333-.597 4.3-1.8.973-1.2 1.46-2.963 1.46-5.3 0-2.307-.483-4.053-1.45-5.24-.967-1.193-2.393-1.8-4.28-1.8-1.9 0-3.343.6-4.33 1.8-.993 1.2-1.5 2.943-1.5 5.23zm19-4.25v8.33c0 1.047.24 1.827.72 2.34.473.52 1.217.78 2.23.78 1.347 0 2.33-.37 2.95-1.1s.93-1.93.93-3.6v-6.75h1.95v12.84h-1.6l-.28-1.72h-.1c-.4.633-.953 1.117-1.66 1.45s-1.513.5-2.42.5c-1.567 0-2.737-.37-3.5-1.1-.78-.74-1.17-1.927-1.17-3.56v-8.4h1.97zm17.05 11.47a6.11 6.11 0 0 0 1-.08c.32-.047.573-.1.76-.16v1.5c-.213.107-.523.2-.93.25-.413.067-.783.1-1.1.1-2.487 0-3.73-1.307-3.73-3.92v-7.64h-1.84v-.94l1.84-.8.82-2.74h1.13v2.98h3.73v1.5h-3.73v7.56c0 .773.183 1.367.55 1.78s.87.62 1.5.62zm10.302 1.6c-.833 0-1.597-.153-2.3-.46a4.26 4.26 0 0 1-1.74-1.42h-.14c.093.747.14 1.457.14 2.13v5.3h-1.95v-18.6h1.58l.27 1.75h.1c.5-.7 1.08-1.207 1.74-1.52.667-.313 1.43-.47 2.3-.47 1.7 0 3.013.583 3.94 1.75.927 1.16 1.4 2.793 1.4 4.9s-.47 3.743-1.4 4.9-2.247 1.75-3.92 1.75m-.28-11.66c-1.313 0-2.263.363-2.85 1.1s-.887 1.883-.9 3.47v.44c0 1.8.3 3.1.9 3.87s1.563 1.17 2.9 1.17c1.113 0 1.983-.45 2.6-1.35.633-.9.95-2.14.95-3.72 0-1.6-.317-2.827-.95-3.68-.627-.86-1.5-1.3-2.65-1.3zm10.835-1.4v8.33c0 1.047.24 1.827.72 2.34.473.52 1.217.78 2.23.78 1.347 0 2.33-.37 2.95-1.1s.93-1.93.93-3.6v-6.75h1.95v12.84h-1.6l-.28-1.72h-.1c-.4.633-.953 1.117-1.66 1.45s-1.513.5-2.42.5c-1.567 0-2.737-.37-3.5-1.1-.78-.74-1.17-1.927-1.17-3.56v-8.4h1.97zm17.05 11.47a6.11 6.11 0 0 0 1-.08c.32-.047.573-.1.76-.16v1.5c-.213.107-.523.2-.93.25-.413.067-.783.1-1.1.1-2.487 0-3.73-1.307-3.73-3.92v-7.64h-1.84v-.94l1.84-.8.82-2.74h1.13v2.98h3.73v1.5h-3.73v7.56c0 .773.183 1.367.55 1.78s.87.62 1.5.62zM29.438 34.566h-2v-15.36h-5.43v-1.77h12.84v1.77h-5.42v15.36zm13.136.23c-1.9 0-3.4-.577-4.5-1.73-1.093-1.153-1.64-2.76-1.64-4.82 0-2.067.5-3.7 1.53-4.93s2.387-1.83 4.1-1.83c1.613 0 2.887.53 3.82 1.6.94 1.06 1.4 2.457 1.4 4.2v1.23h-8.85c.04 1.507.423 2.65 1.15 3.43.72.787 1.737 1.18 3.05 1.18 1.38 0 2.747-.3 4.1-.87v1.73c-.687.3-1.337.513-1.95.64s-1.353.2-2.22.2m-.53-11.68c-1.033 0-1.857.337-2.47 1s-.973 1.603-1.08 2.8h6.72c0-1.227-.277-2.167-.83-2.82-.547-.653-1.327-.98-2.34-.98zm16.853 7.95c0 1.193-.447 2.113-1.34 2.76-.887.647-2.137.97-3.75.97-1.7 0-3.027-.267-3.98-.8v-1.8a9.48 9.48 0 0 0 1.98.74c.707.18 1.4.27 2.05.27 1.013 0 1.793-.163 2.34-.5.547-.32.82-.813.82-1.48 0-.5-.217-.927-.65-1.28-.433-.36-1.277-.78-2.53-1.26-1.2-.447-2.05-.837-2.55-1.17-.507-.333-.883-.7-1.13-1.13s-.37-.923-.37-1.5a2.88 2.88 0 0 1 1.28-2.48c.853-.607 2.02-.9 3.5-.9a10.19 10.19 0 0 1 4.06.85l-.7 1.58c-1.293-.533-2.463-.8-3.5-.8-.92 0-1.613.143-2.08.43-.473.293-.7.693-.7 1.2a1.49 1.49 0 0 0 .27.88c.173.24.457.47.85.7.387.22 1.137.537 2.25.95 1.52.553 2.547 1.1 3.08 1.67.54.567.8 1.277.8 2.13zm7.308 2.13a6.11 6.11 0 0 0 1-.08c.32-.047.573-.1.76-.16v1.5c-.213.107-.523.2-.93.25-.413.067-.783.1-1.1.1-2.487 0-3.73-1.307-3.73-3.92v-7.64h-1.84v-.94l1.84-.8.82-2.74h1.13v2.98h3.73v1.5h-3.73v7.56c0 .773.183 1.367.55 1.78s.87.62 1.5.62zm10.302-11.68c1.687 0 2.997.573 3.93 1.72.933 1.153 1.4 2.787 1.4 4.9 0 2.107-.47 3.743-1.4 4.9s-2.247 1.75-3.92 1.75c-.833 0-1.597-.153-2.3-.46a4.26 4.26 0 0 1-1.74-1.42h-.14l-.4 1.65h-1.4v-18.23h1.95v4.43l-.1 2.67h.1c.907-1.28 2.25-1.92 4.03-1.92m-.28 1.62c-1.327 0-2.283.383-2.87 1.15-.587.76-.88 2.043-.88 3.85 0 1.8.3 3.1.9 3.87s1.563 1.17 2.9 1.17c1.2 0 2.093-.437 2.68-1.3s.88-2.127.88-3.76c0-1.667-.293-2.913-.88-3.74-.587-.82-1.493-1.23-2.72-1.23zm14.435 11.66c-1.9 0-3.4-.577-4.5-1.73-1.093-1.153-1.64-2.76-1.64-4.82 0-2.067.5-3.7 1.53-4.93s2.387-1.83 4.1-1.83c1.613 0 2.887.53 3.82 1.6.94 1.06 1.4 2.457 1.4 4.2v1.23h-8.85c.04 1.507.423 2.65 1.15 3.43.72.787 1.737 1.18 3.05 1.18 1.38 0 2.747-.3 4.1-.87v1.73c-.687.3-1.337.513-1.95.64s-1.353.2-2.22.2m-.53-11.68c-1.033 0-1.857.337-2.47 1s-.973 1.603-1.08 2.8h6.72c0-1.227-.277-2.167-.83-2.82-.547-.653-1.327-.98-2.34-.98zm17.353 11.45v-8.3c0-1.047-.237-1.827-.7-2.34-.48-.52-1.227-.78-2.24-.78-1.347 0-2.33.363-2.95 1.1-.627.727-.94 1.927-.94 3.6v6.74h-1.95v-12.84h1.58l.32 1.75h.1c.4-.633.96-1.123 1.68-1.47s1.52-.52 2.4-.52c1.547 0 2.713.373 3.5 1.12.78.747 1.17 1.94 1.17 3.58v8.38h-1.95zm11.08.23c-1.86 0-3.3-.57-4.32-1.7-1.02-1.147-1.53-2.767-1.53-4.86 0-2.147.517-3.807 1.55-4.98s2.507-1.76 4.42-1.76c.62 0 1.24.067 1.86.2.613.133 1.097.3 1.45.47l-.6 1.65a8.85 8.85 0 0 0-1.4-.43c-.513-.113-.963-.17-1.35-.17-2.613 0-3.92 1.667-3.92 5 0 1.573.32 2.783.96 3.63.633.847 1.577 1.27 2.83 1.27 1.067 0 2.163-.233 3.3-.7v1.73c-.86.44-1.94.66-3.24.66zm15.074-.23v-8.3c0-1.047-.237-1.827-.7-2.34-.48-.52-1.227-.78-2.24-.78-1.353 0-2.34.37-2.96 1.1s-.93 1.937-.93 3.6v6.7h-1.95v-18.23h1.95v5.52c0 .66-.033 1.2-.1 1.65h.12c.387-.62.933-1.107 1.64-1.46s1.513-.53 2.42-.53c1.567 0 2.743.37 3.53 1.1.787.747 1.18 1.933 1.18 3.56v8.38h-1.95z"/></g></g></svg>