<?xml version="1.0" encoding="UTF-8" standalone="no"?>
<!DOCTYPE svg PUBLIC "-//W3C//DTD SVG 1.1//EN"
 "http://www.w3.org/Graphics/SVG/1.1/DTD/svg11.dtd">
<!-- Generated by graphviz version 2.43.0 (0)
 -->
<!-- Title: Project Pages: 1 -->
<svg width="879pt" height="559pt"
 viewBox="0.00 0.00 879.00 559.00" xmlns="http://www.w3.org/2000/svg" xmlns:xlink="http://www.w3.org/1999/xlink">
<g id="graph0" class="graph" transform="scale(1 1) rotate(0) translate(4 555)">
<title>Project</title>
<polygon fill="white" stroke="transparent" points="-4,4 -4,-555 875,-555 875,4 -4,4"/>
<g id="clust1" class="cluster">
<title>cluster PeripheralBlocks</title>
<polygon fill="none" stroke="black" points="8,-8 8,-543 163,-543 163,-8 8,-8"/>
<text text-anchor="middle" x="85.5" y="-527.8" font-family="Times,serif" font-size="14.00">Peripheral Blocks</text>
</g>
<g id="clust2" class="cluster">
<title>cluster ArchitectureBlocks</title>
<polygon fill="none" stroke="black" points="183,-8 183,-543 340,-543 340,-8 183,-8"/>
<text text-anchor="middle" x="261.5" y="-527.8" font-family="Times,serif" font-size="14.00">Architecture Blocks</text>
</g>
<g id="clust3" class="cluster">
<title>cluster EnvironmentBlocks</title>
<polygon fill="none" stroke="black" points="360,-179 360,-372 521,-372 521,-179 360,-179"/>
<text text-anchor="middle" x="440.5" y="-356.8" font-family="Times,serif" font-size="14.00">Environment Blocks</text>
</g>
<g id="clust4" class="cluster">
<title>cluster AcceleratorBlocks</title>
<polygon fill="none" stroke="black" points="541,-93 541,-457 690,-457 690,-93 541,-93"/>
<text text-anchor="middle" x="615.5" y="-441.8" font-family="Times,serif" font-size="14.00">Accelerator Blocks</text>
</g>
<g id="clust5" class="cluster">
<title>cluster AdvancedBlocks</title>
<polygon fill="none" stroke="black" points="710,-178 710,-371 863,-371 863,-178 710,-178"/>
<text text-anchor="middle" x="786.5" y="-355.8" font-family="Times,serif" font-size="14.00">Advanced Blocks</text>
</g>
<!-- MPSoC_DBG -->
<g id="node1" class="node">
<title>MPSoC_DBG</title>
<polygon fill="none" stroke="black" points="29,-131 29,-169 142,-169 142,-131 29,-131"/>
<text text-anchor="middle" x="85.5" y="-153.8" font-family="Times,serif" font-size="14.00">MPSoC_DBG </text>
<text text-anchor="middle" x="85.5" y="-138.8" font-family="Times,serif" font-size="14.00">Peripheral</text>
</g>
<!-- MPSoC_MSP430 -->
<g id="node10" class="node">
<title>MPSoC_MSP430</title>
<polygon fill="none" stroke="black" points="191,-245 191,-283 332,-283 332,-245 191,-245"/>
<text text-anchor="middle" x="261.5" y="-267.8" font-family="Times,serif" font-size="14.00">MPSoC_MSP430 </text>
<text text-anchor="middle" x="261.5" y="-252.8" font-family="Times,serif" font-size="14.00">Architecture</text>
</g>
<!-- MPSoC_DBG&#45;&gt;MPSoC_MSP430 -->
<g id="edge1" class="edge">
<title>MPSoC_DBG&#45;&gt;MPSoC_MSP430</title>
<path fill="none" stroke="black" d="M142.3,-163.64C149.94,-167.35 157.16,-172.04 163,-178 182.1,-197.46 163.86,-216.58 183,-236 183.93,-236.95 184.9,-237.86 185.9,-238.74"/>
<polygon fill="black" stroke="black" points="183.99,-241.69 194.07,-244.93 188.21,-236.11 183.99,-241.69"/>
</g>
<!-- MPSoC_OR1K -->
<g id="node11" class="node">
<title>MPSoC_OR1K</title>
<polygon fill="none" stroke="black" points="200.5,-188 200.5,-226 322.5,-226 322.5,-188 200.5,-188"/>
<text text-anchor="middle" x="261.5" y="-210.8" font-family="Times,serif" font-size="14.00">MPSoC_OR1K </text>
<text text-anchor="middle" x="261.5" y="-195.8" font-family="Times,serif" font-size="14.00">Architecture</text>
</g>
<!-- MPSoC_DBG&#45;&gt;MPSoC_OR1K -->
<g id="edge27" class="edge">
<title>MPSoC_DBG&#45;&gt;MPSoC_OR1K</title>
<path fill="none" stroke="black" d="M142.03,-168.19C158.16,-173.48 175.96,-179.31 192.75,-184.81"/>
<polygon fill="black" stroke="black" points="191.91,-188.21 202.5,-188 194.08,-181.56 191.91,-188.21"/>
</g>
<!-- MPSoC_RISCV -->
<g id="node12" class="node">
<title>MPSoC_RISCV</title>
<polygon fill="none" stroke="black" points="198.5,-302 198.5,-340 324.5,-340 324.5,-302 198.5,-302"/>
<text text-anchor="middle" x="261.5" y="-324.8" font-family="Times,serif" font-size="14.00">MPSoC_RISCV </text>
<text text-anchor="middle" x="261.5" y="-309.8" font-family="Times,serif" font-size="14.00">Architecture</text>
</g>
<!-- MPSoC_DBG&#45;&gt;MPSoC_RISCV -->
<g id="edge53" class="edge">
<title>MPSoC_DBG&#45;&gt;MPSoC_RISCV</title>
<path fill="none" stroke="black" d="M142.03,-162.28C149.99,-166.16 157.38,-171.27 163,-178 196.26,-217.81 149.65,-253.26 183,-293 184.98,-295.36 187.18,-297.53 189.55,-299.51"/>
<polygon fill="black" stroke="black" points="187.96,-302.67 198.15,-305.56 191.99,-296.95 187.96,-302.67"/>
</g>
<!-- SoC_MSP430 -->
<g id="node13" class="node">
<title>SoC_MSP430</title>
<polygon fill="none" stroke="black" points="203,-17 203,-55 320,-55 320,-17 203,-17"/>
<text text-anchor="middle" x="261.5" y="-39.8" font-family="Times,serif" font-size="14.00">SoC_MSP430 </text>
<text text-anchor="middle" x="261.5" y="-24.8" font-family="Times,serif" font-size="14.00">Architecture</text>
</g>
<!-- MPSoC_DBG&#45;&gt;SoC_MSP430 -->
<g id="edge10" class="edge">
<title>MPSoC_DBG&#45;&gt;SoC_MSP430</title>
<path fill="none" stroke="black" d="M142.29,-135.57C149.93,-131.77 157.15,-127 163,-121 181.75,-101.78 164.1,-83.07 183,-64 186.26,-60.71 189.93,-57.8 193.87,-55.24"/>
<polygon fill="black" stroke="black" points="195.86,-58.13 202.83,-50.15 192.4,-52.04 195.86,-58.13"/>
</g>
<!-- SoC_OR1K -->
<g id="node14" class="node">
<title>SoC_OR1K</title>
<polygon fill="none" stroke="black" points="208.5,-131 208.5,-169 314.5,-169 314.5,-131 208.5,-131"/>
<text text-anchor="middle" x="261.5" y="-153.8" font-family="Times,serif" font-size="14.00">SoC_OR1K </text>
<text text-anchor="middle" x="261.5" y="-138.8" font-family="Times,serif" font-size="14.00">Architecture</text>
</g>
<!-- MPSoC_DBG&#45;&gt;SoC_OR1K -->
<g id="edge36" class="edge">
<title>MPSoC_DBG&#45;&gt;SoC_OR1K</title>
<path fill="none" stroke="black" d="M142.03,-150C159.99,-150 180.02,-150 198.42,-150"/>
<polygon fill="black" stroke="black" points="198.45,-153.5 208.45,-150 198.45,-146.5 198.45,-153.5"/>
</g>
<!-- SoC_RISCV -->
<g id="node15" class="node">
<title>SoC_RISCV</title>
<polygon fill="none" stroke="black" points="208.5,-74 208.5,-112 314.5,-112 314.5,-74 208.5,-74"/>
<text text-anchor="middle" x="261.5" y="-96.8" font-family="Times,serif" font-size="14.00">SoC_RISCV </text>
<text text-anchor="middle" x="261.5" y="-81.8" font-family="Times,serif" font-size="14.00">Architecture</text>
</g>
<!-- MPSoC_DBG&#45;&gt;SoC_RISCV -->
<g id="edge62" class="edge">
<title>MPSoC_DBG&#45;&gt;SoC_RISCV</title>
<path fill="none" stroke="black" d="M142.03,-131.81C160.16,-125.87 180.39,-119.24 198.93,-113.17"/>
<polygon fill="black" stroke="black" points="200.04,-116.49 208.45,-110.05 197.86,-109.84 200.04,-116.49"/>
</g>
<!-- PU_MSP430 -->
<g id="node16" class="node">
<title>PU_MSP430</title>
<polygon fill="none" stroke="black" points="206.5,-359 206.5,-397 316.5,-397 316.5,-359 206.5,-359"/>
<text text-anchor="middle" x="261.5" y="-381.8" font-family="Times,serif" font-size="14.00">PU_MSP430 </text>
<text text-anchor="middle" x="261.5" y="-366.8" font-family="Times,serif" font-size="14.00">Architecture</text>
</g>
<!-- MPSoC_DBG&#45;&gt;PU_MSP430 -->
<g id="edge19" class="edge">
<title>MPSoC_DBG&#45;&gt;PU_MSP430</title>
<path fill="none" stroke="black" d="M142.36,-162.01C150.28,-165.92 157.57,-171.12 163,-178 210.66,-238.43 135.21,-289.67 183,-350 186.96,-355 191.9,-359.11 197.35,-362.49"/>
<polygon fill="black" stroke="black" points="195.8,-365.63 206.27,-367.21 199.07,-359.44 195.8,-365.63"/>
</g>
<!-- PU_OR1K -->
<g id="node17" class="node">
<title>PU_OR1K</title>
<polygon fill="none" stroke="black" points="208.5,-473 208.5,-511 314.5,-511 314.5,-473 208.5,-473"/>
<text text-anchor="middle" x="261.5" y="-495.8" font-family="Times,serif" font-size="14.00">PU_OR1K </text>
<text text-anchor="middle" x="261.5" y="-480.8" font-family="Times,serif" font-size="14.00">Architecture</text>
</g>
<!-- MPSoC_DBG&#45;&gt;PU_OR1K -->
<g id="edge45" class="edge">
<title>MPSoC_DBG&#45;&gt;PU_OR1K</title>
<path fill="none" stroke="black" d="M142.25,-161.61C150.29,-165.57 157.64,-170.88 163,-178 201.3,-228.92 144.6,-413.16 183,-464 187.29,-469.68 192.83,-474.2 198.99,-477.81"/>
<polygon fill="black" stroke="black" points="197.85,-481.16 208.36,-482.47 200.96,-474.89 197.85,-481.16"/>
</g>
<!-- PU_RISCV -->
<g id="node18" class="node">
<title>PU_RISCV</title>
<polygon fill="none" stroke="black" points="208.5,-416 208.5,-454 314.5,-454 314.5,-416 208.5,-416"/>
<text text-anchor="middle" x="261.5" y="-438.8" font-family="Times,serif" font-size="14.00">PU_RISCV </text>
<text text-anchor="middle" x="261.5" y="-423.8" font-family="Times,serif" font-size="14.00">Architecture</text>
</g>
<!-- MPSoC_DBG&#45;&gt;PU_RISCV -->
<g id="edge71" class="edge">
<title>MPSoC_DBG&#45;&gt;PU_RISCV</title>
<path fill="none" stroke="black" d="M142.14,-161.69C150.2,-165.64 157.58,-170.93 163,-178 194.06,-218.56 151.86,-366.51 183,-407 187.34,-412.64 192.91,-417.14 199.08,-420.74"/>
<polygon fill="black" stroke="black" points="197.95,-424.09 208.47,-425.39 201.06,-417.82 197.95,-424.09"/>
</g>
<!-- MPSoC_DMA -->
<g id="node2" class="node">
<title>MPSoC_DMA</title>
<polygon fill="none" stroke="black" points="27.5,-74 27.5,-112 143.5,-112 143.5,-74 27.5,-74"/>
<text text-anchor="middle" x="85.5" y="-96.8" font-family="Times,serif" font-size="14.00">MPSoC_DMA </text>
<text text-anchor="middle" x="85.5" y="-81.8" font-family="Times,serif" font-size="14.00">Peripheral</text>
</g>
<!-- MPSoC_DMA&#45;&gt;MPSoC_MSP430 -->
<g id="edge2" class="edge">
<title>MPSoC_DMA&#45;&gt;MPSoC_MSP430</title>
<path fill="none" stroke="black" d="M143.56,-106.04C150.94,-109.83 157.74,-114.71 163,-121 196.26,-160.81 149.65,-196.26 183,-236 183.6,-236.72 184.23,-237.42 184.87,-238.1"/>
<polygon fill="black" stroke="black" points="182.58,-240.75 192.39,-244.75 187.22,-235.51 182.58,-240.75"/>
</g>
<!-- MPSoC_DMA&#45;&gt;MPSoC_OR1K -->
<g id="edge28" class="edge">
<title>MPSoC_DMA&#45;&gt;MPSoC_OR1K</title>
<path fill="none" stroke="black" d="M143.82,-107.44C150.89,-111.01 157.54,-115.46 163,-121 181.86,-140.11 164.21,-158.82 183,-178 185.67,-180.73 188.62,-183.2 191.76,-185.44"/>
<polygon fill="black" stroke="black" points="190.14,-188.55 200.48,-190.85 193.83,-182.6 190.14,-188.55"/>
</g>
<!-- MPSoC_DMA&#45;&gt;MPSoC_RISCV -->
<g id="edge54" class="edge">
<title>MPSoC_DMA&#45;&gt;MPSoC_RISCV</title>
<path fill="none" stroke="black" d="M143.5,-105.58C150.98,-109.43 157.83,-114.45 163,-121 210.66,-181.43 135.21,-232.67 183,-293 185.09,-295.64 187.44,-298.02 190,-300.19"/>
<polygon fill="black" stroke="black" points="188.05,-303.09 198.23,-306.02 192.1,-297.38 188.05,-303.09"/>
</g>
<!-- MPSoC_DMA&#45;&gt;SoC_MSP430 -->
<g id="edge11" class="edge">
<title>MPSoC_DMA&#45;&gt;SoC_MSP430</title>
<path fill="none" stroke="black" d="M143.96,-74.18C159.61,-69.05 176.72,-63.45 192.88,-58.15"/>
<polygon fill="black" stroke="black" points="194.39,-61.34 202.81,-54.9 192.21,-54.69 194.39,-61.34"/>
</g>
<!-- MPSoC_DMA&#45;&gt;SoC_OR1K -->
<g id="edge37" class="edge">
<title>MPSoC_DMA&#45;&gt;SoC_OR1K</title>
<path fill="none" stroke="black" d="M143.96,-111.82C161.5,-117.57 180.85,-123.91 198.67,-129.75"/>
<polygon fill="black" stroke="black" points="197.8,-133.14 208.39,-132.93 199.97,-126.49 197.8,-133.14"/>
</g>
<!-- MPSoC_DMA&#45;&gt;SoC_RISCV -->
<g id="edge63" class="edge">
<title>MPSoC_DMA&#45;&gt;SoC_RISCV</title>
<path fill="none" stroke="black" d="M143.96,-93C161.33,-93 180.5,-93 198.17,-93"/>
<polygon fill="black" stroke="black" points="198.39,-96.5 208.39,-93 198.39,-89.5 198.39,-96.5"/>
</g>
<!-- MPSoC_DMA&#45;&gt;PU_MSP430 -->
<g id="edge20" class="edge">
<title>MPSoC_DMA&#45;&gt;PU_MSP430</title>
<path fill="none" stroke="black" d="M143.67,-105.45C151.13,-109.32 157.93,-114.38 163,-121 194.06,-161.56 151.86,-309.51 183,-350 186.95,-355.13 191.93,-359.33 197.44,-362.76"/>
<polygon fill="black" stroke="black" points="196.01,-365.96 206.49,-367.53 199.28,-359.77 196.01,-365.96"/>
</g>
<!-- MPSoC_DMA&#45;&gt;PU_OR1K -->
<g id="edge46" class="edge">
<title>MPSoC_DMA&#45;&gt;PU_OR1K</title>
<path fill="none" stroke="black" d="M143.84,-105.33C151.28,-109.2 158.02,-114.3 163,-121 208.54,-182.28 137.33,-402.81 183,-464 187.25,-469.7 192.78,-474.24 198.92,-477.86"/>
<polygon fill="black" stroke="black" points="197.77,-481.2 208.28,-482.53 200.9,-474.94 197.77,-481.2"/>
</g>
<!-- MPSoC_DMA&#45;&gt;PU_RISCV -->
<g id="edge72" class="edge">
<title>MPSoC_DMA&#45;&gt;PU_RISCV</title>
<path fill="none" stroke="black" d="M143.77,-105.38C151.22,-109.25 157.98,-114.33 163,-121 201.3,-171.92 144.6,-356.16 183,-407 187.29,-412.68 192.83,-417.2 198.99,-420.81"/>
<polygon fill="black" stroke="black" points="197.85,-424.16 208.36,-425.47 200.96,-417.89 197.85,-424.16"/>
</g>
<!-- MPSoC_GPIO -->
<g id="node3" class="node">
<title>MPSoC_GPIO</title>
<polygon fill="none" stroke="black" points="26.5,-473 26.5,-511 144.5,-511 144.5,-473 26.5,-473"/>
<text text-anchor="middle" x="85.5" y="-495.8" font-family="Times,serif" font-size="14.00">MPSoC_GPIO </text>
<text text-anchor="middle" x="85.5" y="-480.8" font-family="Times,serif" font-size="14.00">Peripheral</text>
</g>
<!-- MPSoC_GPIO&#45;&gt;MPSoC_MSP430 -->
<g id="edge3" class="edge">
<title>MPSoC_GPIO&#45;&gt;MPSoC_MSP430</title>
<path fill="none" stroke="black" d="M144.63,-478.82C151.67,-475.05 158.09,-470.22 163,-464 210.41,-403.94 135.81,-353.23 183,-293 183.82,-291.95 184.69,-290.94 185.59,-289.96"/>
<polygon fill="black" stroke="black" points="188.06,-292.45 193.19,-283.18 183.4,-287.23 188.06,-292.45"/>
</g>
<!-- MPSoC_GPIO&#45;&gt;MPSoC_OR1K -->
<g id="edge29" class="edge">
<title>MPSoC_GPIO&#45;&gt;MPSoC_OR1K</title>
<path fill="none" stroke="black" d="M144.8,-478.95C151.81,-475.16 158.18,-470.29 163,-464 193.93,-423.62 152.21,-276.49 183,-236 185.59,-232.59 188.63,-229.58 191.98,-226.93"/>
<polygon fill="black" stroke="black" points="193.93,-229.83 200.28,-221.35 190.03,-224.02 193.93,-229.83"/>
</g>
<!-- MPSoC_GPIO&#45;&gt;MPSoC_RISCV -->
<g id="edge55" class="edge">
<title>MPSoC_GPIO&#45;&gt;MPSoC_RISCV</title>
<path fill="none" stroke="black" d="M144.69,-478.35C151.63,-474.66 158.01,-469.97 163,-464 196.01,-424.55 150.13,-389.57 183,-350 184.98,-347.62 187.18,-345.43 189.54,-343.42"/>
<polygon fill="black" stroke="black" points="192.04,-345.93 198.13,-337.27 187.96,-340.24 192.04,-345.93"/>
</g>
<!-- MPSoC_GPIO&#45;&gt;SoC_MSP430 -->
<g id="edge12" class="edge">
<title>MPSoC_GPIO&#45;&gt;SoC_MSP430</title>
<path fill="none" stroke="black" d="M144.64,-479.31C151.77,-475.48 158.22,-470.49 163,-464 215.79,-392.35 130.06,-135.54 183,-64 186.11,-59.8 189.91,-56.22 194.15,-53.18"/>
<polygon fill="black" stroke="black" points="196.01,-56.14 202.75,-47.97 192.39,-50.16 196.01,-56.14"/>
</g>
<!-- MPSoC_GPIO&#45;&gt;SoC_OR1K -->
<g id="edge38" class="edge">
<title>MPSoC_GPIO&#45;&gt;SoC_OR1K</title>
<path fill="none" stroke="black" d="M144.53,-479.23C151.67,-475.4 158.15,-470.44 163,-464 201.3,-413.08 144.6,-228.84 183,-178 187.29,-172.32 192.83,-167.8 198.99,-164.19"/>
<polygon fill="black" stroke="black" points="200.96,-167.11 208.36,-159.53 197.85,-160.84 200.96,-167.11"/>
</g>
<!-- MPSoC_GPIO&#45;&gt;SoC_RISCV -->
<g id="edge64" class="edge">
<title>MPSoC_GPIO&#45;&gt;SoC_RISCV</title>
<path fill="none" stroke="black" d="M144.59,-479.28C151.73,-475.45 158.19,-470.47 163,-464 208.54,-402.72 137.33,-182.19 183,-121 187.25,-115.3 192.78,-110.76 198.92,-107.14"/>
<polygon fill="black" stroke="black" points="200.9,-110.06 208.28,-102.47 197.77,-103.8 200.9,-110.06"/>
</g>
<!-- MPSoC_GPIO&#45;&gt;PU_MSP430 -->
<g id="edge21" class="edge">
<title>MPSoC_GPIO&#45;&gt;PU_MSP430</title>
<path fill="none" stroke="black" d="M144.59,-477.17C151.37,-473.66 157.74,-469.34 163,-464 181.86,-444.89 164.21,-426.18 183,-407 187.19,-402.73 192.06,-399.08 197.29,-395.96"/>
<polygon fill="black" stroke="black" points="199.13,-398.94 206.36,-391.2 195.88,-392.75 199.13,-398.94"/>
</g>
<!-- MPSoC_GPIO&#45;&gt;PU_OR1K -->
<g id="edge47" class="edge">
<title>MPSoC_GPIO&#45;&gt;PU_OR1K</title>
<path fill="none" stroke="black" d="M144.92,-492C162.09,-492 180.93,-492 198.32,-492"/>
<polygon fill="black" stroke="black" points="198.37,-495.5 208.37,-492 198.37,-488.5 198.37,-495.5"/>
</g>
<!-- MPSoC_GPIO&#45;&gt;PU_RISCV -->
<g id="edge73" class="edge">
<title>MPSoC_GPIO&#45;&gt;PU_RISCV</title>
<path fill="none" stroke="black" d="M144.92,-472.86C162.25,-467.19 181.28,-460.95 198.81,-455.21"/>
<polygon fill="black" stroke="black" points="199.95,-458.52 208.37,-452.08 197.78,-451.86 199.95,-458.52"/>
</g>
<!-- MPSoC_MPI -->
<g id="node4" class="node">
<title>MPSoC_MPI</title>
<polygon fill="none" stroke="black" points="30.5,-416 30.5,-454 140.5,-454 140.5,-416 30.5,-416"/>
<text text-anchor="middle" x="85.5" y="-438.8" font-family="Times,serif" font-size="14.00">MPSoC_MPI </text>
<text text-anchor="middle" x="85.5" y="-423.8" font-family="Times,serif" font-size="14.00">Peripheral</text>
</g>
<!-- MPSoC_MPI&#45;&gt;MPSoC_MSP430 -->
<g id="edge4" class="edge">
<title>MPSoC_MPI&#45;&gt;MPSoC_MSP430</title>
<path fill="none" stroke="black" d="M140.86,-423.27C149.26,-419.33 157.1,-414.05 163,-407 196.01,-367.55 150.13,-332.57 183,-293 183.98,-291.83 185,-290.7 186.08,-289.62"/>
<polygon fill="black" stroke="black" points="188.39,-292.25 193.78,-283.13 183.88,-286.89 188.39,-292.25"/>
</g>
<!-- MPSoC_MPI&#45;&gt;MPSoC_OR1K -->
<g id="edge30" class="edge">
<title>MPSoC_MPI&#45;&gt;MPSoC_OR1K</title>
<path fill="none" stroke="black" d="M140.81,-423.73C149.33,-419.74 157.22,-414.33 163,-407 210.41,-346.94 135.81,-296.23 183,-236 185.64,-232.63 188.72,-229.65 192.09,-227.02"/>
<polygon fill="black" stroke="black" points="194.05,-229.92 200.45,-221.48 190.18,-224.09 194.05,-229.92"/>
</g>
<!-- MPSoC_MPI&#45;&gt;MPSoC_RISCV -->
<g id="edge56" class="edge">
<title>MPSoC_MPI&#45;&gt;MPSoC_RISCV</title>
<path fill="none" stroke="black" d="M140.71,-422.07C148.93,-418.26 156.74,-413.34 163,-407 181.86,-387.89 164.21,-369.18 183,-350 185.07,-347.88 187.32,-345.92 189.69,-344.1"/>
<polygon fill="black" stroke="black" points="191.8,-346.89 198.18,-338.43 187.92,-341.07 191.8,-346.89"/>
</g>
<!-- MPSoC_MPI&#45;&gt;SoC_MSP430 -->
<g id="edge13" class="edge">
<title>MPSoC_MPI&#45;&gt;SoC_MSP430</title>
<path fill="none" stroke="black" d="M140.78,-424.19C149.41,-420.15 157.35,-414.61 163,-407 208.54,-345.72 137.33,-125.19 183,-64 186.13,-59.81 189.94,-56.24 194.19,-53.21"/>
<polygon fill="black" stroke="black" points="196.05,-56.17 202.8,-48.01 192.43,-50.18 196.05,-56.17"/>
</g>
<!-- MPSoC_MPI&#45;&gt;SoC_OR1K -->
<g id="edge39" class="edge">
<title>MPSoC_MPI&#45;&gt;SoC_OR1K</title>
<path fill="none" stroke="black" d="M140.6,-424.05C149.25,-420.03 157.24,-414.52 163,-407 194.06,-366.44 151.86,-218.49 183,-178 187.34,-172.36 192.91,-167.86 199.08,-164.26"/>
<polygon fill="black" stroke="black" points="201.06,-167.18 208.47,-159.61 197.95,-160.91 201.06,-167.18"/>
</g>
<!-- MPSoC_MPI&#45;&gt;SoC_RISCV -->
<g id="edge65" class="edge">
<title>MPSoC_MPI&#45;&gt;SoC_RISCV</title>
<path fill="none" stroke="black" d="M140.71,-424.13C149.35,-420.1 157.3,-414.57 163,-407 201.3,-356.08 144.6,-171.84 183,-121 187.29,-115.32 192.83,-110.8 198.99,-107.19"/>
<polygon fill="black" stroke="black" points="200.96,-110.11 208.36,-102.53 197.85,-103.84 200.96,-110.11"/>
</g>
<!-- MPSoC_MPI&#45;&gt;PU_MSP430 -->
<g id="edge22" class="edge">
<title>MPSoC_MPI&#45;&gt;PU_MSP430</title>
<path fill="none" stroke="black" d="M140.6,-417.28C158.44,-411.43 178.45,-404.88 196.93,-398.83"/>
<polygon fill="black" stroke="black" points="198.02,-402.15 206.43,-395.71 195.84,-395.5 198.02,-402.15"/>
</g>
<!-- MPSoC_MPI&#45;&gt;PU_OR1K -->
<g id="edge48" class="edge">
<title>MPSoC_MPI&#45;&gt;PU_OR1K</title>
<path fill="none" stroke="black" d="M140.6,-452.72C158.95,-458.73 179.59,-465.5 198.51,-471.69"/>
<polygon fill="black" stroke="black" points="197.63,-475.09 208.22,-474.87 199.81,-468.43 197.63,-475.09"/>
</g>
<!-- MPSoC_MPI&#45;&gt;PU_RISCV -->
<g id="edge74" class="edge">
<title>MPSoC_MPI&#45;&gt;PU_RISCV</title>
<path fill="none" stroke="black" d="M140.6,-435C158.78,-435 179.21,-435 197.99,-435"/>
<polygon fill="black" stroke="black" points="198.22,-438.5 208.22,-435 198.22,-431.5 198.22,-438.5"/>
</g>
<!-- MPSoC_MPRAM -->
<g id="node5" class="node">
<title>MPSoC_MPRAM</title>
<polygon fill="none" stroke="black" points="16,-359 16,-397 155,-397 155,-359 16,-359"/>
<text text-anchor="middle" x="85.5" y="-381.8" font-family="Times,serif" font-size="14.00">MPSoC_MPRAM </text>
<text text-anchor="middle" x="85.5" y="-366.8" font-family="Times,serif" font-size="14.00">Peripheral</text>
</g>
<!-- MPSoC_MPRAM&#45;&gt;MPSoC_MSP430 -->
<g id="edge5" class="edge">
<title>MPSoC_MPRAM&#45;&gt;MPSoC_MSP430</title>
<path fill="none" stroke="black" d="M152.05,-358.84C156.02,-356.25 159.72,-353.32 163,-350 181.86,-330.89 164.21,-312.18 183,-293 184.39,-291.58 185.87,-290.22 187.4,-288.93"/>
<polygon fill="black" stroke="black" points="189.51,-291.72 195.56,-283.02 185.4,-286.06 189.51,-291.72"/>
</g>
<!-- MPSoC_MPRAM&#45;&gt;MPSoC_OR1K -->
<g id="edge31" class="edge">
<title>MPSoC_MPRAM&#45;&gt;MPSoC_OR1K</title>
<path fill="none" stroke="black" d="M153.39,-358.92C156.93,-356.32 160.19,-353.36 163,-350 196.01,-310.55 150.13,-275.57 183,-236 185.61,-232.86 188.6,-230.06 191.84,-227.56"/>
<polygon fill="black" stroke="black" points="193.95,-230.36 200.39,-221.95 190.11,-224.51 193.95,-230.36"/>
</g>
<!-- MPSoC_MPRAM&#45;&gt;MPSoC_RISCV -->
<g id="edge57" class="edge">
<title>MPSoC_MPRAM&#45;&gt;MPSoC_RISCV</title>
<path fill="none" stroke="black" d="M144.92,-358.86C160.21,-353.85 176.83,-348.41 192.56,-343.25"/>
<polygon fill="black" stroke="black" points="193.82,-346.53 202.23,-340.09 191.64,-339.88 193.82,-346.53"/>
</g>
<!-- MPSoC_MPRAM&#45;&gt;SoC_MSP430 -->
<g id="edge14" class="edge">
<title>MPSoC_MPRAM&#45;&gt;SoC_MSP430</title>
<path fill="none" stroke="black" d="M154.13,-358.99C157.45,-356.37 160.45,-353.39 163,-350 201.3,-299.08 144.6,-114.84 183,-64 186.15,-59.83 189.99,-56.27 194.24,-53.25"/>
<polygon fill="black" stroke="black" points="196.11,-56.21 202.87,-48.06 192.5,-50.21 196.11,-56.21"/>
</g>
<!-- MPSoC_MPRAM&#45;&gt;SoC_OR1K -->
<g id="edge40" class="edge">
<title>MPSoC_MPRAM&#45;&gt;SoC_OR1K</title>
<path fill="none" stroke="black" d="M153.95,-358.85C157.31,-356.27 160.37,-353.33 163,-350 210.66,-289.57 135.21,-238.33 183,-178 187.36,-172.5 192.89,-168.08 198.99,-164.53"/>
<polygon fill="black" stroke="black" points="200.86,-167.51 208.25,-159.92 197.74,-161.24 200.86,-167.51"/>
</g>
<!-- MPSoC_MPRAM&#45;&gt;SoC_RISCV -->
<g id="edge66" class="edge">
<title>MPSoC_MPRAM&#45;&gt;SoC_RISCV</title>
<path fill="none" stroke="black" d="M154.06,-358.94C157.39,-356.33 160.42,-353.37 163,-350 194.06,-309.44 151.86,-161.49 183,-121 187.34,-115.36 192.91,-110.86 199.08,-107.26"/>
<polygon fill="black" stroke="black" points="201.06,-110.18 208.47,-102.61 197.95,-103.91 201.06,-110.18"/>
</g>
<!-- MPSoC_MPRAM&#45;&gt;PU_MSP430 -->
<g id="edge23" class="edge">
<title>MPSoC_MPRAM&#45;&gt;PU_MSP430</title>
<path fill="none" stroke="black" d="M155.27,-378C168.82,-378 182.99,-378 196.38,-378"/>
<polygon fill="black" stroke="black" points="196.44,-381.5 206.44,-378 196.44,-374.5 196.44,-381.5"/>
</g>
<!-- MPSoC_MPRAM&#45;&gt;PU_OR1K -->
<g id="edge49" class="edge">
<title>MPSoC_MPRAM&#45;&gt;PU_OR1K</title>
<path fill="none" stroke="black" d="M150.61,-397.1C155.12,-399.96 159.33,-403.24 163,-407 181.75,-426.22 164.1,-444.93 183,-464 187.74,-468.78 193.35,-472.75 199.35,-476.04"/>
<polygon fill="black" stroke="black" points="197.85,-479.2 208.38,-480.4 200.9,-472.9 197.85,-479.2"/>
</g>
<!-- MPSoC_MPRAM&#45;&gt;PU_RISCV -->
<g id="edge75" class="edge">
<title>MPSoC_MPRAM&#45;&gt;PU_RISCV</title>
<path fill="none" stroke="black" d="M144.92,-397.14C162.25,-402.81 181.28,-409.05 198.81,-414.79"/>
<polygon fill="black" stroke="black" points="197.78,-418.14 208.37,-417.92 199.95,-411.48 197.78,-418.14"/>
</g>
<!-- MPSoC_MSI -->
<g id="node6" class="node">
<title>MPSoC_MSI</title>
<polygon fill="none" stroke="black" points="30.5,-302 30.5,-340 140.5,-340 140.5,-302 30.5,-302"/>
<text text-anchor="middle" x="85.5" y="-324.8" font-family="Times,serif" font-size="14.00">MPSoC_MSI </text>
<text text-anchor="middle" x="85.5" y="-309.8" font-family="Times,serif" font-size="14.00">Peripheral</text>
</g>
<!-- MPSoC_MSI&#45;&gt;MPSoC_MSP430 -->
<g id="edge6" class="edge">
<title>MPSoC_MSI&#45;&gt;MPSoC_MSP430</title>
<path fill="none" stroke="black" d="M140.6,-303.28C156.95,-297.92 175.11,-291.97 192.25,-286.36"/>
<polygon fill="black" stroke="black" points="193.79,-289.54 202.21,-283.1 191.61,-282.88 193.79,-289.54"/>
</g>
<!-- MPSoC_MSI&#45;&gt;MPSoC_OR1K -->
<g id="edge32" class="edge">
<title>MPSoC_MSI&#45;&gt;MPSoC_OR1K</title>
<path fill="none" stroke="black" d="M140.71,-308.07C148.93,-304.26 156.74,-299.34 163,-293 181.86,-273.89 164.21,-255.18 183,-236 185.67,-233.27 188.62,-230.8 191.76,-228.56"/>
<polygon fill="black" stroke="black" points="193.83,-231.4 200.48,-223.15 190.14,-225.45 193.83,-231.4"/>
</g>
<!-- MPSoC_MSI&#45;&gt;MPSoC_RISCV -->
<g id="edge58" class="edge">
<title>MPSoC_MSI&#45;&gt;MPSoC_RISCV</title>
<path fill="none" stroke="black" d="M140.6,-321C155.58,-321 172.08,-321 187.92,-321"/>
<polygon fill="black" stroke="black" points="188.22,-324.5 198.22,-321 188.22,-317.5 188.22,-324.5"/>
</g>
<!-- MPSoC_MSI&#45;&gt;SoC_MSP430 -->
<g id="edge15" class="edge">
<title>MPSoC_MSI&#45;&gt;SoC_MSP430</title>
<path fill="none" stroke="black" d="M140.6,-310.05C149.25,-306.03 157.24,-300.52 163,-293 194.06,-252.44 151.86,-104.49 183,-64 186.19,-59.85 190.05,-56.32 194.32,-53.31"/>
<polygon fill="black" stroke="black" points="196.19,-56.27 202.98,-48.14 192.6,-50.26 196.19,-56.27"/>
</g>
<!-- MPSoC_MSI&#45;&gt;SoC_OR1K -->
<g id="edge41" class="edge">
<title>MPSoC_MSI&#45;&gt;SoC_OR1K</title>
<path fill="none" stroke="black" d="M140.87,-309.28C149.27,-305.33 157.11,-300.05 163,-293 196.26,-253.19 149.65,-217.74 183,-178 187.45,-172.7 192.98,-168.4 199.03,-164.92"/>
<polygon fill="black" stroke="black" points="200.8,-167.95 208.2,-160.37 197.69,-161.68 200.8,-167.95"/>
</g>
<!-- MPSoC_MSI&#45;&gt;SoC_RISCV -->
<g id="edge67" class="edge">
<title>MPSoC_MSI&#45;&gt;SoC_RISCV</title>
<path fill="none" stroke="black" d="M140.81,-309.73C149.33,-305.74 157.22,-300.33 163,-293 210.66,-232.57 135.21,-181.33 183,-121 187.36,-115.5 192.89,-111.08 198.99,-107.53"/>
<polygon fill="black" stroke="black" points="200.86,-110.51 208.25,-102.92 197.74,-104.24 200.86,-110.51"/>
</g>
<!-- MPSoC_MSI&#45;&gt;PU_MSP430 -->
<g id="edge24" class="edge">
<title>MPSoC_MSI&#45;&gt;PU_MSP430</title>
<path fill="none" stroke="black" d="M140.6,-338.72C158.44,-344.57 178.45,-351.12 196.93,-357.17"/>
<polygon fill="black" stroke="black" points="195.84,-360.5 206.43,-360.29 198.02,-353.85 195.84,-360.5"/>
</g>
<!-- MPSoC_MSI&#45;&gt;PU_OR1K -->
<g id="edge50" class="edge">
<title>MPSoC_MSI&#45;&gt;PU_OR1K</title>
<path fill="none" stroke="black" d="M140.88,-333.46C149.29,-337.51 157.12,-342.89 163,-350 195.79,-389.64 149.91,-424.62 183,-464 187.45,-469.3 192.99,-473.59 199.04,-477.08"/>
<polygon fill="black" stroke="black" points="197.7,-480.32 208.21,-481.62 200.81,-474.04 197.7,-480.32"/>
</g>
<!-- MPSoC_MSI&#45;&gt;PU_RISCV -->
<g id="edge76" class="edge">
<title>MPSoC_MSI&#45;&gt;PU_RISCV</title>
<path fill="none" stroke="black" d="M140.73,-334.67C148.95,-338.59 156.75,-343.59 163,-350 181.75,-369.22 164.1,-387.93 183,-407 187.74,-411.78 193.35,-415.75 199.35,-419.04"/>
<polygon fill="black" stroke="black" points="197.85,-422.2 208.38,-423.4 200.9,-415.9 197.85,-422.2"/>
</g>
<!-- MPSoC_NoC -->
<g id="node7" class="node">
<title>MPSoC_NoC</title>
<polygon fill="none" stroke="black" points="30,-17 30,-55 141,-55 141,-17 30,-17"/>
<text text-anchor="middle" x="85.5" y="-39.8" font-family="Times,serif" font-size="14.00">MPSoC_NoC </text>
<text text-anchor="middle" x="85.5" y="-24.8" font-family="Times,serif" font-size="14.00">Peripheral</text>
</g>
<!-- MPSoC_NoC&#45;&gt;MPSoC_MSP430 -->
<g id="edge7" class="edge">
<title>MPSoC_NoC&#45;&gt;MPSoC_MSP430</title>
<path fill="none" stroke="black" d="M141.2,-47.45C149.57,-51.42 157.31,-56.78 163,-64 210.66,-124.43 135.21,-175.67 183,-236 183.58,-236.74 184.19,-237.45 184.81,-238.15"/>
<polygon fill="black" stroke="black" points="182.45,-240.73 192.17,-244.93 187.19,-235.58 182.45,-240.73"/>
</g>
<!-- MPSoC_NoC&#45;&gt;MPSoC_OR1K -->
<g id="edge33" class="edge">
<title>MPSoC_NoC&#45;&gt;MPSoC_OR1K</title>
<path fill="none" stroke="black" d="M141.24,-47.91C149.51,-51.84 157.19,-57.06 163,-64 196.01,-103.45 150.13,-138.43 183,-178 185.61,-181.14 188.6,-183.94 191.84,-186.44"/>
<polygon fill="black" stroke="black" points="190.11,-189.49 200.39,-192.05 193.95,-183.64 190.11,-189.49"/>
</g>
<!-- MPSoC_NoC&#45;&gt;MPSoC_RISCV -->
<g id="edge59" class="edge">
<title>MPSoC_NoC&#45;&gt;MPSoC_RISCV</title>
<path fill="none" stroke="black" d="M141.38,-47.31C149.73,-51.3 157.41,-56.7 163,-64 194.06,-104.56 151.86,-252.51 183,-293 185.09,-295.72 187.48,-298.18 190.07,-300.4"/>
<polygon fill="black" stroke="black" points="188.27,-303.41 198.44,-306.36 192.33,-297.71 188.27,-303.41"/>
</g>
<!-- MPSoC_NoC&#45;&gt;SoC_MSP430 -->
<g id="edge16" class="edge">
<title>MPSoC_NoC&#45;&gt;SoC_MSP430</title>
<path fill="none" stroke="black" d="M141.08,-36C157.34,-36 175.36,-36 192.37,-36"/>
<polygon fill="black" stroke="black" points="192.81,-39.5 202.81,-36 192.81,-32.5 192.81,-39.5"/>
</g>
<!-- MPSoC_NoC&#45;&gt;SoC_OR1K -->
<g id="edge42" class="edge">
<title>MPSoC_NoC&#45;&gt;SoC_OR1K</title>
<path fill="none" stroke="black" d="M141.1,-49.11C149.18,-52.9 156.84,-57.76 163,-64 181.86,-83.11 164.21,-101.82 183,-121 187.73,-125.83 193.33,-129.86 199.34,-133.22"/>
<polygon fill="black" stroke="black" points="197.85,-136.39 208.36,-137.7 200.95,-130.12 197.85,-136.39"/>
</g>
<!-- MPSoC_NoC&#45;&gt;SoC_RISCV -->
<g id="edge68" class="edge">
<title>MPSoC_NoC&#45;&gt;SoC_RISCV</title>
<path fill="none" stroke="black" d="M141.08,-53.88C159.41,-59.88 179.98,-66.62 198.82,-72.79"/>
<polygon fill="black" stroke="black" points="197.9,-76.18 208.49,-75.96 200.08,-69.52 197.9,-76.18"/>
</g>
<!-- MPSoC_SPRAM -->
<g id="node8" class="node">
<title>MPSoC_SPRAM</title>
<polygon fill="none" stroke="black" points="18.5,-245 18.5,-283 152.5,-283 152.5,-245 18.5,-245"/>
<text text-anchor="middle" x="85.5" y="-267.8" font-family="Times,serif" font-size="14.00">MPSoC_SPRAM </text>
<text text-anchor="middle" x="85.5" y="-252.8" font-family="Times,serif" font-size="14.00">Peripheral</text>
</g>
<!-- MPSoC_SPRAM&#45;&gt;MPSoC_MSP430 -->
<g id="edge8" class="edge">
<title>MPSoC_SPRAM&#45;&gt;MPSoC_MSP430</title>
<path fill="none" stroke="black" d="M152.78,-264C161.95,-264 171.44,-264 180.82,-264"/>
<polygon fill="black" stroke="black" points="180.94,-267.5 190.94,-264 180.94,-260.5 180.94,-267.5"/>
</g>
<!-- MPSoC_SPRAM&#45;&gt;MPSoC_OR1K -->
<g id="edge34" class="edge">
<title>MPSoC_SPRAM&#45;&gt;MPSoC_OR1K</title>
<path fill="none" stroke="black" d="M144.92,-244.86C160.21,-239.85 176.83,-234.41 192.56,-229.25"/>
<polygon fill="black" stroke="black" points="193.82,-232.53 202.23,-226.09 191.64,-225.88 193.82,-232.53"/>
</g>
<!-- MPSoC_SPRAM&#45;&gt;MPSoC_RISCV -->
<g id="edge60" class="edge">
<title>MPSoC_SPRAM&#45;&gt;MPSoC_RISCV</title>
<path fill="none" stroke="black" d="M144.92,-283.14C160.21,-288.15 176.83,-293.59 192.56,-298.75"/>
<polygon fill="black" stroke="black" points="191.64,-302.12 202.23,-301.91 193.82,-295.47 191.64,-302.12"/>
</g>
<!-- MPSoC_SPRAM&#45;&gt;SoC_MSP430 -->
<g id="edge17" class="edge">
<title>MPSoC_SPRAM&#45;&gt;SoC_MSP430</title>
<path fill="none" stroke="black" d="M152.59,-245.87C156.49,-243.04 160.02,-239.78 163,-236 210.66,-175.57 135.21,-124.33 183,-64 186.11,-60.07 189.82,-56.69 193.91,-53.79"/>
<polygon fill="black" stroke="black" points="196,-56.62 202.76,-48.47 192.39,-50.62 196,-56.62"/>
</g>
<!-- MPSoC_SPRAM&#45;&gt;SoC_OR1K -->
<g id="edge43" class="edge">
<title>MPSoC_SPRAM&#45;&gt;SoC_OR1K</title>
<path fill="none" stroke="black" d="M152.07,-244.86C156.03,-242.27 159.73,-239.33 163,-236 182.1,-216.54 163.86,-197.42 183,-178 187.72,-173.21 193.33,-169.23 199.33,-165.93"/>
<polygon fill="black" stroke="black" points="200.87,-169.07 208.35,-161.57 197.82,-162.77 200.87,-169.07"/>
</g>
<!-- MPSoC_SPRAM&#45;&gt;SoC_RISCV -->
<g id="edge69" class="edge">
<title>MPSoC_SPRAM&#45;&gt;SoC_RISCV</title>
<path fill="none" stroke="black" d="M152.7,-245.43C156.52,-242.7 160.01,-239.58 163,-236 196.26,-196.19 149.65,-160.74 183,-121 187.45,-115.7 192.98,-111.4 199.03,-107.92"/>
<polygon fill="black" stroke="black" points="200.8,-110.95 208.2,-103.37 197.69,-104.68 200.8,-110.95"/>
</g>
<!-- MPSoC_SPRAM&#45;&gt;PU_MSP430 -->
<g id="edge25" class="edge">
<title>MPSoC_SPRAM&#45;&gt;PU_MSP430</title>
<path fill="none" stroke="black" d="M150.61,-283.1C155.12,-285.96 159.33,-289.24 163,-293 181.75,-312.22 164.1,-330.93 183,-350 187.19,-354.23 192.07,-357.83 197.3,-360.88"/>
<polygon fill="black" stroke="black" points="195.89,-364.09 206.38,-365.53 199.08,-357.86 195.89,-364.09"/>
</g>
<!-- MPSoC_SPRAM&#45;&gt;PU_OR1K -->
<g id="edge51" class="edge">
<title>MPSoC_SPRAM&#45;&gt;PU_OR1K</title>
<path fill="none" stroke="black" d="M152.61,-283.01C156.5,-285.88 160.03,-289.19 163,-293 210.06,-353.33 135.47,-404.04 183,-464 187.36,-469.5 192.89,-473.92 198.99,-477.47"/>
<polygon fill="black" stroke="black" points="197.74,-480.76 208.26,-482.08 200.86,-474.49 197.74,-480.76"/>
</g>
<!-- MPSoC_SPRAM&#45;&gt;PU_RISCV -->
<g id="edge77" class="edge">
<title>MPSoC_SPRAM&#45;&gt;PU_RISCV</title>
<path fill="none" stroke="black" d="M152.37,-283.21C156.31,-286.03 159.92,-289.28 163,-293 195.79,-332.64 149.91,-367.62 183,-407 187.45,-412.3 192.99,-416.59 199.04,-420.08"/>
<polygon fill="black" stroke="black" points="197.7,-423.32 208.21,-424.62 200.81,-417.04 197.7,-423.32"/>
</g>
<!-- MPSoC_UART -->
<g id="node9" class="node">
<title>MPSoC_UART</title>
<polygon fill="none" stroke="black" points="25,-188 25,-226 146,-226 146,-188 25,-188"/>
<text text-anchor="middle" x="85.5" y="-210.8" font-family="Times,serif" font-size="14.00">MPSoC_UART </text>
<text text-anchor="middle" x="85.5" y="-195.8" font-family="Times,serif" font-size="14.00">Peripheral</text>
</g>
<!-- MPSoC_UART&#45;&gt;MPSoC_MSP430 -->
<g id="edge9" class="edge">
<title>MPSoC_UART&#45;&gt;MPSoC_MSP430</title>
<path fill="none" stroke="black" d="M144.92,-226.14C160.21,-231.15 176.83,-236.59 192.56,-241.75"/>
<polygon fill="black" stroke="black" points="191.64,-245.12 202.23,-244.91 193.82,-238.47 191.64,-245.12"/>
</g>
<!-- MPSoC_UART&#45;&gt;MPSoC_OR1K -->
<g id="edge35" class="edge">
<title>MPSoC_UART&#45;&gt;MPSoC_OR1K</title>
<path fill="none" stroke="black" d="M146.38,-207C160.38,-207 175.43,-207 189.85,-207"/>
<polygon fill="black" stroke="black" points="190.21,-210.5 200.21,-207 190.21,-203.5 190.21,-210.5"/>
</g>
<!-- MPSoC_UART&#45;&gt;MPSoC_RISCV -->
<g id="edge61" class="edge">
<title>MPSoC_UART&#45;&gt;MPSoC_RISCV</title>
<path fill="none" stroke="black" d="M146.13,-223.45C152.34,-226.88 158.14,-231.02 163,-236 181.75,-255.22 164.1,-273.93 183,-293 185.08,-295.1 187.32,-297.04 189.69,-298.83"/>
<polygon fill="black" stroke="black" points="187.91,-301.85 198.2,-304.4 191.75,-295.99 187.91,-301.85"/>
</g>
<!-- MPSoC_UART&#45;&gt;SoC_MSP430 -->
<g id="edge18" class="edge">
<title>MPSoC_UART&#45;&gt;SoC_MSP430</title>
<path fill="none" stroke="black" d="M146.22,-191.73C152.57,-188.09 158.38,-183.58 163,-178 195.79,-138.36 149.91,-103.38 183,-64 186.17,-60.23 189.89,-56.96 193.95,-54.14"/>
<polygon fill="black" stroke="black" points="195.9,-57.05 202.71,-48.94 192.33,-51.04 195.9,-57.05"/>
</g>
<!-- MPSoC_UART&#45;&gt;SoC_OR1K -->
<g id="edge44" class="edge">
<title>MPSoC_UART&#45;&gt;SoC_OR1K</title>
<path fill="none" stroke="black" d="M144.92,-187.86C162.25,-182.19 181.28,-175.95 198.81,-170.21"/>
<polygon fill="black" stroke="black" points="199.95,-173.52 208.37,-167.08 197.78,-166.86 199.95,-173.52"/>
</g>
<!-- MPSoC_UART&#45;&gt;SoC_RISCV -->
<g id="edge70" class="edge">
<title>MPSoC_UART&#45;&gt;SoC_RISCV</title>
<path fill="none" stroke="black" d="M146.13,-190.55C152.34,-187.12 158.14,-182.98 163,-178 181.75,-158.78 164.1,-140.07 183,-121 187.74,-116.22 193.35,-112.25 199.35,-108.96"/>
<polygon fill="black" stroke="black" points="200.9,-112.1 208.38,-104.6 197.85,-105.8 200.9,-112.1"/>
</g>
<!-- MPSoC_UART&#45;&gt;PU_MSP430 -->
<g id="edge26" class="edge">
<title>MPSoC_UART&#45;&gt;PU_MSP430</title>
<path fill="none" stroke="black" d="M146.22,-222.27C152.57,-225.91 158.38,-230.42 163,-236 195.79,-275.64 149.91,-310.62 183,-350 186.95,-354.7 191.75,-358.61 197.02,-361.87"/>
<polygon fill="black" stroke="black" points="195.76,-365.16 206.23,-366.75 199.03,-358.97 195.76,-365.16"/>
</g>
<!-- MPSoC_UART&#45;&gt;PU_OR1K -->
<g id="edge52" class="edge">
<title>MPSoC_UART&#45;&gt;PU_OR1K</title>
<path fill="none" stroke="black" d="M146.32,-221.68C152.74,-225.42 158.54,-230.11 163,-236 193.7,-276.55 151.99,-423.69 183,-464 187.34,-469.64 192.91,-474.14 199.08,-477.74"/>
<polygon fill="black" stroke="black" points="197.96,-481.09 208.47,-482.39 201.06,-474.81 197.96,-481.09"/>
</g>
<!-- MPSoC_UART&#45;&gt;PU_RISCV -->
<g id="edge78" class="edge">
<title>MPSoC_UART&#45;&gt;PU_RISCV</title>
<path fill="none" stroke="black" d="M146.16,-221.8C152.6,-225.52 158.46,-230.18 163,-236 210.06,-296.33 135.47,-347.04 183,-407 187.36,-412.5 192.89,-416.92 198.99,-420.47"/>
<polygon fill="black" stroke="black" points="197.74,-423.76 208.26,-425.08 200.86,-417.49 197.74,-423.76"/>
</g>
<!-- MPSoC_DV -->
<g id="node19" class="node">
<title>MPSoC_DV</title>
<polygon fill="none" stroke="black" points="385,-245 385,-283 495,-283 495,-245 385,-245"/>
<text text-anchor="middle" x="440" y="-267.8" font-family="Times,serif" font-size="14.00">MPSoC_DV </text>
<text text-anchor="middle" x="440" y="-252.8" font-family="Times,serif" font-size="14.00">Environment</text>
</g>
<!-- MPSoC_MSP430&#45;&gt;MPSoC_DV -->
<g id="edge85" class="edge">
<title>MPSoC_MSP430&#45;&gt;MPSoC_DV</title>
<path fill="none" stroke="black" d="M332,-264C345.99,-264 360.64,-264 374.46,-264"/>
<polygon fill="black" stroke="black" points="374.83,-267.5 384.83,-264 374.83,-260.5 374.83,-267.5"/>
</g>
<!-- MPSoC_OR1K&#45;&gt;MPSoC_DV -->
<g id="edge86" class="edge">
<title>MPSoC_OR1K&#45;&gt;MPSoC_DV</title>
<path fill="none" stroke="black" d="M321.76,-226.14C339,-231.71 357.9,-237.81 375.39,-243.46"/>
<polygon fill="black" stroke="black" points="374.35,-246.8 384.95,-246.54 376.51,-240.14 374.35,-246.8"/>
</g>
<!-- MPSoC_RISCV&#45;&gt;MPSoC_DV -->
<g id="edge87" class="edge">
<title>MPSoC_RISCV&#45;&gt;MPSoC_DV</title>
<path fill="none" stroke="black" d="M321.76,-301.86C339,-296.29 357.9,-290.19 375.39,-284.54"/>
<polygon fill="black" stroke="black" points="376.51,-287.86 384.95,-281.46 374.35,-281.2 376.51,-287.86"/>
</g>
<!-- SoC_DV -->
<g id="node20" class="node">
<title>SoC_DV</title>
<polygon fill="none" stroke="black" points="385,-188 385,-226 495,-226 495,-188 385,-188"/>
<text text-anchor="middle" x="440" y="-210.8" font-family="Times,serif" font-size="14.00">SoC_DV </text>
<text text-anchor="middle" x="440" y="-195.8" font-family="Times,serif" font-size="14.00">Environment</text>
</g>
<!-- SoC_MSP430&#45;&gt;SoC_DV -->
<g id="edge82" class="edge">
<title>SoC_MSP430&#45;&gt;SoC_DV</title>
<path fill="none" stroke="black" d="M320.08,-52.17C327.15,-55.47 333.99,-59.38 340,-64 380.12,-94.88 410.15,-146.64 426.1,-178.7"/>
<polygon fill="black" stroke="black" points="423.08,-180.49 430.59,-187.97 429.38,-177.44 423.08,-180.49"/>
</g>
<!-- SoC_OR1K&#45;&gt;SoC_DV -->
<g id="edge83" class="edge">
<title>SoC_OR1K&#45;&gt;SoC_DV</title>
<path fill="none" stroke="black" d="M314.5,-166.79C333.55,-172.95 355.33,-179.98 375.29,-186.42"/>
<polygon fill="black" stroke="black" points="374.33,-189.79 384.92,-189.54 376.48,-183.13 374.33,-189.79"/>
</g>
<!-- SoC_RISCV&#45;&gt;SoC_DV -->
<g id="edge84" class="edge">
<title>SoC_RISCV&#45;&gt;SoC_DV</title>
<path fill="none" stroke="black" d="M314.57,-108.8C323.31,-112.3 332.1,-116.36 340,-121 367.9,-137.39 395.34,-162.09 414.23,-180.82"/>
<polygon fill="black" stroke="black" points="411.75,-183.29 421.28,-187.93 416.72,-178.36 411.75,-183.29"/>
</g>
<!-- PU_DV -->
<g id="node21" class="node">
<title>PU_DV</title>
<polygon fill="none" stroke="black" points="385,-302 385,-340 495,-340 495,-302 385,-302"/>
<text text-anchor="middle" x="440" y="-324.8" font-family="Times,serif" font-size="14.00">PU_DV </text>
<text text-anchor="middle" x="440" y="-309.8" font-family="Times,serif" font-size="14.00">Environment</text>
</g>
<!-- PU_MSP430&#45;&gt;PU_DV -->
<g id="edge79" class="edge">
<title>PU_MSP430&#45;&gt;PU_DV</title>
<path fill="none" stroke="black" d="M316.9,-360.43C335.35,-354.47 356.14,-347.76 375.26,-341.59"/>
<polygon fill="black" stroke="black" points="376.34,-344.91 384.78,-338.51 374.19,-338.25 376.34,-344.91"/>
</g>
<!-- PU_OR1K&#45;&gt;PU_DV -->
<g id="edge80" class="edge">
<title>PU_OR1K&#45;&gt;PU_DV</title>
<path fill="none" stroke="black" d="M314.84,-478.14C323.74,-474.41 332.52,-469.76 340,-464 380.12,-433.12 410.15,-381.36 426.1,-349.3"/>
<polygon fill="black" stroke="black" points="429.38,-350.56 430.59,-340.03 423.08,-347.51 429.38,-350.56"/>
</g>
<!-- PU_RISCV&#45;&gt;PU_DV -->
<g id="edge81" class="edge">
<title>PU_RISCV&#45;&gt;PU_DV</title>
<path fill="none" stroke="black" d="M314.57,-419.2C323.31,-415.7 332.1,-411.64 340,-407 367.9,-390.61 395.34,-365.91 414.23,-347.18"/>
<polygon fill="black" stroke="black" points="416.72,-349.64 421.28,-340.07 411.75,-344.71 416.72,-349.64"/>
</g>
<!-- MPSoC_NTM -->
<g id="node22" class="node">
<title>MPSoC_NTM</title>
<polygon fill="none" stroke="black" points="557,-273 557,-311 673,-311 673,-273 557,-273"/>
<text text-anchor="middle" x="615" y="-295.8" font-family="Times,serif" font-size="14.00">MPSoC_NTM </text>
<text text-anchor="middle" x="615" y="-280.8" font-family="Times,serif" font-size="14.00">Advanced</text>
</g>
<!-- MPSoC_DV&#45;&gt;MPSoC_NTM -->
<g id="edge92" class="edge">
<title>MPSoC_DV&#45;&gt;MPSoC_NTM</title>
<path fill="none" stroke="black" d="M495.26,-272.78C511.66,-275.44 529.87,-278.38 547,-281.16"/>
<polygon fill="black" stroke="black" points="546.51,-284.62 556.94,-282.76 547.63,-277.71 546.51,-284.62"/>
</g>
<!-- MPSoC_DNC -->
<g id="node25" class="node">
<title>MPSoC_DNC</title>
<polygon fill="none" stroke="black" points="558,-216 558,-254 672,-254 672,-216 558,-216"/>
<text text-anchor="middle" x="615" y="-238.8" font-family="Times,serif" font-size="14.00">MPSoC_DNC </text>
<text text-anchor="middle" x="615" y="-223.8" font-family="Times,serif" font-size="14.00">Advanced</text>
</g>
<!-- MPSoC_DV&#45;&gt;MPSoC_DNC -->
<g id="edge93" class="edge">
<title>MPSoC_DV&#45;&gt;MPSoC_DNC</title>
<path fill="none" stroke="black" d="M495.26,-254.9C511.91,-252.11 530.42,-249.01 547.78,-246.1"/>
<polygon fill="black" stroke="black" points="548.56,-249.52 557.84,-244.41 547.4,-242.62 548.56,-249.52"/>
</g>
<!-- SoC_NTM -->
<g id="node23" class="node">
<title>SoC_NTM</title>
<polygon fill="none" stroke="black" points="569,-159 569,-197 661,-197 661,-159 569,-159"/>
<text text-anchor="middle" x="615" y="-181.8" font-family="Times,serif" font-size="14.00">SoC_NTM </text>
<text text-anchor="middle" x="615" y="-166.8" font-family="Times,serif" font-size="14.00">Advanced</text>
</g>
<!-- SoC_DV&#45;&gt;SoC_NTM -->
<g id="edge90" class="edge">
<title>SoC_DV&#45;&gt;SoC_NTM</title>
<path fill="none" stroke="black" d="M495.26,-197.9C515.52,-194.51 538.54,-190.65 558.87,-187.24"/>
<polygon fill="black" stroke="black" points="559.64,-190.66 568.93,-185.56 558.49,-183.76 559.64,-190.66"/>
</g>
<!-- SoC_DNC -->
<g id="node26" class="node">
<title>SoC_DNC</title>
<polygon fill="none" stroke="black" points="570,-102 570,-140 660,-140 660,-102 570,-102"/>
<text text-anchor="middle" x="615" y="-124.8" font-family="Times,serif" font-size="14.00">SoC_DNC </text>
<text text-anchor="middle" x="615" y="-109.8" font-family="Times,serif" font-size="14.00">Advanced</text>
</g>
<!-- SoC_DV&#45;&gt;SoC_DNC -->
<g id="edge91" class="edge">
<title>SoC_DV&#45;&gt;SoC_DNC</title>
<path fill="none" stroke="black" d="M470.96,-187.94C490.47,-175.95 516.74,-160.6 541,-149 547.17,-146.05 553.74,-143.18 560.31,-140.46"/>
<polygon fill="black" stroke="black" points="561.92,-143.59 569.9,-136.61 559.32,-137.09 561.92,-143.59"/>
</g>
<!-- PU_NTM -->
<g id="node24" class="node">
<title>PU_NTM</title>
<polygon fill="none" stroke="black" points="572,-387 572,-425 658,-425 658,-387 572,-387"/>
<text text-anchor="middle" x="615" y="-409.8" font-family="Times,serif" font-size="14.00">PU_NTM </text>
<text text-anchor="middle" x="615" y="-394.8" font-family="Times,serif" font-size="14.00">Advanced</text>
</g>
<!-- PU_DV&#45;&gt;PU_NTM -->
<g id="edge88" class="edge">
<title>PU_DV&#45;&gt;PU_NTM</title>
<path fill="none" stroke="black" d="M471.88,-340.22C491.32,-351.91 517.16,-366.71 541,-378 547.75,-381.19 554.97,-384.31 562.14,-387.23"/>
<polygon fill="black" stroke="black" points="561.26,-390.65 571.85,-391.08 563.84,-384.14 561.26,-390.65"/>
</g>
<!-- PU_DNC -->
<g id="node27" class="node">
<title>PU_DNC</title>
<polygon fill="none" stroke="black" points="572,-330 572,-368 658,-368 658,-330 572,-330"/>
<text text-anchor="middle" x="615" y="-352.8" font-family="Times,serif" font-size="14.00">PU_DNC </text>
<text text-anchor="middle" x="615" y="-337.8" font-family="Times,serif" font-size="14.00">Advanced</text>
</g>
<!-- PU_DV&#45;&gt;PU_DNC -->
<g id="edge89" class="edge">
<title>PU_DV&#45;&gt;PU_DNC</title>
<path fill="none" stroke="black" d="M495.26,-329.78C516.47,-333.21 540.69,-337.13 561.7,-340.54"/>
<polygon fill="black" stroke="black" points="561.3,-344.02 571.73,-342.16 562.42,-337.11 561.3,-344.02"/>
</g>
<!-- MPSoC_FinTech -->
<g id="node28" class="node">
<title>MPSoC_FinTech</title>
<polygon fill="none" stroke="black" points="718,-244 718,-282 855,-282 855,-244 718,-244"/>
<text text-anchor="middle" x="786.5" y="-266.8" font-family="Times,serif" font-size="14.00">MPSoC_FinTech </text>
<text text-anchor="middle" x="786.5" y="-251.8" font-family="Times,serif" font-size="14.00">Advanced</text>
</g>
<!-- MPSoC_NTM&#45;&gt;MPSoC_FinTech -->
<g id="edge98" class="edge">
<title>MPSoC_NTM&#45;&gt;MPSoC_FinTech</title>
<path fill="none" stroke="black" d="M673.38,-282.18C684.45,-280.29 696.22,-278.28 707.81,-276.29"/>
<polygon fill="black" stroke="black" points="708.66,-279.7 717.92,-274.56 707.48,-272.8 708.66,-279.7"/>
</g>
<!-- SoC_FinTech -->
<g id="node29" class="node">
<title>SoC_FinTech</title>
<polygon fill="none" stroke="black" points="730,-187 730,-225 843,-225 843,-187 730,-187"/>
<text text-anchor="middle" x="786.5" y="-209.8" font-family="Times,serif" font-size="14.00">SoC_FinTech </text>
<text text-anchor="middle" x="786.5" y="-194.8" font-family="Times,serif" font-size="14.00">Advanced</text>
</g>
<!-- SoC_NTM&#45;&gt;SoC_FinTech -->
<g id="edge96" class="edge">
<title>SoC_NTM&#45;&gt;SoC_FinTech</title>
<path fill="none" stroke="black" d="M661.42,-185.5C679.38,-188.47 700.36,-191.93 719.9,-195.16"/>
<polygon fill="black" stroke="black" points="719.53,-198.65 729.97,-196.83 720.67,-191.74 719.53,-198.65"/>
</g>
<!-- PU_FinTech -->
<g id="node30" class="node">
<title>PU_FinTech</title>
<polygon fill="none" stroke="black" points="734,-301 734,-339 839,-339 839,-301 734,-301"/>
<text text-anchor="middle" x="786.5" y="-323.8" font-family="Times,serif" font-size="14.00">PU_FinTech </text>
<text text-anchor="middle" x="786.5" y="-308.8" font-family="Times,serif" font-size="14.00">Advanced</text>
</g>
<!-- PU_NTM&#45;&gt;PU_FinTech -->
<g id="edge94" class="edge">
<title>PU_NTM&#45;&gt;PU_FinTech</title>
<path fill="none" stroke="black" d="M658.06,-391.62C668.65,-387.58 679.88,-382.94 690,-378 709.9,-368.3 731.03,-355.72 748.34,-344.76"/>
<polygon fill="black" stroke="black" points="750.49,-347.54 757.02,-339.2 746.71,-341.65 750.49,-347.54"/>
</g>
<!-- MPSoC_DNC&#45;&gt;MPSoC_FinTech -->
<g id="edge99" class="edge">
<title>MPSoC_DNC&#45;&gt;MPSoC_FinTech</title>
<path fill="none" stroke="black" d="M672.44,-244.32C683.8,-246.2 695.93,-248.2 707.87,-250.18"/>
<polygon fill="black" stroke="black" points="707.39,-253.64 717.83,-251.82 708.53,-246.74 707.39,-253.64"/>
</g>
<!-- SoC_DNC&#45;&gt;SoC_FinTech -->
<g id="edge97" class="edge">
<title>SoC_DNC&#45;&gt;SoC_FinTech</title>
<path fill="none" stroke="black" d="M660.36,-136.33C670.26,-140.15 680.6,-144.46 690,-149 709.69,-158.51 730.65,-170.76 747.9,-181.47"/>
<polygon fill="black" stroke="black" points="746.23,-184.55 756.56,-186.9 749.95,-178.62 746.23,-184.55"/>
</g>
<!-- PU_DNC&#45;&gt;PU_FinTech -->
<g id="edge95" class="edge">
<title>PU_DNC&#45;&gt;PU_FinTech</title>
<path fill="none" stroke="black" d="M658.33,-341.76C678.06,-338.38 701.91,-334.3 723.6,-330.59"/>
<polygon fill="black" stroke="black" points="724.46,-333.99 733.72,-328.86 723.28,-327.09 724.46,-333.99"/>
</g>
</g>
</svg>
