<?xml version="1.0" encoding="UTF-8" standalone="no"?>
<!DOCTYPE svg PUBLIC "-//W3C//DTD SVG 1.1//EN"
 "http://www.w3.org/Graphics/SVG/1.1/DTD/svg11.dtd">
<!-- Generated by graphviz version 2.43.0 (0)
 -->
<!-- Title: Project Pages: 1 -->
<svg width="859pt" height="559pt"
 viewBox="0.00 0.00 859.00 559.00" xmlns="http://www.w3.org/2000/svg" xmlns:xlink="http://www.w3.org/1999/xlink">
<g id="graph0" class="graph" transform="scale(1 1) rotate(0) translate(4 555)">
<title>Project</title>
<polygon fill="white" stroke="transparent" points="-4,4 -4,-555 855,-555 855,4 -4,4"/>
<g id="clust1" class="cluster">
<title>cluster PeripheralBlocks</title>
<polygon fill="none" stroke="black" points="8,-8 8,-543 163,-543 163,-8 8,-8"/>
<text text-anchor="middle" x="85.5" y="-527.8" font-family="Times,serif" font-size="14.00">Peripheral Blocks</text>
</g>
<g id="clust2" class="cluster">
<title>cluster ArchitectureBlocks</title>
<polygon fill="none" stroke="black" points="183,-122 183,-486 340,-486 340,-122 183,-122"/>
<text text-anchor="middle" x="261.5" y="-470.8" font-family="Times,serif" font-size="14.00">Architecture Blocks</text>
</g>
<g id="clust3" class="cluster">
<title>cluster EnvironmentBlocks</title>
<polygon fill="none" stroke="black" points="360,-236 360,-372 521,-372 521,-236 360,-236"/>
<text text-anchor="middle" x="440.5" y="-356.8" font-family="Times,serif" font-size="14.00">Environment Blocks</text>
</g>
<g id="clust4" class="cluster">
<title>cluster AcceleratorBlocks</title>
<polygon fill="none" stroke="black" points="541,-179 541,-429 690,-429 690,-179 541,-179"/>
<text text-anchor="middle" x="615.5" y="-413.8" font-family="Times,serif" font-size="14.00">Accelerator Blocks</text>
</g>
<g id="clust5" class="cluster">
<title>cluster TargetBlocks</title>
<polygon fill="none" stroke="black" points="710,-236 710,-372 847,-372 847,-236 710,-236"/>
<text text-anchor="middle" x="778.5" y="-356.8" font-family="Times,serif" font-size="14.00">Target Blocks</text>
</g>
<!-- MPSoC_DBG -->
<g id="node1" class="node">
<title>MPSoC_DBG</title>
<polygon fill="none" stroke="black" points="29,-131 29,-169 142,-169 142,-131 29,-131"/>
<text text-anchor="middle" x="85.5" y="-153.8" font-family="Times,serif" font-size="14.00">MPSoC_DBG </text>
<text text-anchor="middle" x="85.5" y="-138.8" font-family="Times,serif" font-size="14.00">Peripheral</text>
</g>
<!-- SoC_MSP430 -->
<g id="node10" class="node">
<title>SoC_MSP430</title>
<polygon fill="none" stroke="black" points="203,-131 203,-169 320,-169 320,-131 203,-131"/>
<text text-anchor="middle" x="261.5" y="-153.8" font-family="Times,serif" font-size="14.00">SoC_MSP430 </text>
<text text-anchor="middle" x="261.5" y="-138.8" font-family="Times,serif" font-size="14.00">Architecture</text>
</g>
<!-- MPSoC_DBG&#45;&gt;SoC_MSP430 -->
<g id="edge1" class="edge">
<title>MPSoC_DBG&#45;&gt;SoC_MSP430</title>
<path fill="none" stroke="black" d="M142.03,-150C158.09,-150 175.81,-150 192.54,-150"/>
<polygon fill="black" stroke="black" points="192.8,-153.5 202.8,-150 192.8,-146.5 192.8,-153.5"/>
</g>
<!-- SoC_OR1K -->
<g id="node11" class="node">
<title>SoC_OR1K</title>
<polygon fill="none" stroke="black" points="208.5,-245 208.5,-283 314.5,-283 314.5,-245 208.5,-245"/>
<text text-anchor="middle" x="261.5" y="-267.8" font-family="Times,serif" font-size="14.00">SoC_OR1K </text>
<text text-anchor="middle" x="261.5" y="-252.8" font-family="Times,serif" font-size="14.00">Architecture</text>
</g>
<!-- MPSoC_DBG&#45;&gt;SoC_OR1K -->
<g id="edge18" class="edge">
<title>MPSoC_DBG&#45;&gt;SoC_OR1K</title>
<path fill="none" stroke="black" d="M142.3,-163.64C149.94,-167.35 157.16,-172.04 163,-178 182.1,-197.46 163.86,-216.58 183,-236 187.72,-240.79 193.33,-244.77 199.33,-248.07"/>
<polygon fill="black" stroke="black" points="197.82,-251.23 208.35,-252.43 200.87,-244.93 197.82,-251.23"/>
</g>
<!-- SoC_RISCV -->
<g id="node12" class="node">
<title>SoC_RISCV</title>
<polygon fill="none" stroke="black" points="208.5,-188 208.5,-226 314.5,-226 314.5,-188 208.5,-188"/>
<text text-anchor="middle" x="261.5" y="-210.8" font-family="Times,serif" font-size="14.00">SoC_RISCV </text>
<text text-anchor="middle" x="261.5" y="-195.8" font-family="Times,serif" font-size="14.00">Architecture</text>
</g>
<!-- MPSoC_DBG&#45;&gt;SoC_RISCV -->
<g id="edge35" class="edge">
<title>MPSoC_DBG&#45;&gt;SoC_RISCV</title>
<path fill="none" stroke="black" d="M142.03,-168.19C160.16,-174.13 180.39,-180.76 198.93,-186.83"/>
<polygon fill="black" stroke="black" points="197.86,-190.16 208.45,-189.95 200.04,-183.51 197.86,-190.16"/>
</g>
<!-- PU_MSP430 -->
<g id="node13" class="node">
<title>PU_MSP430</title>
<polygon fill="none" stroke="black" points="206.5,-302 206.5,-340 316.5,-340 316.5,-302 206.5,-302"/>
<text text-anchor="middle" x="261.5" y="-324.8" font-family="Times,serif" font-size="14.00">PU_MSP430 </text>
<text text-anchor="middle" x="261.5" y="-309.8" font-family="Times,serif" font-size="14.00">Architecture</text>
</g>
<!-- MPSoC_DBG&#45;&gt;PU_MSP430 -->
<g id="edge10" class="edge">
<title>MPSoC_DBG&#45;&gt;PU_MSP430</title>
<path fill="none" stroke="black" d="M142.03,-162.28C149.99,-166.16 157.38,-171.27 163,-178 196.26,-217.81 149.65,-253.26 183,-293 186.95,-297.7 191.75,-301.62 197.01,-304.87"/>
<polygon fill="black" stroke="black" points="195.75,-308.17 206.22,-309.76 199.02,-301.98 195.75,-308.17"/>
</g>
<!-- PU_OR1K -->
<g id="node14" class="node">
<title>PU_OR1K</title>
<polygon fill="none" stroke="black" points="208.5,-416 208.5,-454 314.5,-454 314.5,-416 208.5,-416"/>
<text text-anchor="middle" x="261.5" y="-438.8" font-family="Times,serif" font-size="14.00">PU_OR1K </text>
<text text-anchor="middle" x="261.5" y="-423.8" font-family="Times,serif" font-size="14.00">Architecture</text>
</g>
<!-- MPSoC_DBG&#45;&gt;PU_OR1K -->
<g id="edge27" class="edge">
<title>MPSoC_DBG&#45;&gt;PU_OR1K</title>
<path fill="none" stroke="black" d="M142.14,-161.69C150.2,-165.64 157.58,-170.93 163,-178 194.06,-218.56 151.86,-366.51 183,-407 187.34,-412.64 192.91,-417.14 199.08,-420.74"/>
<polygon fill="black" stroke="black" points="197.95,-424.09 208.47,-425.39 201.06,-417.82 197.95,-424.09"/>
</g>
<!-- PU_RISCV -->
<g id="node15" class="node">
<title>PU_RISCV</title>
<polygon fill="none" stroke="black" points="208.5,-359 208.5,-397 314.5,-397 314.5,-359 208.5,-359"/>
<text text-anchor="middle" x="261.5" y="-381.8" font-family="Times,serif" font-size="14.00">PU_RISCV </text>
<text text-anchor="middle" x="261.5" y="-366.8" font-family="Times,serif" font-size="14.00">Architecture</text>
</g>
<!-- MPSoC_DBG&#45;&gt;PU_RISCV -->
<g id="edge44" class="edge">
<title>MPSoC_DBG&#45;&gt;PU_RISCV</title>
<path fill="none" stroke="black" d="M142.36,-162.01C150.28,-165.92 157.57,-171.12 163,-178 210.66,-238.43 135.21,-289.67 183,-350 187.36,-355.5 192.89,-359.92 198.99,-363.47"/>
<polygon fill="black" stroke="black" points="197.74,-366.76 208.25,-368.08 200.86,-360.49 197.74,-366.76"/>
</g>
<!-- MPSoC_DMA -->
<g id="node2" class="node">
<title>MPSoC_DMA</title>
<polygon fill="none" stroke="black" points="27.5,-74 27.5,-112 143.5,-112 143.5,-74 27.5,-74"/>
<text text-anchor="middle" x="85.5" y="-96.8" font-family="Times,serif" font-size="14.00">MPSoC_DMA </text>
<text text-anchor="middle" x="85.5" y="-81.8" font-family="Times,serif" font-size="14.00">Peripheral</text>
</g>
<!-- MPSoC_DMA&#45;&gt;SoC_MSP430 -->
<g id="edge2" class="edge">
<title>MPSoC_DMA&#45;&gt;SoC_MSP430</title>
<path fill="none" stroke="black" d="M143.96,-111.82C159.61,-116.95 176.72,-122.55 192.88,-127.85"/>
<polygon fill="black" stroke="black" points="192.21,-131.31 202.81,-131.1 194.39,-124.66 192.21,-131.31"/>
</g>
<!-- MPSoC_DMA&#45;&gt;SoC_OR1K -->
<g id="edge19" class="edge">
<title>MPSoC_DMA&#45;&gt;SoC_OR1K</title>
<path fill="none" stroke="black" d="M143.56,-106.04C150.94,-109.83 157.74,-114.71 163,-121 196.26,-160.81 149.65,-196.26 183,-236 187.45,-241.3 192.98,-245.6 199.03,-249.08"/>
<polygon fill="black" stroke="black" points="197.69,-252.32 208.2,-253.63 200.8,-246.05 197.69,-252.32"/>
</g>
<!-- MPSoC_DMA&#45;&gt;SoC_RISCV -->
<g id="edge36" class="edge">
<title>MPSoC_DMA&#45;&gt;SoC_RISCV</title>
<path fill="none" stroke="black" d="M143.82,-107.44C150.89,-111.01 157.54,-115.46 163,-121 181.86,-140.11 164.21,-158.82 183,-178 187.73,-182.83 193.33,-186.86 199.34,-190.22"/>
<polygon fill="black" stroke="black" points="197.85,-193.39 208.36,-194.7 200.95,-187.12 197.85,-193.39"/>
</g>
<!-- MPSoC_DMA&#45;&gt;PU_MSP430 -->
<g id="edge11" class="edge">
<title>MPSoC_DMA&#45;&gt;PU_MSP430</title>
<path fill="none" stroke="black" d="M143.5,-105.58C150.98,-109.43 157.83,-114.45 163,-121 210.66,-181.43 135.21,-232.67 183,-293 186.96,-298 191.9,-302.11 197.35,-305.49"/>
<polygon fill="black" stroke="black" points="195.8,-308.63 206.27,-310.21 199.07,-302.44 195.8,-308.63"/>
</g>
<!-- MPSoC_DMA&#45;&gt;PU_OR1K -->
<g id="edge28" class="edge">
<title>MPSoC_DMA&#45;&gt;PU_OR1K</title>
<path fill="none" stroke="black" d="M143.77,-105.38C151.22,-109.25 157.98,-114.33 163,-121 201.3,-171.92 144.6,-356.16 183,-407 187.29,-412.68 192.83,-417.2 198.99,-420.81"/>
<polygon fill="black" stroke="black" points="197.85,-424.16 208.36,-425.47 200.96,-417.89 197.85,-424.16"/>
</g>
<!-- MPSoC_DMA&#45;&gt;PU_RISCV -->
<g id="edge45" class="edge">
<title>MPSoC_DMA&#45;&gt;PU_RISCV</title>
<path fill="none" stroke="black" d="M143.67,-105.45C151.13,-109.32 157.93,-114.38 163,-121 194.06,-161.56 151.86,-309.51 183,-350 187.34,-355.64 192.91,-360.14 199.08,-363.74"/>
<polygon fill="black" stroke="black" points="197.95,-367.09 208.47,-368.39 201.06,-360.82 197.95,-367.09"/>
</g>
<!-- MPSoC_GPIO -->
<g id="node3" class="node">
<title>MPSoC_GPIO</title>
<polygon fill="none" stroke="black" points="26.5,-473 26.5,-511 144.5,-511 144.5,-473 26.5,-473"/>
<text text-anchor="middle" x="85.5" y="-495.8" font-family="Times,serif" font-size="14.00">MPSoC_GPIO </text>
<text text-anchor="middle" x="85.5" y="-480.8" font-family="Times,serif" font-size="14.00">Peripheral</text>
</g>
<!-- MPSoC_GPIO&#45;&gt;SoC_MSP430 -->
<g id="edge3" class="edge">
<title>MPSoC_GPIO&#45;&gt;SoC_MSP430</title>
<path fill="none" stroke="black" d="M144.53,-479.23C151.67,-475.4 158.15,-470.44 163,-464 201.3,-413.08 144.6,-228.84 183,-178 186.15,-173.83 189.99,-170.27 194.24,-167.25"/>
<polygon fill="black" stroke="black" points="196.11,-170.21 202.87,-162.06 192.5,-164.21 196.11,-170.21"/>
</g>
<!-- MPSoC_GPIO&#45;&gt;SoC_OR1K -->
<g id="edge20" class="edge">
<title>MPSoC_GPIO&#45;&gt;SoC_OR1K</title>
<path fill="none" stroke="black" d="M144.63,-478.82C151.67,-475.05 158.09,-470.22 163,-464 210.41,-403.94 135.81,-353.23 183,-293 187.35,-287.45 192.87,-282.97 198.96,-279.34"/>
<polygon fill="black" stroke="black" points="200.91,-282.28 208.23,-274.62 197.73,-276.04 200.91,-282.28"/>
</g>
<!-- MPSoC_GPIO&#45;&gt;SoC_RISCV -->
<g id="edge37" class="edge">
<title>MPSoC_GPIO&#45;&gt;SoC_RISCV</title>
<path fill="none" stroke="black" d="M144.8,-478.95C151.81,-475.16 158.18,-470.29 163,-464 193.93,-423.62 152.21,-276.49 183,-236 187.42,-230.18 193.15,-225.53 199.49,-221.81"/>
<polygon fill="black" stroke="black" points="201.09,-224.93 208.44,-217.3 197.93,-218.68 201.09,-224.93"/>
</g>
<!-- MPSoC_GPIO&#45;&gt;PU_MSP430 -->
<g id="edge12" class="edge">
<title>MPSoC_GPIO&#45;&gt;PU_MSP430</title>
<path fill="none" stroke="black" d="M144.69,-478.35C151.63,-474.66 158.01,-469.97 163,-464 196.01,-424.55 150.13,-389.57 183,-350 187.04,-345.14 191.97,-341.1 197.38,-337.73"/>
<polygon fill="black" stroke="black" points="199.06,-340.8 206.2,-332.97 195.74,-334.64 199.06,-340.8"/>
</g>
<!-- MPSoC_GPIO&#45;&gt;PU_OR1K -->
<g id="edge29" class="edge">
<title>MPSoC_GPIO&#45;&gt;PU_OR1K</title>
<path fill="none" stroke="black" d="M144.92,-472.86C162.25,-467.19 181.28,-460.95 198.81,-455.21"/>
<polygon fill="black" stroke="black" points="199.95,-458.52 208.37,-452.08 197.78,-451.86 199.95,-458.52"/>
</g>
<!-- MPSoC_GPIO&#45;&gt;PU_RISCV -->
<g id="edge46" class="edge">
<title>MPSoC_GPIO&#45;&gt;PU_RISCV</title>
<path fill="none" stroke="black" d="M144.59,-477.17C151.37,-473.66 157.74,-469.34 163,-464 181.86,-444.89 164.21,-426.18 183,-407 187.73,-402.17 193.33,-398.14 199.34,-394.78"/>
<polygon fill="black" stroke="black" points="200.95,-397.88 208.36,-390.3 197.85,-391.61 200.95,-397.88"/>
</g>
<!-- MPSoC_MPI -->
<g id="node4" class="node">
<title>MPSoC_MPI</title>
<polygon fill="none" stroke="black" points="30.5,-416 30.5,-454 140.5,-454 140.5,-416 30.5,-416"/>
<text text-anchor="middle" x="85.5" y="-438.8" font-family="Times,serif" font-size="14.00">MPSoC_MPI </text>
<text text-anchor="middle" x="85.5" y="-423.8" font-family="Times,serif" font-size="14.00">Peripheral</text>
</g>
<!-- MPSoC_MPI&#45;&gt;SoC_MSP430 -->
<g id="edge4" class="edge">
<title>MPSoC_MPI&#45;&gt;SoC_MSP430</title>
<path fill="none" stroke="black" d="M140.6,-424.05C149.25,-420.03 157.24,-414.52 163,-407 194.06,-366.44 151.86,-218.49 183,-178 186.19,-173.85 190.05,-170.32 194.32,-167.31"/>
<polygon fill="black" stroke="black" points="196.19,-170.27 202.98,-162.14 192.6,-164.26 196.19,-170.27"/>
</g>
<!-- MPSoC_MPI&#45;&gt;SoC_OR1K -->
<g id="edge21" class="edge">
<title>MPSoC_MPI&#45;&gt;SoC_OR1K</title>
<path fill="none" stroke="black" d="M140.86,-423.27C149.26,-419.33 157.1,-414.05 163,-407 196.01,-367.55 150.13,-332.57 183,-293 187.44,-287.65 192.97,-283.29 199.02,-279.74"/>
<polygon fill="black" stroke="black" points="200.86,-282.73 208.19,-275.08 197.69,-276.49 200.86,-282.73"/>
</g>
<!-- MPSoC_MPI&#45;&gt;SoC_RISCV -->
<g id="edge38" class="edge">
<title>MPSoC_MPI&#45;&gt;SoC_RISCV</title>
<path fill="none" stroke="black" d="M140.81,-423.73C149.33,-419.74 157.22,-414.33 163,-407 210.41,-346.94 135.81,-296.23 183,-236 187.35,-230.45 192.87,-225.97 198.96,-222.34"/>
<polygon fill="black" stroke="black" points="200.91,-225.28 208.23,-217.62 197.73,-219.04 200.91,-225.28"/>
</g>
<!-- MPSoC_MPI&#45;&gt;PU_MSP430 -->
<g id="edge13" class="edge">
<title>MPSoC_MPI&#45;&gt;PU_MSP430</title>
<path fill="none" stroke="black" d="M140.71,-422.07C148.93,-418.26 156.74,-413.34 163,-407 181.86,-387.89 164.21,-369.18 183,-350 187.19,-345.73 192.06,-342.08 197.29,-338.96"/>
<polygon fill="black" stroke="black" points="199.13,-341.94 206.36,-334.2 195.88,-335.75 199.13,-341.94"/>
</g>
<!-- MPSoC_MPI&#45;&gt;PU_OR1K -->
<g id="edge30" class="edge">
<title>MPSoC_MPI&#45;&gt;PU_OR1K</title>
<path fill="none" stroke="black" d="M140.6,-435C158.78,-435 179.21,-435 197.99,-435"/>
<polygon fill="black" stroke="black" points="198.22,-438.5 208.22,-435 198.22,-431.5 198.22,-438.5"/>
</g>
<!-- MPSoC_MPI&#45;&gt;PU_RISCV -->
<g id="edge47" class="edge">
<title>MPSoC_MPI&#45;&gt;PU_RISCV</title>
<path fill="none" stroke="black" d="M140.6,-417.28C158.95,-411.27 179.59,-404.5 198.51,-398.31"/>
<polygon fill="black" stroke="black" points="199.81,-401.57 208.22,-395.13 197.63,-394.91 199.81,-401.57"/>
</g>
<!-- MPSoC_MPRAM -->
<g id="node5" class="node">
<title>MPSoC_MPRAM</title>
<polygon fill="none" stroke="black" points="16,-359 16,-397 155,-397 155,-359 16,-359"/>
<text text-anchor="middle" x="85.5" y="-381.8" font-family="Times,serif" font-size="14.00">MPSoC_MPRAM </text>
<text text-anchor="middle" x="85.5" y="-366.8" font-family="Times,serif" font-size="14.00">Peripheral</text>
</g>
<!-- MPSoC_MPRAM&#45;&gt;SoC_MSP430 -->
<g id="edge5" class="edge">
<title>MPSoC_MPRAM&#45;&gt;SoC_MSP430</title>
<path fill="none" stroke="black" d="M153.95,-358.85C157.31,-356.27 160.37,-353.33 163,-350 210.66,-289.57 135.21,-238.33 183,-178 186.11,-174.07 189.82,-170.69 193.91,-167.79"/>
<polygon fill="black" stroke="black" points="196,-170.62 202.76,-162.47 192.39,-164.62 196,-170.62"/>
</g>
<!-- MPSoC_MPRAM&#45;&gt;SoC_OR1K -->
<g id="edge22" class="edge">
<title>MPSoC_MPRAM&#45;&gt;SoC_OR1K</title>
<path fill="none" stroke="black" d="M152.05,-358.84C156.02,-356.25 159.72,-353.32 163,-350 181.86,-330.89 164.21,-312.18 183,-293 187.73,-288.17 193.33,-284.14 199.34,-280.78"/>
<polygon fill="black" stroke="black" points="200.95,-283.88 208.36,-276.3 197.85,-277.61 200.95,-283.88"/>
</g>
<!-- MPSoC_MPRAM&#45;&gt;SoC_RISCV -->
<g id="edge39" class="edge">
<title>MPSoC_MPRAM&#45;&gt;SoC_RISCV</title>
<path fill="none" stroke="black" d="M153.39,-358.92C156.93,-356.32 160.19,-353.36 163,-350 196.01,-310.55 150.13,-275.57 183,-236 187.44,-230.65 192.97,-226.29 199.02,-222.74"/>
<polygon fill="black" stroke="black" points="200.86,-225.73 208.19,-218.08 197.69,-219.49 200.86,-225.73"/>
</g>
<!-- MPSoC_MPRAM&#45;&gt;PU_MSP430 -->
<g id="edge14" class="edge">
<title>MPSoC_MPRAM&#45;&gt;PU_MSP430</title>
<path fill="none" stroke="black" d="M144.92,-358.86C161.51,-353.43 179.66,-347.48 196.56,-341.95"/>
<polygon fill="black" stroke="black" points="197.93,-345.18 206.34,-338.74 195.75,-338.53 197.93,-345.18"/>
</g>
<!-- MPSoC_MPRAM&#45;&gt;PU_OR1K -->
<g id="edge31" class="edge">
<title>MPSoC_MPRAM&#45;&gt;PU_OR1K</title>
<path fill="none" stroke="black" d="M144.92,-397.14C162.25,-402.81 181.28,-409.05 198.81,-414.79"/>
<polygon fill="black" stroke="black" points="197.78,-418.14 208.37,-417.92 199.95,-411.48 197.78,-418.14"/>
</g>
<!-- MPSoC_MPRAM&#45;&gt;PU_RISCV -->
<g id="edge48" class="edge">
<title>MPSoC_MPRAM&#45;&gt;PU_RISCV</title>
<path fill="none" stroke="black" d="M155.27,-378C169.35,-378 184.1,-378 197.94,-378"/>
<polygon fill="black" stroke="black" points="198.33,-381.5 208.33,-378 198.33,-374.5 198.33,-381.5"/>
</g>
<!-- MPSoC_MSI -->
<g id="node6" class="node">
<title>MPSoC_MSI</title>
<polygon fill="none" stroke="black" points="30.5,-302 30.5,-340 140.5,-340 140.5,-302 30.5,-302"/>
<text text-anchor="middle" x="85.5" y="-324.8" font-family="Times,serif" font-size="14.00">MPSoC_MSI </text>
<text text-anchor="middle" x="85.5" y="-309.8" font-family="Times,serif" font-size="14.00">Peripheral</text>
</g>
<!-- MPSoC_MSI&#45;&gt;SoC_MSP430 -->
<g id="edge6" class="edge">
<title>MPSoC_MSI&#45;&gt;SoC_MSP430</title>
<path fill="none" stroke="black" d="M140.87,-309.28C149.27,-305.33 157.11,-300.05 163,-293 196.26,-253.19 149.65,-217.74 183,-178 186.17,-174.23 189.88,-170.96 193.95,-168.14"/>
<polygon fill="black" stroke="black" points="195.89,-171.05 202.7,-162.93 192.32,-165.03 195.89,-171.05"/>
</g>
<!-- MPSoC_MSI&#45;&gt;SoC_OR1K -->
<g id="edge23" class="edge">
<title>MPSoC_MSI&#45;&gt;SoC_OR1K</title>
<path fill="none" stroke="black" d="M140.6,-303.28C158.95,-297.27 179.59,-290.5 198.51,-284.31"/>
<polygon fill="black" stroke="black" points="199.81,-287.57 208.22,-281.13 197.63,-280.91 199.81,-287.57"/>
</g>
<!-- MPSoC_MSI&#45;&gt;SoC_RISCV -->
<g id="edge40" class="edge">
<title>MPSoC_MSI&#45;&gt;SoC_RISCV</title>
<path fill="none" stroke="black" d="M140.71,-308.07C148.93,-304.26 156.74,-299.34 163,-293 181.86,-273.89 164.21,-255.18 183,-236 187.73,-231.17 193.33,-227.14 199.34,-223.78"/>
<polygon fill="black" stroke="black" points="200.95,-226.88 208.36,-219.3 197.85,-220.61 200.95,-226.88"/>
</g>
<!-- MPSoC_MSI&#45;&gt;PU_MSP430 -->
<g id="edge15" class="edge">
<title>MPSoC_MSI&#45;&gt;PU_MSP430</title>
<path fill="none" stroke="black" d="M140.6,-321C158.28,-321 178.08,-321 196.42,-321"/>
<polygon fill="black" stroke="black" points="196.43,-324.5 206.43,-321 196.43,-317.5 196.43,-324.5"/>
</g>
<!-- MPSoC_MSI&#45;&gt;PU_OR1K -->
<g id="edge32" class="edge">
<title>MPSoC_MSI&#45;&gt;PU_OR1K</title>
<path fill="none" stroke="black" d="M140.73,-334.67C148.95,-338.59 156.75,-343.59 163,-350 181.75,-369.22 164.1,-387.93 183,-407 187.74,-411.78 193.35,-415.75 199.35,-419.04"/>
<polygon fill="black" stroke="black" points="197.85,-422.2 208.38,-423.4 200.9,-415.9 197.85,-422.2"/>
</g>
<!-- MPSoC_MSI&#45;&gt;PU_RISCV -->
<g id="edge49" class="edge">
<title>MPSoC_MSI&#45;&gt;PU_RISCV</title>
<path fill="none" stroke="black" d="M140.6,-338.72C158.95,-344.73 179.59,-351.5 198.51,-357.69"/>
<polygon fill="black" stroke="black" points="197.63,-361.09 208.22,-360.87 199.81,-354.43 197.63,-361.09"/>
</g>
<!-- MPSoC_NoC -->
<g id="node7" class="node">
<title>MPSoC_NoC</title>
<polygon fill="none" stroke="black" points="30,-17 30,-55 141,-55 141,-17 30,-17"/>
<text text-anchor="middle" x="85.5" y="-39.8" font-family="Times,serif" font-size="14.00">MPSoC_NoC </text>
<text text-anchor="middle" x="85.5" y="-24.8" font-family="Times,serif" font-size="14.00">Peripheral</text>
</g>
<!-- MPSoC_NoC&#45;&gt;SoC_MSP430 -->
<g id="edge7" class="edge">
<title>MPSoC_NoC&#45;&gt;SoC_MSP430</title>
<path fill="none" stroke="black" d="M141.16,-53.15C148.71,-56.33 156.19,-59.95 163,-64 190.32,-80.26 217.1,-104.67 235.66,-123.33"/>
<polygon fill="black" stroke="black" points="233.6,-126.23 243.09,-130.94 238.6,-121.34 233.6,-126.23"/>
</g>
<!-- MPSoC_NoC&#45;&gt;SoC_OR1K -->
<g id="edge24" class="edge">
<title>MPSoC_NoC&#45;&gt;SoC_OR1K</title>
<path fill="none" stroke="black" d="M141.2,-47.45C149.57,-51.42 157.31,-56.78 163,-64 210.66,-124.43 135.21,-175.67 183,-236 187.36,-241.5 192.89,-245.92 198.99,-249.47"/>
<polygon fill="black" stroke="black" points="197.74,-252.76 208.25,-254.08 200.86,-246.49 197.74,-252.76"/>
</g>
<!-- MPSoC_NoC&#45;&gt;SoC_RISCV -->
<g id="edge41" class="edge">
<title>MPSoC_NoC&#45;&gt;SoC_RISCV</title>
<path fill="none" stroke="black" d="M141.24,-47.91C149.51,-51.84 157.19,-57.06 163,-64 196.01,-103.45 150.13,-138.43 183,-178 187.44,-183.35 192.97,-187.71 199.02,-191.26"/>
<polygon fill="black" stroke="black" points="197.69,-194.51 208.19,-195.92 200.86,-188.27 197.69,-194.51"/>
</g>
<!-- MPSoC_SPRAM -->
<g id="node8" class="node">
<title>MPSoC_SPRAM</title>
<polygon fill="none" stroke="black" points="18.5,-245 18.5,-283 152.5,-283 152.5,-245 18.5,-245"/>
<text text-anchor="middle" x="85.5" y="-267.8" font-family="Times,serif" font-size="14.00">MPSoC_SPRAM </text>
<text text-anchor="middle" x="85.5" y="-252.8" font-family="Times,serif" font-size="14.00">Peripheral</text>
</g>
<!-- MPSoC_SPRAM&#45;&gt;SoC_MSP430 -->
<g id="edge8" class="edge">
<title>MPSoC_SPRAM&#45;&gt;SoC_MSP430</title>
<path fill="none" stroke="black" d="M152.07,-244.86C156.03,-242.27 159.73,-239.33 163,-236 182.1,-216.54 163.86,-197.42 183,-178 186.25,-174.7 189.92,-171.79 193.85,-169.22"/>
<polygon fill="black" stroke="black" points="195.84,-172.11 202.8,-164.12 192.38,-166.03 195.84,-172.11"/>
</g>
<!-- MPSoC_SPRAM&#45;&gt;SoC_OR1K -->
<g id="edge25" class="edge">
<title>MPSoC_SPRAM&#45;&gt;SoC_OR1K</title>
<path fill="none" stroke="black" d="M152.78,-264C167.76,-264 183.61,-264 198.42,-264"/>
<polygon fill="black" stroke="black" points="198.47,-267.5 208.47,-264 198.47,-260.5 198.47,-267.5"/>
</g>
<!-- MPSoC_SPRAM&#45;&gt;SoC_RISCV -->
<g id="edge42" class="edge">
<title>MPSoC_SPRAM&#45;&gt;SoC_RISCV</title>
<path fill="none" stroke="black" d="M144.92,-244.86C162.25,-239.19 181.28,-232.95 198.81,-227.21"/>
<polygon fill="black" stroke="black" points="199.95,-230.52 208.37,-224.08 197.78,-223.86 199.95,-230.52"/>
</g>
<!-- MPSoC_SPRAM&#45;&gt;PU_MSP430 -->
<g id="edge16" class="edge">
<title>MPSoC_SPRAM&#45;&gt;PU_MSP430</title>
<path fill="none" stroke="black" d="M144.92,-283.14C161.51,-288.57 179.66,-294.52 196.56,-300.05"/>
<polygon fill="black" stroke="black" points="195.75,-303.47 206.34,-303.26 197.93,-296.82 195.75,-303.47"/>
</g>
<!-- MPSoC_SPRAM&#45;&gt;PU_OR1K -->
<g id="edge33" class="edge">
<title>MPSoC_SPRAM&#45;&gt;PU_OR1K</title>
<path fill="none" stroke="black" d="M152.37,-283.21C156.31,-286.03 159.92,-289.28 163,-293 195.79,-332.64 149.91,-367.62 183,-407 187.45,-412.3 192.99,-416.59 199.04,-420.08"/>
<polygon fill="black" stroke="black" points="197.7,-423.32 208.21,-424.62 200.81,-417.04 197.7,-423.32"/>
</g>
<!-- MPSoC_SPRAM&#45;&gt;PU_RISCV -->
<g id="edge50" class="edge">
<title>MPSoC_SPRAM&#45;&gt;PU_RISCV</title>
<path fill="none" stroke="black" d="M150.61,-283.1C155.12,-285.96 159.33,-289.24 163,-293 181.75,-312.22 164.1,-330.93 183,-350 187.74,-354.78 193.35,-358.75 199.35,-362.04"/>
<polygon fill="black" stroke="black" points="197.85,-365.2 208.38,-366.4 200.9,-358.9 197.85,-365.2"/>
</g>
<!-- MPSoC_UART -->
<g id="node9" class="node">
<title>MPSoC_UART</title>
<polygon fill="none" stroke="black" points="25,-188 25,-226 146,-226 146,-188 25,-188"/>
<text text-anchor="middle" x="85.5" y="-210.8" font-family="Times,serif" font-size="14.00">MPSoC_UART </text>
<text text-anchor="middle" x="85.5" y="-195.8" font-family="Times,serif" font-size="14.00">Peripheral</text>
</g>
<!-- MPSoC_UART&#45;&gt;SoC_MSP430 -->
<g id="edge9" class="edge">
<title>MPSoC_UART&#45;&gt;SoC_MSP430</title>
<path fill="none" stroke="black" d="M144.92,-187.86C160.38,-182.8 177.18,-177.29 193.07,-172.09"/>
<polygon fill="black" stroke="black" points="194.41,-175.33 202.82,-168.89 192.23,-168.68 194.41,-175.33"/>
</g>
<!-- MPSoC_UART&#45;&gt;SoC_OR1K -->
<g id="edge26" class="edge">
<title>MPSoC_UART&#45;&gt;SoC_OR1K</title>
<path fill="none" stroke="black" d="M144.92,-226.14C162.25,-231.81 181.28,-238.05 198.81,-243.79"/>
<polygon fill="black" stroke="black" points="197.78,-247.14 208.37,-246.92 199.95,-240.48 197.78,-247.14"/>
</g>
<!-- MPSoC_UART&#45;&gt;SoC_RISCV -->
<g id="edge43" class="edge">
<title>MPSoC_UART&#45;&gt;SoC_RISCV</title>
<path fill="none" stroke="black" d="M146.38,-207C163.07,-207 181.24,-207 198.07,-207"/>
<polygon fill="black" stroke="black" points="198.35,-210.5 208.35,-207 198.35,-203.5 198.35,-210.5"/>
</g>
<!-- MPSoC_UART&#45;&gt;PU_MSP430 -->
<g id="edge17" class="edge">
<title>MPSoC_UART&#45;&gt;PU_MSP430</title>
<path fill="none" stroke="black" d="M146.13,-223.45C152.34,-226.88 158.14,-231.02 163,-236 181.75,-255.22 164.1,-273.93 183,-293 187.19,-297.23 192.07,-300.83 197.3,-303.88"/>
<polygon fill="black" stroke="black" points="195.89,-307.09 206.38,-308.53 199.08,-300.86 195.89,-307.09"/>
</g>
<!-- MPSoC_UART&#45;&gt;PU_OR1K -->
<g id="edge34" class="edge">
<title>MPSoC_UART&#45;&gt;PU_OR1K</title>
<path fill="none" stroke="black" d="M146.16,-221.8C152.6,-225.52 158.46,-230.18 163,-236 210.06,-296.33 135.47,-347.04 183,-407 187.36,-412.5 192.89,-416.92 198.99,-420.47"/>
<polygon fill="black" stroke="black" points="197.74,-423.76 208.26,-425.08 200.86,-417.49 197.74,-423.76"/>
</g>
<!-- MPSoC_UART&#45;&gt;PU_RISCV -->
<g id="edge51" class="edge">
<title>MPSoC_UART&#45;&gt;PU_RISCV</title>
<path fill="none" stroke="black" d="M146.22,-222.27C152.57,-225.91 158.38,-230.42 163,-236 195.79,-275.64 149.91,-310.62 183,-350 187.45,-355.3 192.99,-359.59 199.04,-363.08"/>
<polygon fill="black" stroke="black" points="197.7,-366.32 208.21,-367.62 200.81,-360.04 197.7,-366.32"/>
</g>
<!-- SoC_DV -->
<g id="node16" class="node">
<title>SoC_DV</title>
<polygon fill="none" stroke="black" points="385,-245 385,-283 495,-283 495,-245 385,-245"/>
<text text-anchor="middle" x="440" y="-267.8" font-family="Times,serif" font-size="14.00">SoC_DV </text>
<text text-anchor="middle" x="440" y="-252.8" font-family="Times,serif" font-size="14.00">Environment</text>
</g>
<!-- SoC_MSP430&#45;&gt;SoC_DV -->
<g id="edge55" class="edge">
<title>SoC_MSP430&#45;&gt;SoC_DV</title>
<path fill="none" stroke="black" d="M320.3,-168.18C327.12,-171.1 333.83,-174.38 340,-178 367.9,-194.39 395.34,-219.09 414.23,-237.82"/>
<polygon fill="black" stroke="black" points="411.75,-240.29 421.28,-244.93 416.72,-235.36 411.75,-240.29"/>
</g>
<!-- SoC_OR1K&#45;&gt;SoC_DV -->
<g id="edge56" class="edge">
<title>SoC_OR1K&#45;&gt;SoC_DV</title>
<path fill="none" stroke="black" d="M314.5,-264C333.38,-264 354.93,-264 374.74,-264"/>
<polygon fill="black" stroke="black" points="374.92,-267.5 384.92,-264 374.92,-260.5 374.92,-267.5"/>
</g>
<!-- SoC_RISCV&#45;&gt;SoC_DV -->
<g id="edge57" class="edge">
<title>SoC_RISCV&#45;&gt;SoC_DV</title>
<path fill="none" stroke="black" d="M314.5,-223.79C333.55,-229.95 355.33,-236.98 375.29,-243.42"/>
<polygon fill="black" stroke="black" points="374.33,-246.79 384.92,-246.54 376.48,-240.13 374.33,-246.79"/>
</g>
<!-- PU_DV -->
<g id="node17" class="node">
<title>PU_DV</title>
<polygon fill="none" stroke="black" points="385,-302 385,-340 495,-340 495,-302 385,-302"/>
<text text-anchor="middle" x="440" y="-324.8" font-family="Times,serif" font-size="14.00">PU_DV </text>
<text text-anchor="middle" x="440" y="-309.8" font-family="Times,serif" font-size="14.00">Environment</text>
</g>
<!-- PU_MSP430&#45;&gt;PU_DV -->
<g id="edge52" class="edge">
<title>PU_MSP430&#45;&gt;PU_DV</title>
<path fill="none" stroke="black" d="M316.9,-321C335.18,-321 355.76,-321 374.73,-321"/>
<polygon fill="black" stroke="black" points="374.78,-324.5 384.78,-321 374.78,-317.5 374.78,-324.5"/>
</g>
<!-- PU_OR1K&#45;&gt;PU_DV -->
<g id="edge53" class="edge">
<title>PU_OR1K&#45;&gt;PU_DV</title>
<path fill="none" stroke="black" d="M314.57,-419.2C323.31,-415.7 332.1,-411.64 340,-407 367.9,-390.61 395.34,-365.91 414.23,-347.18"/>
<polygon fill="black" stroke="black" points="416.72,-349.64 421.28,-340.07 411.75,-344.71 416.72,-349.64"/>
</g>
<!-- PU_RISCV&#45;&gt;PU_DV -->
<g id="edge54" class="edge">
<title>PU_RISCV&#45;&gt;PU_DV</title>
<path fill="none" stroke="black" d="M314.5,-361.21C333.55,-355.05 355.33,-348.02 375.29,-341.58"/>
<polygon fill="black" stroke="black" points="376.48,-344.87 384.92,-338.46 374.33,-338.21 376.48,-344.87"/>
</g>
<!-- SoC_NTM -->
<g id="node18" class="node">
<title>SoC_NTM</title>
<polygon fill="none" stroke="black" points="569,-245 569,-283 661,-283 661,-245 569,-245"/>
<text text-anchor="middle" x="615" y="-267.8" font-family="Times,serif" font-size="14.00">SoC_NTM </text>
<text text-anchor="middle" x="615" y="-252.8" font-family="Times,serif" font-size="14.00">Target</text>
</g>
<!-- SoC_DV&#45;&gt;SoC_NTM -->
<g id="edge60" class="edge">
<title>SoC_DV&#45;&gt;SoC_NTM</title>
<path fill="none" stroke="black" d="M495.26,-264C515.52,-264 538.54,-264 558.87,-264"/>
<polygon fill="black" stroke="black" points="558.93,-267.5 568.93,-264 558.93,-260.5 558.93,-267.5"/>
</g>
<!-- SoC_DNC -->
<g id="node20" class="node">
<title>SoC_DNC</title>
<polygon fill="none" stroke="black" points="570,-188 570,-226 660,-226 660,-188 570,-188"/>
<text text-anchor="middle" x="615" y="-210.8" font-family="Times,serif" font-size="14.00">SoC_DNC </text>
<text text-anchor="middle" x="615" y="-195.8" font-family="Times,serif" font-size="14.00">Target</text>
</g>
<!-- SoC_DV&#45;&gt;SoC_DNC -->
<g id="edge61" class="edge">
<title>SoC_DV&#45;&gt;SoC_DNC</title>
<path fill="none" stroke="black" d="M495.26,-246.12C515.97,-239.3 539.54,-231.53 560.2,-224.73"/>
<polygon fill="black" stroke="black" points="561.37,-228.03 569.77,-221.57 559.18,-221.38 561.37,-228.03"/>
</g>
<!-- PU_NTM -->
<g id="node19" class="node">
<title>PU_NTM</title>
<polygon fill="none" stroke="black" points="572,-359 572,-397 658,-397 658,-359 572,-359"/>
<text text-anchor="middle" x="615" y="-381.8" font-family="Times,serif" font-size="14.00">PU_NTM </text>
<text text-anchor="middle" x="615" y="-366.8" font-family="Times,serif" font-size="14.00">Target</text>
</g>
<!-- PU_DV&#45;&gt;PU_NTM -->
<g id="edge58" class="edge">
<title>PU_DV&#45;&gt;PU_NTM</title>
<path fill="none" stroke="black" d="M495.26,-338.88C516.56,-345.9 540.91,-353.92 561.99,-360.86"/>
<polygon fill="black" stroke="black" points="561.14,-364.27 571.73,-364.07 563.33,-357.62 561.14,-364.27"/>
</g>
<!-- PU_DNC -->
<g id="node21" class="node">
<title>PU_DNC</title>
<polygon fill="none" stroke="black" points="572,-302 572,-340 658,-340 658,-302 572,-302"/>
<text text-anchor="middle" x="615" y="-324.8" font-family="Times,serif" font-size="14.00">PU_DNC </text>
<text text-anchor="middle" x="615" y="-309.8" font-family="Times,serif" font-size="14.00">Target</text>
</g>
<!-- PU_DV&#45;&gt;PU_DNC -->
<g id="edge59" class="edge">
<title>PU_DV&#45;&gt;PU_DNC</title>
<path fill="none" stroke="black" d="M495.26,-321C516.47,-321 540.69,-321 561.7,-321"/>
<polygon fill="black" stroke="black" points="561.73,-324.5 571.73,-321 561.73,-317.5 561.73,-324.5"/>
</g>
<!-- SoC_FinTech -->
<g id="node22" class="node">
<title>SoC_FinTech</title>
<polygon fill="none" stroke="black" points="722,-245 722,-283 835,-283 835,-245 722,-245"/>
<text text-anchor="middle" x="778.5" y="-267.8" font-family="Times,serif" font-size="14.00">SoC_FinTech </text>
<text text-anchor="middle" x="778.5" y="-252.8" font-family="Times,serif" font-size="14.00">Target</text>
</g>
<!-- SoC_NTM&#45;&gt;SoC_FinTech -->
<g id="edge64" class="edge">
<title>SoC_NTM&#45;&gt;SoC_FinTech</title>
<path fill="none" stroke="black" d="M661.42,-264C676.95,-264 694.65,-264 711.47,-264"/>
<polygon fill="black" stroke="black" points="711.8,-267.5 721.8,-264 711.8,-260.5 711.8,-267.5"/>
</g>
<!-- PU_FinTech -->
<g id="node23" class="node">
<title>PU_FinTech</title>
<polygon fill="none" stroke="black" points="726,-302 726,-340 831,-340 831,-302 726,-302"/>
<text text-anchor="middle" x="778.5" y="-324.8" font-family="Times,serif" font-size="14.00">PU_FinTech </text>
<text text-anchor="middle" x="778.5" y="-309.8" font-family="Times,serif" font-size="14.00">Target</text>
</g>
<!-- PU_NTM&#45;&gt;PU_FinTech -->
<g id="edge62" class="edge">
<title>PU_NTM&#45;&gt;PU_FinTech</title>
<path fill="none" stroke="black" d="M658.01,-363.17C675.76,-356.91 696.78,-349.49 716.21,-342.63"/>
<polygon fill="black" stroke="black" points="717.63,-345.84 725.89,-339.21 715.3,-339.24 717.63,-345.84"/>
</g>
<!-- SoC_DNC&#45;&gt;SoC_FinTech -->
<g id="edge65" class="edge">
<title>SoC_DNC&#45;&gt;SoC_FinTech</title>
<path fill="none" stroke="black" d="M660.13,-222.58C676.68,-228.42 695.83,-235.18 713.8,-241.52"/>
<polygon fill="black" stroke="black" points="713.04,-244.96 723.64,-244.99 715.37,-238.36 713.04,-244.96"/>
</g>
<!-- PU_DNC&#45;&gt;PU_FinTech -->
<g id="edge63" class="edge">
<title>PU_DNC&#45;&gt;PU_FinTech</title>
<path fill="none" stroke="black" d="M658.01,-321C675.6,-321 696.4,-321 715.67,-321"/>
<polygon fill="black" stroke="black" points="715.89,-324.5 725.89,-321 715.89,-317.5 715.89,-324.5"/>
</g>
</g>
</svg>
