<?xml version="1.0" encoding="UTF-8" standalone="no"?>
<!DOCTYPE svg PUBLIC "-//W3C//DTD SVG 1.1//EN"
 "http://www.w3.org/Graphics/SVG/1.1/DTD/svg11.dtd">
<!-- Generated by graphviz version 2.43.0 (0)
 -->
<!-- Title: Project Pages: 1 -->
<svg width="474pt" height="100pt"
 viewBox="0.00 0.00 474.00 100.00" xmlns="http://www.w3.org/2000/svg" xmlns:xlink="http://www.w3.org/1999/xlink">
<g id="graph0" class="graph" transform="scale(1 1) rotate(0) translate(4 96)">
<title>Project</title>
<polygon fill="white" stroke="transparent" points="-4,4 -4,-96 470,-96 470,4 -4,4"/>
<!-- BFM -->
<g id="node1" class="node">
<title>BFM</title>
<polygon fill="none" stroke="black" points="0,-27.5 0,-63.5 54,-63.5 54,-27.5 0,-27.5"/>
<text text-anchor="middle" x="27" y="-41.8" font-family="Times,serif" font-size="14.00">BFM</text>
</g>
<!-- Peripheral -->
<g id="node2" class="node">
<title>Peripheral</title>
<polygon fill="none" stroke="black" points="180,-55.5 180,-91.5 271,-91.5 271,-55.5 180,-55.5"/>
<text text-anchor="middle" x="225.5" y="-69.8" font-family="Times,serif" font-size="14.00">Peripheral</text>
</g>
<!-- BFM&#45;&gt;Peripheral -->
<g id="edge1" class="edge">
<title>BFM&#45;&gt;Peripheral</title>
<path fill="none" stroke="black" d="M54.18,-59.5C54.18,-59.5 169.63,-59.5 169.63,-59.5"/>
<polygon fill="black" stroke="black" points="169.63,-63 179.63,-59.5 169.63,-56 169.63,-63"/>
</g>
<!-- Core -->
<g id="node3" class="node">
<title>Core</title>
<polygon fill="none" stroke="black" points="90,-4.5 90,-40.5 144,-40.5 144,-4.5 90,-4.5"/>
<text text-anchor="middle" x="117" y="-18.8" font-family="Times,serif" font-size="14.00">Core</text>
</g>
<!-- BFM&#45;&gt;Core -->
<g id="edge2" class="edge">
<title>BFM&#45;&gt;Core</title>
<path fill="none" stroke="black" d="M54,-34C54,-34 79.71,-34 79.71,-34"/>
<polygon fill="black" stroke="black" points="79.71,-37.5 89.71,-34 79.7,-30.5 79.71,-37.5"/>
</g>
<!-- SoC -->
<g id="node5" class="node">
<title>SoC</title>
<polygon fill="none" stroke="black" points="307,-27.5 307,-63.5 361,-63.5 361,-27.5 307,-27.5"/>
<text text-anchor="middle" x="334" y="-41.8" font-family="Times,serif" font-size="14.00">SoC</text>
</g>
<!-- Peripheral&#45;&gt;SoC -->
<g id="edge4" class="edge">
<title>Peripheral&#45;&gt;SoC</title>
<path fill="none" stroke="black" d="M271.2,-59.5C271.2,-59.5 296.92,-59.5 296.92,-59.5"/>
<polygon fill="black" stroke="black" points="296.92,-63 306.92,-59.5 296.92,-56 296.92,-63"/>
</g>
<!-- PU -->
<g id="node4" class="node">
<title>PU</title>
<polygon fill="none" stroke="black" points="198.5,-0.5 198.5,-36.5 252.5,-36.5 252.5,-0.5 198.5,-0.5"/>
<text text-anchor="middle" x="225.5" y="-14.8" font-family="Times,serif" font-size="14.00">PU</text>
</g>
<!-- Core&#45;&gt;PU -->
<g id="edge3" class="edge">
<title>Core&#45;&gt;PU</title>
<path fill="none" stroke="black" d="M144.1,-20.5C144.1,-20.5 188.37,-20.5 188.37,-20.5"/>
<polygon fill="black" stroke="black" points="188.37,-24 198.37,-20.5 188.37,-17 188.37,-24"/>
</g>
<!-- PU&#45;&gt;SoC -->
<g id="edge5" class="edge">
<title>PU&#45;&gt;SoC</title>
<path fill="none" stroke="black" d="M252.6,-32C252.6,-32 296.87,-32 296.87,-32"/>
<polygon fill="black" stroke="black" points="296.87,-35.5 306.87,-32 296.87,-28.5 296.87,-35.5"/>
</g>
<!-- MPSoC -->
<g id="node6" class="node">
<title>MPSoC</title>
<polygon fill="none" stroke="black" points="397,-27.5 397,-63.5 466,-63.5 466,-27.5 397,-27.5"/>
<text text-anchor="middle" x="431.5" y="-41.8" font-family="Times,serif" font-size="14.00">MPSoC</text>
</g>
<!-- SoC&#45;&gt;MPSoC -->
<g id="edge6" class="edge">
<title>SoC&#45;&gt;MPSoC</title>
<path fill="none" stroke="black" d="M361.16,-45.5C361.16,-45.5 386.81,-45.5 386.81,-45.5"/>
<polygon fill="black" stroke="black" points="386.81,-49 396.81,-45.5 386.81,-42 386.81,-49"/>
</g>
</g>
</svg>
