<?xml version="1.0" encoding="UTF-8" standalone="no"?>
<!DOCTYPE svg PUBLIC "-//W3C//DTD SVG 1.1//EN"
 "http://www.w3.org/Graphics/SVG/1.1/DTD/svg11.dtd">
<!-- Generated by graphviz version 2.43.0 (0)
 -->
<!-- Title: Project Pages: 1 -->
<svg width="2588pt" height="182pt"
 viewBox="0.00 0.00 2588.00 182.00" xmlns="http://www.w3.org/2000/svg" xmlns:xlink="http://www.w3.org/1999/xlink">
<g id="graph0" class="graph" transform="scale(1 1) rotate(0) translate(4 178)">
<title>Project</title>
<polygon fill="white" stroke="transparent" points="-4,4 -4,-178 2584,-178 2584,4 -4,4"/>
<g id="clust1" class="cluster">
<title>cluster Workflow</title>
<polygon fill="none" stroke="black" points="8,-8 8,-166 2572,-166 2572,-8 8,-8"/>
<text text-anchor="middle" x="1290" y="-150.8" font-family="Times,serif" font-size="14.00">Back&#45;End Workflow</text>
</g>
<g id="clust2" class="cluster">
<title>cluster Hardware</title>
<polygon fill="none" stroke="black" points="16,-16 16,-135 2564,-135 2564,-16 16,-16"/>
<text text-anchor="middle" x="1290" y="-119.8" font-family="Times,serif" font-size="14.00">Hardware</text>
</g>
<!-- Planning_SLH -->
<g id="node1" class="node">
<title>Planning_SLH</title>
<polygon fill="none" stroke="black" points="24,-64 24,-102 298,-102 298,-64 24,-64"/>
<text text-anchor="middle" x="161" y="-86.8" font-family="Times,serif" font-size="14.00">Planning Switch Level of Hardware </text>
<text text-anchor="middle" x="161" y="-71.8" font-family="Times,serif" font-size="14.00">(magic)</text>
</g>
<!-- Placing_SLH -->
<g id="node2" class="node">
<title>Placing_SLH</title>
<polygon fill="none" stroke="black" points="334,-25 334,-63 597,-63 597,-25 334,-25"/>
<text text-anchor="middle" x="465.5" y="-47.8" font-family="Times,serif" font-size="14.00">Placing Switch Level of Hardware </text>
<text text-anchor="middle" x="465.5" y="-32.8" font-family="Times,serif" font-size="14.00">(graywolf)</text>
</g>
<!-- Planning_SLH&#45;&gt;Placing_SLH -->
<g id="edge1" class="edge">
<title>Planning_SLH&#45;&gt;Placing_SLH</title>
<path fill="none" stroke="black" d="M298.33,-70.17C379.29,-70.17 466,-70.17 466,-70.17 466,-70.17 466,-69.45 466,-69.45"/>
<polygon fill="black" stroke="black" points="469.5,-73.02 466,-63.02 462.5,-73.02 469.5,-73.02"/>
</g>
<!-- Timing_SLH -->
<g id="node3" class="node">
<title>Timing_SLH</title>
<polygon fill="none" stroke="black" points="633,-25 633,-63 893,-63 893,-25 633,-25"/>
<text text-anchor="middle" x="763" y="-47.8" font-family="Times,serif" font-size="14.00">Timing Switch Level of Hardware </text>
<text text-anchor="middle" x="763" y="-32.8" font-family="Times,serif" font-size="14.00">(sta)</text>
</g>
<!-- Placing_SLH&#45;&gt;Timing_SLH -->
<g id="edge2" class="edge">
<title>Placing_SLH&#45;&gt;Timing_SLH</title>
<path fill="none" stroke="black" d="M597.29,-44C597.29,-44 622.85,-44 622.85,-44"/>
<polygon fill="black" stroke="black" points="622.85,-47.5 632.85,-44 622.85,-40.5 622.85,-47.5"/>
</g>
<!-- Routing_SLH -->
<g id="node4" class="node">
<title>Routing_SLH</title>
<polygon fill="none" stroke="black" points="929,-25 929,-63 1196,-63 1196,-25 929,-25"/>
<text text-anchor="middle" x="1062.5" y="-47.8" font-family="Times,serif" font-size="14.00">Routing Switch Level of Hardware </text>
<text text-anchor="middle" x="1062.5" y="-32.8" font-family="Times,serif" font-size="14.00">(qrouter)</text>
</g>
<!-- Timing_SLH&#45;&gt;Routing_SLH -->
<g id="edge3" class="edge">
<title>Timing_SLH&#45;&gt;Routing_SLH</title>
<path fill="none" stroke="black" d="M893.06,-44C893.06,-44 918.78,-44 918.78,-44"/>
<polygon fill="black" stroke="black" points="918.78,-47.5 928.78,-44 918.78,-40.5 918.78,-47.5"/>
</g>
<!-- Simulating_WLH -->
<g id="node5" class="node">
<title>Simulating_WLH</title>
<polygon fill="none" stroke="black" points="1232,-25 1232,-63 1521,-63 1521,-25 1232,-25"/>
<text text-anchor="middle" x="1376.5" y="-47.8" font-family="Times,serif" font-size="14.00">Simulating Switch Level of Hardware </text>
<text text-anchor="middle" x="1376.5" y="-32.8" font-family="Times,serif" font-size="14.00">(irsim)</text>
</g>
<!-- Routing_SLH&#45;&gt;Simulating_WLH -->
<g id="edge4" class="edge">
<title>Routing_SLH&#45;&gt;Simulating_WLH</title>
<path fill="none" stroke="black" d="M1196.12,-44C1196.12,-44 1221.94,-44 1221.94,-44"/>
<polygon fill="black" stroke="black" points="1221.94,-47.5 1231.94,-44 1221.94,-40.5 1221.94,-47.5"/>
</g>
<!-- Verifying_LVS -->
<g id="node6" class="node">
<title>Verifying_LVS</title>
<polygon fill="none" stroke="black" points="1557,-45 1557,-83 1864,-83 1864,-45 1557,-45"/>
<text text-anchor="middle" x="1710.5" y="-67.8" font-family="Times,serif" font-size="14.00">Verifying Switch Level of Hardware LVS </text>
<text text-anchor="middle" x="1710.5" y="-52.8" font-family="Times,serif" font-size="14.00">(netgen)</text>
</g>
<!-- Simulating_WLH&#45;&gt;Verifying_LVS -->
<g id="edge5" class="edge">
<title>Simulating_WLH&#45;&gt;Verifying_LVS</title>
<path fill="none" stroke="black" d="M1521.05,-54C1521.05,-54 1546.97,-54 1546.97,-54"/>
<polygon fill="black" stroke="black" points="1546.97,-57.5 1556.97,-54 1546.97,-50.5 1546.97,-57.5"/>
</g>
<!-- Verifying_LVS&#45;&gt;Planning_SLH -->
<g id="edge8" class="edge">
<title>Verifying_LVS&#45;&gt;Planning_SLH</title>
<path fill="none" stroke="black" d="M1556.98,-76.83C1556.98,-76.83 308.25,-76.83 308.25,-76.83"/>
<polygon fill="black" stroke="black" points="308.25,-73.33 298.25,-76.83 308.25,-80.33 308.25,-73.33"/>
</g>
<!-- Checking_DRC -->
<g id="node7" class="node">
<title>Checking_DRC</title>
<polygon fill="none" stroke="black" points="1900,-55 1900,-93 2214,-93 2214,-55 1900,-55"/>
<text text-anchor="middle" x="2057" y="-77.8" font-family="Times,serif" font-size="14.00">Checking Switch Level of Hardware DRC </text>
<text text-anchor="middle" x="2057" y="-62.8" font-family="Times,serif" font-size="14.00">(magic)</text>
</g>
<!-- Verifying_LVS&#45;&gt;Checking_DRC -->
<g id="edge6" class="edge">
<title>Verifying_LVS&#45;&gt;Checking_DRC</title>
<path fill="none" stroke="black" d="M1864.25,-69C1864.25,-69 1889.93,-69 1889.93,-69"/>
<polygon fill="black" stroke="black" points="1889.93,-72.5 1899.93,-69 1889.93,-65.5 1889.93,-72.5"/>
</g>
<!-- Checking_DRC&#45;&gt;Planning_SLH -->
<g id="edge9" class="edge">
<title>Checking_DRC&#45;&gt;Planning_SLH</title>
<path fill="none" stroke="black" d="M1899.82,-88.5C1899.82,-88.5 308.13,-88.5 308.13,-88.5"/>
<polygon fill="black" stroke="black" points="308.13,-85 298.13,-88.5 308.13,-92 308.13,-85"/>
</g>
<!-- Printing_GDS -->
<g id="node8" class="node">
<title>Printing_GDS</title>
<polygon fill="none" stroke="black" points="2250,-55 2250,-93 2556,-93 2556,-55 2250,-55"/>
<text text-anchor="middle" x="2403" y="-77.8" font-family="Times,serif" font-size="14.00">Printing Switch Level of Hardware GDS </text>
<text text-anchor="middle" x="2403" y="-62.8" font-family="Times,serif" font-size="14.00">(magic)</text>
</g>
<!-- Checking_DRC&#45;&gt;Printing_GDS -->
<g id="edge7" class="edge">
<title>Checking_DRC&#45;&gt;Printing_GDS</title>
<path fill="none" stroke="black" d="M2214.05,-74C2214.05,-74 2239.77,-74 2239.77,-74"/>
<polygon fill="black" stroke="black" points="2239.77,-77.5 2249.77,-74 2239.77,-70.5 2239.77,-77.5"/>
</g>
</g>
</svg>
