<?xml version="1.0" encoding="UTF-8" standalone="no"?>
<!DOCTYPE svg PUBLIC "-//W3C//DTD SVG 1.1//EN"
 "http://www.w3.org/Graphics/SVG/1.1/DTD/svg11.dtd">
<!-- Generated by graphviz version 2.42.4 (0)
 -->
<!-- Title: Project Pages: 1 -->
<svg width="384pt" height="666pt"
 viewBox="0.00 0.00 384.00 666.00" xmlns="http://www.w3.org/2000/svg" xmlns:xlink="http://www.w3.org/1999/xlink">
<g id="graph0" class="graph" transform="scale(1 1) rotate(0) translate(4 662)">
<title>Project</title>
<polygon fill="white" stroke="transparent" points="-4,4 -4,-662 380,-662 380,4 -4,4"/>
<g id="clust1" class="cluster">
<title>cluster WorkFlow</title>
<polygon fill="none" stroke="black" points="8,-8 8,-650 368,-650 368,-8 8,-8"/>
<text text-anchor="middle" x="188" y="-634.8" font-family="Times,serif" font-size="14.00">Back&#45;End WorkFlow</text>
</g>
<g id="clust2" class="cluster">
<title>cluster Hardware</title>
<polygon fill="none" stroke="black" points="16,-16 16,-619 360,-619 360,-16 16,-16"/>
<text text-anchor="middle" x="188" y="-603.8" font-family="Times,serif" font-size="14.00">Hardware</text>
</g>
<!-- Planning_SLH -->
<g id="node1" class="node">
<title>Planning_SLH</title>
<polygon fill="none" stroke="black" points="78,-549.5 78,-587.5 352,-587.5 352,-549.5 78,-549.5"/>
<text text-anchor="middle" x="215" y="-572.3" font-family="Times,serif" font-size="14.00">Planning Switch Level of Hardware </text>
<text text-anchor="middle" x="215" y="-557.3" font-family="Times,serif" font-size="14.00">(magic)</text>
</g>
<!-- Placing_SLH -->
<g id="node2" class="node">
<title>Placing_SLH</title>
<polygon fill="none" stroke="black" points="42.5,-474.5 42.5,-512.5 305.5,-512.5 305.5,-474.5 42.5,-474.5"/>
<text text-anchor="middle" x="174" y="-497.3" font-family="Times,serif" font-size="14.00">Placing Switch Level of Hardware </text>
<text text-anchor="middle" x="174" y="-482.3" font-family="Times,serif" font-size="14.00">(graywolf)</text>
</g>
<!-- Planning_SLH&#45;&gt;Placing_SLH -->
<g id="edge1" class="edge">
<title>Planning_SLH&#45;&gt;Placing_SLH</title>
<path fill="none" stroke="black" d="M191.75,-549.19C191.75,-549.19 191.75,-522.75 191.75,-522.75"/>
<polygon fill="black" stroke="black" points="195.25,-522.75 191.75,-512.75 188.25,-522.75 195.25,-522.75"/>
</g>
<!-- Timing_SLH -->
<g id="node3" class="node">
<title>Timing_SLH</title>
<polygon fill="none" stroke="black" points="42,-399.5 42,-437.5 302,-437.5 302,-399.5 42,-399.5"/>
<text text-anchor="middle" x="172" y="-422.3" font-family="Times,serif" font-size="14.00">Timing Switch Level of Hardware </text>
<text text-anchor="middle" x="172" y="-407.3" font-family="Times,serif" font-size="14.00">(sta)</text>
</g>
<!-- Placing_SLH&#45;&gt;Timing_SLH -->
<g id="edge2" class="edge">
<title>Placing_SLH&#45;&gt;Timing_SLH</title>
<path fill="none" stroke="black" d="M172.25,-474.19C172.25,-474.19 172.25,-447.75 172.25,-447.75"/>
<polygon fill="black" stroke="black" points="175.75,-447.75 172.25,-437.75 168.75,-447.75 175.75,-447.75"/>
</g>
<!-- Routing_SLH -->
<g id="node4" class="node">
<title>Routing_SLH</title>
<polygon fill="none" stroke="black" points="35.5,-324.5 35.5,-362.5 302.5,-362.5 302.5,-324.5 35.5,-324.5"/>
<text text-anchor="middle" x="169" y="-347.3" font-family="Times,serif" font-size="14.00">Routing Switch Level of Hardware </text>
<text text-anchor="middle" x="169" y="-332.3" font-family="Times,serif" font-size="14.00">(qrouter)</text>
</g>
<!-- Timing_SLH&#45;&gt;Routing_SLH -->
<g id="edge3" class="edge">
<title>Timing_SLH&#45;&gt;Routing_SLH</title>
<path fill="none" stroke="black" d="M172,-399.19C172,-399.19 172,-372.75 172,-372.75"/>
<polygon fill="black" stroke="black" points="175.5,-372.75 172,-362.75 168.5,-372.75 175.5,-372.75"/>
</g>
<!-- Simulating_WLH -->
<g id="node5" class="node">
<title>Simulating_WLH</title>
<polygon fill="none" stroke="black" points="23.5,-249.5 23.5,-287.5 312.5,-287.5 312.5,-249.5 23.5,-249.5"/>
<text text-anchor="middle" x="168" y="-272.3" font-family="Times,serif" font-size="14.00">Simulating Switch Level of Hardware </text>
<text text-anchor="middle" x="168" y="-257.3" font-family="Times,serif" font-size="14.00">(irsim)</text>
</g>
<!-- Routing_SLH&#45;&gt;Simulating_WLH -->
<g id="edge4" class="edge">
<title>Routing_SLH&#45;&gt;Simulating_WLH</title>
<path fill="none" stroke="black" d="M169,-324.19C169,-324.19 169,-297.75 169,-297.75"/>
<polygon fill="black" stroke="black" points="172.5,-297.75 169,-287.75 165.5,-297.75 172.5,-297.75"/>
</g>
<!-- Verifying_LVS -->
<g id="node6" class="node">
<title>Verifying_LVS</title>
<polygon fill="none" stroke="black" points="25.5,-174.5 25.5,-212.5 332.5,-212.5 332.5,-174.5 25.5,-174.5"/>
<text text-anchor="middle" x="179" y="-197.3" font-family="Times,serif" font-size="14.00">Verifying Switch Level of Hardware LVS </text>
<text text-anchor="middle" x="179" y="-182.3" font-family="Times,serif" font-size="14.00">(netgen)</text>
</g>
<!-- Simulating_WLH&#45;&gt;Verifying_LVS -->
<g id="edge5" class="edge">
<title>Simulating_WLH&#45;&gt;Verifying_LVS</title>
<path fill="none" stroke="black" d="M169,-249.19C169,-249.19 169,-222.75 169,-222.75"/>
<polygon fill="black" stroke="black" points="172.5,-222.75 169,-212.75 165.5,-222.75 172.5,-222.75"/>
</g>
<!-- Verifying_LVS&#45;&gt;Planning_SLH -->
<g id="edge8" class="edge">
<title>Verifying_LVS&#45;&gt;Planning_SLH</title>
<path fill="none" stroke="black" d="M322.5,-212.61C322.5,-212.61 322.5,-539.43 322.5,-539.43"/>
<polygon fill="black" stroke="black" points="319,-539.43 322.5,-549.43 326,-539.43 319,-539.43"/>
</g>
<!-- Checking_DRC -->
<g id="node7" class="node">
<title>Checking_DRC</title>
<polygon fill="none" stroke="black" points="31,-99.5 31,-137.5 345,-137.5 345,-99.5 31,-99.5"/>
<text text-anchor="middle" x="188" y="-122.3" font-family="Times,serif" font-size="14.00">Checking Switch Level of Hardware DRC </text>
<text text-anchor="middle" x="188" y="-107.3" font-family="Times,serif" font-size="14.00">(magic)</text>
</g>
<!-- Verifying_LVS&#45;&gt;Checking_DRC -->
<g id="edge6" class="edge">
<title>Verifying_LVS&#45;&gt;Checking_DRC</title>
<path fill="none" stroke="black" d="M181.75,-174.19C181.75,-174.19 181.75,-147.75 181.75,-147.75"/>
<polygon fill="black" stroke="black" points="185.25,-147.75 181.75,-137.75 178.25,-147.75 185.25,-147.75"/>
</g>
<!-- Checking_DRC&#45;&gt;Planning_SLH -->
<g id="edge9" class="edge">
<title>Checking_DRC&#45;&gt;Planning_SLH</title>
<path fill="none" stroke="black" d="M338.75,-137.55C338.75,-137.55 338.75,-539.45 338.75,-539.45"/>
<polygon fill="black" stroke="black" points="335.25,-539.45 338.75,-549.45 342.25,-539.45 335.25,-539.45"/>
</g>
<!-- Printing_GDS -->
<g id="node8" class="node">
<title>Printing_GDS</title>
<polygon fill="none" stroke="black" points="35,-24.5 35,-62.5 341,-62.5 341,-24.5 35,-24.5"/>
<text text-anchor="middle" x="188" y="-47.3" font-family="Times,serif" font-size="14.00">Printing Switch Level of Hardware GDS </text>
<text text-anchor="middle" x="188" y="-32.3" font-family="Times,serif" font-size="14.00">(magic)</text>
</g>
<!-- Checking_DRC&#45;&gt;Printing_GDS -->
<g id="edge7" class="edge">
<title>Checking_DRC&#45;&gt;Printing_GDS</title>
<path fill="none" stroke="black" d="M188,-99.19C188,-99.19 188,-72.75 188,-72.75"/>
<polygon fill="black" stroke="black" points="191.5,-72.75 188,-62.75 184.5,-72.75 191.5,-72.75"/>
</g>
</g>
</svg>
