<?xml version="1.0" encoding="UTF-8" standalone="no"?>
<!DOCTYPE svg PUBLIC "-//W3C//DTD SVG 1.1//EN"
 "http://www.w3.org/Graphics/SVG/1.1/DTD/svg11.dtd">
<!-- Generated by graphviz version 2.43.0 (0)
 -->
<!-- Title: Project Pages: 1 -->
<svg width="2254pt" height="309pt"
 viewBox="0.00 0.00 2254.00 309.00" xmlns="http://www.w3.org/2000/svg" xmlns:xlink="http://www.w3.org/1999/xlink">
<g id="graph0" class="graph" transform="scale(1 1) rotate(0) translate(4 305)">
<title>Project</title>
<polygon fill="white" stroke="transparent" points="-4,4 -4,-305 2250,-305 2250,4 -4,4"/>
<g id="clust1" class="cluster">
<title>cluster Workflow</title>
<polygon fill="none" stroke="black" points="8,-8 8,-293 2238,-293 2238,-8 8,-8"/>
<text text-anchor="middle" x="1123" y="-277.8" font-family="Times,serif" font-size="14.00">Workflow</text>
</g>
<g id="clust2" class="cluster">
<title>cluster Hardware</title>
<polygon fill="none" stroke="black" points="16,-143 16,-262 2230,-262 2230,-143 16,-143"/>
<text text-anchor="middle" x="1123" y="-246.8" font-family="Times,serif" font-size="14.00">Hardware</text>
</g>
<g id="clust3" class="cluster">
<title>cluster Software</title>
<polygon fill="none" stroke="black" points="16,-16 16,-135 2230,-135 2230,-16 16,-16"/>
<text text-anchor="middle" x="1123" y="-119.8" font-family="Times,serif" font-size="14.00">Software</text>
</g>
<!-- Requirements_HW -->
<g id="node1" class="node">
<title>Requirements_HW</title>
<polygon fill="none" stroke="black" points="24,-191 24,-229 258,-229 258,-191 24,-191"/>
<text text-anchor="middle" x="141" y="-213.8" font-family="Times,serif" font-size="14.00">Requirements </text>
<text text-anchor="middle" x="141" y="-198.8" font-family="Times,serif" font-size="14.00">(Matlab/Python/PSL/UML) [Vi]</text>
</g>
<!-- Model_HW -->
<g id="node2" class="node">
<title>Model_HW</title>
<polygon fill="none" stroke="black" points="294,-152 294,-190 500,-190 500,-152 294,-152"/>
<text text-anchor="middle" x="397" y="-174.8" font-family="Times,serif" font-size="14.00">Hardware Model </text>
<text text-anchor="middle" x="397" y="-159.8" font-family="Times,serif" font-size="14.00">(VHDL/SystemVerilog) [Vi]</text>
</g>
<!-- Requirements_HW&#45;&gt;Model_HW -->
<g id="edge1" class="edge">
<title>Requirements_HW&#45;&gt;Model_HW</title>
<path fill="none" stroke="black" d="M258.14,-197.17C325.54,-197.17 397,-197.17 397,-197.17 397,-197.17 397,-196.45 397,-196.45"/>
<polygon fill="black" stroke="black" points="400.5,-200.02 397,-190.02 393.5,-200.02 400.5,-200.02"/>
</g>
<!-- Validation_HW -->
<g id="node3" class="node">
<title>Validation_HW</title>
<polygon fill="none" stroke="black" points="536,-152 536,-190 884,-190 884,-152 536,-152"/>
<text text-anchor="middle" x="710" y="-174.8" font-family="Times,serif" font-size="14.00">Hardware Validation </text>
<text text-anchor="middle" x="710" y="-159.8" font-family="Times,serif" font-size="14.00">(VHDL/SystemVerilog) [GHDL / Icarus Verilog]</text>
</g>
<!-- Model_HW&#45;&gt;Validation_HW -->
<g id="edge2" class="edge">
<title>Model_HW&#45;&gt;Validation_HW</title>
<path fill="none" stroke="black" d="M500.36,-171C500.36,-171 525.82,-171 525.82,-171"/>
<polygon fill="black" stroke="black" points="525.82,-174.5 535.82,-171 525.82,-167.5 525.82,-174.5"/>
</g>
<!-- Design_HW -->
<g id="node4" class="node">
<title>Design_HW</title>
<polygon fill="none" stroke="black" points="927,-152 927,-190 1080,-190 1080,-152 927,-152"/>
<text text-anchor="middle" x="1003.5" y="-174.8" font-family="Times,serif" font-size="14.00">Hardware Design </text>
<text text-anchor="middle" x="1003.5" y="-159.8" font-family="Times,serif" font-size="14.00">(VHDL/Verilog) [Vi]</text>
</g>
<!-- Validation_HW&#45;&gt;Design_HW -->
<g id="edge3" class="edge">
<title>Validation_HW&#45;&gt;Design_HW</title>
<path fill="none" stroke="black" d="M884.12,-171C884.12,-171 916.77,-171 916.77,-171"/>
<polygon fill="black" stroke="black" points="916.77,-174.5 926.77,-171 916.77,-167.5 916.77,-174.5"/>
</g>
<!-- Verification_HW -->
<g id="node5" class="node">
<title>Verification_HW</title>
<polygon fill="none" stroke="black" points="1123,-152 1123,-190 1471,-190 1471,-152 1123,-152"/>
<text text-anchor="middle" x="1297" y="-174.8" font-family="Times,serif" font-size="14.00">Hardware Verification </text>
<text text-anchor="middle" x="1297" y="-159.8" font-family="Times,serif" font-size="14.00">(VHDL/SystemVerilog) [GHDL / Icarus Verilog]</text>
</g>
<!-- Design_HW&#45;&gt;Verification_HW -->
<g id="edge4" class="edge">
<title>Design_HW&#45;&gt;Verification_HW</title>
<path fill="none" stroke="black" d="M1080.23,-164.5C1080.23,-164.5 1112.91,-164.5 1112.91,-164.5"/>
<polygon fill="black" stroke="black" points="1112.91,-168 1122.91,-164.5 1112.91,-161 1112.91,-168"/>
</g>
<!-- Verification_HW&#45;&gt;Design_HW -->
<g id="edge5" class="edge">
<title>Verification_HW&#45;&gt;Design_HW</title>
<path fill="none" stroke="black" d="M1122.88,-177.5C1122.88,-177.5 1090.23,-177.5 1090.23,-177.5"/>
<polygon fill="black" stroke="black" points="1090.23,-174 1080.23,-177.5 1090.23,-181 1090.23,-174"/>
</g>
<!-- Configuration_HW -->
<g id="node6" class="node">
<title>Configuration_HW</title>
<polygon fill="none" stroke="black" points="1507,-152 1507,-190 1674,-190 1674,-152 1507,-152"/>
<text text-anchor="middle" x="1590.5" y="-174.8" font-family="Times,serif" font-size="14.00">Configuration </text>
<text text-anchor="middle" x="1590.5" y="-159.8" font-family="Times,serif" font-size="14.00">(C/C++/Go/Rust) [Vi]</text>
</g>
<!-- Verification_HW&#45;&gt;Configuration_HW -->
<g id="edge6" class="edge">
<title>Verification_HW&#45;&gt;Configuration_HW</title>
<path fill="none" stroke="black" d="M1471.12,-171C1471.12,-171 1496.98,-171 1496.98,-171"/>
<polygon fill="black" stroke="black" points="1496.98,-174.5 1506.98,-171 1496.98,-167.5 1496.98,-174.5"/>
</g>
<!-- Quality_HW -->
<g id="node7" class="node">
<title>Quality_HW</title>
<polygon fill="none" stroke="black" points="1710,-172 1710,-210 1861,-210 1861,-172 1710,-172"/>
<text text-anchor="middle" x="1785.5" y="-194.8" font-family="Times,serif" font-size="14.00">Quality Assurance </text>
<text text-anchor="middle" x="1785.5" y="-179.8" font-family="Times,serif" font-size="14.00">(Ada) [Vi]</text>
</g>
<!-- Configuration_HW&#45;&gt;Quality_HW -->
<g id="edge7" class="edge">
<title>Configuration_HW&#45;&gt;Quality_HW</title>
<path fill="none" stroke="black" d="M1674.05,-181C1674.05,-181 1699.83,-181 1699.83,-181"/>
<polygon fill="black" stroke="black" points="1699.83,-184.5 1709.83,-181 1699.83,-177.5 1699.83,-184.5"/>
</g>
<!-- Quality_HW&#45;&gt;Requirements_HW -->
<g id="edge9" class="edge">
<title>Quality_HW&#45;&gt;Requirements_HW</title>
<path fill="none" stroke="black" d="M1709.75,-203.83C1709.75,-203.83 268.09,-203.83 268.09,-203.83"/>
<polygon fill="black" stroke="black" points="268.09,-200.33 258.09,-203.83 268.09,-207.33 268.09,-200.33"/>
</g>
<!-- Certification_HW -->
<g id="node8" class="node">
<title>Certification_HW</title>
<polygon fill="none" stroke="black" points="1897,-172 1897,-210 2007,-210 2007,-172 1897,-172"/>
<text text-anchor="middle" x="1952" y="-194.8" font-family="Times,serif" font-size="14.00">Certification </text>
<text text-anchor="middle" x="1952" y="-179.8" font-family="Times,serif" font-size="14.00">(Java) [Vi]</text>
</g>
<!-- Quality_HW&#45;&gt;Certification_HW -->
<g id="edge8" class="edge">
<title>Quality_HW&#45;&gt;Certification_HW</title>
<path fill="none" stroke="black" d="M1861.44,-191C1861.44,-191 1886.58,-191 1886.58,-191"/>
<polygon fill="black" stroke="black" points="1886.58,-194.5 1896.58,-191 1886.58,-187.5 1886.58,-194.5"/>
</g>
<!-- LifeCycle_HW -->
<g id="node9" class="node">
<title>LifeCycle_HW</title>
<polygon fill="none" stroke="black" points="2043,-182 2043,-220 2222,-220 2222,-182 2043,-182"/>
<text text-anchor="middle" x="2132.5" y="-204.8" font-family="Times,serif" font-size="14.00">Design LifeCycle Data </text>
<text text-anchor="middle" x="2132.5" y="-189.8" font-family="Times,serif" font-size="14.00">(Chisel) [Vi]</text>
</g>
<!-- Certification_HW&#45;&gt;LifeCycle_HW -->
<g id="edge10" class="edge">
<title>Certification_HW&#45;&gt;LifeCycle_HW</title>
<path fill="none" stroke="black" d="M2007.14,-196C2007.14,-196 2032.77,-196 2032.77,-196"/>
<polygon fill="black" stroke="black" points="2032.77,-199.5 2042.77,-196 2032.77,-192.5 2032.77,-199.5"/>
</g>
<!-- LifeCycle_HW&#45;&gt;Requirements_HW -->
<g id="edge11" class="edge">
<title>LifeCycle_HW&#45;&gt;Requirements_HW</title>
<path fill="none" stroke="black" d="M2042.73,-215.5C2042.73,-215.5 268.21,-215.5 268.21,-215.5"/>
<polygon fill="black" stroke="black" points="268.21,-212 258.21,-215.5 268.21,-219 268.21,-212"/>
</g>
<!-- Requirements_SW -->
<g id="node10" class="node">
<title>Requirements_SW</title>
<polygon fill="none" stroke="black" points="24,-64 24,-102 258,-102 258,-64 24,-64"/>
<text text-anchor="middle" x="141" y="-86.8" font-family="Times,serif" font-size="14.00">Requirements </text>
<text text-anchor="middle" x="141" y="-71.8" font-family="Times,serif" font-size="14.00">(Matlab/Python/PSL/UML) [Vi]</text>
</g>
<!-- Model_SW -->
<g id="node11" class="node">
<title>Model_SW</title>
<polygon fill="none" stroke="black" points="313.5,-25 313.5,-63 480.5,-63 480.5,-25 313.5,-25"/>
<text text-anchor="middle" x="397" y="-47.8" font-family="Times,serif" font-size="14.00">Software Model </text>
<text text-anchor="middle" x="397" y="-32.8" font-family="Times,serif" font-size="14.00">(C/C++/Go/Rust) [Vi]</text>
</g>
<!-- Requirements_SW&#45;&gt;Model_SW -->
<g id="edge12" class="edge">
<title>Requirements_SW&#45;&gt;Model_SW</title>
<path fill="none" stroke="black" d="M258.14,-70.17C325.54,-70.17 397,-70.17 397,-70.17 397,-70.17 397,-69.45 397,-69.45"/>
<polygon fill="black" stroke="black" points="400.5,-73.02 397,-63.02 393.5,-73.02 400.5,-73.02"/>
</g>
<!-- Validation_SW -->
<g id="node12" class="node">
<title>Validation_SW</title>
<polygon fill="none" stroke="black" points="617.5,-25 617.5,-63 802.5,-63 802.5,-25 617.5,-25"/>
<text text-anchor="middle" x="710" y="-47.8" font-family="Times,serif" font-size="14.00">Software Validation </text>
<text text-anchor="middle" x="710" y="-32.8" font-family="Times,serif" font-size="14.00">(C/C++/Go/Rust) [GCC]</text>
</g>
<!-- Model_SW&#45;&gt;Validation_SW -->
<g id="edge13" class="edge">
<title>Model_SW&#45;&gt;Validation_SW</title>
<path fill="none" stroke="black" d="M480.88,-44C480.88,-44 607.35,-44 607.35,-44"/>
<polygon fill="black" stroke="black" points="607.35,-47.5 617.35,-44 607.35,-40.5 607.35,-47.5"/>
</g>
<!-- Design_SW -->
<g id="node13" class="node">
<title>Design_SW</title>
<polygon fill="none" stroke="black" points="920,-25 920,-63 1087,-63 1087,-25 920,-25"/>
<text text-anchor="middle" x="1003.5" y="-47.8" font-family="Times,serif" font-size="14.00">Software Design </text>
<text text-anchor="middle" x="1003.5" y="-32.8" font-family="Times,serif" font-size="14.00">(C/C++/Go/Rust) [Vi]</text>
</g>
<!-- Validation_SW&#45;&gt;Design_SW -->
<g id="edge14" class="edge">
<title>Validation_SW&#45;&gt;Design_SW</title>
<path fill="none" stroke="black" d="M802.87,-44C802.87,-44 909.69,-44 909.69,-44"/>
<polygon fill="black" stroke="black" points="909.69,-47.5 919.69,-44 909.69,-40.5 909.69,-47.5"/>
</g>
<!-- Verification_SW -->
<g id="node14" class="node">
<title>Verification_SW</title>
<polygon fill="none" stroke="black" points="1204.5,-25 1204.5,-63 1389.5,-63 1389.5,-25 1204.5,-25"/>
<text text-anchor="middle" x="1297" y="-47.8" font-family="Times,serif" font-size="14.00">Software Verification </text>
<text text-anchor="middle" x="1297" y="-32.8" font-family="Times,serif" font-size="14.00">(C/C++/Go/Rust) [GCC]</text>
</g>
<!-- Design_SW&#45;&gt;Verification_SW -->
<g id="edge15" class="edge">
<title>Design_SW&#45;&gt;Verification_SW</title>
<path fill="none" stroke="black" d="M1087.21,-37.5C1087.21,-37.5 1194.42,-37.5 1194.42,-37.5"/>
<polygon fill="black" stroke="black" points="1194.42,-41 1204.42,-37.5 1194.42,-34 1194.42,-41"/>
</g>
<!-- Verification_SW&#45;&gt;Design_SW -->
<g id="edge16" class="edge">
<title>Verification_SW&#45;&gt;Design_SW</title>
<path fill="none" stroke="black" d="M1204.13,-50.5C1204.13,-50.5 1097.31,-50.5 1097.31,-50.5"/>
<polygon fill="black" stroke="black" points="1097.31,-47 1087.31,-50.5 1097.31,-54 1097.31,-47"/>
</g>
<!-- Configuration_SW -->
<g id="node15" class="node">
<title>Configuration_SW</title>
<polygon fill="none" stroke="black" points="1507,-25 1507,-63 1674,-63 1674,-25 1507,-25"/>
<text text-anchor="middle" x="1590.5" y="-47.8" font-family="Times,serif" font-size="14.00">Configuration </text>
<text text-anchor="middle" x="1590.5" y="-32.8" font-family="Times,serif" font-size="14.00">(C/C++/Go/Rust) [Vi]</text>
</g>
<!-- Verification_SW&#45;&gt;Configuration_SW -->
<g id="edge17" class="edge">
<title>Verification_SW&#45;&gt;Configuration_SW</title>
<path fill="none" stroke="black" d="M1389.87,-44C1389.87,-44 1496.69,-44 1496.69,-44"/>
<polygon fill="black" stroke="black" points="1496.69,-47.5 1506.69,-44 1496.69,-40.5 1496.69,-47.5"/>
</g>
<!-- Quality_SW -->
<g id="node16" class="node">
<title>Quality_SW</title>
<polygon fill="none" stroke="black" points="1710,-45 1710,-83 1861,-83 1861,-45 1710,-45"/>
<text text-anchor="middle" x="1785.5" y="-67.8" font-family="Times,serif" font-size="14.00">Quality Assurance </text>
<text text-anchor="middle" x="1785.5" y="-52.8" font-family="Times,serif" font-size="14.00">(Ada) [Vi]</text>
</g>
<!-- Configuration_SW&#45;&gt;Quality_SW -->
<g id="edge18" class="edge">
<title>Configuration_SW&#45;&gt;Quality_SW</title>
<path fill="none" stroke="black" d="M1674.05,-54C1674.05,-54 1699.83,-54 1699.83,-54"/>
<polygon fill="black" stroke="black" points="1699.83,-57.5 1709.83,-54 1699.83,-50.5 1699.83,-57.5"/>
</g>
<!-- Quality_SW&#45;&gt;Requirements_SW -->
<g id="edge20" class="edge">
<title>Quality_SW&#45;&gt;Requirements_SW</title>
<path fill="none" stroke="black" d="M1709.75,-76.83C1709.75,-76.83 268.09,-76.83 268.09,-76.83"/>
<polygon fill="black" stroke="black" points="268.09,-73.33 258.09,-76.83 268.09,-80.33 268.09,-73.33"/>
</g>
<!-- Certification_SW -->
<g id="node17" class="node">
<title>Certification_SW</title>
<polygon fill="none" stroke="black" points="1897,-45 1897,-83 2007,-83 2007,-45 1897,-45"/>
<text text-anchor="middle" x="1952" y="-67.8" font-family="Times,serif" font-size="14.00">Certification </text>
<text text-anchor="middle" x="1952" y="-52.8" font-family="Times,serif" font-size="14.00">(Java) [Vi]</text>
</g>
<!-- Quality_SW&#45;&gt;Certification_SW -->
<g id="edge19" class="edge">
<title>Quality_SW&#45;&gt;Certification_SW</title>
<path fill="none" stroke="black" d="M1861.44,-64C1861.44,-64 1886.58,-64 1886.58,-64"/>
<polygon fill="black" stroke="black" points="1886.58,-67.5 1896.58,-64 1886.58,-60.5 1886.58,-67.5"/>
</g>
<!-- LifeCycle_SW -->
<g id="node18" class="node">
<title>LifeCycle_SW</title>
<polygon fill="none" stroke="black" points="2043,-55 2043,-93 2222,-93 2222,-55 2043,-55"/>
<text text-anchor="middle" x="2132.5" y="-77.8" font-family="Times,serif" font-size="14.00">Design LifeCycle Data </text>
<text text-anchor="middle" x="2132.5" y="-62.8" font-family="Times,serif" font-size="14.00">(Scala) [Vi]</text>
</g>
<!-- Certification_SW&#45;&gt;LifeCycle_SW -->
<g id="edge21" class="edge">
<title>Certification_SW&#45;&gt;LifeCycle_SW</title>
<path fill="none" stroke="black" d="M2007.14,-69C2007.14,-69 2032.77,-69 2032.77,-69"/>
<polygon fill="black" stroke="black" points="2032.77,-72.5 2042.77,-69 2032.77,-65.5 2032.77,-72.5"/>
</g>
<!-- LifeCycle_SW&#45;&gt;Requirements_SW -->
<g id="edge22" class="edge">
<title>LifeCycle_SW&#45;&gt;Requirements_SW</title>
<path fill="none" stroke="black" d="M2042.73,-88.5C2042.73,-88.5 268.21,-88.5 268.21,-88.5"/>
<polygon fill="black" stroke="black" points="268.21,-85 258.21,-88.5 268.21,-92 268.21,-85"/>
</g>
</g>
</svg>
