<?xml version="1.0" encoding="UTF-8" standalone="no"?>
<!DOCTYPE svg PUBLIC "-//W3C//DTD SVG 1.1//EN"
 "http://www.w3.org/Graphics/SVG/1.1/DTD/svg11.dtd">
<!-- Generated by graphviz version 2.43.0 (0)
 -->
<!-- Title: Project Pages: 1 -->
<svg width="974pt" height="269pt"
 viewBox="0.00 0.00 974.00 269.00" xmlns="http://www.w3.org/2000/svg" xmlns:xlink="http://www.w3.org/1999/xlink">
<g id="graph0" class="graph" transform="scale(1 1) rotate(0) translate(4 265)">
<title>Project</title>
<polygon fill="white" stroke="transparent" points="-4,4 -4,-265 970,-265 970,4 -4,4"/>
<g id="clust1" class="cluster">
<title>cluster Workflow</title>
<polygon fill="none" stroke="black" points="8,-8 8,-253 958,-253 958,-8 8,-8"/>
<text text-anchor="middle" x="483" y="-237.8" font-family="Times,serif" font-size="14.00">Workflow</text>
</g>
<g id="clust2" class="cluster">
<title>cluster Hardware</title>
<polygon fill="none" stroke="black" points="23,-123 23,-222 950,-222 950,-123 23,-123"/>
<text text-anchor="middle" x="486.5" y="-206.8" font-family="Times,serif" font-size="14.00">Hardware</text>
</g>
<g id="clust3" class="cluster">
<title>cluster Software</title>
<polygon fill="none" stroke="black" points="16,-16 16,-115 950,-115 950,-16 16,-16"/>
<text text-anchor="middle" x="483" y="-99.8" font-family="Times,serif" font-size="14.00">Software</text>
</g>
<!-- Creation_HW -->
<g id="node1" class="node">
<title>Creation_HW</title>
<polygon fill="none" stroke="black" points="31,-142 31,-180 184,-180 184,-142 31,-142"/>
<text text-anchor="middle" x="107.5" y="-164.8" font-family="Times,serif" font-size="14.00">Creation </text>
<text text-anchor="middle" x="107.5" y="-149.8" font-family="Times,serif" font-size="14.00">(VHDL/Verilog) [Vi]</text>
</g>
<!-- Production_HW -->
<g id="node2" class="node">
<title>Production_HW</title>
<polygon fill="none" stroke="black" points="234,-132 234,-170 387,-170 387,-132 234,-132"/>
<text text-anchor="middle" x="310.5" y="-154.8" font-family="Times,serif" font-size="14.00">Production </text>
<text text-anchor="middle" x="310.5" y="-139.8" font-family="Times,serif" font-size="14.00">(VHDL/Verilog) [Vi]</text>
</g>
<!-- Creation_HW&#45;&gt;Production_HW -->
<g id="edge1" class="edge">
<title>Creation_HW&#45;&gt;Production_HW</title>
<path fill="none" stroke="black" d="M184.25,-156C184.25,-156 223.98,-156 223.98,-156"/>
<polygon fill="black" stroke="black" points="223.98,-159.5 233.98,-156 223.98,-152.5 223.98,-159.5"/>
</g>
<!-- Quality_HW -->
<g id="node3" class="node">
<title>Quality_HW</title>
<polygon fill="none" stroke="black" points="430,-132 430,-170 581,-170 581,-132 430,-132"/>
<text text-anchor="middle" x="505.5" y="-154.8" font-family="Times,serif" font-size="14.00">Quality Assurance </text>
<text text-anchor="middle" x="505.5" y="-139.8" font-family="Times,serif" font-size="14.00">(Ada) [Vi]</text>
</g>
<!-- Production_HW&#45;&gt;Quality_HW -->
<g id="edge2" class="edge">
<title>Production_HW&#45;&gt;Quality_HW</title>
<path fill="none" stroke="black" d="M387.01,-144.5C387.01,-144.5 419.85,-144.5 419.85,-144.5"/>
<polygon fill="black" stroke="black" points="419.85,-148 429.85,-144.5 419.85,-141 419.85,-148"/>
</g>
<!-- Quality_HW&#45;&gt;Production_HW -->
<g id="edge6" class="edge">
<title>Quality_HW&#45;&gt;Production_HW</title>
<path fill="none" stroke="black" d="M429.83,-157.5C429.83,-157.5 397.09,-157.5 397.09,-157.5"/>
<polygon fill="black" stroke="black" points="397.09,-154 387.09,-157.5 397.09,-161 397.09,-154"/>
</g>
<!-- Certification_HW -->
<g id="node4" class="node">
<title>Certification_HW</title>
<polygon fill="none" stroke="black" points="617,-132 617,-170 727,-170 727,-132 617,-132"/>
<text text-anchor="middle" x="672" y="-154.8" font-family="Times,serif" font-size="14.00">Certification </text>
<text text-anchor="middle" x="672" y="-139.8" font-family="Times,serif" font-size="14.00">(Java) [Vi]</text>
</g>
<!-- Quality_HW&#45;&gt;Certification_HW -->
<g id="edge3" class="edge">
<title>Quality_HW&#45;&gt;Certification_HW</title>
<path fill="none" stroke="black" d="M581.44,-144.5C581.44,-144.5 606.58,-144.5 606.58,-144.5"/>
<polygon fill="black" stroke="black" points="606.58,-148 616.58,-144.5 606.58,-141 606.58,-148"/>
</g>
<!-- Certification_HW&#45;&gt;Quality_HW -->
<g id="edge7" class="edge">
<title>Certification_HW&#45;&gt;Quality_HW</title>
<path fill="none" stroke="black" d="M616.56,-157.5C616.56,-157.5 591.15,-157.5 591.15,-157.5"/>
<polygon fill="black" stroke="black" points="591.15,-154 581.15,-157.5 591.15,-161 591.15,-154"/>
</g>
<!-- LifeCycle_HW -->
<g id="node5" class="node">
<title>LifeCycle_HW</title>
<polygon fill="none" stroke="black" points="763,-142 763,-180 942,-180 942,-142 763,-142"/>
<text text-anchor="middle" x="852.5" y="-164.8" font-family="Times,serif" font-size="14.00">Design LifeCycle Data </text>
<text text-anchor="middle" x="852.5" y="-149.8" font-family="Times,serif" font-size="14.00">(Chisel) [Vi]</text>
</g>
<!-- Certification_HW&#45;&gt;LifeCycle_HW -->
<g id="edge4" class="edge">
<title>Certification_HW&#45;&gt;LifeCycle_HW</title>
<path fill="none" stroke="black" d="M727.14,-156C727.14,-156 752.77,-156 752.77,-156"/>
<polygon fill="black" stroke="black" points="752.77,-159.5 762.77,-156 752.77,-152.5 752.77,-159.5"/>
</g>
<!-- LifeCycle_HW&#45;&gt;Creation_HW -->
<g id="edge5" class="edge">
<title>LifeCycle_HW&#45;&gt;Creation_HW</title>
<path fill="none" stroke="black" d="M762.64,-175.5C762.64,-175.5 194.17,-175.5 194.17,-175.5"/>
<polygon fill="black" stroke="black" points="194.17,-172 184.17,-175.5 194.17,-179 194.17,-172"/>
</g>
<!-- Creation_SW -->
<g id="node6" class="node">
<title>Creation_SW</title>
<polygon fill="none" stroke="black" points="24,-35 24,-73 191,-73 191,-35 24,-35"/>
<text text-anchor="middle" x="107.5" y="-57.8" font-family="Times,serif" font-size="14.00">Creation </text>
<text text-anchor="middle" x="107.5" y="-42.8" font-family="Times,serif" font-size="14.00">(C/C++/Go/Rust) [Vi]</text>
</g>
<!-- Production_SW -->
<g id="node7" class="node">
<title>Production_SW</title>
<polygon fill="none" stroke="black" points="227,-25 227,-63 394,-63 394,-25 227,-25"/>
<text text-anchor="middle" x="310.5" y="-47.8" font-family="Times,serif" font-size="14.00">Production </text>
<text text-anchor="middle" x="310.5" y="-32.8" font-family="Times,serif" font-size="14.00">(C/C++/Go/Rust) [Vi]</text>
</g>
<!-- Creation_SW&#45;&gt;Production_SW -->
<g id="edge8" class="edge">
<title>Creation_SW&#45;&gt;Production_SW</title>
<path fill="none" stroke="black" d="M191.24,-49C191.24,-49 216.95,-49 216.95,-49"/>
<polygon fill="black" stroke="black" points="216.95,-52.5 226.95,-49 216.95,-45.5 216.95,-52.5"/>
</g>
<!-- Quality_SW -->
<g id="node8" class="node">
<title>Quality_SW</title>
<polygon fill="none" stroke="black" points="430,-25 430,-63 581,-63 581,-25 430,-25"/>
<text text-anchor="middle" x="505.5" y="-47.8" font-family="Times,serif" font-size="14.00">Quality Assurance </text>
<text text-anchor="middle" x="505.5" y="-32.8" font-family="Times,serif" font-size="14.00">(Ada) [Vi]</text>
</g>
<!-- Production_SW&#45;&gt;Quality_SW -->
<g id="edge9" class="edge">
<title>Production_SW&#45;&gt;Quality_SW</title>
<path fill="none" stroke="black" d="M394.05,-37.5C394.05,-37.5 419.83,-37.5 419.83,-37.5"/>
<polygon fill="black" stroke="black" points="419.83,-41 429.83,-37.5 419.83,-34 419.83,-41"/>
</g>
<!-- Quality_SW&#45;&gt;Production_SW -->
<g id="edge13" class="edge">
<title>Quality_SW&#45;&gt;Production_SW</title>
<path fill="none" stroke="black" d="M429.83,-50.5C429.83,-50.5 404.22,-50.5 404.22,-50.5"/>
<polygon fill="black" stroke="black" points="404.22,-47 394.22,-50.5 404.22,-54 404.22,-47"/>
</g>
<!-- Certification_SW -->
<g id="node9" class="node">
<title>Certification_SW</title>
<polygon fill="none" stroke="black" points="617,-25 617,-63 727,-63 727,-25 617,-25"/>
<text text-anchor="middle" x="672" y="-47.8" font-family="Times,serif" font-size="14.00">Certification </text>
<text text-anchor="middle" x="672" y="-32.8" font-family="Times,serif" font-size="14.00">(Java) [Vi]</text>
</g>
<!-- Quality_SW&#45;&gt;Certification_SW -->
<g id="edge10" class="edge">
<title>Quality_SW&#45;&gt;Certification_SW</title>
<path fill="none" stroke="black" d="M581.44,-37.5C581.44,-37.5 606.58,-37.5 606.58,-37.5"/>
<polygon fill="black" stroke="black" points="606.58,-41 616.58,-37.5 606.58,-34 606.58,-41"/>
</g>
<!-- Certification_SW&#45;&gt;Quality_SW -->
<g id="edge14" class="edge">
<title>Certification_SW&#45;&gt;Quality_SW</title>
<path fill="none" stroke="black" d="M616.56,-50.5C616.56,-50.5 591.15,-50.5 591.15,-50.5"/>
<polygon fill="black" stroke="black" points="591.15,-47 581.15,-50.5 591.15,-54 591.15,-47"/>
</g>
<!-- LifeCycle_SW -->
<g id="node10" class="node">
<title>LifeCycle_SW</title>
<polygon fill="none" stroke="black" points="763,-35 763,-73 942,-73 942,-35 763,-35"/>
<text text-anchor="middle" x="852.5" y="-57.8" font-family="Times,serif" font-size="14.00">Design LifeCycle Data </text>
<text text-anchor="middle" x="852.5" y="-42.8" font-family="Times,serif" font-size="14.00">(Scala) [Vi]</text>
</g>
<!-- Certification_SW&#45;&gt;LifeCycle_SW -->
<g id="edge11" class="edge">
<title>Certification_SW&#45;&gt;LifeCycle_SW</title>
<path fill="none" stroke="black" d="M727.14,-49C727.14,-49 752.77,-49 752.77,-49"/>
<polygon fill="black" stroke="black" points="752.77,-52.5 762.77,-49 752.77,-45.5 752.77,-52.5"/>
</g>
<!-- LifeCycle_SW&#45;&gt;Creation_SW -->
<g id="edge12" class="edge">
<title>LifeCycle_SW&#45;&gt;Creation_SW</title>
<path fill="none" stroke="black" d="M762.64,-68.5C762.64,-68.5 201.1,-68.5 201.1,-68.5"/>
<polygon fill="black" stroke="black" points="201.1,-65 191.1,-68.5 201.1,-72 201.1,-65"/>
</g>
</g>
</svg>
