<?xml version="1.0" encoding="UTF-8" standalone="no"?>
<!DOCTYPE svg PUBLIC "-//W3C//DTD SVG 1.1//EN"
 "http://www.w3.org/Graphics/SVG/1.1/DTD/svg11.dtd">
<!-- Generated by graphviz version 2.43.0 (0)
 -->
<!-- Title: Project Pages: 1 -->
<svg width="1927pt" height="229pt"
 viewBox="0.00 0.00 1927.00 229.00" xmlns="http://www.w3.org/2000/svg" xmlns:xlink="http://www.w3.org/1999/xlink">
<g id="graph0" class="graph" transform="scale(1 1) rotate(0) translate(4 225)">
<title>Project</title>
<polygon fill="white" stroke="transparent" points="-4,4 -4,-225 1923,-225 1923,4 -4,4"/>
<g id="clust1" class="cluster">
<title>cluster Workflow</title>
<polygon fill="none" stroke="black" points="8,-8 8,-213 1911,-213 1911,-8 8,-8"/>
<text text-anchor="middle" x="959.5" y="-197.8" font-family="Times,serif" font-size="14.00">Front&#45;End Workflow</text>
</g>
<g id="clust2" class="cluster">
<title>cluster Hardware</title>
<polygon fill="none" stroke="black" points="16,-103 16,-182 1900,-182 1900,-103 16,-103"/>
<text text-anchor="middle" x="958" y="-166.8" font-family="Times,serif" font-size="14.00">Hardware</text>
</g>
<g id="clust3" class="cluster">
<title>cluster Software</title>
<polygon fill="none" stroke="black" points="16,-16 16,-95 1903,-95 1903,-16 16,-16"/>
<text text-anchor="middle" x="959.5" y="-79.8" font-family="Times,serif" font-size="14.00">Software</text>
</g>
<!-- Requirements_HW -->
<g id="node1" class="node">
<title>Requirements_HW</title>
<polygon fill="none" stroke="black" points="24,-112 24,-150 258,-150 258,-112 24,-112"/>
<text text-anchor="middle" x="141" y="-134.8" font-family="Times,serif" font-size="14.00">Requirements </text>
<text text-anchor="middle" x="141" y="-119.8" font-family="Times,serif" font-size="14.00">(Matlab/Python/PSL/UML) [Vi]</text>
</g>
<!-- Model_HW -->
<g id="node2" class="node">
<title>Model_HW</title>
<polygon fill="none" stroke="black" points="294,-112 294,-150 500,-150 500,-112 294,-112"/>
<text text-anchor="middle" x="397" y="-134.8" font-family="Times,serif" font-size="14.00">Hardware Model </text>
<text text-anchor="middle" x="397" y="-119.8" font-family="Times,serif" font-size="14.00">(VHDL/SystemVerilog) [Vi]</text>
</g>
<!-- Requirements_HW&#45;&gt;Model_HW -->
<g id="edge1" class="edge">
<title>Requirements_HW&#45;&gt;Model_HW</title>
<path fill="none" stroke="black" d="M258.14,-131C258.14,-131 283.65,-131 283.65,-131"/>
<polygon fill="black" stroke="black" points="283.65,-134.5 293.65,-131 283.65,-127.5 283.65,-134.5"/>
</g>
<!-- Validation_HW -->
<g id="node3" class="node">
<title>Validation_HW</title>
<polygon fill="none" stroke="black" points="536,-112 536,-150 884,-150 884,-112 536,-112"/>
<text text-anchor="middle" x="710" y="-134.8" font-family="Times,serif" font-size="14.00">Hardware Validation </text>
<text text-anchor="middle" x="710" y="-119.8" font-family="Times,serif" font-size="14.00">(VHDL/SystemVerilog) [GHDL / Icarus Verilog]</text>
</g>
<!-- Model_HW&#45;&gt;Validation_HW -->
<g id="edge2" class="edge">
<title>Model_HW&#45;&gt;Validation_HW</title>
<path fill="none" stroke="black" d="M500.36,-124.5C500.36,-124.5 525.82,-124.5 525.82,-124.5"/>
<polygon fill="black" stroke="black" points="525.82,-128 535.82,-124.5 525.82,-121 525.82,-128"/>
</g>
<!-- Validation_HW&#45;&gt;Model_HW -->
<g id="edge7" class="edge">
<title>Validation_HW&#45;&gt;Model_HW</title>
<path fill="none" stroke="black" d="M535.65,-137.5C535.65,-137.5 510.16,-137.5 510.16,-137.5"/>
<polygon fill="black" stroke="black" points="510.16,-134 500.16,-137.5 510.16,-141 510.16,-134"/>
</g>
<!-- Design_HW -->
<g id="node4" class="node">
<title>Design_HW</title>
<polygon fill="none" stroke="black" points="927,-112 927,-150 1080,-150 1080,-112 927,-112"/>
<text text-anchor="middle" x="1003.5" y="-134.8" font-family="Times,serif" font-size="14.00">Hardware Design </text>
<text text-anchor="middle" x="1003.5" y="-119.8" font-family="Times,serif" font-size="14.00">(VHDL/Verilog) [Vi]</text>
</g>
<!-- Validation_HW&#45;&gt;Design_HW -->
<g id="edge3" class="edge">
<title>Validation_HW&#45;&gt;Design_HW</title>
<path fill="none" stroke="black" d="M884.12,-131C884.12,-131 916.77,-131 916.77,-131"/>
<polygon fill="black" stroke="black" points="916.77,-134.5 926.77,-131 916.77,-127.5 916.77,-134.5"/>
</g>
<!-- Verification_HW -->
<g id="node5" class="node">
<title>Verification_HW</title>
<polygon fill="none" stroke="black" points="1123,-112 1123,-150 1471,-150 1471,-112 1123,-112"/>
<text text-anchor="middle" x="1297" y="-134.8" font-family="Times,serif" font-size="14.00">Hardware Verification </text>
<text text-anchor="middle" x="1297" y="-119.8" font-family="Times,serif" font-size="14.00">(VHDL/SystemVerilog) [GHDL / Icarus Verilog]</text>
</g>
<!-- Design_HW&#45;&gt;Verification_HW -->
<g id="edge4" class="edge">
<title>Design_HW&#45;&gt;Verification_HW</title>
<path fill="none" stroke="black" d="M1080.23,-124.5C1080.23,-124.5 1112.91,-124.5 1112.91,-124.5"/>
<polygon fill="black" stroke="black" points="1112.91,-128 1122.91,-124.5 1112.91,-121 1112.91,-128"/>
</g>
<!-- Verification_HW&#45;&gt;Design_HW -->
<g id="edge8" class="edge">
<title>Verification_HW&#45;&gt;Design_HW</title>
<path fill="none" stroke="black" d="M1122.88,-137.5C1122.88,-137.5 1090.23,-137.5 1090.23,-137.5"/>
<polygon fill="black" stroke="black" points="1090.23,-134 1080.23,-137.5 1090.23,-141 1090.23,-134"/>
</g>
<!-- Configuration_HW -->
<g id="node6" class="node">
<title>Configuration_HW</title>
<polygon fill="none" stroke="black" points="1507,-112 1507,-150 1674,-150 1674,-112 1507,-112"/>
<text text-anchor="middle" x="1590.5" y="-134.8" font-family="Times,serif" font-size="14.00">Configuration </text>
<text text-anchor="middle" x="1590.5" y="-119.8" font-family="Times,serif" font-size="14.00">(C/C++/Go/Rust) [Vi]</text>
</g>
<!-- Verification_HW&#45;&gt;Configuration_HW -->
<g id="edge5" class="edge">
<title>Verification_HW&#45;&gt;Configuration_HW</title>
<path fill="none" stroke="black" d="M1471.12,-131C1471.12,-131 1496.98,-131 1496.98,-131"/>
<polygon fill="black" stroke="black" points="1496.98,-134.5 1506.98,-131 1496.98,-127.5 1496.98,-134.5"/>
</g>
<!-- Implementation_HW -->
<g id="node7" class="node">
<title>Implementation_HW</title>
<polygon fill="none" stroke="black" points="1713,-112 1713,-150 1892,-150 1892,-112 1713,-112"/>
<text text-anchor="middle" x="1802.5" y="-134.8" font-family="Times,serif" font-size="14.00">Implementation </text>
<text text-anchor="middle" x="1802.5" y="-119.8" font-family="Times,serif" font-size="14.00">(VHDL/Verilog) [GHDL/Yosys]</text>
</g>
<!-- Configuration_HW&#45;&gt;Implementation_HW -->
<g id="edge6" class="edge">
<title>Configuration_HW&#45;&gt;Implementation_HW</title>
<path fill="none" stroke="black" d="M1674.29,-131C1674.29,-131 1702.69,-131 1702.69,-131"/>
<polygon fill="black" stroke="black" points="1702.69,-134.5 1712.69,-131 1702.69,-127.5 1702.69,-134.5"/>
</g>
<!-- Requirements_SW -->
<g id="node8" class="node">
<title>Requirements_SW</title>
<polygon fill="none" stroke="black" points="24,-25 24,-63 258,-63 258,-25 24,-25"/>
<text text-anchor="middle" x="141" y="-47.8" font-family="Times,serif" font-size="14.00">Requirements </text>
<text text-anchor="middle" x="141" y="-32.8" font-family="Times,serif" font-size="14.00">(Matlab/Python/PSL/UML) [Vi]</text>
</g>
<!-- Model_SW -->
<g id="node9" class="node">
<title>Model_SW</title>
<polygon fill="none" stroke="black" points="313.5,-25 313.5,-63 480.5,-63 480.5,-25 313.5,-25"/>
<text text-anchor="middle" x="397" y="-47.8" font-family="Times,serif" font-size="14.00">Software Model </text>
<text text-anchor="middle" x="397" y="-32.8" font-family="Times,serif" font-size="14.00">(C/C++/Go/Rust) [Vi]</text>
</g>
<!-- Requirements_SW&#45;&gt;Model_SW -->
<g id="edge9" class="edge">
<title>Requirements_SW&#45;&gt;Model_SW</title>
<path fill="none" stroke="black" d="M258.14,-44C258.14,-44 303.17,-44 303.17,-44"/>
<polygon fill="black" stroke="black" points="303.17,-47.5 313.17,-44 303.17,-40.5 303.17,-47.5"/>
</g>
<!-- Validation_SW -->
<g id="node10" class="node">
<title>Validation_SW</title>
<polygon fill="none" stroke="black" points="617.5,-25 617.5,-63 802.5,-63 802.5,-25 617.5,-25"/>
<text text-anchor="middle" x="710" y="-47.8" font-family="Times,serif" font-size="14.00">Software Validation </text>
<text text-anchor="middle" x="710" y="-32.8" font-family="Times,serif" font-size="14.00">(C/C++/Go/Rust) [GCC]</text>
</g>
<!-- Model_SW&#45;&gt;Validation_SW -->
<g id="edge10" class="edge">
<title>Model_SW&#45;&gt;Validation_SW</title>
<path fill="none" stroke="black" d="M480.88,-37.5C480.88,-37.5 607.35,-37.5 607.35,-37.5"/>
<polygon fill="black" stroke="black" points="607.35,-41 617.35,-37.5 607.35,-34 607.35,-41"/>
</g>
<!-- Validation_SW&#45;&gt;Model_SW -->
<g id="edge15" class="edge">
<title>Validation_SW&#45;&gt;Model_SW</title>
<path fill="none" stroke="black" d="M617.36,-50.5C617.36,-50.5 490.6,-50.5 490.6,-50.5"/>
<polygon fill="black" stroke="black" points="490.6,-47 480.6,-50.5 490.6,-54 490.6,-47"/>
</g>
<!-- Design_SW -->
<g id="node11" class="node">
<title>Design_SW</title>
<polygon fill="none" stroke="black" points="920,-25 920,-63 1087,-63 1087,-25 920,-25"/>
<text text-anchor="middle" x="1003.5" y="-47.8" font-family="Times,serif" font-size="14.00">Software Design </text>
<text text-anchor="middle" x="1003.5" y="-32.8" font-family="Times,serif" font-size="14.00">(C/C++/Go/Rust) [Vi]</text>
</g>
<!-- Validation_SW&#45;&gt;Design_SW -->
<g id="edge11" class="edge">
<title>Validation_SW&#45;&gt;Design_SW</title>
<path fill="none" stroke="black" d="M802.87,-44C802.87,-44 909.69,-44 909.69,-44"/>
<polygon fill="black" stroke="black" points="909.69,-47.5 919.69,-44 909.69,-40.5 909.69,-47.5"/>
</g>
<!-- Verification_SW -->
<g id="node12" class="node">
<title>Verification_SW</title>
<polygon fill="none" stroke="black" points="1204.5,-25 1204.5,-63 1389.5,-63 1389.5,-25 1204.5,-25"/>
<text text-anchor="middle" x="1297" y="-47.8" font-family="Times,serif" font-size="14.00">Software Verification </text>
<text text-anchor="middle" x="1297" y="-32.8" font-family="Times,serif" font-size="14.00">(C/C++/Go/Rust) [GCC]</text>
</g>
<!-- Design_SW&#45;&gt;Verification_SW -->
<g id="edge12" class="edge">
<title>Design_SW&#45;&gt;Verification_SW</title>
<path fill="none" stroke="black" d="M1087.21,-37.5C1087.21,-37.5 1194.42,-37.5 1194.42,-37.5"/>
<polygon fill="black" stroke="black" points="1194.42,-41 1204.42,-37.5 1194.42,-34 1194.42,-41"/>
</g>
<!-- Verification_SW&#45;&gt;Design_SW -->
<g id="edge16" class="edge">
<title>Verification_SW&#45;&gt;Design_SW</title>
<path fill="none" stroke="black" d="M1204.13,-50.5C1204.13,-50.5 1097.31,-50.5 1097.31,-50.5"/>
<polygon fill="black" stroke="black" points="1097.31,-47 1087.31,-50.5 1097.31,-54 1097.31,-47"/>
</g>
<!-- Configuration_SW -->
<g id="node13" class="node">
<title>Configuration_SW</title>
<polygon fill="none" stroke="black" points="1507,-25 1507,-63 1674,-63 1674,-25 1507,-25"/>
<text text-anchor="middle" x="1590.5" y="-47.8" font-family="Times,serif" font-size="14.00">Configuration </text>
<text text-anchor="middle" x="1590.5" y="-32.8" font-family="Times,serif" font-size="14.00">(C/C++/Go/Rust) [Vi]</text>
</g>
<!-- Verification_SW&#45;&gt;Configuration_SW -->
<g id="edge13" class="edge">
<title>Verification_SW&#45;&gt;Configuration_SW</title>
<path fill="none" stroke="black" d="M1389.87,-44C1389.87,-44 1496.69,-44 1496.69,-44"/>
<polygon fill="black" stroke="black" points="1496.69,-47.5 1506.69,-44 1496.69,-40.5 1496.69,-47.5"/>
</g>
<!-- Implementation_SW -->
<g id="node14" class="node">
<title>Implementation_SW</title>
<polygon fill="none" stroke="black" points="1710,-25 1710,-63 1895,-63 1895,-25 1710,-25"/>
<text text-anchor="middle" x="1802.5" y="-47.8" font-family="Times,serif" font-size="14.00">Implementation </text>
<text text-anchor="middle" x="1802.5" y="-32.8" font-family="Times,serif" font-size="14.00">(C/C++/Go/Rust) [GCC]</text>
</g>
<!-- Configuration_SW&#45;&gt;Implementation_SW -->
<g id="edge14" class="edge">
<title>Configuration_SW&#45;&gt;Implementation_SW</title>
<path fill="none" stroke="black" d="M1674.29,-44C1674.29,-44 1699.88,-44 1699.88,-44"/>
<polygon fill="black" stroke="black" points="1699.88,-47.5 1709.88,-44 1699.88,-40.5 1699.88,-47.5"/>
</g>
</g>
</svg>
