<?xml version="1.0" encoding="UTF-8" standalone="no"?>
<!DOCTYPE svg PUBLIC "-//W3C//DTD SVG 1.1//EN"
 "http://www.w3.org/Graphics/SVG/1.1/DTD/svg11.dtd">
<!-- Generated by graphviz version 2.42.4 (0)
 -->
<!-- Title: Project Pages: 1 -->
<svg width="662pt" height="591pt"
 viewBox="0.00 0.00 662.00 591.00" xmlns="http://www.w3.org/2000/svg" xmlns:xlink="http://www.w3.org/1999/xlink">
<g id="graph0" class="graph" transform="scale(1 1) rotate(0) translate(4 587)">
<title>Project</title>
<polygon fill="white" stroke="transparent" points="-4,4 -4,-587 658,-587 658,4 -4,4"/>
<g id="clust1" class="cluster">
<title>cluster WorkFlow</title>
<polygon fill="none" stroke="black" points="8,-8 8,-575 646,-575 646,-8 8,-8"/>
<text text-anchor="middle" x="327" y="-559.8" font-family="Times,serif" font-size="14.00">Front&#45;End WorkFlow</text>
</g>
<g id="clust2" class="cluster">
<title>cluster Software</title>
<polygon fill="none" stroke="black" points="388,-16 388,-544 638,-544 638,-16 388,-16"/>
<text text-anchor="middle" x="513" y="-528.8" font-family="Times,serif" font-size="14.00">Software</text>
</g>
<g id="clust3" class="cluster">
<title>cluster Hardware</title>
<polygon fill="none" stroke="black" points="16,-16 16,-544 380,-544 380,-16 16,-16"/>
<text text-anchor="middle" x="198" y="-528.8" font-family="Times,serif" font-size="14.00">Hardware</text>
</g>
<!-- Requirements_SW -->
<g id="node1" class="node">
<title>Requirements_SW</title>
<polygon fill="none" stroke="black" points="396,-474.5 396,-512.5 630,-512.5 630,-474.5 396,-474.5"/>
<text text-anchor="middle" x="513" y="-497.3" font-family="Times,serif" font-size="14.00">Requirements </text>
<text text-anchor="middle" x="513" y="-482.3" font-family="Times,serif" font-size="14.00">(Matlab/Python/PSL/UML) [Vi]</text>
</g>
<!-- Model_SW -->
<g id="node2" class="node">
<title>Model_SW</title>
<polygon fill="none" stroke="black" points="429.5,-399.5 429.5,-437.5 596.5,-437.5 596.5,-399.5 429.5,-399.5"/>
<text text-anchor="middle" x="513" y="-422.3" font-family="Times,serif" font-size="14.00">Software Model </text>
<text text-anchor="middle" x="513" y="-407.3" font-family="Times,serif" font-size="14.00">(C/C++/Go/Rust) [Vi]</text>
</g>
<!-- Requirements_SW&#45;&gt;Model_SW -->
<g id="edge1" class="edge">
<title>Requirements_SW&#45;&gt;Model_SW</title>
<path fill="none" stroke="black" d="M513,-474.19C513,-474.19 513,-447.75 513,-447.75"/>
<polygon fill="black" stroke="black" points="516.5,-447.75 513,-437.75 509.5,-447.75 516.5,-447.75"/>
</g>
<!-- Validation_SW -->
<g id="node3" class="node">
<title>Validation_SW</title>
<polygon fill="none" stroke="black" points="420.5,-324.5 420.5,-362.5 605.5,-362.5 605.5,-324.5 420.5,-324.5"/>
<text text-anchor="middle" x="513" y="-347.3" font-family="Times,serif" font-size="14.00">Software Validation </text>
<text text-anchor="middle" x="513" y="-332.3" font-family="Times,serif" font-size="14.00">(C/C++/Go/Rust) [GCC]</text>
</g>
<!-- Model_SW&#45;&gt;Validation_SW -->
<g id="edge2" class="edge">
<title>Model_SW&#45;&gt;Validation_SW</title>
<path fill="none" stroke="black" d="M485.17,-399.19C485.17,-399.19 485.17,-372.75 485.17,-372.75"/>
<polygon fill="black" stroke="black" points="488.67,-372.75 485.17,-362.75 481.67,-372.75 488.67,-372.75"/>
</g>
<!-- Validation_SW&#45;&gt;Model_SW -->
<g id="edge7" class="edge">
<title>Validation_SW&#45;&gt;Model_SW</title>
<path fill="none" stroke="black" d="M540.83,-362.81C540.83,-362.81 540.83,-389.25 540.83,-389.25"/>
<polygon fill="black" stroke="black" points="537.33,-389.25 540.83,-399.25 544.33,-389.25 537.33,-389.25"/>
</g>
<!-- Design_SW -->
<g id="node4" class="node">
<title>Design_SW</title>
<polygon fill="none" stroke="black" points="429.5,-249.5 429.5,-287.5 596.5,-287.5 596.5,-249.5 429.5,-249.5"/>
<text text-anchor="middle" x="513" y="-272.3" font-family="Times,serif" font-size="14.00">Software Design </text>
<text text-anchor="middle" x="513" y="-257.3" font-family="Times,serif" font-size="14.00">(C/C++/Go/Rust) [Vi]</text>
</g>
<!-- Validation_SW&#45;&gt;Design_SW -->
<g id="edge3" class="edge">
<title>Validation_SW&#45;&gt;Design_SW</title>
<path fill="none" stroke="black" d="M513,-324.19C513,-324.19 513,-297.75 513,-297.75"/>
<polygon fill="black" stroke="black" points="516.5,-297.75 513,-287.75 509.5,-297.75 516.5,-297.75"/>
</g>
<!-- Verification_SW -->
<g id="node5" class="node">
<title>Verification_SW</title>
<polygon fill="none" stroke="black" points="420.5,-174.5 420.5,-212.5 605.5,-212.5 605.5,-174.5 420.5,-174.5"/>
<text text-anchor="middle" x="513" y="-197.3" font-family="Times,serif" font-size="14.00">Software Verification </text>
<text text-anchor="middle" x="513" y="-182.3" font-family="Times,serif" font-size="14.00">(C/C++/Go/Rust) [GCC]</text>
</g>
<!-- Design_SW&#45;&gt;Verification_SW -->
<g id="edge4" class="edge">
<title>Design_SW&#45;&gt;Verification_SW</title>
<path fill="none" stroke="black" d="M485.17,-249.19C485.17,-249.19 485.17,-222.75 485.17,-222.75"/>
<polygon fill="black" stroke="black" points="488.67,-222.75 485.17,-212.75 481.67,-222.75 488.67,-222.75"/>
</g>
<!-- Verification_SW&#45;&gt;Design_SW -->
<g id="edge8" class="edge">
<title>Verification_SW&#45;&gt;Design_SW</title>
<path fill="none" stroke="black" d="M540.83,-212.81C540.83,-212.81 540.83,-239.25 540.83,-239.25"/>
<polygon fill="black" stroke="black" points="537.33,-239.25 540.83,-249.25 544.33,-239.25 537.33,-239.25"/>
</g>
<!-- Configuration_SW -->
<g id="node6" class="node">
<title>Configuration_SW</title>
<polygon fill="none" stroke="black" points="429.5,-99.5 429.5,-137.5 596.5,-137.5 596.5,-99.5 429.5,-99.5"/>
<text text-anchor="middle" x="513" y="-122.3" font-family="Times,serif" font-size="14.00">Configuration </text>
<text text-anchor="middle" x="513" y="-107.3" font-family="Times,serif" font-size="14.00">(C/C++/Go/Rust) [Vi]</text>
</g>
<!-- Verification_SW&#45;&gt;Configuration_SW -->
<g id="edge5" class="edge">
<title>Verification_SW&#45;&gt;Configuration_SW</title>
<path fill="none" stroke="black" d="M513,-174.19C513,-174.19 513,-147.75 513,-147.75"/>
<polygon fill="black" stroke="black" points="516.5,-147.75 513,-137.75 509.5,-147.75 516.5,-147.75"/>
</g>
<!-- Implementation_SW -->
<g id="node7" class="node">
<title>Implementation_SW</title>
<polygon fill="none" stroke="black" points="420.5,-24.5 420.5,-62.5 605.5,-62.5 605.5,-24.5 420.5,-24.5"/>
<text text-anchor="middle" x="513" y="-47.3" font-family="Times,serif" font-size="14.00">Implementation </text>
<text text-anchor="middle" x="513" y="-32.3" font-family="Times,serif" font-size="14.00">(C/C++/Go/Rust) [GCC]</text>
</g>
<!-- Configuration_SW&#45;&gt;Implementation_SW -->
<g id="edge6" class="edge">
<title>Configuration_SW&#45;&gt;Implementation_SW</title>
<path fill="none" stroke="black" d="M513,-99.19C513,-99.19 513,-72.75 513,-72.75"/>
<polygon fill="black" stroke="black" points="516.5,-72.75 513,-62.75 509.5,-72.75 516.5,-72.75"/>
</g>
<!-- Requirements_HW -->
<g id="node8" class="node">
<title>Requirements_HW</title>
<polygon fill="none" stroke="black" points="81,-474.5 81,-512.5 315,-512.5 315,-474.5 81,-474.5"/>
<text text-anchor="middle" x="198" y="-497.3" font-family="Times,serif" font-size="14.00">Requirements </text>
<text text-anchor="middle" x="198" y="-482.3" font-family="Times,serif" font-size="14.00">(Matlab/Python/PSL/UML) [Vi]</text>
</g>
<!-- Model_HW -->
<g id="node9" class="node">
<title>Model_HW</title>
<polygon fill="none" stroke="black" points="95,-399.5 95,-437.5 301,-437.5 301,-399.5 95,-399.5"/>
<text text-anchor="middle" x="198" y="-422.3" font-family="Times,serif" font-size="14.00">Hardware Model </text>
<text text-anchor="middle" x="198" y="-407.3" font-family="Times,serif" font-size="14.00">(VHDL/SystemVerilog) [Vi]</text>
</g>
<!-- Requirements_HW&#45;&gt;Model_HW -->
<g id="edge9" class="edge">
<title>Requirements_HW&#45;&gt;Model_HW</title>
<path fill="none" stroke="black" d="M198,-474.19C198,-474.19 198,-447.75 198,-447.75"/>
<polygon fill="black" stroke="black" points="201.5,-447.75 198,-437.75 194.5,-447.75 201.5,-447.75"/>
</g>
<!-- Validation_HW -->
<g id="node10" class="node">
<title>Validation_HW</title>
<polygon fill="none" stroke="black" points="24,-324.5 24,-362.5 372,-362.5 372,-324.5 24,-324.5"/>
<text text-anchor="middle" x="198" y="-347.3" font-family="Times,serif" font-size="14.00">Hardware Validation </text>
<text text-anchor="middle" x="198" y="-332.3" font-family="Times,serif" font-size="14.00">(VHDL/SystemVerilog) [GHDL / Icarus Verilog]</text>
</g>
<!-- Model_HW&#45;&gt;Validation_HW -->
<g id="edge10" class="edge">
<title>Model_HW&#45;&gt;Validation_HW</title>
<path fill="none" stroke="black" d="M163.67,-399.19C163.67,-399.19 163.67,-372.75 163.67,-372.75"/>
<polygon fill="black" stroke="black" points="167.17,-372.75 163.67,-362.75 160.17,-372.75 167.17,-372.75"/>
</g>
<!-- Validation_HW&#45;&gt;Model_HW -->
<g id="edge15" class="edge">
<title>Validation_HW&#45;&gt;Model_HW</title>
<path fill="none" stroke="black" d="M232.33,-362.81C232.33,-362.81 232.33,-389.25 232.33,-389.25"/>
<polygon fill="black" stroke="black" points="228.83,-389.25 232.33,-399.25 235.83,-389.25 228.83,-389.25"/>
</g>
<!-- Design_HW -->
<g id="node11" class="node">
<title>Design_HW</title>
<polygon fill="none" stroke="black" points="121.5,-249.5 121.5,-287.5 274.5,-287.5 274.5,-249.5 121.5,-249.5"/>
<text text-anchor="middle" x="198" y="-272.3" font-family="Times,serif" font-size="14.00">Hardware Design </text>
<text text-anchor="middle" x="198" y="-257.3" font-family="Times,serif" font-size="14.00">(VHDL/Verilog) [Vi]</text>
</g>
<!-- Validation_HW&#45;&gt;Design_HW -->
<g id="edge11" class="edge">
<title>Validation_HW&#45;&gt;Design_HW</title>
<path fill="none" stroke="black" d="M198,-324.19C198,-324.19 198,-297.75 198,-297.75"/>
<polygon fill="black" stroke="black" points="201.5,-297.75 198,-287.75 194.5,-297.75 201.5,-297.75"/>
</g>
<!-- Verification_HW -->
<g id="node12" class="node">
<title>Verification_HW</title>
<polygon fill="none" stroke="black" points="24,-174.5 24,-212.5 372,-212.5 372,-174.5 24,-174.5"/>
<text text-anchor="middle" x="198" y="-197.3" font-family="Times,serif" font-size="14.00">Hardware Verification </text>
<text text-anchor="middle" x="198" y="-182.3" font-family="Times,serif" font-size="14.00">(VHDL/SystemVerilog) [GHDL / Icarus Verilog]</text>
</g>
<!-- Design_HW&#45;&gt;Verification_HW -->
<g id="edge12" class="edge">
<title>Design_HW&#45;&gt;Verification_HW</title>
<path fill="none" stroke="black" d="M172.5,-249.19C172.5,-249.19 172.5,-222.75 172.5,-222.75"/>
<polygon fill="black" stroke="black" points="176,-222.75 172.5,-212.75 169,-222.75 176,-222.75"/>
</g>
<!-- Verification_HW&#45;&gt;Design_HW -->
<g id="edge16" class="edge">
<title>Verification_HW&#45;&gt;Design_HW</title>
<path fill="none" stroke="black" d="M223.5,-212.81C223.5,-212.81 223.5,-239.25 223.5,-239.25"/>
<polygon fill="black" stroke="black" points="220,-239.25 223.5,-249.25 227,-239.25 220,-239.25"/>
</g>
<!-- Configuration_HW -->
<g id="node13" class="node">
<title>Configuration_HW</title>
<polygon fill="none" stroke="black" points="114.5,-99.5 114.5,-137.5 281.5,-137.5 281.5,-99.5 114.5,-99.5"/>
<text text-anchor="middle" x="198" y="-122.3" font-family="Times,serif" font-size="14.00">Configuration </text>
<text text-anchor="middle" x="198" y="-107.3" font-family="Times,serif" font-size="14.00">(C/C++/Go/Rust) [Vi]</text>
</g>
<!-- Verification_HW&#45;&gt;Configuration_HW -->
<g id="edge13" class="edge">
<title>Verification_HW&#45;&gt;Configuration_HW</title>
<path fill="none" stroke="black" d="M198,-174.19C198,-174.19 198,-147.75 198,-147.75"/>
<polygon fill="black" stroke="black" points="201.5,-147.75 198,-137.75 194.5,-147.75 201.5,-147.75"/>
</g>
<!-- Implementation_HW -->
<g id="node14" class="node">
<title>Implementation_HW</title>
<polygon fill="none" stroke="black" points="84.5,-24.5 84.5,-62.5 311.5,-62.5 311.5,-24.5 84.5,-24.5"/>
<text text-anchor="middle" x="198" y="-47.3" font-family="Times,serif" font-size="14.00">Implementation </text>
<text text-anchor="middle" x="198" y="-32.3" font-family="Times,serif" font-size="14.00">(VHDL/Verilog) [GHDL/Yosys]</text>
</g>
<!-- Configuration_HW&#45;&gt;Implementation_HW -->
<g id="edge14" class="edge">
<title>Configuration_HW&#45;&gt;Implementation_HW</title>
<path fill="none" stroke="black" d="M198,-99.19C198,-99.19 198,-72.75 198,-72.75"/>
<polygon fill="black" stroke="black" points="201.5,-72.75 198,-62.75 194.5,-72.75 201.5,-72.75"/>
</g>
</g>
</svg>
