<?xml version="1.0" encoding="UTF-8" standalone="no"?>
<!DOCTYPE svg PUBLIC "-//W3C//DTD SVG 1.1//EN"
 "http://www.w3.org/Graphics/SVG/1.1/DTD/svg11.dtd">
<!-- Generated by graphviz version 2.43.0 (0)
 -->
<!-- Title: BackEnd Pages: 1 -->
<svg width="462pt" height="572pt"
 viewBox="0.00 0.00 461.50 572.00" xmlns="http://www.w3.org/2000/svg" xmlns:xlink="http://www.w3.org/1999/xlink">
<g id="graph0" class="graph" transform="scale(1 1) rotate(0) translate(4 568)">
<title>BackEnd</title>
<polygon fill="white" stroke="transparent" points="-4,4 -4,-568 457.5,-568 457.5,4 -4,4"/>
<!-- Planning_SLH -->
<g id="node1" class="node">
<title>Planning_SLH</title>
<polygon fill="none" stroke="black" points="179.5,-525.5 179.5,-563.5 453.5,-563.5 453.5,-525.5 179.5,-525.5"/>
<text text-anchor="middle" x="316.5" y="-548.3" font-family="Times,serif" font-size="14.00">Planning Switch Level of Hardware </text>
<text text-anchor="middle" x="316.5" y="-533.3" font-family="Times,serif" font-size="14.00">(magic)</text>
</g>
<!-- Placing_SLH -->
<g id="node2" class="node">
<title>Placing_SLH</title>
<polygon fill="none" stroke="black" points="25,-450.5 25,-488.5 288,-488.5 288,-450.5 25,-450.5"/>
<text text-anchor="middle" x="156.5" y="-473.3" font-family="Times,serif" font-size="14.00">Placing Switch Level of Hardware </text>
<text text-anchor="middle" x="156.5" y="-458.3" font-family="Times,serif" font-size="14.00">(graywolf)</text>
</g>
<!-- Planning_SLH&#45;&gt;Placing_SLH -->
<g id="edge1" class="edge">
<title>Planning_SLH&#45;&gt;Placing_SLH</title>
<path fill="none" stroke="black" d="M276.95,-525.46C255.31,-515.58 228.32,-503.27 205.38,-492.8"/>
<polygon fill="black" stroke="black" points="206.7,-489.56 196.15,-488.59 203.8,-495.93 206.7,-489.56"/>
</g>
<!-- Timing_SLH -->
<g id="node3" class="node">
<title>Timing_SLH</title>
<polygon fill="none" stroke="black" points="25.5,-375.5 25.5,-413.5 285.5,-413.5 285.5,-375.5 25.5,-375.5"/>
<text text-anchor="middle" x="155.5" y="-398.3" font-family="Times,serif" font-size="14.00">Timing Switch Level of Hardware </text>
<text text-anchor="middle" x="155.5" y="-383.3" font-family="Times,serif" font-size="14.00">(sta)</text>
</g>
<!-- Placing_SLH&#45;&gt;Timing_SLH -->
<g id="edge2" class="edge">
<title>Placing_SLH&#45;&gt;Timing_SLH</title>
<path fill="none" stroke="black" d="M156.25,-450.46C156.14,-442.38 156.01,-432.68 155.89,-423.68"/>
<polygon fill="black" stroke="black" points="159.38,-423.54 155.75,-413.59 152.39,-423.64 159.38,-423.54"/>
</g>
<!-- Routing_SLH -->
<g id="node4" class="node">
<title>Routing_SLH</title>
<polygon fill="none" stroke="black" points="16,-300.5 16,-338.5 283,-338.5 283,-300.5 16,-300.5"/>
<text text-anchor="middle" x="149.5" y="-323.3" font-family="Times,serif" font-size="14.00">Routing Switch Level of Hardware </text>
<text text-anchor="middle" x="149.5" y="-308.3" font-family="Times,serif" font-size="14.00">(qrouter)</text>
</g>
<!-- Timing_SLH&#45;&gt;Routing_SLH -->
<g id="edge3" class="edge">
<title>Timing_SLH&#45;&gt;Routing_SLH</title>
<path fill="none" stroke="black" d="M154.02,-375.46C153.35,-367.38 152.56,-357.68 151.82,-348.68"/>
<polygon fill="black" stroke="black" points="155.29,-348.27 150.99,-338.59 148.32,-348.84 155.29,-348.27"/>
</g>
<!-- Simulating_SLH -->
<g id="node5" class="node">
<title>Simulating_SLH</title>
<polygon fill="none" stroke="black" points="0,-225.5 0,-263.5 289,-263.5 289,-225.5 0,-225.5"/>
<text text-anchor="middle" x="144.5" y="-248.3" font-family="Times,serif" font-size="14.00">Simulating Switch Level of Hardware </text>
<text text-anchor="middle" x="144.5" y="-233.3" font-family="Times,serif" font-size="14.00">(irsim)</text>
</g>
<!-- Routing_SLH&#45;&gt;Simulating_SLH -->
<g id="edge4" class="edge">
<title>Routing_SLH&#45;&gt;Simulating_SLH</title>
<path fill="none" stroke="black" d="M148.26,-300.46C147.71,-292.38 147.05,-282.68 146.43,-273.68"/>
<polygon fill="black" stroke="black" points="149.91,-273.33 145.74,-263.59 142.93,-273.81 149.91,-273.33"/>
</g>
<!-- Verifying_LVS -->
<g id="node6" class="node">
<title>Verifying_LVS</title>
<polygon fill="none" stroke="black" points="20,-150.5 20,-188.5 327,-188.5 327,-150.5 20,-150.5"/>
<text text-anchor="middle" x="173.5" y="-173.3" font-family="Times,serif" font-size="14.00">Verifying Switch Level of Hardware LVS </text>
<text text-anchor="middle" x="173.5" y="-158.3" font-family="Times,serif" font-size="14.00">(netgen)</text>
</g>
<!-- Simulating_SLH&#45;&gt;Verifying_LVS -->
<g id="edge5" class="edge">
<title>Simulating_SLH&#45;&gt;Verifying_LVS</title>
<path fill="none" stroke="black" d="M151.67,-225.46C154.95,-217.21 158.9,-207.25 162.54,-198.1"/>
<polygon fill="black" stroke="black" points="165.87,-199.18 166.31,-188.59 159.37,-196.59 165.87,-199.18"/>
</g>
<!-- Verifying_LVS&#45;&gt;Planning_SLH -->
<g id="edge8" class="edge">
<title>Verifying_LVS&#45;&gt;Planning_SLH</title>
<path fill="none" stroke="black" d="M245.22,-188.61C264.73,-196.77 284.14,-208.43 297.5,-225 324.12,-258.01 316.5,-276.1 316.5,-318.5 316.5,-395.5 316.5,-395.5 316.5,-395.5 316.5,-437.15 316.5,-485.39 316.5,-515.18"/>
<polygon fill="black" stroke="black" points="313,-515.27 316.5,-525.27 320,-515.27 313,-515.27"/>
</g>
<!-- Checking_DRC -->
<g id="node7" class="node">
<title>Checking_DRC</title>
<polygon fill="none" stroke="black" points="106.5,-75.5 106.5,-113.5 420.5,-113.5 420.5,-75.5 106.5,-75.5"/>
<text text-anchor="middle" x="263.5" y="-98.3" font-family="Times,serif" font-size="14.00">Checking Switch Level of Hardware DRC </text>
<text text-anchor="middle" x="263.5" y="-83.3" font-family="Times,serif" font-size="14.00">(magic)</text>
</g>
<!-- Verifying_LVS&#45;&gt;Checking_DRC -->
<g id="edge6" class="edge">
<title>Verifying_LVS&#45;&gt;Checking_DRC</title>
<path fill="none" stroke="black" d="M195.75,-150.46C207.11,-141.24 221.09,-129.9 233.4,-119.92"/>
<polygon fill="black" stroke="black" points="235.64,-122.61 241.2,-113.59 231.23,-117.17 235.64,-122.61"/>
</g>
<!-- Checking_DRC&#45;&gt;Planning_SLH -->
<g id="edge9" class="edge">
<title>Checking_DRC&#45;&gt;Planning_SLH</title>
<path fill="none" stroke="black" d="M297.34,-113.73C311.2,-122.85 326.15,-135.14 335.5,-150 358.08,-185.89 354.5,-201.1 354.5,-243.5 354.5,-395.5 354.5,-395.5 354.5,-395.5 354.5,-438.45 339.3,-486.27 328.13,-515.62"/>
<polygon fill="black" stroke="black" points="324.76,-514.61 324.37,-525.2 331.28,-517.17 324.76,-514.61"/>
</g>
<!-- Printing_GDS -->
<g id="node8" class="node">
<title>Printing_GDS</title>
<polygon fill="none" stroke="black" points="110.5,-0.5 110.5,-38.5 416.5,-38.5 416.5,-0.5 110.5,-0.5"/>
<text text-anchor="middle" x="263.5" y="-23.3" font-family="Times,serif" font-size="14.00">Printing Switch Level of Hardware GDS </text>
<text text-anchor="middle" x="263.5" y="-8.3" font-family="Times,serif" font-size="14.00">(magic)</text>
</g>
<!-- Checking_DRC&#45;&gt;Printing_GDS -->
<g id="edge7" class="edge">
<title>Checking_DRC&#45;&gt;Printing_GDS</title>
<path fill="none" stroke="black" d="M263.5,-75.46C263.5,-67.38 263.5,-57.68 263.5,-48.68"/>
<polygon fill="black" stroke="black" points="267,-48.59 263.5,-38.59 260,-48.59 267,-48.59"/>
</g>
</g>
</svg>
