<?xml version="1.0" encoding="UTF-8" standalone="no"?>
<!DOCTYPE svg PUBLIC "-//W3C//DTD SVG 1.1//EN"
 "http://www.w3.org/Graphics/SVG/1.1/DTD/svg11.dtd">
<!-- Generated by graphviz version 2.43.0 (0)
 -->
<!-- Title: Project Pages: 1 -->
<svg width="2086pt" height="147pt"
 viewBox="0.00 0.00 2086.00 147.00" xmlns="http://www.w3.org/2000/svg" xmlns:xlink="http://www.w3.org/1999/xlink">
<g id="graph0" class="graph" transform="scale(1 1) rotate(0) translate(4 143)">
<title>Project</title>
<polygon fill="white" stroke="transparent" points="-4,4 -4,-143 2082,-143 2082,4 -4,4"/>
<!-- Requirements -->
<g id="node1" class="node">
<title>Requirements</title>
<polygon fill="none" stroke="black" points="0,-33.5 0,-71.5 122,-71.5 122,-33.5 0,-33.5"/>
<text text-anchor="middle" x="61" y="-56.3" font-family="Times,serif" font-size="14.00">Requirements </text>
<text text-anchor="middle" x="61" y="-41.3" font-family="Times,serif" font-size="14.00">(UML) [Dot]</text>
</g>
<!-- Software -->
<g id="node2" class="node">
<title>Software</title>
<polygon fill="none" stroke="black" points="158,-100.5 158,-138.5 335,-138.5 335,-100.5 158,-100.5"/>
<text text-anchor="middle" x="246.5" y="-123.3" font-family="Times,serif" font-size="14.00">Software </text>
<text text-anchor="middle" x="246.5" y="-108.3" font-family="Times,serif" font-size="14.00">(Matlab/Rust) [Emacs]</text>
</g>
<!-- Requirements&#45;&gt;Software -->
<g id="edge1" class="edge">
<title>Requirements&#45;&gt;Software</title>
<path fill="none" stroke="black" d="M61,-71.52C61,-91.33 61,-119.5 61,-119.5 61,-119.5 147.82,-119.5 147.82,-119.5"/>
<polygon fill="black" stroke="black" points="147.82,-123 157.82,-119.5 147.82,-116 147.82,-123"/>
</g>
<!-- Source -->
<g id="node3" class="node">
<title>Source</title>
<polygon fill="none" stroke="black" points="371,-100.5 371,-138.5 506,-138.5 506,-100.5 371,-100.5"/>
<text text-anchor="middle" x="438.5" y="-123.3" font-family="Times,serif" font-size="14.00">Source </text>
<text text-anchor="middle" x="438.5" y="-108.3" font-family="Times,serif" font-size="14.00">(ADA/C) [Emacs]</text>
</g>
<!-- Software&#45;&gt;Source -->
<g id="edge2" class="edge">
<title>Software&#45;&gt;Source</title>
<path fill="none" stroke="black" d="M335.19,-119.5C335.19,-119.5 360.86,-119.5 360.86,-119.5"/>
<polygon fill="black" stroke="black" points="360.86,-123 370.86,-119.5 360.86,-116 360.86,-123"/>
</g>
<!-- Model -->
<g id="node4" class="node">
<title>Model</title>
<polygon fill="none" stroke="black" points="542,-100.5 542,-138.5 728,-138.5 728,-100.5 542,-100.5"/>
<text text-anchor="middle" x="635" y="-123.3" font-family="Times,serif" font-size="14.00">Model </text>
<text text-anchor="middle" x="635" y="-108.3" font-family="Times,serif" font-size="14.00">(VHDL/Verilog) [Emacs]</text>
</g>
<!-- Source&#45;&gt;Model -->
<g id="edge3" class="edge">
<title>Source&#45;&gt;Model</title>
<path fill="none" stroke="black" d="M506.12,-119.5C506.12,-119.5 531.91,-119.5 531.91,-119.5"/>
<polygon fill="black" stroke="black" points="531.91,-123 541.91,-119.5 531.91,-116 531.91,-123"/>
</g>
<!-- Validation -->
<g id="node5" class="node">
<title>Validation</title>
<polygon fill="none" stroke="black" points="764,-62.5 764,-100.5 1059,-100.5 1059,-62.5 764,-62.5"/>
<text text-anchor="middle" x="911.5" y="-85.3" font-family="Times,serif" font-size="14.00">Validation </text>
<text text-anchor="middle" x="911.5" y="-70.3" font-family="Times,serif" font-size="14.00">(VHDL/Verilog) [GHDL / Icarus Verilog]</text>
</g>
<!-- Model&#45;&gt;Validation -->
<g id="edge4" class="edge">
<title>Model&#45;&gt;Validation</title>
<path fill="none" stroke="black" d="M635,-100.4C635,-92.88 635,-86 635,-86 635,-86 753.94,-86 753.94,-86"/>
<polygon fill="black" stroke="black" points="753.94,-89.5 763.94,-86 753.94,-82.5 753.94,-89.5"/>
</g>
<!-- Validation&#45;&gt;Requirements -->
<g id="edge10" class="edge">
<title>Validation&#45;&gt;Requirements</title>
<path fill="none" stroke="black" d="M763.84,-67C763.84,-67 132.11,-67 132.11,-67"/>
<polygon fill="black" stroke="black" points="132.11,-63.5 122.11,-67 132.11,-70.5 132.11,-63.5"/>
</g>
<!-- Design -->
<g id="node6" class="node">
<title>Design</title>
<polygon fill="none" stroke="black" points="1095,-62.5 1095,-100.5 1281,-100.5 1281,-62.5 1095,-62.5"/>
<text text-anchor="middle" x="1188" y="-85.3" font-family="Times,serif" font-size="14.00">Design </text>
<text text-anchor="middle" x="1188" y="-70.3" font-family="Times,serif" font-size="14.00">(VHDL/Verilog) [Emacs]</text>
</g>
<!-- Validation&#45;&gt;Design -->
<g id="edge5" class="edge">
<title>Validation&#45;&gt;Design</title>
<path fill="none" stroke="black" d="M1059.06,-81.5C1059.06,-81.5 1084.69,-81.5 1084.69,-81.5"/>
<polygon fill="black" stroke="black" points="1084.69,-85 1094.69,-81.5 1084.69,-78 1084.69,-85"/>
</g>
<!-- Verification -->
<g id="node7" class="node">
<title>Verification</title>
<polygon fill="none" stroke="black" points="1317,-24.5 1317,-62.5 1612,-62.5 1612,-24.5 1317,-24.5"/>
<text text-anchor="middle" x="1464.5" y="-47.3" font-family="Times,serif" font-size="14.00">Verification </text>
<text text-anchor="middle" x="1464.5" y="-32.3" font-family="Times,serif" font-size="14.00">(VHDL/Verilog) [GHDL / Icarus Verilog]</text>
</g>
<!-- Design&#45;&gt;Verification -->
<g id="edge6" class="edge">
<title>Design&#45;&gt;Verification</title>
<path fill="none" stroke="black" d="M1188,-62.21C1188,-56.78 1188,-52.33 1188,-52.33 1188,-52.33 1306.94,-52.33 1306.94,-52.33"/>
<polygon fill="black" stroke="black" points="1306.94,-55.83 1316.94,-52.33 1306.94,-48.83 1306.94,-55.83"/>
</g>
<!-- Verification&#45;&gt;Requirements -->
<g id="edge11" class="edge">
<title>Verification&#45;&gt;Requirements</title>
<path fill="none" stroke="black" d="M1316.95,-42.67C1316.95,-42.67 132.22,-42.67 132.22,-42.67"/>
<polygon fill="black" stroke="black" points="132.22,-39.17 122.22,-42.67 132.22,-46.17 132.22,-39.17"/>
</g>
<!-- Quality -->
<g id="node8" class="node">
<title>Quality</title>
<polygon fill="none" stroke="black" points="1648,-0.5 1648,-38.5 1762,-38.5 1762,-0.5 1648,-0.5"/>
<text text-anchor="middle" x="1705" y="-23.3" font-family="Times,serif" font-size="14.00">Quality </text>
<text text-anchor="middle" x="1705" y="-8.3" font-family="Times,serif" font-size="14.00">(Tex) [Emacs]</text>
</g>
<!-- Verification&#45;&gt;Quality -->
<g id="edge7" class="edge">
<title>Verification&#45;&gt;Quality</title>
<path fill="none" stroke="black" d="M1612.02,-31.5C1612.02,-31.5 1637.81,-31.5 1637.81,-31.5"/>
<polygon fill="black" stroke="black" points="1637.81,-35 1647.81,-31.5 1637.81,-28 1637.81,-35"/>
</g>
<!-- Quality&#45;&gt;Requirements -->
<g id="edge12" class="edge">
<title>Quality&#45;&gt;Requirements</title>
<path fill="none" stroke="black" d="M1647.93,-12C1357.9,-12 61,-12 61,-12 61,-12 61,-23.2 61,-23.2"/>
<polygon fill="black" stroke="black" points="57.5,-23.2 61,-33.2 64.5,-23.2 57.5,-23.2"/>
</g>
<!-- Certification -->
<g id="node9" class="node">
<title>Certification</title>
<polygon fill="none" stroke="black" points="1798,-0.5 1798,-38.5 1912,-38.5 1912,-0.5 1798,-0.5"/>
<text text-anchor="middle" x="1855" y="-23.3" font-family="Times,serif" font-size="14.00">Certification </text>
<text text-anchor="middle" x="1855" y="-8.3" font-family="Times,serif" font-size="14.00">(Tex) [Emacs]</text>
</g>
<!-- Quality&#45;&gt;Certification -->
<g id="edge8" class="edge">
<title>Quality&#45;&gt;Certification</title>
<path fill="none" stroke="black" d="M1762.14,-19.5C1762.14,-19.5 1787.53,-19.5 1787.53,-19.5"/>
<polygon fill="black" stroke="black" points="1787.53,-23 1797.53,-19.5 1787.53,-16 1787.53,-23"/>
</g>
<!-- Documentation -->
<g id="node10" class="node">
<title>Documentation</title>
<polygon fill="none" stroke="black" points="1948,-0.5 1948,-38.5 2078,-38.5 2078,-0.5 1948,-0.5"/>
<text text-anchor="middle" x="2013" y="-23.3" font-family="Times,serif" font-size="14.00">Documentation </text>
<text text-anchor="middle" x="2013" y="-8.3" font-family="Times,serif" font-size="14.00">(Tex) [Emacs]</text>
</g>
<!-- Certification&#45;&gt;Documentation -->
<g id="edge9" class="edge">
<title>Certification&#45;&gt;Documentation</title>
<path fill="none" stroke="black" d="M1912.04,-19.5C1912.04,-19.5 1937.99,-19.5 1937.99,-19.5"/>
<polygon fill="black" stroke="black" points="1937.99,-23 1947.99,-19.5 1937.99,-16 1937.99,-23"/>
</g>
</g>
</svg>
