<?xml version="1.0" encoding="UTF-8" standalone="no"?>
<!DOCTYPE svg PUBLIC "-//W3C//DTD SVG 1.1//EN"
 "http://www.w3.org/Graphics/SVG/1.1/DTD/svg11.dtd">
<!-- Generated by graphviz version 2.43.0 (0)
 -->
<!-- Title: Project Pages: 1 -->
<svg width="392pt" height="153pt"
 viewBox="0.00 0.00 392.00 153.00" xmlns="http://www.w3.org/2000/svg" xmlns:xlink="http://www.w3.org/1999/xlink">
<g id="graph0" class="graph" transform="scale(1 1) rotate(0) translate(4 149)">
<title>Project</title>
<polygon fill="white" stroke="transparent" points="-4,4 -4,-149 388,-149 388,4 -4,4"/>
<g id="clust1" class="cluster">
<title>cluster TestBench</title>
<polygon fill="none" stroke="black" points="8,-8 8,-137 376,-137 376,-8 8,-8"/>
<text text-anchor="middle" x="192" y="-121.8" font-family="Times,serif" font-size="14.00">TestBench</text>
</g>
<!-- Stimulus -->
<g id="node1" class="node">
<title>Stimulus</title>
<polygon fill="none" stroke="black" points="96,-79 16,-79 16,-43 96,-43 96,-79"/>
<text text-anchor="middle" x="56" y="-57.3" font-family="Times,serif" font-size="14.00">Stimulus</text>
</g>
<!-- Model -->
<g id="node2" class="node">
<title>Model</title>
<polygon fill="none" stroke="black" points="257,-52 132,-52 132,-16 257,-16 257,-52"/>
<text text-anchor="middle" x="194.5" y="-30.3" font-family="Times,serif" font-size="14.00">Model (RISC&#45;V)</text>
</g>
<!-- Stimulus&#45;&gt;Model -->
<g id="edge1" class="edge">
<title>Stimulus&#45;&gt;Model</title>
<path fill="none" stroke="black" d="M96.06,-47.5C96.06,-47.5 121.83,-47.5 121.83,-47.5"/>
<polygon fill="black" stroke="black" points="121.83,-51 131.83,-47.5 121.83,-44 121.83,-51"/>
</g>
<!-- DUT -->
<g id="node3" class="node">
<title>DUT</title>
<polygon fill="none" stroke="black" points="251,-106 138,-106 138,-70 251,-70 251,-106"/>
<text text-anchor="middle" x="194.5" y="-84.3" font-family="Times,serif" font-size="14.00">DUT (RISC&#45;V)</text>
</g>
<!-- Stimulus&#45;&gt;DUT -->
<g id="edge2" class="edge">
<title>Stimulus&#45;&gt;DUT</title>
<path fill="none" stroke="black" d="M96.06,-74.5C96.06,-74.5 127.79,-74.5 127.79,-74.5"/>
<polygon fill="black" stroke="black" points="127.79,-78 137.79,-74.5 127.79,-71 127.79,-78"/>
</g>
<!-- Asserts -->
<g id="node4" class="node">
<title>Asserts</title>
<polygon fill="none" stroke="black" points="368,-79 293,-79 293,-43 368,-43 368,-79"/>
<text text-anchor="middle" x="330.5" y="-57.3" font-family="Times,serif" font-size="14.00">Asserts</text>
</g>
<!-- Model&#45;&gt;Asserts -->
<g id="edge3" class="edge">
<title>Model&#45;&gt;Asserts</title>
<path fill="none" stroke="black" d="M257.32,-47.5C257.32,-47.5 282.77,-47.5 282.77,-47.5"/>
<polygon fill="black" stroke="black" points="282.77,-51 292.77,-47.5 282.77,-44 282.77,-51"/>
</g>
<!-- DUT&#45;&gt;Asserts -->
<g id="edge4" class="edge">
<title>DUT&#45;&gt;Asserts</title>
<path fill="none" stroke="black" d="M251.39,-74.5C251.39,-74.5 282.8,-74.5 282.8,-74.5"/>
<polygon fill="black" stroke="black" points="282.8,-78 292.8,-74.5 282.8,-71 282.8,-78"/>
</g>
</g>
</svg>
