<?xml version="1.0" encoding="UTF-8" standalone="no"?>
<!DOCTYPE svg PUBLIC "-//W3C//DTD SVG 1.1//EN"
 "http://www.w3.org/Graphics/SVG/1.1/DTD/svg11.dtd">
<!-- Generated by graphviz version 2.43.0 (0)
 -->
<!-- Title: Project Pages: 1 -->
<svg width="425pt" height="153pt"
 viewBox="0.00 0.00 425.00 153.00" xmlns="http://www.w3.org/2000/svg" xmlns:xlink="http://www.w3.org/1999/xlink">
<g id="graph0" class="graph" transform="scale(1 1) rotate(0) translate(4 149)">
<title>Project</title>
<polygon fill="white" stroke="transparent" points="-4,4 -4,-149 421,-149 421,4 -4,4"/>
<g id="clust1" class="cluster">
<title>cluster TestBench</title>
<polygon fill="none" stroke="black" points="8,-8 8,-137 409,-137 409,-8 8,-8"/>
<text text-anchor="middle" x="208.5" y="-121.8" font-family="Times,serif" font-size="14.00">TestBench</text>
</g>
<!-- DUT -->
<g id="node1" class="node">
<title>DUT</title>
<polygon fill="none" stroke="black" points="70,-79 16,-79 16,-43 70,-43 70,-79"/>
<text text-anchor="middle" x="43" y="-57.3" font-family="Times,serif" font-size="14.00">DUT</text>
</g>
<!-- Tests -->
<g id="node2" class="node">
<title>Tests</title>
<polygon fill="none" stroke="black" points="160,-79 106,-79 106,-43 160,-43 160,-79"/>
<text text-anchor="middle" x="133" y="-57.3" font-family="Times,serif" font-size="14.00">Tests</text>
</g>
<!-- DUT&#45;&gt;Tests -->
<g id="edge1" class="edge">
<title>DUT&#45;&gt;Tests</title>
<path fill="none" stroke="black" d="M70,-61C70,-61 95.71,-61 95.71,-61"/>
<polygon fill="black" stroke="black" points="95.71,-64.5 105.71,-61 95.7,-57.5 95.71,-64.5"/>
</g>
<!-- Procedures -->
<g id="node3" class="node">
<title>Procedures</title>
<polygon fill="none" stroke="black" points="294,-52 196,-52 196,-16 294,-16 294,-52"/>
<text text-anchor="middle" x="245" y="-30.3" font-family="Times,serif" font-size="14.00">Procedures</text>
</g>
<!-- Tests&#45;&gt;Procedures -->
<g id="edge2" class="edge">
<title>Tests&#45;&gt;Procedures</title>
<path fill="none" stroke="black" d="M160.11,-47.5C160.11,-47.5 185.82,-47.5 185.82,-47.5"/>
<polygon fill="black" stroke="black" points="185.82,-51 195.82,-47.5 185.82,-44 185.82,-51"/>
</g>
<!-- Classes -->
<g id="node5" class="node">
<title>Classes</title>
<polygon fill="none" stroke="black" points="280.5,-106 209.5,-106 209.5,-70 280.5,-70 280.5,-106"/>
<text text-anchor="middle" x="245" y="-84.3" font-family="Times,serif" font-size="14.00">Classes</text>
</g>
<!-- Tests&#45;&gt;Classes -->
<g id="edge3" class="edge">
<title>Tests&#45;&gt;Classes</title>
<path fill="none" stroke="black" d="M160.11,-74.5C160.11,-74.5 199.24,-74.5 199.24,-74.5"/>
<polygon fill="black" stroke="black" points="199.24,-78 209.24,-74.5 199.24,-71 199.24,-78"/>
</g>
<!-- OSVVM -->
<g id="node4" class="node">
<title>OSVVM</title>
<polygon fill="none" stroke="black" points="401,-52 330,-52 330,-16 401,-16 401,-52"/>
<text text-anchor="middle" x="365.5" y="-30.3" font-family="Times,serif" font-size="14.00">OSVVM</text>
</g>
<!-- Procedures&#45;&gt;OSVVM -->
<g id="edge4" class="edge">
<title>Procedures&#45;&gt;OSVVM</title>
<path fill="none" stroke="black" d="M294.01,-34C294.01,-34 319.84,-34 319.84,-34"/>
<polygon fill="black" stroke="black" points="319.84,-37.5 329.84,-34 319.84,-30.5 319.84,-37.5"/>
</g>
<!-- UVM -->
<g id="node6" class="node">
<title>UVM</title>
<polygon fill="none" stroke="black" points="392.5,-106 338.5,-106 338.5,-70 392.5,-70 392.5,-106"/>
<text text-anchor="middle" x="365.5" y="-84.3" font-family="Times,serif" font-size="14.00">UVM</text>
</g>
<!-- Classes&#45;&gt;UVM -->
<g id="edge5" class="edge">
<title>Classes&#45;&gt;UVM</title>
<path fill="none" stroke="black" d="M280.5,-88C280.5,-88 328.28,-88 328.28,-88"/>
<polygon fill="black" stroke="black" points="328.28,-91.5 338.28,-88 328.28,-84.5 328.28,-91.5"/>
</g>
</g>
</svg>
