<?xml version="1.0" encoding="UTF-8" standalone="no"?>
<!DOCTYPE svg PUBLIC "-//W3C//DTD SVG 1.1//EN"
 "http://www.w3.org/Graphics/SVG/1.1/DTD/svg11.dtd">
<!-- Generated by graphviz version 2.43.0 (0)
 -->
<!-- Title: Project Pages: 1 -->
<svg width="882pt" height="502pt"
 viewBox="0.00 0.00 882.00 502.00" xmlns="http://www.w3.org/2000/svg" xmlns:xlink="http://www.w3.org/1999/xlink">
<g id="graph0" class="graph" transform="scale(1 1) rotate(0) translate(4 498)">
<title>Project</title>
<polygon fill="white" stroke="transparent" points="-4,4 -4,-498 878,-498 878,4 -4,4"/>
<g id="clust1" class="cluster">
<title>cluster PeripheralBlocks</title>
<polygon fill="none" stroke="black" points="8,-8 8,-486 163,-486 163,-8 8,-8"/>
<text text-anchor="middle" x="85.5" y="-470.8" font-family="Times,serif" font-size="14.00">Peripheral Blocks</text>
</g>
<g id="clust2" class="cluster">
<title>cluster ArchitectureBlocks</title>
<polygon fill="none" stroke="black" points="183,-150 183,-343 340,-343 340,-150 183,-150"/>
<text text-anchor="middle" x="261.5" y="-327.8" font-family="Times,serif" font-size="14.00">Architecture Blocks</text>
</g>
<g id="clust3" class="cluster">
<title>cluster EnvironmentBlocks</title>
<polygon fill="none" stroke="black" points="360,-207 360,-286 521,-286 521,-207 360,-207"/>
<text text-anchor="middle" x="440.5" y="-270.8" font-family="Times,serif" font-size="14.00">Environment Blocks</text>
</g>
<g id="clust4" class="cluster">
<title>cluster AcceleratorBlocks</title>
<polygon fill="none" stroke="black" points="541,-179 541,-315 690,-315 690,-179 541,-179"/>
<text text-anchor="middle" x="615.5" y="-299.8" font-family="Times,serif" font-size="14.00">Accelerator Blocks</text>
</g>
<g id="clust5" class="cluster">
<title>cluster TargetBlocks</title>
<polygon fill="none" stroke="black" points="710,-207 710,-286 866,-286 866,-207 710,-207"/>
<text text-anchor="middle" x="788" y="-270.8" font-family="Times,serif" font-size="14.00">Target Blocks</text>
</g>
<!-- MPSoC_DBG -->
<g id="node1" class="node">
<title>MPSoC_DBG</title>
<polygon fill="none" stroke="black" points="29,-188 29,-226 142,-226 142,-188 29,-188"/>
<text text-anchor="middle" x="85.5" y="-210.8" font-family="Times,serif" font-size="14.00">MPSoC_DBG </text>
<text text-anchor="middle" x="85.5" y="-195.8" font-family="Times,serif" font-size="14.00">Peripheral</text>
</g>
<!-- PU_MSP430 -->
<g id="node9" class="node">
<title>PU_MSP430</title>
<polygon fill="none" stroke="black" points="206,-159 206,-197 316,-197 316,-159 206,-159"/>
<text text-anchor="middle" x="261" y="-181.8" font-family="Times,serif" font-size="14.00">PU_MSP430 </text>
<text text-anchor="middle" x="261" y="-166.8" font-family="Times,serif" font-size="14.00">Architecture</text>
</g>
<!-- MPSoC_DBG&#45;&gt;PU_MSP430 -->
<g id="edge1" class="edge">
<title>MPSoC_DBG&#45;&gt;PU_MSP430</title>
<path fill="none" stroke="black" d="M142.35,-197.66C159.33,-194.83 178.12,-191.69 195.61,-188.76"/>
<polygon fill="black" stroke="black" points="196.45,-192.17 205.73,-187.07 195.29,-185.27 196.45,-192.17"/>
</g>
<!-- PU_OR1K -->
<g id="node10" class="node">
<title>PU_OR1K</title>
<polygon fill="none" stroke="black" points="208,-273 208,-311 314,-311 314,-273 208,-273"/>
<text text-anchor="middle" x="261" y="-295.8" font-family="Times,serif" font-size="14.00">PU_OR1K </text>
<text text-anchor="middle" x="261" y="-280.8" font-family="Times,serif" font-size="14.00">Architecture</text>
</g>
<!-- MPSoC_DBG&#45;&gt;PU_OR1K -->
<g id="edge9" class="edge">
<title>MPSoC_DBG&#45;&gt;PU_OR1K</title>
<path fill="none" stroke="black" d="M142.08,-223.56C149.49,-227.03 156.7,-231.15 163,-236 175.11,-245.33 170.82,-254.75 183,-264 187.72,-267.58 192.94,-270.74 198.37,-273.52"/>
<polygon fill="black" stroke="black" points="197.12,-276.8 207.67,-277.84 200.07,-270.45 197.12,-276.8"/>
</g>
<!-- PU_RISCV -->
<g id="node11" class="node">
<title>PU_RISCV</title>
<polygon fill="none" stroke="black" points="208,-216 208,-254 314,-254 314,-216 208,-216"/>
<text text-anchor="middle" x="261" y="-238.8" font-family="Times,serif" font-size="14.00">PU_RISCV </text>
<text text-anchor="middle" x="261" y="-223.8" font-family="Times,serif" font-size="14.00">Architecture</text>
</g>
<!-- MPSoC_DBG&#45;&gt;PU_RISCV -->
<g id="edge17" class="edge">
<title>MPSoC_DBG&#45;&gt;PU_RISCV</title>
<path fill="none" stroke="black" d="M142.35,-216.01C160.07,-218.87 179.77,-222.05 197.9,-224.98"/>
<polygon fill="black" stroke="black" points="197.36,-228.44 207.79,-226.57 198.48,-221.53 197.36,-228.44"/>
</g>
<!-- MPSoC_DMA -->
<g id="node2" class="node">
<title>MPSoC_DMA</title>
<polygon fill="none" stroke="black" points="27.5,-131 27.5,-169 143.5,-169 143.5,-131 27.5,-131"/>
<text text-anchor="middle" x="85.5" y="-153.8" font-family="Times,serif" font-size="14.00">MPSoC_DMA </text>
<text text-anchor="middle" x="85.5" y="-138.8" font-family="Times,serif" font-size="14.00">Peripheral</text>
</g>
<!-- MPSoC_DMA&#45;&gt;PU_MSP430 -->
<g id="edge2" class="edge">
<title>MPSoC_DMA&#45;&gt;PU_MSP430</title>
<path fill="none" stroke="black" d="M143.79,-159.25C160.46,-161.94 178.77,-164.89 195.83,-167.64"/>
<polygon fill="black" stroke="black" points="195.28,-171.1 205.71,-169.24 196.4,-164.19 195.28,-171.1"/>
</g>
<!-- MPSoC_DMA&#45;&gt;PU_OR1K -->
<g id="edge10" class="edge">
<title>MPSoC_DMA&#45;&gt;PU_OR1K</title>
<path fill="none" stroke="black" d="M143.64,-164.29C150.91,-168.1 157.66,-172.91 163,-179 188.58,-208.18 157.22,-234.99 183,-264 187.51,-269.07 193.01,-273.23 198.98,-276.63"/>
<polygon fill="black" stroke="black" points="197.48,-279.79 207.99,-281.09 200.59,-273.52 197.48,-279.79"/>
</g>
<!-- MPSoC_DMA&#45;&gt;PU_RISCV -->
<g id="edge18" class="edge">
<title>MPSoC_DMA&#45;&gt;PU_RISCV</title>
<path fill="none" stroke="black" d="M143.67,-167.31C150.52,-170.62 157.15,-174.49 163,-179 175.11,-188.33 170.82,-197.75 183,-207 187.72,-210.58 192.94,-213.74 198.37,-216.52"/>
<polygon fill="black" stroke="black" points="197.12,-219.8 207.67,-220.84 200.07,-213.45 197.12,-219.8"/>
</g>
<!-- MPSoC_GPIO -->
<g id="node3" class="node">
<title>MPSoC_GPIO</title>
<polygon fill="none" stroke="black" points="26.5,-74 26.5,-112 144.5,-112 144.5,-74 26.5,-74"/>
<text text-anchor="middle" x="85.5" y="-96.8" font-family="Times,serif" font-size="14.00">MPSoC_GPIO </text>
<text text-anchor="middle" x="85.5" y="-81.8" font-family="Times,serif" font-size="14.00">Peripheral</text>
</g>
<!-- MPSoC_GPIO&#45;&gt;PU_MSP430 -->
<g id="edge3" class="edge">
<title>MPSoC_GPIO&#45;&gt;PU_MSP430</title>
<path fill="none" stroke="black" d="M142.14,-112.02C149.24,-114.84 156.35,-117.86 163,-121 183,-130.44 204.29,-142.69 221.82,-153.41"/>
<polygon fill="black" stroke="black" points="220.26,-156.56 230.61,-158.85 223.95,-150.61 220.26,-156.56"/>
</g>
<!-- MPSoC_GPIO&#45;&gt;PU_OR1K -->
<g id="edge11" class="edge">
<title>MPSoC_GPIO&#45;&gt;PU_OR1K</title>
<path fill="none" stroke="black" d="M144.51,-106.29C151.56,-110.03 158.02,-114.84 163,-121 203.32,-170.92 142.62,-214.12 183,-264 187.33,-269.35 192.77,-273.68 198.75,-277.18"/>
<polygon fill="black" stroke="black" points="197.33,-280.38 207.83,-281.74 200.47,-274.12 197.33,-280.38"/>
</g>
<!-- MPSoC_GPIO&#45;&gt;PU_RISCV -->
<g id="edge19" class="edge">
<title>MPSoC_GPIO&#45;&gt;PU_RISCV</title>
<path fill="none" stroke="black" d="M144.77,-107.1C151.61,-110.73 157.94,-115.28 163,-121 189,-150.39 156.97,-177.63 183,-207 187.5,-212.08 193,-216.24 198.96,-219.64"/>
<polygon fill="black" stroke="black" points="197.46,-222.8 207.98,-224.11 200.57,-216.53 197.46,-222.8"/>
</g>
<!-- MPSoC_MPI -->
<g id="node4" class="node">
<title>MPSoC_MPI</title>
<polygon fill="none" stroke="black" points="30.5,-17 30.5,-55 140.5,-55 140.5,-17 30.5,-17"/>
<text text-anchor="middle" x="85.5" y="-39.8" font-family="Times,serif" font-size="14.00">MPSoC_MPI </text>
<text text-anchor="middle" x="85.5" y="-24.8" font-family="Times,serif" font-size="14.00">Peripheral</text>
</g>
<!-- MPSoC_MPI&#45;&gt;PU_MSP430 -->
<g id="edge4" class="edge">
<title>MPSoC_MPI&#45;&gt;PU_MSP430</title>
<path fill="none" stroke="black" d="M140.52,-51.75C148.4,-55.17 156.15,-59.23 163,-64 196.38,-87.25 225.21,-124.69 242.57,-150.28"/>
<polygon fill="black" stroke="black" points="239.77,-152.39 248.22,-158.79 245.61,-148.52 239.77,-152.39"/>
</g>
<!-- MPSoC_MPI&#45;&gt;PU_OR1K -->
<g id="edge12" class="edge">
<title>MPSoC_MPI&#45;&gt;PU_OR1K</title>
<path fill="none" stroke="black" d="M140.53,-47.01C149.18,-51.03 157.19,-56.51 163,-64 217.76,-134.58 128.17,-193.47 183,-264 187.28,-269.51 192.75,-273.93 198.79,-277.49"/>
<polygon fill="black" stroke="black" points="197.48,-280.74 207.98,-282.1 200.61,-274.49 197.48,-280.74"/>
</g>
<!-- MPSoC_MPI&#45;&gt;PU_RISCV -->
<g id="edge20" class="edge">
<title>MPSoC_MPI&#45;&gt;PU_RISCV</title>
<path fill="none" stroke="black" d="M140.67,-47.38C149.21,-51.36 157.13,-56.74 163,-64 203.32,-113.92 142.62,-157.12 183,-207 187.33,-212.35 192.77,-216.68 198.75,-220.18"/>
<polygon fill="black" stroke="black" points="197.33,-223.38 207.83,-224.74 200.47,-217.12 197.33,-223.38"/>
</g>
<!-- MPSoC_MPRAM -->
<g id="node5" class="node">
<title>MPSoC_MPRAM</title>
<polygon fill="none" stroke="black" points="16,-416 16,-454 155,-454 155,-416 16,-416"/>
<text text-anchor="middle" x="85.5" y="-438.8" font-family="Times,serif" font-size="14.00">MPSoC_MPRAM </text>
<text text-anchor="middle" x="85.5" y="-423.8" font-family="Times,serif" font-size="14.00">Peripheral</text>
</g>
<!-- MPSoC_MPRAM&#45;&gt;PU_MSP430 -->
<g id="edge5" class="edge">
<title>MPSoC_MPRAM&#45;&gt;PU_MSP430</title>
<path fill="none" stroke="black" d="M154.01,-415.9C157.36,-413.3 160.4,-410.35 163,-407 217.76,-336.42 128.57,-277.84 183,-207 186.88,-201.95 191.75,-197.77 197.15,-194.33"/>
<polygon fill="black" stroke="black" points="198.9,-197.36 205.99,-189.49 195.54,-191.22 198.9,-197.36"/>
</g>
<!-- MPSoC_MPRAM&#45;&gt;PU_OR1K -->
<g id="edge13" class="edge">
<title>MPSoC_MPRAM&#45;&gt;PU_OR1K</title>
<path fill="none" stroke="black" d="M147.69,-415.96C153.06,-413.3 158.25,-410.32 163,-407 196.5,-383.56 225.3,-345.79 242.62,-319.97"/>
<polygon fill="black" stroke="black" points="245.7,-321.66 248.26,-311.38 239.85,-317.82 245.7,-321.66"/>
</g>
<!-- MPSoC_MPRAM&#45;&gt;PU_RISCV -->
<g id="edge21" class="edge">
<title>MPSoC_MPRAM&#45;&gt;PU_RISCV</title>
<path fill="none" stroke="black" d="M153.86,-415.78C157.24,-413.21 160.33,-410.3 163,-407 203.32,-357.08 142.91,-314.11 183,-264 187.32,-258.6 192.75,-254.21 198.73,-250.64"/>
<polygon fill="black" stroke="black" points="200.52,-253.65 207.8,-245.96 197.31,-247.43 200.52,-253.65"/>
</g>
<!-- MPSoC_MSI -->
<g id="node6" class="node">
<title>MPSoC_MSI</title>
<polygon fill="none" stroke="black" points="30.5,-359 30.5,-397 140.5,-397 140.5,-359 30.5,-359"/>
<text text-anchor="middle" x="85.5" y="-381.8" font-family="Times,serif" font-size="14.00">MPSoC_MSI </text>
<text text-anchor="middle" x="85.5" y="-366.8" font-family="Times,serif" font-size="14.00">Peripheral</text>
</g>
<!-- MPSoC_MSI&#45;&gt;PU_MSP430 -->
<g id="edge6" class="edge">
<title>MPSoC_MSI&#45;&gt;PU_MSP430</title>
<path fill="none" stroke="black" d="M140.67,-366.62C149.21,-362.64 157.13,-357.26 163,-350 203.32,-300.08 142.91,-257.11 183,-207 186.83,-202.21 191.54,-198.22 196.73,-194.88"/>
<polygon fill="black" stroke="black" points="198.77,-197.75 205.84,-189.86 195.39,-191.62 198.77,-197.75"/>
</g>
<!-- MPSoC_MSI&#45;&gt;PU_OR1K -->
<g id="edge14" class="edge">
<title>MPSoC_MSI&#45;&gt;PU_OR1K</title>
<path fill="none" stroke="black" d="M140.53,-359.67C148.17,-356.67 155.85,-353.41 163,-350 183.21,-340.36 204.68,-327.8 222.26,-316.82"/>
<polygon fill="black" stroke="black" points="224.49,-319.55 231.08,-311.25 220.75,-313.63 224.49,-319.55"/>
</g>
<!-- MPSoC_MSI&#45;&gt;PU_RISCV -->
<g id="edge22" class="edge">
<title>MPSoC_MSI&#45;&gt;PU_RISCV</title>
<path fill="none" stroke="black" d="M140.54,-366C148.98,-362.08 156.91,-356.89 163,-350 189,-320.61 157.14,-293.51 183,-264 187.49,-258.87 192.98,-254.65 198.94,-251.18"/>
<polygon fill="black" stroke="black" points="200.63,-254.25 207.96,-246.59 197.45,-248.01 200.63,-254.25"/>
</g>
<!-- MPSoC_SPRAM -->
<g id="node7" class="node">
<title>MPSoC_SPRAM</title>
<polygon fill="none" stroke="black" points="18.5,-302 18.5,-340 152.5,-340 152.5,-302 18.5,-302"/>
<text text-anchor="middle" x="85.5" y="-324.8" font-family="Times,serif" font-size="14.00">MPSoC_SPRAM </text>
<text text-anchor="middle" x="85.5" y="-309.8" font-family="Times,serif" font-size="14.00">Peripheral</text>
</g>
<!-- MPSoC_SPRAM&#45;&gt;PU_MSP430 -->
<g id="edge7" class="edge">
<title>MPSoC_SPRAM&#45;&gt;PU_MSP430</title>
<path fill="none" stroke="black" d="M152.83,-301.99C156.56,-299.37 160,-296.39 163,-293 189,-263.61 157.14,-236.51 183,-207 186.98,-202.46 191.75,-198.62 196.93,-195.39"/>
<polygon fill="black" stroke="black" points="198.85,-198.33 205.98,-190.49 195.52,-192.17 198.85,-198.33"/>
</g>
<!-- MPSoC_SPRAM&#45;&gt;PU_OR1K -->
<g id="edge15" class="edge">
<title>MPSoC_SPRAM&#45;&gt;PU_OR1K</title>
<path fill="none" stroke="black" d="M152.59,-309.95C167.45,-307.47 183.17,-304.84 197.86,-302.39"/>
<polygon fill="black" stroke="black" points="198.56,-305.82 207.85,-300.72 197.41,-298.91 198.56,-305.82"/>
</g>
<!-- MPSoC_SPRAM&#45;&gt;PU_RISCV -->
<g id="edge23" class="edge">
<title>MPSoC_SPRAM&#45;&gt;PU_RISCV</title>
<path fill="none" stroke="black" d="M149.2,-301.83C154.08,-299.22 158.75,-296.29 163,-293 175.38,-283.41 170.67,-273.64 183,-264 187.76,-260.28 193.04,-257 198.56,-254.11"/>
<polygon fill="black" stroke="black" points="200.47,-257.08 207.99,-249.61 197.46,-250.76 200.47,-257.08"/>
</g>
<!-- MPSoC_UART -->
<g id="node8" class="node">
<title>MPSoC_UART</title>
<polygon fill="none" stroke="black" points="25,-245 25,-283 146,-283 146,-245 25,-245"/>
<text text-anchor="middle" x="85.5" y="-267.8" font-family="Times,serif" font-size="14.00">MPSoC_UART </text>
<text text-anchor="middle" x="85.5" y="-252.8" font-family="Times,serif" font-size="14.00">Peripheral</text>
</g>
<!-- MPSoC_UART&#45;&gt;PU_MSP430 -->
<g id="edge8" class="edge">
<title>MPSoC_UART&#45;&gt;PU_MSP430</title>
<path fill="none" stroke="black" d="M146.09,-246.43C152.09,-243.44 157.86,-239.98 163,-236 175.38,-226.41 170.67,-216.64 183,-207 187.29,-203.65 192.01,-200.65 196.94,-197.97"/>
<polygon fill="black" stroke="black" points="198.57,-201.07 205.98,-193.5 195.47,-194.8 198.57,-201.07"/>
</g>
<!-- MPSoC_UART&#45;&gt;PU_OR1K -->
<g id="edge16" class="edge">
<title>MPSoC_UART&#45;&gt;PU_OR1K</title>
<path fill="none" stroke="black" d="M146.21,-273.64C162.77,-276.31 180.79,-279.22 197.5,-281.91"/>
<polygon fill="black" stroke="black" points="197.29,-285.42 207.72,-283.56 198.4,-278.51 197.29,-285.42"/>
</g>
<!-- MPSoC_UART&#45;&gt;PU_RISCV -->
<g id="edge24" class="edge">
<title>MPSoC_UART&#45;&gt;PU_RISCV</title>
<path fill="none" stroke="black" d="M146.21,-254.02C162.77,-251.25 180.79,-248.24 197.5,-245.45"/>
<polygon fill="black" stroke="black" points="198.43,-248.84 207.72,-243.74 197.28,-241.94 198.43,-248.84"/>
</g>
<!-- PU_DV -->
<g id="node12" class="node">
<title>PU_DV</title>
<polygon fill="none" stroke="black" points="385,-216 385,-254 495,-254 495,-216 385,-216"/>
<text text-anchor="middle" x="440" y="-238.8" font-family="Times,serif" font-size="14.00">PU_DV </text>
<text text-anchor="middle" x="440" y="-223.8" font-family="Times,serif" font-size="14.00">Environment</text>
</g>
<!-- PU_MSP430&#45;&gt;PU_DV -->
<g id="edge25" class="edge">
<title>PU_MSP430&#45;&gt;PU_DV</title>
<path fill="none" stroke="black" d="M316.07,-195.41C334.77,-201.43 355.89,-208.24 375.29,-214.48"/>
<polygon fill="black" stroke="black" points="374.37,-217.86 384.96,-217.6 376.51,-211.2 374.37,-217.86"/>
</g>
<!-- PU_OR1K&#45;&gt;PU_DV -->
<g id="edge26" class="edge">
<title>PU_OR1K&#45;&gt;PU_DV</title>
<path fill="none" stroke="black" d="M314.15,-275.21C333.25,-269.05 355.09,-262.02 375.11,-255.58"/>
<polygon fill="black" stroke="black" points="376.32,-258.86 384.77,-252.46 374.18,-252.2 376.32,-258.86"/>
</g>
<!-- PU_RISCV&#45;&gt;PU_DV -->
<g id="edge27" class="edge">
<title>PU_RISCV&#45;&gt;PU_DV</title>
<path fill="none" stroke="black" d="M314.15,-235C333.08,-235 354.7,-235 374.56,-235"/>
<polygon fill="black" stroke="black" points="374.77,-238.5 384.77,-235 374.77,-231.5 374.77,-238.5"/>
</g>
<!-- PU_NTM -->
<g id="node13" class="node">
<title>PU_NTM</title>
<polygon fill="none" stroke="black" points="573,-245 573,-283 657,-283 657,-245 573,-245"/>
<text text-anchor="middle" x="615" y="-267.8" font-family="Times,serif" font-size="14.00">PU_NTM </text>
<text text-anchor="middle" x="615" y="-252.8" font-family="Times,serif" font-size="14.00">Target</text>
</g>
<!-- PU_DV&#45;&gt;PU_NTM -->
<g id="edge28" class="edge">
<title>PU_DV&#45;&gt;PU_NTM</title>
<path fill="none" stroke="black" d="M495.26,-244.1C516.81,-247.71 541.47,-251.84 562.71,-255.4"/>
<polygon fill="black" stroke="black" points="562.39,-258.9 572.83,-257.1 563.55,-251.99 562.39,-258.9"/>
</g>
<!-- PU_DNC -->
<g id="node14" class="node">
<title>PU_DNC</title>
<polygon fill="none" stroke="black" points="573.5,-188 573.5,-226 656.5,-226 656.5,-188 573.5,-188"/>
<text text-anchor="middle" x="615" y="-210.8" font-family="Times,serif" font-size="14.00">PU_DNC </text>
<text text-anchor="middle" x="615" y="-195.8" font-family="Times,serif" font-size="14.00">Target</text>
</g>
<!-- PU_DV&#45;&gt;PU_DNC -->
<g id="edge29" class="edge">
<title>PU_DV&#45;&gt;PU_DNC</title>
<path fill="none" stroke="black" d="M495.26,-226.22C517.08,-222.69 542.08,-218.64 563.5,-215.17"/>
<polygon fill="black" stroke="black" points="564.07,-218.63 573.38,-213.57 562.95,-211.72 564.07,-218.63"/>
</g>
<!-- PU_DefenseTech -->
<g id="node15" class="node">
<title>PU_DefenseTech</title>
<polygon fill="none" stroke="black" points="718,-216 718,-254 858,-254 858,-216 718,-216"/>
<text text-anchor="middle" x="788" y="-238.8" font-family="Times,serif" font-size="14.00">PU_DefenseTech </text>
<text text-anchor="middle" x="788" y="-223.8" font-family="Times,serif" font-size="14.00">Target</text>
</g>
<!-- PU_NTM&#45;&gt;PU_DefenseTech -->
<g id="edge30" class="edge">
<title>PU_NTM&#45;&gt;PU_DefenseTech</title>
<path fill="none" stroke="black" d="M657.39,-256.98C672.6,-254.4 690.36,-251.39 707.78,-248.44"/>
<polygon fill="black" stroke="black" points="708.7,-251.83 717.97,-246.71 707.53,-244.93 708.7,-251.83"/>
</g>
<!-- PU_DNC&#45;&gt;PU_DefenseTech -->
<g id="edge31" class="edge">
<title>PU_DNC&#45;&gt;PU_DefenseTech</title>
<path fill="none" stroke="black" d="M656.52,-213.64C671.8,-216.14 689.75,-219.08 707.37,-221.96"/>
<polygon fill="black" stroke="black" points="707.24,-225.49 717.68,-223.65 708.37,-218.58 707.24,-225.49"/>
</g>
</g>
</svg>
