<?xml version="1.0" encoding="UTF-8" standalone="no"?>
<!DOCTYPE svg PUBLIC "-//W3C//DTD SVG 1.1//EN"
 "http://www.w3.org/Graphics/SVG/1.1/DTD/svg11.dtd">
<!-- Generated by graphviz version 2.43.0 (0)
 -->
<!-- Title: Project Pages: 1 -->
<svg width="706pt" height="446pt"
 viewBox="0.00 0.00 706.00 446.00" xmlns="http://www.w3.org/2000/svg" xmlns:xlink="http://www.w3.org/1999/xlink">
<g id="graph0" class="graph" transform="scale(1 1) rotate(0) translate(4 442)">
<title>Project</title>
<polygon fill="white" stroke="transparent" points="-4,4 -4,-442 702,-442 702,4 -4,4"/>
<!-- MPSoC_DBG -->
<g id="node1" class="node">
<title>MPSoC_DBG</title>
<polygon fill="none" stroke="black" points="13,-57.5 13,-95.5 126,-95.5 126,-57.5 13,-57.5"/>
<text text-anchor="middle" x="69.5" y="-80.3" font-family="Times,serif" font-size="14.00">MPSoC_DBG </text>
<text text-anchor="middle" x="69.5" y="-65.3" font-family="Times,serif" font-size="14.00">Peripheral</text>
</g>
<!-- PU_MSP430 -->
<g id="node9" class="node">
<title>PU_MSP430</title>
<polygon fill="none" stroke="black" points="175,-256.5 175,-294.5 285,-294.5 285,-256.5 175,-256.5"/>
<text text-anchor="middle" x="230" y="-279.3" font-family="Times,serif" font-size="14.00">PU_MSP430 </text>
<text text-anchor="middle" x="230" y="-264.3" font-family="Times,serif" font-size="14.00">Architecture</text>
</g>
<!-- MPSoC_DBG&#45;&gt;PU_MSP430 -->
<g id="edge1" class="edge">
<title>MPSoC_DBG&#45;&gt;PU_MSP430</title>
<path fill="none" stroke="black" d="M126,-93.52C130.84,-96.6 135.3,-100.23 139,-104.5 181.95,-154 134.33,-196.11 175,-247.5 175.57,-248.22 176.17,-248.93 176.79,-249.62"/>
<polygon fill="black" stroke="black" points="174.42,-252.2 184.14,-256.41 179.17,-247.06 174.42,-252.2"/>
</g>
<!-- PU_OR1K -->
<g id="node10" class="node">
<title>PU_OR1K</title>
<polygon fill="none" stroke="black" points="177,-199.5 177,-237.5 283,-237.5 283,-199.5 177,-199.5"/>
<text text-anchor="middle" x="230" y="-222.3" font-family="Times,serif" font-size="14.00">PU_OR1K </text>
<text text-anchor="middle" x="230" y="-207.3" font-family="Times,serif" font-size="14.00">Architecture</text>
</g>
<!-- MPSoC_DBG&#45;&gt;PU_OR1K -->
<g id="edge9" class="edge">
<title>MPSoC_DBG&#45;&gt;PU_OR1K</title>
<path fill="none" stroke="black" d="M126.04,-94.52C130.75,-97.39 135.17,-100.7 139,-104.5 168.42,-133.68 146.92,-160.03 175,-190.5 175.75,-191.32 176.53,-192.11 177.34,-192.89"/>
<polygon fill="black" stroke="black" points="175.24,-195.69 185.18,-199.35 179.69,-190.29 175.24,-195.69"/>
</g>
<!-- PU_RISCV -->
<g id="node11" class="node">
<title>PU_RISCV</title>
<polygon fill="none" stroke="black" points="177,-142.5 177,-180.5 283,-180.5 283,-142.5 177,-142.5"/>
<text text-anchor="middle" x="230" y="-165.3" font-family="Times,serif" font-size="14.00">PU_RISCV </text>
<text text-anchor="middle" x="230" y="-150.3" font-family="Times,serif" font-size="14.00">Architecture</text>
</g>
<!-- MPSoC_DBG&#45;&gt;PU_RISCV -->
<g id="edge17" class="edge">
<title>MPSoC_DBG&#45;&gt;PU_RISCV</title>
<path fill="none" stroke="black" d="M119.99,-95.51C126.47,-98.35 132.95,-101.38 139,-104.5 157.44,-114.02 177.01,-126.14 193.18,-136.76"/>
<polygon fill="black" stroke="black" points="191.51,-139.86 201.77,-142.48 195.39,-134.03 191.51,-139.86"/>
</g>
<!-- MPSoC_DMA -->
<g id="node2" class="node">
<title>MPSoC_DMA</title>
<polygon fill="none" stroke="black" points="11.5,-0.5 11.5,-38.5 127.5,-38.5 127.5,-0.5 11.5,-0.5"/>
<text text-anchor="middle" x="69.5" y="-23.3" font-family="Times,serif" font-size="14.00">MPSoC_DMA </text>
<text text-anchor="middle" x="69.5" y="-8.3" font-family="Times,serif" font-size="14.00">Peripheral</text>
</g>
<!-- MPSoC_DMA&#45;&gt;PU_MSP430 -->
<g id="edge2" class="edge">
<title>MPSoC_DMA&#45;&gt;PU_MSP430</title>
<path fill="none" stroke="black" d="M127.6,-37.13C131.87,-40.08 135.77,-43.51 139,-47.5 195.82,-117.7 121.41,-174.8 175,-247.5 175.37,-248 175.76,-248.5 176.15,-248.99"/>
<polygon fill="black" stroke="black" points="173.84,-251.63 183.4,-256.19 178.77,-246.66 173.84,-251.63"/>
</g>
<!-- MPSoC_DMA&#45;&gt;PU_OR1K -->
<g id="edge10" class="edge">
<title>MPSoC_DMA&#45;&gt;PU_OR1K</title>
<path fill="none" stroke="black" d="M127.64,-37.59C131.84,-40.43 135.72,-43.72 139,-47.5 181.95,-97 134.33,-139.11 175,-190.5 175.57,-191.22 176.17,-191.93 176.79,-192.62"/>
<polygon fill="black" stroke="black" points="174.42,-195.2 184.14,-199.41 179.17,-190.06 174.42,-195.2"/>
</g>
<!-- MPSoC_DMA&#45;&gt;PU_RISCV -->
<g id="edge18" class="edge">
<title>MPSoC_DMA&#45;&gt;PU_RISCV</title>
<path fill="none" stroke="black" d="M125.04,-38.68C129.95,-41.32 134.69,-44.25 139,-47.5 170.4,-71.14 196.93,-108.25 212.87,-133.67"/>
<polygon fill="black" stroke="black" points="210.05,-135.76 218.26,-142.45 216.02,-132.1 210.05,-135.76"/>
</g>
<!-- MPSoC_GPIO -->
<g id="node3" class="node">
<title>MPSoC_GPIO</title>
<polygon fill="none" stroke="black" points="10.5,-399.5 10.5,-437.5 128.5,-437.5 128.5,-399.5 10.5,-399.5"/>
<text text-anchor="middle" x="69.5" y="-422.3" font-family="Times,serif" font-size="14.00">MPSoC_GPIO </text>
<text text-anchor="middle" x="69.5" y="-407.3" font-family="Times,serif" font-size="14.00">Peripheral</text>
</g>
<!-- MPSoC_GPIO&#45;&gt;PU_MSP430 -->
<g id="edge3" class="edge">
<title>MPSoC_GPIO&#45;&gt;PU_MSP430</title>
<path fill="none" stroke="black" d="M125.05,-399.34C129.96,-396.69 134.7,-393.75 139,-390.5 170.52,-366.67 197.02,-329.23 212.93,-303.58"/>
<polygon fill="black" stroke="black" points="216.11,-305.08 218.3,-294.72 210.13,-301.46 216.11,-305.08"/>
</g>
<!-- MPSoC_GPIO&#45;&gt;PU_OR1K -->
<g id="edge11" class="edge">
<title>MPSoC_GPIO&#45;&gt;PU_OR1K</title>
<path fill="none" stroke="black" d="M128.6,-399.75C132.44,-397.06 135.97,-393.99 139,-390.5 181.95,-341 134.7,-299.18 175,-247.5 175.81,-246.46 176.67,-245.46 177.57,-244.48"/>
<polygon fill="black" stroke="black" points="180.08,-246.93 185.16,-237.63 175.39,-241.73 180.08,-246.93"/>
</g>
<!-- MPSoC_GPIO&#45;&gt;PU_RISCV -->
<g id="edge19" class="edge">
<title>MPSoC_GPIO&#45;&gt;PU_RISCV</title>
<path fill="none" stroke="black" d="M128.56,-400.2C132.45,-397.41 136.01,-394.19 139,-390.5 195.82,-320.3 121.93,-263.58 175,-190.5 175.67,-189.57 176.38,-188.68 177.13,-187.8"/>
<polygon fill="black" stroke="black" points="179.82,-190.07 184.64,-180.63 174.99,-185 179.82,-190.07"/>
</g>
<!-- MPSoC_MPI -->
<g id="node4" class="node">
<title>MPSoC_MPI</title>
<polygon fill="none" stroke="black" points="14.5,-342.5 14.5,-380.5 124.5,-380.5 124.5,-342.5 14.5,-342.5"/>
<text text-anchor="middle" x="69.5" y="-365.3" font-family="Times,serif" font-size="14.00">MPSoC_MPI </text>
<text text-anchor="middle" x="69.5" y="-350.3" font-family="Times,serif" font-size="14.00">Peripheral</text>
</g>
<!-- MPSoC_MPI&#45;&gt;PU_MSP430 -->
<g id="edge4" class="edge">
<title>MPSoC_MPI&#45;&gt;PU_MSP430</title>
<path fill="none" stroke="black" d="M120.38,-342.38C126.73,-339.57 133.08,-336.59 139,-333.5 157.64,-323.79 177.37,-311.34 193.59,-300.47"/>
<polygon fill="black" stroke="black" points="195.9,-303.13 202.21,-294.62 191.97,-297.34 195.9,-303.13"/>
</g>
<!-- MPSoC_MPI&#45;&gt;PU_OR1K -->
<g id="edge12" class="edge">
<title>MPSoC_MPI&#45;&gt;PU_OR1K</title>
<path fill="none" stroke="black" d="M124.69,-344.29C129.9,-341.23 134.8,-337.66 139,-333.5 168.42,-304.32 147.15,-278.18 175,-247.5 176.16,-246.23 177.38,-245 178.66,-243.82"/>
<polygon fill="black" stroke="black" points="180.9,-246.51 186.51,-237.52 176.52,-241.05 180.9,-246.51"/>
</g>
<!-- MPSoC_MPI&#45;&gt;PU_RISCV -->
<g id="edge20" class="edge">
<title>MPSoC_MPI&#45;&gt;PU_RISCV</title>
<path fill="none" stroke="black" d="M124.67,-345.31C130.02,-342.05 134.96,-338.16 139,-333.5 181.95,-284 134.7,-242.18 175,-190.5 175.81,-189.46 176.67,-188.46 177.57,-187.48"/>
<polygon fill="black" stroke="black" points="180.08,-189.93 185.16,-180.63 175.39,-184.73 180.08,-189.93"/>
</g>
<!-- MPSoC_MPRAM -->
<g id="node5" class="node">
<title>MPSoC_MPRAM</title>
<polygon fill="none" stroke="black" points="0,-285.5 0,-323.5 139,-323.5 139,-285.5 0,-285.5"/>
<text text-anchor="middle" x="69.5" y="-308.3" font-family="Times,serif" font-size="14.00">MPSoC_MPRAM </text>
<text text-anchor="middle" x="69.5" y="-293.3" font-family="Times,serif" font-size="14.00">Peripheral</text>
</g>
<!-- MPSoC_MPRAM&#45;&gt;PU_MSP430 -->
<g id="edge5" class="edge">
<title>MPSoC_MPRAM&#45;&gt;PU_MSP430</title>
<path fill="none" stroke="black" d="M139.1,-291.95C147.54,-290.4 156.16,-288.83 164.54,-287.29"/>
<polygon fill="black" stroke="black" points="165.41,-290.69 174.62,-285.45 164.15,-283.81 165.41,-290.69"/>
</g>
<!-- MPSoC_MPRAM&#45;&gt;PU_OR1K -->
<g id="edge13" class="edge">
<title>MPSoC_MPRAM&#45;&gt;PU_OR1K</title>
<path fill="none" stroke="black" d="M121.8,-285.46C127.72,-282.7 133.58,-279.7 139,-276.5 156.69,-266.06 157.88,-258.85 175,-247.5 177.41,-245.9 179.92,-244.32 182.48,-242.76"/>
<polygon fill="black" stroke="black" points="184.44,-245.67 191.29,-237.59 180.89,-239.63 184.44,-245.67"/>
</g>
<!-- MPSoC_MPRAM&#45;&gt;PU_RISCV -->
<g id="edge21" class="edge">
<title>MPSoC_MPRAM&#45;&gt;PU_RISCV</title>
<path fill="none" stroke="black" d="M127.71,-285.43C131.79,-282.81 135.62,-279.85 139,-276.5 168.42,-247.32 147.15,-221.18 175,-190.5 176.16,-189.23 177.38,-188 178.66,-186.82"/>
<polygon fill="black" stroke="black" points="180.9,-189.51 186.51,-180.52 176.52,-184.05 180.9,-189.51"/>
</g>
<!-- MPSoC_MSI -->
<g id="node6" class="node">
<title>MPSoC_MSI</title>
<polygon fill="none" stroke="black" points="14.5,-228.5 14.5,-266.5 124.5,-266.5 124.5,-228.5 14.5,-228.5"/>
<text text-anchor="middle" x="69.5" y="-251.3" font-family="Times,serif" font-size="14.00">MPSoC_MSI </text>
<text text-anchor="middle" x="69.5" y="-236.3" font-family="Times,serif" font-size="14.00">Peripheral</text>
</g>
<!-- MPSoC_MSI&#45;&gt;PU_MSP430 -->
<g id="edge6" class="edge">
<title>MPSoC_MSI&#45;&gt;PU_MSP430</title>
<path fill="none" stroke="black" d="M124.6,-257.06C137.54,-259.34 151.47,-261.8 164.81,-264.16"/>
<polygon fill="black" stroke="black" points="164.42,-267.64 174.87,-265.94 165.63,-260.75 164.42,-267.64"/>
</g>
<!-- MPSoC_MSI&#45;&gt;PU_OR1K -->
<g id="edge14" class="edge">
<title>MPSoC_MSI&#45;&gt;PU_OR1K</title>
<path fill="none" stroke="black" d="M124.6,-237.6C138.17,-235.12 152.83,-232.44 166.76,-229.89"/>
<polygon fill="black" stroke="black" points="167.54,-233.3 176.75,-228.06 166.28,-226.42 167.54,-233.3"/>
</g>
<!-- MPSoC_MSI&#45;&gt;PU_RISCV -->
<g id="edge22" class="edge">
<title>MPSoC_MSI&#45;&gt;PU_RISCV</title>
<path fill="none" stroke="black" d="M121.8,-228.46C127.72,-225.7 133.58,-222.7 139,-219.5 156.69,-209.06 157.88,-201.85 175,-190.5 177.41,-188.9 179.92,-187.32 182.48,-185.76"/>
<polygon fill="black" stroke="black" points="184.44,-188.67 191.29,-180.59 180.89,-182.63 184.44,-188.67"/>
</g>
<!-- MPSoC_SPRAM -->
<g id="node7" class="node">
<title>MPSoC_SPRAM</title>
<polygon fill="none" stroke="black" points="2.5,-171.5 2.5,-209.5 136.5,-209.5 136.5,-171.5 2.5,-171.5"/>
<text text-anchor="middle" x="69.5" y="-194.3" font-family="Times,serif" font-size="14.00">MPSoC_SPRAM </text>
<text text-anchor="middle" x="69.5" y="-179.3" font-family="Times,serif" font-size="14.00">Peripheral</text>
</g>
<!-- MPSoC_SPRAM&#45;&gt;PU_MSP430 -->
<g id="edge7" class="edge">
<title>MPSoC_SPRAM&#45;&gt;PU_MSP430</title>
<path fill="none" stroke="black" d="M119.91,-209.58C126.46,-212.64 132.99,-215.97 139,-219.5 156.48,-229.76 157.93,-236.57 175,-247.5 176.95,-248.75 178.96,-249.99 181.01,-251.22"/>
<polygon fill="black" stroke="black" points="179.75,-254.52 190.16,-256.46 183.23,-248.45 179.75,-254.52"/>
</g>
<!-- MPSoC_SPRAM&#45;&gt;PU_OR1K -->
<g id="edge15" class="edge">
<title>MPSoC_SPRAM&#45;&gt;PU_OR1K</title>
<path fill="none" stroke="black" d="M136.8,-202.21C146.75,-203.97 156.98,-205.78 166.83,-207.52"/>
<polygon fill="black" stroke="black" points="166.49,-211.01 176.94,-209.3 167.7,-204.12 166.49,-211.01"/>
</g>
<!-- MPSoC_SPRAM&#45;&gt;PU_RISCV -->
<g id="edge23" class="edge">
<title>MPSoC_SPRAM&#45;&gt;PU_RISCV</title>
<path fill="none" stroke="black" d="M136.8,-178.37C146.75,-176.55 156.98,-174.68 166.83,-172.87"/>
<polygon fill="black" stroke="black" points="167.74,-176.27 176.94,-171.02 166.48,-169.38 167.74,-176.27"/>
</g>
<!-- MPSoC_UART -->
<g id="node8" class="node">
<title>MPSoC_UART</title>
<polygon fill="none" stroke="black" points="9,-114.5 9,-152.5 130,-152.5 130,-114.5 9,-114.5"/>
<text text-anchor="middle" x="69.5" y="-137.3" font-family="Times,serif" font-size="14.00">MPSoC_UART </text>
<text text-anchor="middle" x="69.5" y="-122.3" font-family="Times,serif" font-size="14.00">Peripheral</text>
</g>
<!-- MPSoC_UART&#45;&gt;PU_MSP430 -->
<g id="edge8" class="edge">
<title>MPSoC_UART&#45;&gt;PU_MSP430</title>
<path fill="none" stroke="black" d="M126.37,-152.58C130.95,-155.47 135.26,-158.76 139,-162.5 168.01,-191.51 147.14,-217.38 175,-247.5 175.75,-248.31 176.54,-249.11 177.34,-249.88"/>
<polygon fill="black" stroke="black" points="175.25,-252.69 185.2,-256.34 179.69,-247.29 175.25,-252.69"/>
</g>
<!-- MPSoC_UART&#45;&gt;PU_OR1K -->
<g id="edge16" class="edge">
<title>MPSoC_UART&#45;&gt;PU_OR1K</title>
<path fill="none" stroke="black" d="M119.91,-152.58C126.46,-155.64 132.99,-158.97 139,-162.5 156.48,-172.76 157.93,-179.57 175,-190.5 176.95,-191.75 178.96,-192.99 181.01,-194.22"/>
<polygon fill="black" stroke="black" points="179.75,-197.52 190.16,-199.46 183.23,-191.45 179.75,-197.52"/>
</g>
<!-- MPSoC_UART&#45;&gt;PU_RISCV -->
<g id="edge24" class="edge">
<title>MPSoC_UART&#45;&gt;PU_RISCV</title>
<path fill="none" stroke="black" d="M130.42,-144.09C142.34,-146.19 154.88,-148.41 166.87,-150.52"/>
<polygon fill="black" stroke="black" points="166.33,-153.98 176.78,-152.28 167.54,-147.09 166.33,-153.98"/>
</g>
<!-- PU_DV -->
<g id="node12" class="node">
<title>PU_DV</title>
<polygon fill="none" stroke="black" points="321,-199.5 321,-237.5 431,-237.5 431,-199.5 321,-199.5"/>
<text text-anchor="middle" x="376" y="-222.3" font-family="Times,serif" font-size="14.00">PU_DV </text>
<text text-anchor="middle" x="376" y="-207.3" font-family="Times,serif" font-size="14.00">Environment</text>
</g>
<!-- PU_MSP430&#45;&gt;PU_DV -->
<g id="edge25" class="edge">
<title>PU_MSP430&#45;&gt;PU_DV</title>
<path fill="none" stroke="black" d="M279.35,-256.36C291.46,-251.57 304.58,-246.38 317.1,-241.42"/>
<polygon fill="black" stroke="black" points="318.52,-244.62 326.53,-237.69 315.95,-238.11 318.52,-244.62"/>
</g>
<!-- PU_OR1K&#45;&gt;PU_DV -->
<g id="edge26" class="edge">
<title>PU_OR1K&#45;&gt;PU_DV</title>
<path fill="none" stroke="black" d="M283.39,-218.5C292.28,-218.5 301.59,-218.5 310.73,-218.5"/>
<polygon fill="black" stroke="black" points="310.95,-222 320.95,-218.5 310.95,-215 310.95,-222"/>
</g>
<!-- PU_RISCV&#45;&gt;PU_DV -->
<g id="edge27" class="edge">
<title>PU_RISCV&#45;&gt;PU_DV</title>
<path fill="none" stroke="black" d="M279.35,-180.64C291.46,-185.43 304.58,-190.62 317.1,-195.58"/>
<polygon fill="black" stroke="black" points="315.95,-198.89 326.53,-199.31 318.52,-192.38 315.95,-198.89"/>
</g>
<!-- PU_NTM -->
<g id="node13" class="node">
<title>PU_NTM</title>
<polygon fill="none" stroke="black" points="467,-228.5 467,-266.5 553,-266.5 553,-228.5 467,-228.5"/>
<text text-anchor="middle" x="510" y="-251.3" font-family="Times,serif" font-size="14.00">PU_NTM </text>
<text text-anchor="middle" x="510" y="-236.3" font-family="Times,serif" font-size="14.00">Advanced</text>
</g>
<!-- PU_DV&#45;&gt;PU_NTM -->
<g id="edge28" class="edge">
<title>PU_DV&#45;&gt;PU_NTM</title>
<path fill="none" stroke="black" d="M431.07,-230.38C439.67,-232.27 448.54,-234.22 457.09,-236.1"/>
<polygon fill="black" stroke="black" points="456.42,-239.53 466.93,-238.26 457.92,-232.69 456.42,-239.53"/>
</g>
<!-- PU_DNC -->
<g id="node14" class="node">
<title>PU_DNC</title>
<polygon fill="none" stroke="black" points="467,-171.5 467,-209.5 553,-209.5 553,-171.5 467,-171.5"/>
<text text-anchor="middle" x="510" y="-194.3" font-family="Times,serif" font-size="14.00">PU_DNC </text>
<text text-anchor="middle" x="510" y="-179.3" font-family="Times,serif" font-size="14.00">Advanced</text>
</g>
<!-- PU_DV&#45;&gt;PU_DNC -->
<g id="edge29" class="edge">
<title>PU_DV&#45;&gt;PU_DNC</title>
<path fill="none" stroke="black" d="M431.07,-207.03C439.67,-205.21 448.54,-203.32 457.09,-201.51"/>
<polygon fill="black" stroke="black" points="457.88,-204.92 466.93,-199.42 456.43,-198.07 457.88,-204.92"/>
</g>
<!-- PU_DefenseTech -->
<g id="node15" class="node">
<title>PU_DefenseTech</title>
<polygon fill="none" stroke="black" points="589,-199.5 589,-237.5 698,-237.5 698,-199.5 589,-199.5"/>
<text text-anchor="middle" x="643.5" y="-222.3" font-family="Times,serif" font-size="14.00">PU_DefenseTech </text>
<text text-anchor="middle" x="643.5" y="-207.3" font-family="Times,serif" font-size="14.00">Advanced</text>
</g>
<!-- PU_NTM&#45;&gt;PU_DefenseTech -->
<g id="edge30" class="edge">
<title>PU_NTM&#45;&gt;PU_DefenseTech</title>
<path fill="none" stroke="black" d="M553.33,-238.16C561.43,-236.38 570.07,-234.47 578.66,-232.58"/>
<polygon fill="black" stroke="black" points="579.69,-235.94 588.7,-230.37 578.18,-229.1 579.69,-235.94"/>
</g>
<!-- PU_DNC&#45;&gt;PU_DefenseTech -->
<g id="edge31" class="edge">
<title>PU_DNC&#45;&gt;PU_DefenseTech</title>
<path fill="none" stroke="black" d="M553.33,-199.51C561.43,-201.24 570.07,-203.08 578.66,-204.91"/>
<polygon fill="black" stroke="black" points="578.19,-208.38 588.7,-207.04 579.64,-201.54 578.19,-208.38"/>
</g>
</g>
</svg>
