<?xml version="1.0" encoding="UTF-8" standalone="no"?>
<!DOCTYPE svg PUBLIC "-//W3C//DTD SVG 1.1//EN"
 "http://www.w3.org/Graphics/SVG/1.1/DTD/svg11.dtd">
<!-- Generated by graphviz version 2.43.0 (0)
 -->
<!-- Title: Project Pages: 1 -->
<svg width="795pt" height="503pt"
 viewBox="0.00 0.00 795.00 503.00" xmlns="http://www.w3.org/2000/svg" xmlns:xlink="http://www.w3.org/1999/xlink">
<g id="graph0" class="graph" transform="scale(1 1) rotate(0) translate(4 499)">
<title>Project</title>
<polygon fill="white" stroke="transparent" points="-4,4 -4,-499 791,-499 791,4 -4,4"/>
<!-- MPSoC_DBG -->
<g id="node1" class="node">
<title>MPSoC_DBG</title>
<polygon fill="none" stroke="black" points="13,-342.5 13,-380.5 126,-380.5 126,-342.5 13,-342.5"/>
<text text-anchor="middle" x="69.5" y="-365.3" font-family="Times,serif" font-size="14.00">MPSoC_DBG </text>
<text text-anchor="middle" x="69.5" y="-350.3" font-family="Times,serif" font-size="14.00">Peripheral</text>
</g>
<!-- MPSoC_MSP430 -->
<g id="node10" class="node">
<title>MPSoC_MSP430</title>
<polygon fill="none" stroke="black" points="175,-285.5 175,-323.5 316,-323.5 316,-285.5 175,-285.5"/>
<text text-anchor="middle" x="245.5" y="-308.3" font-family="Times,serif" font-size="14.00">MPSoC_MSP430 </text>
<text text-anchor="middle" x="245.5" y="-293.3" font-family="Times,serif" font-size="14.00">Architecture</text>
</g>
<!-- MPSoC_DBG&#45;&gt;MPSoC_MSP430 -->
<g id="edge1" class="edge">
<title>MPSoC_DBG&#45;&gt;MPSoC_MSP430</title>
<path fill="none" stroke="black" d="M126.03,-343.31C142.16,-338.02 159.96,-332.19 176.75,-326.69"/>
<polygon fill="black" stroke="black" points="178.08,-329.94 186.5,-323.5 175.91,-323.29 178.08,-329.94"/>
</g>
<!-- MPSoC_OR1K -->
<g id="node11" class="node">
<title>MPSoC_OR1K</title>
<polygon fill="none" stroke="black" points="184.5,-228.5 184.5,-266.5 306.5,-266.5 306.5,-228.5 184.5,-228.5"/>
<text text-anchor="middle" x="245.5" y="-251.3" font-family="Times,serif" font-size="14.00">MPSoC_OR1K </text>
<text text-anchor="middle" x="245.5" y="-236.3" font-family="Times,serif" font-size="14.00">Architecture</text>
</g>
<!-- MPSoC_DBG&#45;&gt;MPSoC_OR1K -->
<g id="edge27" class="edge">
<title>MPSoC_DBG&#45;&gt;MPSoC_OR1K</title>
<path fill="none" stroke="black" d="M126.1,-342.39C130.68,-339.76 135.06,-336.8 139,-333.5 161.96,-314.25 152.11,-295.83 175,-276.5 176.79,-274.99 178.66,-273.55 180.6,-272.18"/>
<polygon fill="black" stroke="black" points="182.89,-274.87 189.5,-266.59 179.17,-268.95 182.89,-274.87"/>
</g>
<!-- MPSoC_RISCV -->
<g id="node12" class="node">
<title>MPSoC_RISCV</title>
<polygon fill="none" stroke="black" points="182.5,-171.5 182.5,-209.5 308.5,-209.5 308.5,-171.5 182.5,-171.5"/>
<text text-anchor="middle" x="245.5" y="-194.3" font-family="Times,serif" font-size="14.00">MPSoC_RISCV </text>
<text text-anchor="middle" x="245.5" y="-179.3" font-family="Times,serif" font-size="14.00">Architecture</text>
</g>
<!-- MPSoC_DBG&#45;&gt;MPSoC_RISCV -->
<g id="edge53" class="edge">
<title>MPSoC_DBG&#45;&gt;MPSoC_RISCV</title>
<path fill="none" stroke="black" d="M126.08,-344.04C130.84,-341.05 135.26,-337.56 139,-333.5 175,-294.42 139.15,-258.71 175,-219.5 176.18,-218.21 177.43,-216.97 178.74,-215.78"/>
<polygon fill="black" stroke="black" points="181,-218.46 186.76,-209.57 176.71,-212.93 181,-218.46"/>
</g>
<!-- SoC_MSP430 -->
<g id="node13" class="node">
<title>SoC_MSP430</title>
<polygon fill="none" stroke="black" points="187,-456.5 187,-494.5 304,-494.5 304,-456.5 187,-456.5"/>
<text text-anchor="middle" x="245.5" y="-479.3" font-family="Times,serif" font-size="14.00">SoC_MSP430 </text>
<text text-anchor="middle" x="245.5" y="-464.3" font-family="Times,serif" font-size="14.00">Architecture</text>
</g>
<!-- MPSoC_DBG&#45;&gt;SoC_MSP430 -->
<g id="edge10" class="edge">
<title>MPSoC_DBG&#45;&gt;SoC_MSP430</title>
<path fill="none" stroke="black" d="M124.71,-380.66C129.8,-383.55 134.67,-386.82 139,-390.5 161.84,-409.89 151.99,-428.31 175,-447.5 176.37,-448.65 177.8,-449.75 179.27,-450.81"/>
<polygon fill="black" stroke="black" points="177.78,-454.02 188.09,-456.46 181.56,-448.12 177.78,-454.02"/>
</g>
<!-- SoC_OR1K -->
<g id="node14" class="node">
<title>SoC_OR1K</title>
<polygon fill="none" stroke="black" points="192.5,-399.5 192.5,-437.5 298.5,-437.5 298.5,-399.5 192.5,-399.5"/>
<text text-anchor="middle" x="245.5" y="-422.3" font-family="Times,serif" font-size="14.00">SoC_OR1K </text>
<text text-anchor="middle" x="245.5" y="-407.3" font-family="Times,serif" font-size="14.00">Architecture</text>
</g>
<!-- MPSoC_DBG&#45;&gt;SoC_OR1K -->
<g id="edge36" class="edge">
<title>MPSoC_DBG&#45;&gt;SoC_OR1K</title>
<path fill="none" stroke="black" d="M126.03,-379.69C144.16,-385.63 164.39,-392.26 182.93,-398.33"/>
<polygon fill="black" stroke="black" points="181.86,-401.66 192.45,-401.45 184.04,-395.01 181.86,-401.66"/>
</g>
<!-- SoC_RISCV -->
<g id="node15" class="node">
<title>SoC_RISCV</title>
<polygon fill="none" stroke="black" points="192.5,-342.5 192.5,-380.5 298.5,-380.5 298.5,-342.5 192.5,-342.5"/>
<text text-anchor="middle" x="245.5" y="-365.3" font-family="Times,serif" font-size="14.00">SoC_RISCV </text>
<text text-anchor="middle" x="245.5" y="-350.3" font-family="Times,serif" font-size="14.00">Architecture</text>
</g>
<!-- MPSoC_DBG&#45;&gt;SoC_RISCV -->
<g id="edge62" class="edge">
<title>MPSoC_DBG&#45;&gt;SoC_RISCV</title>
<path fill="none" stroke="black" d="M126.03,-361.5C143.99,-361.5 164.02,-361.5 182.42,-361.5"/>
<polygon fill="black" stroke="black" points="182.45,-365 192.45,-361.5 182.45,-358 182.45,-365"/>
</g>
<!-- PU_MSP430 -->
<g id="node16" class="node">
<title>PU_MSP430</title>
<polygon fill="none" stroke="black" points="190.5,-114.5 190.5,-152.5 300.5,-152.5 300.5,-114.5 190.5,-114.5"/>
<text text-anchor="middle" x="245.5" y="-137.3" font-family="Times,serif" font-size="14.00">PU_MSP430 </text>
<text text-anchor="middle" x="245.5" y="-122.3" font-family="Times,serif" font-size="14.00">Architecture</text>
</g>
<!-- MPSoC_DBG&#45;&gt;PU_MSP430 -->
<g id="edge19" class="edge">
<title>MPSoC_DBG&#45;&gt;PU_MSP430</title>
<path fill="none" stroke="black" d="M126.18,-344.63C130.98,-341.52 135.38,-337.84 139,-333.5 188.74,-273.85 125.47,-222.33 175,-162.5 177.13,-159.93 179.52,-157.59 182.1,-155.45"/>
<polygon fill="black" stroke="black" points="184.2,-158.25 190.36,-149.62 180.17,-152.53 184.2,-158.25"/>
</g>
<!-- PU_OR1K -->
<g id="node17" class="node">
<title>PU_OR1K</title>
<polygon fill="none" stroke="black" points="192.5,-57.5 192.5,-95.5 298.5,-95.5 298.5,-57.5 192.5,-57.5"/>
<text text-anchor="middle" x="245.5" y="-80.3" font-family="Times,serif" font-size="14.00">PU_OR1K </text>
<text text-anchor="middle" x="245.5" y="-65.3" font-family="Times,serif" font-size="14.00">Architecture</text>
</g>
<!-- MPSoC_DBG&#45;&gt;PU_OR1K -->
<g id="edge45" class="edge">
<title>MPSoC_DBG&#45;&gt;PU_OR1K</title>
<path fill="none" stroke="black" d="M126.08,-345.03C130.97,-341.84 135.41,-338.03 139,-333.5 202.68,-253.07 111.61,-186.16 175,-105.5 177.64,-102.15 180.73,-99.18 184.12,-96.55"/>
<polygon fill="black" stroke="black" points="186.08,-99.44 192.49,-91.01 182.22,-93.6 186.08,-99.44"/>
</g>
<!-- PU_RISCV -->
<g id="node18" class="node">
<title>PU_RISCV</title>
<polygon fill="none" stroke="black" points="192.5,-0.5 192.5,-38.5 298.5,-38.5 298.5,-0.5 192.5,-0.5"/>
<text text-anchor="middle" x="245.5" y="-23.3" font-family="Times,serif" font-size="14.00">PU_RISCV </text>
<text text-anchor="middle" x="245.5" y="-8.3" font-family="Times,serif" font-size="14.00">Architecture</text>
</g>
<!-- MPSoC_DBG&#45;&gt;PU_RISCV -->
<g id="edge71" class="edge">
<title>MPSoC_DBG&#45;&gt;PU_RISCV</title>
<path fill="none" stroke="black" d="M126.22,-345.14C131.08,-341.93 135.48,-338.09 139,-333.5 216.69,-232.19 97.68,-150.09 175,-48.5 177.58,-45.11 180.64,-42.11 184,-39.45"/>
<polygon fill="black" stroke="black" points="185.96,-42.35 192.33,-33.88 182.07,-36.53 185.96,-42.35"/>
</g>
<!-- MPSoC_DMA -->
<g id="node2" class="node">
<title>MPSoC_DMA</title>
<polygon fill="none" stroke="black" points="11.5,-285.5 11.5,-323.5 127.5,-323.5 127.5,-285.5 11.5,-285.5"/>
<text text-anchor="middle" x="69.5" y="-308.3" font-family="Times,serif" font-size="14.00">MPSoC_DMA </text>
<text text-anchor="middle" x="69.5" y="-293.3" font-family="Times,serif" font-size="14.00">Peripheral</text>
</g>
<!-- MPSoC_DMA&#45;&gt;MPSoC_MSP430 -->
<g id="edge2" class="edge">
<title>MPSoC_DMA&#45;&gt;MPSoC_MSP430</title>
<path fill="none" stroke="black" d="M127.96,-304.5C139.71,-304.5 152.28,-304.5 164.66,-304.5"/>
<polygon fill="black" stroke="black" points="164.99,-308 174.99,-304.5 164.99,-301 164.99,-308"/>
</g>
<!-- MPSoC_DMA&#45;&gt;MPSoC_OR1K -->
<g id="edge28" class="edge">
<title>MPSoC_DMA&#45;&gt;MPSoC_OR1K</title>
<path fill="none" stroke="black" d="M127.96,-285.68C143.45,-280.6 160.36,-275.06 176.38,-269.82"/>
<polygon fill="black" stroke="black" points="177.8,-273.03 186.21,-266.59 175.62,-266.38 177.8,-273.03"/>
</g>
<!-- MPSoC_DMA&#45;&gt;MPSoC_RISCV -->
<g id="edge54" class="edge">
<title>MPSoC_DMA&#45;&gt;MPSoC_RISCV</title>
<path fill="none" stroke="black" d="M126.1,-285.39C130.68,-282.76 135.06,-279.8 139,-276.5 161.96,-257.25 152.11,-238.83 175,-219.5 176.79,-217.99 178.66,-216.55 180.6,-215.18"/>
<polygon fill="black" stroke="black" points="182.89,-217.87 189.5,-209.59 179.17,-211.95 182.89,-217.87"/>
</g>
<!-- MPSoC_DMA&#45;&gt;SoC_MSP430 -->
<g id="edge11" class="edge">
<title>MPSoC_DMA&#45;&gt;SoC_MSP430</title>
<path fill="none" stroke="black" d="M127.41,-323.65C131.66,-326.51 135.61,-329.77 139,-333.5 174.75,-372.81 138.91,-408.51 175,-447.5 176.18,-448.78 177.44,-450 178.74,-451.17"/>
<polygon fill="black" stroke="black" points="176.7,-454.01 186.78,-457.28 180.93,-448.44 176.7,-454.01"/>
</g>
<!-- MPSoC_DMA&#45;&gt;SoC_OR1K -->
<g id="edge37" class="edge">
<title>MPSoC_DMA&#45;&gt;SoC_OR1K</title>
<path fill="none" stroke="black" d="M124.71,-323.66C129.8,-326.55 134.67,-329.82 139,-333.5 161.84,-352.89 151.99,-371.31 175,-390.5 177.68,-392.73 180.56,-394.81 183.57,-396.73"/>
<polygon fill="black" stroke="black" points="181.92,-399.82 192.33,-401.75 185.4,-393.74 181.92,-399.82"/>
</g>
<!-- MPSoC_DMA&#45;&gt;SoC_RISCV -->
<g id="edge63" class="edge">
<title>MPSoC_DMA&#45;&gt;SoC_RISCV</title>
<path fill="none" stroke="black" d="M127.96,-323.32C145.5,-329.07 164.85,-335.41 182.67,-341.25"/>
<polygon fill="black" stroke="black" points="181.8,-344.64 192.39,-344.43 183.97,-337.99 181.8,-344.64"/>
</g>
<!-- MPSoC_DMA&#45;&gt;PU_MSP430 -->
<g id="edge20" class="edge">
<title>MPSoC_DMA&#45;&gt;PU_MSP430</title>
<path fill="none" stroke="black" d="M127.72,-285.98C131.86,-283.23 135.69,-280.09 139,-276.5 175,-237.42 139.15,-201.71 175,-162.5 177.07,-160.24 179.34,-158.15 181.76,-156.22"/>
<polygon fill="black" stroke="black" points="184.21,-158.78 190.49,-150.24 180.26,-153 184.21,-158.78"/>
</g>
<!-- MPSoC_DMA&#45;&gt;PU_OR1K -->
<g id="edge46" class="edge">
<title>MPSoC_DMA&#45;&gt;PU_OR1K</title>
<path fill="none" stroke="black" d="M127.8,-286.55C131.97,-283.67 135.79,-280.35 139,-276.5 188.74,-216.85 125.47,-165.33 175,-105.5 177.6,-102.36 180.6,-99.56 183.85,-97.05"/>
<polygon fill="black" stroke="black" points="185.98,-99.84 192.42,-91.42 182.14,-93.99 185.98,-99.84"/>
</g>
<!-- MPSoC_DMA&#45;&gt;PU_RISCV -->
<g id="edge72" class="edge">
<title>MPSoC_DMA&#45;&gt;PU_RISCV</title>
<path fill="none" stroke="black" d="M127.69,-286.94C131.94,-283.98 135.81,-280.53 139,-276.5 202.68,-196.07 111.61,-129.16 175,-48.5 177.64,-45.15 180.73,-42.18 184.12,-39.55"/>
<polygon fill="black" stroke="black" points="186.08,-42.44 192.49,-34.01 182.22,-36.6 186.08,-42.44"/>
</g>
<!-- MPSoC_GPIO -->
<g id="node3" class="node">
<title>MPSoC_GPIO</title>
<polygon fill="none" stroke="black" points="10.5,-228.5 10.5,-266.5 128.5,-266.5 128.5,-228.5 10.5,-228.5"/>
<text text-anchor="middle" x="69.5" y="-251.3" font-family="Times,serif" font-size="14.00">MPSoC_GPIO </text>
<text text-anchor="middle" x="69.5" y="-236.3" font-family="Times,serif" font-size="14.00">Peripheral</text>
</g>
<!-- MPSoC_GPIO&#45;&gt;MPSoC_MSP430 -->
<g id="edge3" class="edge">
<title>MPSoC_GPIO&#45;&gt;MPSoC_MSP430</title>
<path fill="none" stroke="black" d="M128.92,-266.64C144.21,-271.65 160.83,-277.09 176.56,-282.25"/>
<polygon fill="black" stroke="black" points="175.64,-285.62 186.23,-285.41 177.82,-278.97 175.64,-285.62"/>
</g>
<!-- MPSoC_GPIO&#45;&gt;MPSoC_OR1K -->
<g id="edge29" class="edge">
<title>MPSoC_GPIO&#45;&gt;MPSoC_OR1K</title>
<path fill="none" stroke="black" d="M128.92,-247.5C143.44,-247.5 159.16,-247.5 174.18,-247.5"/>
<polygon fill="black" stroke="black" points="174.45,-251 184.45,-247.5 174.45,-244 174.45,-251"/>
</g>
<!-- MPSoC_GPIO&#45;&gt;MPSoC_RISCV -->
<g id="edge55" class="edge">
<title>MPSoC_GPIO&#45;&gt;MPSoC_RISCV</title>
<path fill="none" stroke="black" d="M128.92,-228.36C144.21,-223.35 160.83,-217.91 176.56,-212.75"/>
<polygon fill="black" stroke="black" points="177.82,-216.03 186.23,-209.59 175.64,-209.38 177.82,-216.03"/>
</g>
<!-- MPSoC_GPIO&#45;&gt;SoC_MSP430 -->
<g id="edge12" class="edge">
<title>MPSoC_GPIO&#45;&gt;SoC_MSP430</title>
<path fill="none" stroke="black" d="M128.13,-266.53C132.18,-269.41 135.88,-272.71 139,-276.5 188.37,-336.45 125.11,-387.98 175,-447.5 176.15,-448.87 177.38,-450.18 178.67,-451.42"/>
<polygon fill="black" stroke="black" points="176.71,-454.33 186.7,-457.85 181.08,-448.87 176.71,-454.33"/>
</g>
<!-- MPSoC_GPIO&#45;&gt;SoC_OR1K -->
<g id="edge38" class="edge">
<title>MPSoC_GPIO&#45;&gt;SoC_OR1K</title>
<path fill="none" stroke="black" d="M127.41,-266.65C131.66,-269.51 135.61,-272.77 139,-276.5 174.75,-315.81 138.91,-351.51 175,-390.5 177.58,-393.29 180.48,-395.81 183.59,-398.08"/>
<polygon fill="black" stroke="black" points="181.91,-401.16 192.23,-403.53 185.64,-395.24 181.91,-401.16"/>
</g>
<!-- MPSoC_GPIO&#45;&gt;SoC_RISCV -->
<g id="edge64" class="edge">
<title>MPSoC_GPIO&#45;&gt;SoC_RISCV</title>
<path fill="none" stroke="black" d="M124.71,-266.66C129.8,-269.55 134.67,-272.82 139,-276.5 161.84,-295.89 151.99,-314.31 175,-333.5 177.68,-335.73 180.56,-337.81 183.57,-339.73"/>
<polygon fill="black" stroke="black" points="181.92,-342.82 192.33,-344.75 185.4,-336.74 181.92,-342.82"/>
</g>
<!-- MPSoC_GPIO&#45;&gt;PU_MSP430 -->
<g id="edge21" class="edge">
<title>MPSoC_GPIO&#45;&gt;PU_MSP430</title>
<path fill="none" stroke="black" d="M126.1,-228.39C130.68,-225.76 135.06,-222.8 139,-219.5 161.96,-200.25 152.11,-181.83 175,-162.5 177.01,-160.8 179.13,-159.19 181.34,-157.67"/>
<polygon fill="black" stroke="black" points="183.53,-160.43 190.2,-152.19 179.85,-154.47 183.53,-160.43"/>
</g>
<!-- MPSoC_GPIO&#45;&gt;PU_OR1K -->
<g id="edge47" class="edge">
<title>MPSoC_GPIO&#45;&gt;PU_OR1K</title>
<path fill="none" stroke="black" d="M128.7,-228.32C132.46,-225.73 135.95,-222.81 139,-219.5 175,-180.42 139.15,-144.71 175,-105.5 177.58,-102.68 180.47,-100.13 183.58,-97.82"/>
<polygon fill="black" stroke="black" points="185.71,-100.6 192.22,-92.24 181.92,-94.72 185.71,-100.6"/>
</g>
<!-- MPSoC_GPIO&#45;&gt;PU_RISCV -->
<g id="edge73" class="edge">
<title>MPSoC_GPIO&#45;&gt;PU_RISCV</title>
<path fill="none" stroke="black" d="M128.75,-228.88C132.55,-226.16 136.04,-223.05 139,-219.5 188.74,-159.85 125.47,-108.33 175,-48.5 177.6,-45.36 180.6,-42.56 183.85,-40.05"/>
<polygon fill="black" stroke="black" points="185.98,-42.84 192.42,-34.42 182.14,-36.99 185.98,-42.84"/>
</g>
<!-- MPSoC_MPI -->
<g id="node4" class="node">
<title>MPSoC_MPI</title>
<polygon fill="none" stroke="black" points="14.5,-171.5 14.5,-209.5 124.5,-209.5 124.5,-171.5 14.5,-171.5"/>
<text text-anchor="middle" x="69.5" y="-194.3" font-family="Times,serif" font-size="14.00">MPSoC_MPI </text>
<text text-anchor="middle" x="69.5" y="-179.3" font-family="Times,serif" font-size="14.00">Peripheral</text>
</g>
<!-- MPSoC_MPI&#45;&gt;MPSoC_MSP430 -->
<g id="edge4" class="edge">
<title>MPSoC_MPI&#45;&gt;MPSoC_MSP430</title>
<path fill="none" stroke="black" d="M124.71,-209.66C129.8,-212.55 134.67,-215.82 139,-219.5 161.84,-238.89 151.99,-257.31 175,-276.5 176.37,-277.65 177.8,-278.75 179.27,-279.81"/>
<polygon fill="black" stroke="black" points="177.78,-283.02 188.09,-285.46 181.56,-277.12 177.78,-283.02"/>
</g>
<!-- MPSoC_MPI&#45;&gt;MPSoC_OR1K -->
<g id="edge30" class="edge">
<title>MPSoC_MPI&#45;&gt;MPSoC_OR1K</title>
<path fill="none" stroke="black" d="M124.6,-208.22C140.95,-213.58 159.11,-219.53 176.25,-225.14"/>
<polygon fill="black" stroke="black" points="175.61,-228.62 186.21,-228.4 177.79,-221.96 175.61,-228.62"/>
</g>
<!-- MPSoC_MPI&#45;&gt;MPSoC_RISCV -->
<g id="edge56" class="edge">
<title>MPSoC_MPI&#45;&gt;MPSoC_RISCV</title>
<path fill="none" stroke="black" d="M124.6,-190.5C139.58,-190.5 156.08,-190.5 171.92,-190.5"/>
<polygon fill="black" stroke="black" points="172.22,-194 182.22,-190.5 172.22,-187 172.22,-194"/>
</g>
<!-- MPSoC_MPI&#45;&gt;SoC_MSP430 -->
<g id="edge13" class="edge">
<title>MPSoC_MPI&#45;&gt;SoC_MSP430</title>
<path fill="none" stroke="black" d="M124.79,-206.94C130.19,-210.37 135.1,-214.51 139,-219.5 202.18,-300.33 111.12,-367.23 175,-447.5 176.25,-449.06 177.59,-450.54 179.02,-451.94"/>
<polygon fill="black" stroke="black" points="176.83,-454.67 186.8,-458.25 181.25,-449.24 176.83,-454.67"/>
</g>
<!-- MPSoC_MPI&#45;&gt;SoC_OR1K -->
<g id="edge39" class="edge">
<title>MPSoC_MPI&#45;&gt;SoC_OR1K</title>
<path fill="none" stroke="black" d="M124.54,-207.14C129.99,-210.54 134.98,-214.62 139,-219.5 188.37,-279.45 125.11,-330.98 175,-390.5 177.6,-393.61 180.61,-396.37 183.87,-398.83"/>
<polygon fill="black" stroke="black" points="182.13,-401.88 192.44,-404.35 185.92,-395.99 182.13,-401.88"/>
</g>
<!-- MPSoC_MPI&#45;&gt;SoC_RISCV -->
<g id="edge65" class="edge">
<title>MPSoC_MPI&#45;&gt;SoC_RISCV</title>
<path fill="none" stroke="black" d="M124.75,-207.95C130.02,-211.19 134.92,-215.01 139,-219.5 174.75,-258.81 138.91,-294.51 175,-333.5 177.58,-336.29 180.48,-338.81 183.59,-341.08"/>
<polygon fill="black" stroke="black" points="181.91,-344.16 192.23,-346.53 185.64,-338.24 181.91,-344.16"/>
</g>
<!-- MPSoC_MPI&#45;&gt;PU_MSP430 -->
<g id="edge22" class="edge">
<title>MPSoC_MPI&#45;&gt;PU_MSP430</title>
<path fill="none" stroke="black" d="M124.6,-172.78C142.44,-166.93 162.45,-160.38 180.93,-154.33"/>
<polygon fill="black" stroke="black" points="182.02,-157.65 190.43,-151.21 179.84,-151 182.02,-157.65"/>
</g>
<!-- MPSoC_MPI&#45;&gt;PU_OR1K -->
<g id="edge48" class="edge">
<title>MPSoC_MPI&#45;&gt;PU_OR1K</title>
<path fill="none" stroke="black" d="M124.71,-172.17C129.8,-169.34 134.67,-166.13 139,-162.5 161.96,-143.25 152.11,-124.83 175,-105.5 177.68,-103.24 180.56,-101.13 183.57,-99.17"/>
<polygon fill="black" stroke="black" points="185.47,-102.11 192.33,-94.04 181.93,-96.07 185.47,-102.11"/>
</g>
<!-- MPSoC_MPI&#45;&gt;PU_RISCV -->
<g id="edge74" class="edge">
<title>MPSoC_MPI&#45;&gt;PU_RISCV</title>
<path fill="none" stroke="black" d="M124.74,-173.87C130.01,-170.7 134.91,-166.94 139,-162.5 175,-123.42 139.15,-87.71 175,-48.5 177.58,-45.68 180.47,-43.13 183.58,-40.82"/>
<polygon fill="black" stroke="black" points="185.71,-43.6 192.22,-35.24 181.92,-37.72 185.71,-43.6"/>
</g>
<!-- MPSoC_MPRAM -->
<g id="node5" class="node">
<title>MPSoC_MPRAM</title>
<polygon fill="none" stroke="black" points="0,-114.5 0,-152.5 139,-152.5 139,-114.5 0,-114.5"/>
<text text-anchor="middle" x="69.5" y="-137.3" font-family="Times,serif" font-size="14.00">MPSoC_MPRAM </text>
<text text-anchor="middle" x="69.5" y="-122.3" font-family="Times,serif" font-size="14.00">Peripheral</text>
</g>
<!-- MPSoC_MPRAM&#45;&gt;MPSoC_MSP430 -->
<g id="edge5" class="edge">
<title>MPSoC_MPRAM&#45;&gt;MPSoC_MSP430</title>
<path fill="none" stroke="black" d="M127.41,-152.65C131.66,-155.51 135.61,-158.77 139,-162.5 174.75,-201.81 138.91,-237.51 175,-276.5 175.77,-277.34 176.57,-278.15 177.4,-278.93"/>
<polygon fill="black" stroke="black" points="175.47,-281.87 185.46,-285.4 179.85,-276.41 175.47,-281.87"/>
</g>
<!-- MPSoC_MPRAM&#45;&gt;MPSoC_OR1K -->
<g id="edge31" class="edge">
<title>MPSoC_MPRAM&#45;&gt;MPSoC_OR1K</title>
<path fill="none" stroke="black" d="M124.71,-152.66C129.8,-155.55 134.67,-158.82 139,-162.5 161.84,-181.89 151.99,-200.31 175,-219.5 176.37,-220.65 177.8,-221.75 179.27,-222.81"/>
<polygon fill="black" stroke="black" points="177.78,-226.02 188.09,-228.46 181.56,-220.12 177.78,-226.02"/>
</g>
<!-- MPSoC_MPRAM&#45;&gt;MPSoC_RISCV -->
<g id="edge57" class="edge">
<title>MPSoC_MPRAM&#45;&gt;MPSoC_RISCV</title>
<path fill="none" stroke="black" d="M128.92,-152.64C144.21,-157.65 160.83,-163.09 176.56,-168.25"/>
<polygon fill="black" stroke="black" points="175.64,-171.62 186.23,-171.41 177.82,-164.97 175.64,-171.62"/>
</g>
<!-- MPSoC_MPRAM&#45;&gt;SoC_MSP430 -->
<g id="edge14" class="edge">
<title>MPSoC_MPRAM&#45;&gt;SoC_MSP430</title>
<path fill="none" stroke="black" d="M129.1,-152.73C132.82,-155.56 136.19,-158.79 139,-162.5 216.06,-264.29 97.05,-346.38 175,-447.5 176.25,-449.12 177.61,-450.65 179.06,-452.09"/>
<polygon fill="black" stroke="black" points="177.04,-454.96 186.99,-458.58 181.47,-449.54 177.04,-454.96"/>
</g>
<!-- MPSoC_MPRAM&#45;&gt;SoC_OR1K -->
<g id="edge40" class="edge">
<title>MPSoC_MPRAM&#45;&gt;SoC_OR1K</title>
<path fill="none" stroke="black" d="M128.66,-152.59C132.53,-155.45 136.06,-158.74 139,-162.5 202.18,-243.33 111.12,-310.23 175,-390.5 177.53,-393.67 180.47,-396.49 183.68,-398.99"/>
<polygon fill="black" stroke="black" points="181.89,-402 192.17,-404.56 185.74,-396.15 181.89,-402"/>
</g>
<!-- MPSoC_MPRAM&#45;&gt;SoC_RISCV -->
<g id="edge66" class="edge">
<title>MPSoC_MPRAM&#45;&gt;SoC_RISCV</title>
<path fill="none" stroke="black" d="M128.13,-152.53C132.18,-155.41 135.88,-158.71 139,-162.5 188.37,-222.45 125.11,-273.98 175,-333.5 177.6,-336.61 180.61,-339.37 183.87,-341.83"/>
<polygon fill="black" stroke="black" points="182.13,-344.88 192.44,-347.35 185.92,-338.99 182.13,-344.88"/>
</g>
<!-- MPSoC_MPRAM&#45;&gt;PU_MSP430 -->
<g id="edge23" class="edge">
<title>MPSoC_MPRAM&#45;&gt;PU_MSP430</title>
<path fill="none" stroke="black" d="M139.27,-133.5C152.82,-133.5 166.99,-133.5 180.38,-133.5"/>
<polygon fill="black" stroke="black" points="180.44,-137 190.44,-133.5 180.44,-130 180.44,-137"/>
</g>
<!-- MPSoC_MPRAM&#45;&gt;PU_OR1K -->
<g id="edge49" class="edge">
<title>MPSoC_MPRAM&#45;&gt;PU_OR1K</title>
<path fill="none" stroke="black" d="M128.92,-114.36C146.25,-108.69 165.28,-102.45 182.81,-96.71"/>
<polygon fill="black" stroke="black" points="183.95,-100.02 192.37,-93.58 181.78,-93.36 183.95,-100.02"/>
</g>
<!-- MPSoC_MPRAM&#45;&gt;PU_RISCV -->
<g id="edge75" class="edge">
<title>MPSoC_MPRAM&#45;&gt;PU_RISCV</title>
<path fill="none" stroke="black" d="M126.1,-114.39C130.68,-111.76 135.06,-108.8 139,-105.5 161.96,-86.25 152.11,-67.83 175,-48.5 177.68,-46.24 180.56,-44.13 183.57,-42.17"/>
<polygon fill="black" stroke="black" points="185.47,-45.11 192.33,-37.04 181.93,-39.07 185.47,-45.11"/>
</g>
<!-- MPSoC_MSI -->
<g id="node6" class="node">
<title>MPSoC_MSI</title>
<polygon fill="none" stroke="black" points="14.5,-57.5 14.5,-95.5 124.5,-95.5 124.5,-57.5 14.5,-57.5"/>
<text text-anchor="middle" x="69.5" y="-80.3" font-family="Times,serif" font-size="14.00">MPSoC_MSI </text>
<text text-anchor="middle" x="69.5" y="-65.3" font-family="Times,serif" font-size="14.00">Peripheral</text>
</g>
<!-- MPSoC_MSI&#45;&gt;MPSoC_MSP430 -->
<g id="edge6" class="edge">
<title>MPSoC_MSI&#45;&gt;MPSoC_MSP430</title>
<path fill="none" stroke="black" d="M124.54,-93.14C129.99,-96.54 134.98,-100.62 139,-105.5 188.37,-165.45 125.11,-216.98 175,-276.5 175.62,-277.24 176.27,-277.96 176.93,-278.67"/>
<polygon fill="black" stroke="black" points="174.93,-281.56 184.76,-285.5 179.53,-276.29 174.93,-281.56"/>
</g>
<!-- MPSoC_MSI&#45;&gt;MPSoC_OR1K -->
<g id="edge32" class="edge">
<title>MPSoC_MSI&#45;&gt;MPSoC_OR1K</title>
<path fill="none" stroke="black" d="M124.75,-93.95C130.02,-97.19 134.92,-101.01 139,-105.5 174.75,-144.81 138.91,-180.51 175,-219.5 175.77,-220.34 176.57,-221.15 177.4,-221.93"/>
<polygon fill="black" stroke="black" points="175.47,-224.87 185.46,-228.4 179.85,-219.41 175.47,-224.87"/>
</g>
<!-- MPSoC_MSI&#45;&gt;MPSoC_RISCV -->
<g id="edge58" class="edge">
<title>MPSoC_MSI&#45;&gt;MPSoC_RISCV</title>
<path fill="none" stroke="black" d="M124.71,-95.66C129.8,-98.55 134.67,-101.82 139,-105.5 161.84,-124.89 151.99,-143.31 175,-162.5 176.37,-163.65 177.8,-164.75 179.27,-165.81"/>
<polygon fill="black" stroke="black" points="177.78,-169.02 188.09,-171.46 181.56,-163.12 177.78,-169.02"/>
</g>
<!-- MPSoC_MSI&#45;&gt;SoC_MSP430 -->
<g id="edge15" class="edge">
<title>MPSoC_MSI&#45;&gt;SoC_MSP430</title>
<path fill="none" stroke="black" d="M124.71,-92.53C130.2,-96.04 135.16,-100.31 139,-105.5 229.98,-228.31 82.95,-325.49 175,-447.5 176.23,-449.14 177.58,-450.68 179.02,-452.13"/>
<polygon fill="black" stroke="black" points="176.96,-454.97 186.9,-458.66 181.43,-449.58 176.96,-454.97"/>
</g>
<!-- MPSoC_MSI&#45;&gt;SoC_OR1K -->
<g id="edge41" class="edge">
<title>MPSoC_MSI&#45;&gt;SoC_OR1K</title>
<path fill="none" stroke="black" d="M124.61,-92.61C130.11,-96.11 135.1,-100.35 139,-105.5 216.06,-207.29 97.05,-289.38 175,-390.5 177.52,-393.77 180.48,-396.66 183.74,-399.21"/>
<polygon fill="black" stroke="black" points="182.08,-402.3 192.35,-404.88 185.93,-396.46 182.08,-402.3"/>
</g>
<!-- MPSoC_MSI&#45;&gt;SoC_RISCV -->
<g id="edge67" class="edge">
<title>MPSoC_MSI&#45;&gt;SoC_RISCV</title>
<path fill="none" stroke="black" d="M124.79,-92.94C130.19,-96.37 135.1,-100.51 139,-105.5 202.18,-186.33 111.12,-253.23 175,-333.5 177.53,-336.67 180.47,-339.49 183.68,-341.99"/>
<polygon fill="black" stroke="black" points="181.89,-345 192.17,-347.56 185.74,-339.15 181.89,-345"/>
</g>
<!-- MPSoC_MSI&#45;&gt;PU_MSP430 -->
<g id="edge24" class="edge">
<title>MPSoC_MSI&#45;&gt;PU_MSP430</title>
<path fill="none" stroke="black" d="M124.6,-94.22C142.44,-100.07 162.45,-106.62 180.93,-112.67"/>
<polygon fill="black" stroke="black" points="179.84,-116 190.43,-115.79 182.02,-109.35 179.84,-116"/>
</g>
<!-- MPSoC_MSI&#45;&gt;PU_OR1K -->
<g id="edge50" class="edge">
<title>MPSoC_MSI&#45;&gt;PU_OR1K</title>
<path fill="none" stroke="black" d="M124.6,-76.5C142.78,-76.5 163.21,-76.5 181.99,-76.5"/>
<polygon fill="black" stroke="black" points="182.22,-80 192.22,-76.5 182.22,-73 182.22,-80"/>
</g>
<!-- MPSoC_MSI&#45;&gt;PU_RISCV -->
<g id="edge76" class="edge">
<title>MPSoC_MSI&#45;&gt;PU_RISCV</title>
<path fill="none" stroke="black" d="M124.6,-58.78C142.95,-52.77 163.59,-46 182.51,-39.81"/>
<polygon fill="black" stroke="black" points="183.81,-43.07 192.22,-36.63 181.63,-36.41 183.81,-43.07"/>
</g>
<!-- MPSoC_NoC -->
<g id="node7" class="node">
<title>MPSoC_NoC</title>
<polygon fill="none" stroke="black" points="14,-456.5 14,-494.5 125,-494.5 125,-456.5 14,-456.5"/>
<text text-anchor="middle" x="69.5" y="-479.3" font-family="Times,serif" font-size="14.00">MPSoC_NoC </text>
<text text-anchor="middle" x="69.5" y="-464.3" font-family="Times,serif" font-size="14.00">Peripheral</text>
</g>
<!-- MPSoC_NoC&#45;&gt;MPSoC_MSP430 -->
<g id="edge7" class="edge">
<title>MPSoC_NoC&#45;&gt;MPSoC_MSP430</title>
<path fill="none" stroke="black" d="M125.08,-458.66C130.22,-455.54 135,-451.85 139,-447.5 175,-408.42 139.15,-372.71 175,-333.5 176.18,-332.21 177.43,-330.97 178.74,-329.78"/>
<polygon fill="black" stroke="black" points="181,-332.46 186.76,-323.57 176.71,-326.93 181,-332.46"/>
</g>
<!-- MPSoC_NoC&#45;&gt;MPSoC_OR1K -->
<g id="edge33" class="edge">
<title>MPSoC_NoC&#45;&gt;MPSoC_OR1K</title>
<path fill="none" stroke="black" d="M125.19,-459.26C130.38,-456.02 135.13,-452.14 139,-447.5 188.74,-387.85 125.47,-336.33 175,-276.5 175.96,-275.34 176.98,-274.22 178.05,-273.14"/>
<polygon fill="black" stroke="black" points="180.33,-275.8 185.71,-266.68 175.81,-270.45 180.33,-275.8"/>
</g>
<!-- MPSoC_NoC&#45;&gt;MPSoC_RISCV -->
<g id="edge59" class="edge">
<title>MPSoC_NoC&#45;&gt;MPSoC_RISCV</title>
<path fill="none" stroke="black" d="M125.1,-459.66C130.37,-456.34 135.17,-452.33 139,-447.5 202.68,-367.07 111.61,-300.16 175,-219.5 175.84,-218.43 176.73,-217.4 177.66,-216.41"/>
<polygon fill="black" stroke="black" points="180.3,-218.74 185.5,-209.51 175.68,-213.48 180.3,-218.74"/>
</g>
<!-- MPSoC_NoC&#45;&gt;SoC_MSP430 -->
<g id="edge16" class="edge">
<title>MPSoC_NoC&#45;&gt;SoC_MSP430</title>
<path fill="none" stroke="black" d="M125.08,-475.5C141.34,-475.5 159.36,-475.5 176.37,-475.5"/>
<polygon fill="black" stroke="black" points="176.81,-479 186.81,-475.5 176.81,-472 176.81,-479"/>
</g>
<!-- MPSoC_NoC&#45;&gt;SoC_OR1K -->
<g id="edge42" class="edge">
<title>MPSoC_NoC&#45;&gt;SoC_OR1K</title>
<path fill="none" stroke="black" d="M125.08,-457.62C143.41,-451.62 163.98,-444.88 182.82,-438.71"/>
<polygon fill="black" stroke="black" points="184.08,-441.98 192.49,-435.54 181.9,-435.32 184.08,-441.98"/>
</g>
<!-- MPSoC_NoC&#45;&gt;SoC_RISCV -->
<g id="edge68" class="edge">
<title>MPSoC_NoC&#45;&gt;SoC_RISCV</title>
<path fill="none" stroke="black" d="M125.06,-456.98C130.02,-454.2 134.77,-451.05 139,-447.5 161.96,-428.25 152.11,-409.83 175,-390.5 177.68,-388.24 180.56,-386.13 183.57,-384.17"/>
<polygon fill="black" stroke="black" points="185.47,-387.11 192.33,-379.04 181.93,-381.07 185.47,-387.11"/>
</g>
<!-- MPSoC_SPRAM -->
<g id="node8" class="node">
<title>MPSoC_SPRAM</title>
<polygon fill="none" stroke="black" points="2.5,-0.5 2.5,-38.5 136.5,-38.5 136.5,-0.5 2.5,-0.5"/>
<text text-anchor="middle" x="69.5" y="-23.3" font-family="Times,serif" font-size="14.00">MPSoC_SPRAM </text>
<text text-anchor="middle" x="69.5" y="-8.3" font-family="Times,serif" font-size="14.00">Peripheral</text>
</g>
<!-- MPSoC_SPRAM&#45;&gt;MPSoC_MSP430 -->
<g id="edge8" class="edge">
<title>MPSoC_SPRAM&#45;&gt;MPSoC_MSP430</title>
<path fill="none" stroke="black" d="M128.66,-38.59C132.53,-41.45 136.06,-44.74 139,-48.5 202.18,-129.33 111.12,-196.23 175,-276.5 175.58,-277.23 176.19,-277.95 176.82,-278.65"/>
<polygon fill="black" stroke="black" points="174.5,-281.27 184.25,-285.42 179.22,-276.1 174.5,-281.27"/>
</g>
<!-- MPSoC_SPRAM&#45;&gt;MPSoC_OR1K -->
<g id="edge34" class="edge">
<title>MPSoC_SPRAM&#45;&gt;MPSoC_OR1K</title>
<path fill="none" stroke="black" d="M128.13,-38.53C132.18,-41.41 135.88,-44.71 139,-48.5 188.37,-108.45 125.11,-159.98 175,-219.5 175.62,-220.24 176.27,-220.96 176.93,-221.67"/>
<polygon fill="black" stroke="black" points="174.93,-224.56 184.76,-228.5 179.53,-219.29 174.93,-224.56"/>
</g>
<!-- MPSoC_SPRAM&#45;&gt;MPSoC_RISCV -->
<g id="edge60" class="edge">
<title>MPSoC_SPRAM&#45;&gt;MPSoC_RISCV</title>
<path fill="none" stroke="black" d="M127.41,-38.65C131.66,-41.51 135.61,-44.77 139,-48.5 174.75,-87.81 138.91,-123.51 175,-162.5 175.77,-163.34 176.57,-164.15 177.4,-164.93"/>
<polygon fill="black" stroke="black" points="175.47,-167.87 185.46,-171.4 179.85,-162.41 175.47,-167.87"/>
</g>
<!-- MPSoC_SPRAM&#45;&gt;SoC_MSP430 -->
<g id="edge17" class="edge">
<title>MPSoC_SPRAM&#45;&gt;SoC_MSP430</title>
<path fill="none" stroke="black" d="M129.25,-38.62C132.94,-41.47 136.26,-44.74 139,-48.5 243.92,-192.36 68.82,-304.57 175,-447.5 176.22,-449.14 177.56,-450.69 178.98,-452.15"/>
<polygon fill="black" stroke="black" points="176.91,-454.98 186.83,-458.71 181.4,-449.61 176.91,-454.98"/>
</g>
<!-- MPSoC_SPRAM&#45;&gt;SoC_OR1K -->
<g id="edge43" class="edge">
<title>MPSoC_SPRAM&#45;&gt;SoC_OR1K</title>
<path fill="none" stroke="black" d="M129.19,-38.66C132.89,-41.51 136.23,-44.76 139,-48.5 229.98,-171.31 82.95,-268.49 175,-390.5 177.49,-393.79 180.42,-396.7 183.66,-399.27"/>
<polygon fill="black" stroke="black" points="181.97,-402.35 192.24,-404.97 185.85,-396.52 181.97,-402.35"/>
</g>
<!-- MPSoC_SPRAM&#45;&gt;SoC_RISCV -->
<g id="edge69" class="edge">
<title>MPSoC_SPRAM&#45;&gt;SoC_RISCV</title>
<path fill="none" stroke="black" d="M129.1,-38.73C132.82,-41.56 136.19,-44.79 139,-48.5 216.06,-150.29 97.05,-232.38 175,-333.5 177.52,-336.77 180.48,-339.66 183.74,-342.21"/>
<polygon fill="black" stroke="black" points="182.08,-345.3 192.35,-347.88 185.93,-339.46 182.08,-345.3"/>
</g>
<!-- MPSoC_SPRAM&#45;&gt;PU_MSP430 -->
<g id="edge25" class="edge">
<title>MPSoC_SPRAM&#45;&gt;PU_MSP430</title>
<path fill="none" stroke="black" d="M124.71,-38.66C129.8,-41.55 134.67,-44.82 139,-48.5 161.84,-67.89 151.99,-86.31 175,-105.5 177.01,-107.18 179.13,-108.76 181.34,-110.26"/>
<polygon fill="black" stroke="black" points="179.83,-113.44 190.2,-115.63 183.46,-107.45 179.83,-113.44"/>
</g>
<!-- MPSoC_SPRAM&#45;&gt;PU_OR1K -->
<g id="edge51" class="edge">
<title>MPSoC_SPRAM&#45;&gt;PU_OR1K</title>
<path fill="none" stroke="black" d="M128.92,-38.64C146.25,-44.31 165.28,-50.55 182.81,-56.29"/>
<polygon fill="black" stroke="black" points="181.78,-59.64 192.37,-59.42 183.95,-52.98 181.78,-59.64"/>
</g>
<!-- MPSoC_SPRAM&#45;&gt;PU_RISCV -->
<g id="edge77" class="edge">
<title>MPSoC_SPRAM&#45;&gt;PU_RISCV</title>
<path fill="none" stroke="black" d="M136.78,-19.5C151.76,-19.5 167.61,-19.5 182.42,-19.5"/>
<polygon fill="black" stroke="black" points="182.47,-23 192.47,-19.5 182.47,-16 182.47,-23"/>
</g>
<!-- MPSoC_UART -->
<g id="node9" class="node">
<title>MPSoC_UART</title>
<polygon fill="none" stroke="black" points="9,-399.5 9,-437.5 130,-437.5 130,-399.5 9,-399.5"/>
<text text-anchor="middle" x="69.5" y="-422.3" font-family="Times,serif" font-size="14.00">MPSoC_UART </text>
<text text-anchor="middle" x="69.5" y="-407.3" font-family="Times,serif" font-size="14.00">Peripheral</text>
</g>
<!-- MPSoC_UART&#45;&gt;MPSoC_MSP430 -->
<g id="edge9" class="edge">
<title>MPSoC_UART&#45;&gt;MPSoC_MSP430</title>
<path fill="none" stroke="black" d="M126.1,-399.39C130.68,-396.76 135.06,-393.8 139,-390.5 161.96,-371.25 152.11,-352.83 175,-333.5 176.79,-331.99 178.66,-330.55 180.6,-329.18"/>
<polygon fill="black" stroke="black" points="182.89,-331.87 189.5,-323.59 179.17,-325.95 182.89,-331.87"/>
</g>
<!-- MPSoC_UART&#45;&gt;MPSoC_OR1K -->
<g id="edge35" class="edge">
<title>MPSoC_UART&#45;&gt;MPSoC_OR1K</title>
<path fill="none" stroke="black" d="M128.7,-399.32C132.46,-396.73 135.95,-393.81 139,-390.5 175,-351.42 139.15,-315.71 175,-276.5 176.18,-275.21 177.43,-273.97 178.74,-272.78"/>
<polygon fill="black" stroke="black" points="181,-275.46 186.76,-266.57 176.71,-269.93 181,-275.46"/>
</g>
<!-- MPSoC_UART&#45;&gt;MPSoC_RISCV -->
<g id="edge61" class="edge">
<title>MPSoC_UART&#45;&gt;MPSoC_RISCV</title>
<path fill="none" stroke="black" d="M129.38,-399.42C132.94,-396.81 136.2,-393.85 139,-390.5 188.74,-330.85 125.47,-279.33 175,-219.5 175.96,-218.34 176.98,-217.22 178.05,-216.14"/>
<polygon fill="black" stroke="black" points="180.33,-218.8 185.71,-209.68 175.81,-213.45 180.33,-218.8"/>
</g>
<!-- MPSoC_UART&#45;&gt;SoC_MSP430 -->
<g id="edge18" class="edge">
<title>MPSoC_UART&#45;&gt;SoC_MSP430</title>
<path fill="none" stroke="black" d="M128.92,-437.64C144.38,-442.7 161.18,-448.21 177.07,-453.41"/>
<polygon fill="black" stroke="black" points="176.23,-456.82 186.82,-456.61 178.41,-450.17 176.23,-456.82"/>
</g>
<!-- MPSoC_UART&#45;&gt;SoC_OR1K -->
<g id="edge44" class="edge">
<title>MPSoC_UART&#45;&gt;SoC_OR1K</title>
<path fill="none" stroke="black" d="M130.38,-418.5C147.07,-418.5 165.24,-418.5 182.07,-418.5"/>
<polygon fill="black" stroke="black" points="182.35,-422 192.35,-418.5 182.35,-415 182.35,-422"/>
</g>
<!-- MPSoC_UART&#45;&gt;SoC_RISCV -->
<g id="edge70" class="edge">
<title>MPSoC_UART&#45;&gt;SoC_RISCV</title>
<path fill="none" stroke="black" d="M128.92,-399.36C146.25,-393.69 165.28,-387.45 182.81,-381.71"/>
<polygon fill="black" stroke="black" points="183.95,-385.02 192.37,-378.58 181.78,-378.36 183.95,-385.02"/>
</g>
<!-- MPSoC_UART&#45;&gt;PU_MSP430 -->
<g id="edge26" class="edge">
<title>MPSoC_UART&#45;&gt;PU_MSP430</title>
<path fill="none" stroke="black" d="M129.89,-399.34C133.28,-396.76 136.37,-393.82 139,-390.5 202.68,-310.07 111.61,-243.16 175,-162.5 177.1,-159.83 179.49,-157.4 182.09,-155.19"/>
<polygon fill="black" stroke="black" points="184.35,-157.88 190.44,-149.21 180.27,-152.19 184.35,-157.88"/>
</g>
<!-- MPSoC_UART&#45;&gt;PU_OR1K -->
<g id="edge52" class="edge">
<title>MPSoC_UART&#45;&gt;PU_OR1K</title>
<path fill="none" stroke="black" d="M130.01,-399.43C133.37,-396.83 136.42,-393.86 139,-390.5 216.69,-289.19 97.68,-207.09 175,-105.5 177.58,-102.11 180.64,-99.11 184,-96.45"/>
<polygon fill="black" stroke="black" points="185.96,-99.35 192.33,-90.88 182.07,-93.53 185.96,-99.35"/>
</g>
<!-- MPSoC_UART&#45;&gt;PU_RISCV -->
<g id="edge78" class="edge">
<title>MPSoC_UART&#45;&gt;PU_RISCV</title>
<path fill="none" stroke="black" d="M130.09,-399.5C133.43,-396.87 136.46,-393.89 139,-390.5 230.74,-268.26 83.7,-171.08 175,-48.5 177.55,-45.08 180.58,-42.06 183.92,-39.39"/>
<polygon fill="black" stroke="black" points="185.88,-42.29 192.21,-33.79 181.97,-36.49 185.88,-42.29"/>
</g>
<!-- MPSoC_DV -->
<g id="node19" class="node">
<title>MPSoC_DV</title>
<polygon fill="none" stroke="black" points="352,-228.5 352,-266.5 462,-266.5 462,-228.5 352,-228.5"/>
<text text-anchor="middle" x="407" y="-251.3" font-family="Times,serif" font-size="14.00">MPSoC_DV </text>
<text text-anchor="middle" x="407" y="-236.3" font-family="Times,serif" font-size="14.00">Environment</text>
</g>
<!-- MPSoC_MSP430&#45;&gt;MPSoC_DV -->
<g id="edge85" class="edge">
<title>MPSoC_MSP430&#45;&gt;MPSoC_DV</title>
<path fill="none" stroke="black" d="M300.05,-285.36C313.81,-280.45 328.72,-275.12 342.91,-270.05"/>
<polygon fill="black" stroke="black" points="344.35,-273.25 352.59,-266.59 341.99,-266.66 344.35,-273.25"/>
</g>
<!-- MPSoC_OR1K&#45;&gt;MPSoC_DV -->
<g id="edge86" class="edge">
<title>MPSoC_OR1K&#45;&gt;MPSoC_DV</title>
<path fill="none" stroke="black" d="M306.8,-247.5C318.26,-247.5 330.3,-247.5 341.87,-247.5"/>
<polygon fill="black" stroke="black" points="341.9,-251 351.9,-247.5 341.9,-244 341.9,-251"/>
</g>
<!-- MPSoC_RISCV&#45;&gt;MPSoC_DV -->
<g id="edge87" class="edge">
<title>MPSoC_RISCV&#45;&gt;MPSoC_DV</title>
<path fill="none" stroke="black" d="M300.05,-209.64C313.81,-214.55 328.72,-219.88 342.91,-224.95"/>
<polygon fill="black" stroke="black" points="341.99,-228.34 352.59,-228.41 344.35,-221.75 341.99,-228.34"/>
</g>
<!-- SoC_DV -->
<g id="node20" class="node">
<title>SoC_DV</title>
<polygon fill="none" stroke="black" points="352,-399.5 352,-437.5 462,-437.5 462,-399.5 352,-399.5"/>
<text text-anchor="middle" x="407" y="-422.3" font-family="Times,serif" font-size="14.00">SoC_DV </text>
<text text-anchor="middle" x="407" y="-407.3" font-family="Times,serif" font-size="14.00">Environment</text>
</g>
<!-- SoC_MSP430&#45;&gt;SoC_DV -->
<g id="edge82" class="edge">
<title>SoC_MSP430&#45;&gt;SoC_DV</title>
<path fill="none" stroke="black" d="M300.05,-456.36C313.81,-451.45 328.72,-446.12 342.91,-441.05"/>
<polygon fill="black" stroke="black" points="344.35,-444.25 352.59,-437.59 341.99,-437.66 344.35,-444.25"/>
</g>
<!-- SoC_OR1K&#45;&gt;SoC_DV -->
<g id="edge83" class="edge">
<title>SoC_OR1K&#45;&gt;SoC_DV</title>
<path fill="none" stroke="black" d="M298.73,-418.5C312.4,-418.5 327.3,-418.5 341.53,-418.5"/>
<polygon fill="black" stroke="black" points="341.74,-422 351.74,-418.5 341.74,-415 341.74,-422"/>
</g>
<!-- SoC_RISCV&#45;&gt;SoC_DV -->
<g id="edge84" class="edge">
<title>SoC_RISCV&#45;&gt;SoC_DV</title>
<path fill="none" stroke="black" d="M298.73,-380.16C312.89,-385.22 328.37,-390.76 343.05,-396"/>
<polygon fill="black" stroke="black" points="341.97,-399.33 352.56,-399.4 344.32,-392.74 341.97,-399.33"/>
</g>
<!-- PU_DV -->
<g id="node21" class="node">
<title>PU_DV</title>
<polygon fill="none" stroke="black" points="352,-57.5 352,-95.5 462,-95.5 462,-57.5 352,-57.5"/>
<text text-anchor="middle" x="407" y="-80.3" font-family="Times,serif" font-size="14.00">PU_DV </text>
<text text-anchor="middle" x="407" y="-65.3" font-family="Times,serif" font-size="14.00">Environment</text>
</g>
<!-- PU_MSP430&#45;&gt;PU_DV -->
<g id="edge79" class="edge">
<title>PU_MSP430&#45;&gt;PU_DV</title>
<path fill="none" stroke="black" d="M300.05,-114.36C313.81,-109.45 328.72,-104.12 342.91,-99.05"/>
<polygon fill="black" stroke="black" points="344.35,-102.25 352.59,-95.59 341.99,-95.66 344.35,-102.25"/>
</g>
<!-- PU_OR1K&#45;&gt;PU_DV -->
<g id="edge80" class="edge">
<title>PU_OR1K&#45;&gt;PU_DV</title>
<path fill="none" stroke="black" d="M298.73,-76.5C312.4,-76.5 327.3,-76.5 341.53,-76.5"/>
<polygon fill="black" stroke="black" points="341.74,-80 351.74,-76.5 341.74,-73 341.74,-80"/>
</g>
<!-- PU_RISCV&#45;&gt;PU_DV -->
<g id="edge81" class="edge">
<title>PU_RISCV&#45;&gt;PU_DV</title>
<path fill="none" stroke="black" d="M298.73,-38.16C312.89,-43.22 328.37,-48.76 343.05,-54"/>
<polygon fill="black" stroke="black" points="341.97,-57.33 352.56,-57.4 344.32,-50.74 341.97,-57.33"/>
</g>
<!-- MPSoC_NTM -->
<g id="node22" class="node">
<title>MPSoC_NTM</title>
<polygon fill="none" stroke="black" points="498,-257.5 498,-295.5 614,-295.5 614,-257.5 498,-257.5"/>
<text text-anchor="middle" x="556" y="-280.3" font-family="Times,serif" font-size="14.00">MPSoC_NTM </text>
<text text-anchor="middle" x="556" y="-265.3" font-family="Times,serif" font-size="14.00">Target</text>
</g>
<!-- MPSoC_DV&#45;&gt;MPSoC_NTM -->
<g id="edge92" class="edge">
<title>MPSoC_DV&#45;&gt;MPSoC_NTM</title>
<path fill="none" stroke="black" d="M462.32,-258.22C470.67,-259.86 479.37,-261.58 487.95,-263.27"/>
<polygon fill="black" stroke="black" points="487.46,-266.74 497.95,-265.24 488.81,-259.88 487.46,-266.74"/>
</g>
<!-- MPSoC_DNC -->
<g id="node25" class="node">
<title>MPSoC_DNC</title>
<polygon fill="none" stroke="black" points="499,-200.5 499,-238.5 613,-238.5 613,-200.5 499,-200.5"/>
<text text-anchor="middle" x="556" y="-223.3" font-family="Times,serif" font-size="14.00">MPSoC_DNC </text>
<text text-anchor="middle" x="556" y="-208.3" font-family="Times,serif" font-size="14.00">Target</text>
</g>
<!-- MPSoC_DV&#45;&gt;MPSoC_DNC -->
<g id="edge93" class="edge">
<title>MPSoC_DV&#45;&gt;MPSoC_DNC</title>
<path fill="none" stroke="black" d="M462.32,-237.15C471,-235.5 480.05,-233.78 488.97,-232.08"/>
<polygon fill="black" stroke="black" points="489.77,-235.49 498.94,-230.18 488.46,-228.61 489.77,-235.49"/>
</g>
<!-- SoC_NTM -->
<g id="node23" class="node">
<title>SoC_NTM</title>
<polygon fill="none" stroke="black" points="510,-428.5 510,-466.5 602,-466.5 602,-428.5 510,-428.5"/>
<text text-anchor="middle" x="556" y="-451.3" font-family="Times,serif" font-size="14.00">SoC_NTM </text>
<text text-anchor="middle" x="556" y="-436.3" font-family="Times,serif" font-size="14.00">Target</text>
</g>
<!-- SoC_DV&#45;&gt;SoC_NTM -->
<g id="edge90" class="edge">
<title>SoC_DV&#45;&gt;SoC_NTM</title>
<path fill="none" stroke="black" d="M462.32,-429.22C474.46,-431.61 487.35,-434.15 499.54,-436.56"/>
<polygon fill="black" stroke="black" points="499.09,-440.04 509.57,-438.54 500.44,-433.17 499.09,-440.04"/>
</g>
<!-- SoC_DNC -->
<g id="node26" class="node">
<title>SoC_DNC</title>
<polygon fill="none" stroke="black" points="511,-371.5 511,-409.5 601,-409.5 601,-371.5 511,-371.5"/>
<text text-anchor="middle" x="556" y="-394.3" font-family="Times,serif" font-size="14.00">SoC_DNC </text>
<text text-anchor="middle" x="556" y="-379.3" font-family="Times,serif" font-size="14.00">Target</text>
</g>
<!-- SoC_DV&#45;&gt;SoC_DNC -->
<g id="edge91" class="edge">
<title>SoC_DV&#45;&gt;SoC_DNC</title>
<path fill="none" stroke="black" d="M462.32,-408.15C474.97,-405.74 488.43,-403.18 501.06,-400.77"/>
<polygon fill="black" stroke="black" points="501.82,-404.19 510.99,-398.88 500.51,-397.32 501.82,-404.19"/>
</g>
<!-- PU_NTM -->
<g id="node24" class="node">
<title>PU_NTM</title>
<polygon fill="none" stroke="black" points="513,-86.5 513,-124.5 599,-124.5 599,-86.5 513,-86.5"/>
<text text-anchor="middle" x="556" y="-109.3" font-family="Times,serif" font-size="14.00">PU_NTM </text>
<text text-anchor="middle" x="556" y="-94.3" font-family="Times,serif" font-size="14.00">Target</text>
</g>
<!-- PU_DV&#45;&gt;PU_NTM -->
<g id="edge88" class="edge">
<title>PU_DV&#45;&gt;PU_NTM</title>
<path fill="none" stroke="black" d="M462.32,-87.22C475.62,-89.84 489.81,-92.64 502.99,-95.24"/>
<polygon fill="black" stroke="black" points="502.36,-98.68 512.85,-97.18 503.71,-91.81 502.36,-98.68"/>
</g>
<!-- PU_DNC -->
<g id="node27" class="node">
<title>PU_DNC</title>
<polygon fill="none" stroke="black" points="513,-29.5 513,-67.5 599,-67.5 599,-29.5 513,-29.5"/>
<text text-anchor="middle" x="556" y="-52.3" font-family="Times,serif" font-size="14.00">PU_DNC </text>
<text text-anchor="middle" x="556" y="-37.3" font-family="Times,serif" font-size="14.00">Target</text>
</g>
<!-- PU_DV&#45;&gt;PU_DNC -->
<g id="edge89" class="edge">
<title>PU_DV&#45;&gt;PU_DNC</title>
<path fill="none" stroke="black" d="M462.32,-66.15C475.62,-63.62 489.81,-60.92 502.99,-58.41"/>
<polygon fill="black" stroke="black" points="503.68,-61.84 512.85,-56.53 502.37,-54.96 503.68,-61.84"/>
</g>
<!-- MPSoC_FinTech -->
<g id="node28" class="node">
<title>MPSoC_FinTech</title>
<polygon fill="none" stroke="black" points="650,-229.5 650,-267.5 787,-267.5 787,-229.5 650,-229.5"/>
<text text-anchor="middle" x="718.5" y="-252.3" font-family="Times,serif" font-size="14.00">MPSoC_FinTech </text>
<text text-anchor="middle" x="718.5" y="-237.3" font-family="Times,serif" font-size="14.00">Target</text>
</g>
<!-- MPSoC_NTM&#45;&gt;MPSoC_FinTech -->
<g id="edge98" class="edge">
<title>MPSoC_NTM&#45;&gt;MPSoC_FinTech</title>
<path fill="none" stroke="black" d="M614.04,-266.55C622.48,-265.08 631.3,-263.54 640.08,-262.01"/>
<polygon fill="black" stroke="black" points="640.69,-265.45 649.94,-260.29 639.49,-258.56 640.69,-265.45"/>
</g>
<!-- SoC_FinTech -->
<g id="node29" class="node">
<title>SoC_FinTech</title>
<polygon fill="none" stroke="black" points="662,-399.5 662,-437.5 775,-437.5 775,-399.5 662,-399.5"/>
<text text-anchor="middle" x="718.5" y="-422.3" font-family="Times,serif" font-size="14.00">SoC_FinTech </text>
<text text-anchor="middle" x="718.5" y="-407.3" font-family="Times,serif" font-size="14.00">Target</text>
</g>
<!-- SoC_NTM&#45;&gt;SoC_FinTech -->
<g id="edge96" class="edge">
<title>SoC_NTM&#45;&gt;SoC_FinTech</title>
<path fill="none" stroke="black" d="M602.14,-439.34C617.49,-436.57 634.99,-433.41 651.63,-430.4"/>
<polygon fill="black" stroke="black" points="652.63,-433.78 661.85,-428.56 651.39,-426.89 652.63,-433.78"/>
</g>
<!-- PU_FinTech -->
<g id="node30" class="node">
<title>PU_FinTech</title>
<polygon fill="none" stroke="black" points="666,-58.5 666,-96.5 771,-96.5 771,-58.5 666,-58.5"/>
<text text-anchor="middle" x="718.5" y="-81.3" font-family="Times,serif" font-size="14.00">PU_FinTech </text>
<text text-anchor="middle" x="718.5" y="-66.3" font-family="Times,serif" font-size="14.00">Target</text>
</g>
<!-- PU_NTM&#45;&gt;PU_FinTech -->
<g id="edge94" class="edge">
<title>PU_NTM&#45;&gt;PU_FinTech</title>
<path fill="none" stroke="black" d="M599.17,-98.14C616.49,-95.12 636.89,-91.56 655.83,-88.26"/>
<polygon fill="black" stroke="black" points="656.63,-91.67 665.87,-86.51 655.42,-84.78 656.63,-91.67"/>
</g>
<!-- MPSoC_DNC&#45;&gt;MPSoC_FinTech -->
<g id="edge99" class="edge">
<title>MPSoC_DNC&#45;&gt;MPSoC_FinTech</title>
<path fill="none" stroke="black" d="M613.14,-229.64C621.74,-231.2 630.75,-232.83 639.72,-234.45"/>
<polygon fill="black" stroke="black" points="639.34,-237.94 649.81,-236.27 640.59,-231.05 639.34,-237.94"/>
</g>
<!-- SoC_DNC&#45;&gt;SoC_FinTech -->
<g id="edge97" class="edge">
<title>SoC_DNC&#45;&gt;SoC_FinTech</title>
<path fill="none" stroke="black" d="M601.28,-398.23C616.95,-400.96 634.92,-404.09 651.98,-407.07"/>
<polygon fill="black" stroke="black" points="651.44,-410.53 661.89,-408.8 652.64,-403.63 651.44,-410.53"/>
</g>
<!-- PU_DNC&#45;&gt;PU_FinTech -->
<g id="edge95" class="edge">
<title>PU_DNC&#45;&gt;PU_FinTech</title>
<path fill="none" stroke="black" d="M599.17,-56.12C616.49,-59.25 636.89,-62.94 655.83,-66.36"/>
<polygon fill="black" stroke="black" points="655.41,-69.84 665.87,-68.17 656.66,-62.95 655.41,-69.84"/>
</g>
</g>
</svg>
