<?xml version="1.0" encoding="UTF-8" standalone="no"?>
<!DOCTYPE svg PUBLIC "-//W3C//DTD SVG 1.1//EN"
 "http://www.w3.org/Graphics/SVG/1.1/DTD/svg11.dtd">
<!-- Generated by graphviz version 2.43.0 (0)
 -->
<!-- Title: Project Pages: 1 -->
<svg width="726pt" height="503pt"
 viewBox="0.00 0.00 726.00 503.00" xmlns="http://www.w3.org/2000/svg" xmlns:xlink="http://www.w3.org/1999/xlink">
<g id="graph0" class="graph" transform="scale(1 1) rotate(0) translate(4 499)">
<title>Project</title>
<polygon fill="white" stroke="transparent" points="-4,4 -4,-499 722,-499 722,4 -4,4"/>
<!-- MPSoC_DBG -->
<g id="node1" class="node">
<title>MPSoC_DBG</title>
<polygon fill="none" stroke="black" points="13,-342.5 13,-380.5 126,-380.5 126,-342.5 13,-342.5"/>
<text text-anchor="middle" x="69.5" y="-365.3" font-family="Times,serif" font-size="14.00">MPSoC_DBG </text>
<text text-anchor="middle" x="69.5" y="-350.3" font-family="Times,serif" font-size="14.00">Peripheral</text>
</g>
<!-- SoC_MSP430 -->
<g id="node10" class="node">
<title>SoC_MSP430</title>
<polygon fill="none" stroke="black" points="175,-342.5 175,-380.5 292,-380.5 292,-342.5 175,-342.5"/>
<text text-anchor="middle" x="233.5" y="-365.3" font-family="Times,serif" font-size="14.00">SoC_MSP430 </text>
<text text-anchor="middle" x="233.5" y="-350.3" font-family="Times,serif" font-size="14.00">Architecture</text>
</g>
<!-- MPSoC_DBG&#45;&gt;SoC_MSP430 -->
<g id="edge1" class="edge">
<title>MPSoC_DBG&#45;&gt;SoC_MSP430</title>
<path fill="none" stroke="black" d="M126.25,-361.5C138.67,-361.5 151.97,-361.5 164.82,-361.5"/>
<polygon fill="black" stroke="black" points="164.99,-365 174.99,-361.5 164.99,-358 164.99,-365"/>
</g>
<!-- SoC_OR1K -->
<g id="node11" class="node">
<title>SoC_OR1K</title>
<polygon fill="none" stroke="black" points="180.5,-285.5 180.5,-323.5 286.5,-323.5 286.5,-285.5 180.5,-285.5"/>
<text text-anchor="middle" x="233.5" y="-308.3" font-family="Times,serif" font-size="14.00">SoC_OR1K </text>
<text text-anchor="middle" x="233.5" y="-293.3" font-family="Times,serif" font-size="14.00">Architecture</text>
</g>
<!-- MPSoC_DBG&#45;&gt;SoC_OR1K -->
<g id="edge18" class="edge">
<title>MPSoC_DBG&#45;&gt;SoC_OR1K</title>
<path fill="none" stroke="black" d="M124.89,-342.36C139.6,-337.19 155.62,-331.55 170.69,-326.25"/>
<polygon fill="black" stroke="black" points="172.17,-329.44 180.44,-322.82 169.85,-322.83 172.17,-329.44"/>
</g>
<!-- SoC_RISCV -->
<g id="node12" class="node">
<title>SoC_RISCV</title>
<polygon fill="none" stroke="black" points="180.5,-228.5 180.5,-266.5 286.5,-266.5 286.5,-228.5 180.5,-228.5"/>
<text text-anchor="middle" x="233.5" y="-251.3" font-family="Times,serif" font-size="14.00">SoC_RISCV </text>
<text text-anchor="middle" x="233.5" y="-236.3" font-family="Times,serif" font-size="14.00">Architecture</text>
</g>
<!-- MPSoC_DBG&#45;&gt;SoC_RISCV -->
<g id="edge35" class="edge">
<title>MPSoC_DBG&#45;&gt;SoC_RISCV</title>
<path fill="none" stroke="black" d="M126.1,-342.39C130.68,-339.76 135.06,-336.8 139,-333.5 161.96,-314.25 152.82,-296.64 175,-276.5 176.49,-275.15 178.05,-273.84 179.68,-272.58"/>
<polygon fill="black" stroke="black" points="181.96,-275.26 188.17,-266.68 177.96,-269.51 181.96,-275.26"/>
</g>
<!-- PU_MSP430 -->
<g id="node13" class="node">
<title>PU_MSP430</title>
<polygon fill="none" stroke="black" points="178.5,-171.5 178.5,-209.5 288.5,-209.5 288.5,-171.5 178.5,-171.5"/>
<text text-anchor="middle" x="233.5" y="-194.3" font-family="Times,serif" font-size="14.00">PU_MSP430 </text>
<text text-anchor="middle" x="233.5" y="-179.3" font-family="Times,serif" font-size="14.00">Architecture</text>
</g>
<!-- MPSoC_DBG&#45;&gt;PU_MSP430 -->
<g id="edge10" class="edge">
<title>MPSoC_DBG&#45;&gt;PU_MSP430</title>
<path fill="none" stroke="black" d="M126.08,-344.04C130.84,-341.05 135.26,-337.56 139,-333.5 175,-294.42 140.58,-259.97 175,-219.5 176,-218.33 177.05,-217.2 178.16,-216.11"/>
<polygon fill="black" stroke="black" points="180.63,-218.61 186.07,-209.51 176.15,-213.23 180.63,-218.61"/>
</g>
<!-- PU_OR1K -->
<g id="node14" class="node">
<title>PU_OR1K</title>
<polygon fill="none" stroke="black" points="180.5,-114.5 180.5,-152.5 286.5,-152.5 286.5,-114.5 180.5,-114.5"/>
<text text-anchor="middle" x="233.5" y="-137.3" font-family="Times,serif" font-size="14.00">PU_OR1K </text>
<text text-anchor="middle" x="233.5" y="-122.3" font-family="Times,serif" font-size="14.00">Architecture</text>
</g>
<!-- MPSoC_DBG&#45;&gt;PU_OR1K -->
<g id="edge27" class="edge">
<title>MPSoC_DBG&#45;&gt;PU_OR1K</title>
<path fill="none" stroke="black" d="M126.18,-344.63C130.98,-341.52 135.38,-337.84 139,-333.5 188.74,-273.85 127.65,-224.07 175,-162.5 175.81,-161.45 176.66,-160.44 177.55,-159.46"/>
<polygon fill="black" stroke="black" points="180.06,-161.91 185.14,-152.61 175.37,-156.72 180.06,-161.91"/>
</g>
<!-- PU_RISCV -->
<g id="node15" class="node">
<title>PU_RISCV</title>
<polygon fill="none" stroke="black" points="180.5,-57.5 180.5,-95.5 286.5,-95.5 286.5,-57.5 180.5,-57.5"/>
<text text-anchor="middle" x="233.5" y="-80.3" font-family="Times,serif" font-size="14.00">PU_RISCV </text>
<text text-anchor="middle" x="233.5" y="-65.3" font-family="Times,serif" font-size="14.00">Architecture</text>
</g>
<!-- MPSoC_DBG&#45;&gt;PU_RISCV -->
<g id="edge44" class="edge">
<title>MPSoC_DBG&#45;&gt;PU_RISCV</title>
<path fill="none" stroke="black" d="M126.08,-345.03C130.97,-341.84 135.41,-338.03 139,-333.5 202.68,-253.07 114.55,-188.39 175,-105.5 175.68,-104.57 176.39,-103.68 177.14,-102.8"/>
<polygon fill="black" stroke="black" points="179.81,-105.09 184.67,-95.67 175,-100.01 179.81,-105.09"/>
</g>
<!-- MPSoC_DMA -->
<g id="node2" class="node">
<title>MPSoC_DMA</title>
<polygon fill="none" stroke="black" points="11.5,-285.5 11.5,-323.5 127.5,-323.5 127.5,-285.5 11.5,-285.5"/>
<text text-anchor="middle" x="69.5" y="-308.3" font-family="Times,serif" font-size="14.00">MPSoC_DMA </text>
<text text-anchor="middle" x="69.5" y="-293.3" font-family="Times,serif" font-size="14.00">Peripheral</text>
</g>
<!-- MPSoC_DMA&#45;&gt;SoC_MSP430 -->
<g id="edge2" class="edge">
<title>MPSoC_DMA&#45;&gt;SoC_MSP430</title>
<path fill="none" stroke="black" d="M124.89,-323.64C138.86,-328.55 154.01,-333.88 168.42,-338.95"/>
<polygon fill="black" stroke="black" points="167.65,-342.39 178.25,-342.41 169.98,-335.79 167.65,-342.39"/>
</g>
<!-- MPSoC_DMA&#45;&gt;SoC_OR1K -->
<g id="edge19" class="edge">
<title>MPSoC_DMA&#45;&gt;SoC_OR1K</title>
<path fill="none" stroke="black" d="M127.62,-304.5C141.47,-304.5 156.35,-304.5 170.42,-304.5"/>
<polygon fill="black" stroke="black" points="170.5,-308 180.5,-304.5 170.5,-301 170.5,-308"/>
</g>
<!-- MPSoC_DMA&#45;&gt;SoC_RISCV -->
<g id="edge36" class="edge">
<title>MPSoC_DMA&#45;&gt;SoC_RISCV</title>
<path fill="none" stroke="black" d="M124.89,-285.36C139.6,-280.19 155.62,-274.55 170.69,-269.25"/>
<polygon fill="black" stroke="black" points="172.17,-272.44 180.44,-265.82 169.85,-265.83 172.17,-272.44"/>
</g>
<!-- MPSoC_DMA&#45;&gt;PU_MSP430 -->
<g id="edge11" class="edge">
<title>MPSoC_DMA&#45;&gt;PU_MSP430</title>
<path fill="none" stroke="black" d="M126.1,-285.39C130.68,-282.76 135.06,-279.8 139,-276.5 161.96,-257.25 152.82,-239.64 175,-219.5 176.49,-218.15 178.05,-216.84 179.68,-215.58"/>
<polygon fill="black" stroke="black" points="181.96,-218.26 188.17,-209.68 177.96,-212.51 181.96,-218.26"/>
</g>
<!-- MPSoC_DMA&#45;&gt;PU_OR1K -->
<g id="edge28" class="edge">
<title>MPSoC_DMA&#45;&gt;PU_OR1K</title>
<path fill="none" stroke="black" d="M127.72,-285.98C131.86,-283.23 135.69,-280.09 139,-276.5 175,-237.42 140.58,-202.97 175,-162.5 176,-161.33 177.05,-160.2 178.16,-159.11"/>
<polygon fill="black" stroke="black" points="180.63,-161.61 186.07,-152.51 176.15,-156.23 180.63,-161.61"/>
</g>
<!-- MPSoC_DMA&#45;&gt;PU_RISCV -->
<g id="edge45" class="edge">
<title>MPSoC_DMA&#45;&gt;PU_RISCV</title>
<path fill="none" stroke="black" d="M127.8,-286.55C131.97,-283.67 135.79,-280.35 139,-276.5 188.74,-216.85 127.65,-167.07 175,-105.5 175.81,-104.45 176.66,-103.44 177.55,-102.46"/>
<polygon fill="black" stroke="black" points="180.06,-104.91 185.14,-95.61 175.37,-99.72 180.06,-104.91"/>
</g>
<!-- MPSoC_GPIO -->
<g id="node3" class="node">
<title>MPSoC_GPIO</title>
<polygon fill="none" stroke="black" points="10.5,-228.5 10.5,-266.5 128.5,-266.5 128.5,-228.5 10.5,-228.5"/>
<text text-anchor="middle" x="69.5" y="-251.3" font-family="Times,serif" font-size="14.00">MPSoC_GPIO </text>
<text text-anchor="middle" x="69.5" y="-236.3" font-family="Times,serif" font-size="14.00">Peripheral</text>
</g>
<!-- MPSoC_GPIO&#45;&gt;SoC_MSP430 -->
<g id="edge3" class="edge">
<title>MPSoC_GPIO&#45;&gt;SoC_MSP430</title>
<path fill="none" stroke="black" d="M124.71,-266.66C129.8,-269.55 134.67,-272.82 139,-276.5 161.84,-295.89 152.68,-313.51 175,-333.5 176.14,-334.52 177.32,-335.51 178.54,-336.47"/>
<polygon fill="black" stroke="black" points="176.8,-339.53 187,-342.4 180.82,-333.8 176.8,-339.53"/>
</g>
<!-- MPSoC_GPIO&#45;&gt;SoC_OR1K -->
<g id="edge20" class="edge">
<title>MPSoC_GPIO&#45;&gt;SoC_OR1K</title>
<path fill="none" stroke="black" d="M124.89,-266.64C139.6,-271.81 155.62,-277.45 170.69,-282.75"/>
<polygon fill="black" stroke="black" points="169.85,-286.17 180.44,-286.18 172.17,-279.56 169.85,-286.17"/>
</g>
<!-- MPSoC_GPIO&#45;&gt;SoC_RISCV -->
<g id="edge37" class="edge">
<title>MPSoC_GPIO&#45;&gt;SoC_RISCV</title>
<path fill="none" stroke="black" d="M128.53,-247.5C141.98,-247.5 156.36,-247.5 170,-247.5"/>
<polygon fill="black" stroke="black" points="170.26,-251 180.26,-247.5 170.26,-244 170.26,-251"/>
</g>
<!-- MPSoC_GPIO&#45;&gt;PU_MSP430 -->
<g id="edge12" class="edge">
<title>MPSoC_GPIO&#45;&gt;PU_MSP430</title>
<path fill="none" stroke="black" d="M124.89,-228.36C138.86,-223.45 154.01,-218.12 168.42,-213.05"/>
<polygon fill="black" stroke="black" points="169.98,-216.21 178.25,-209.59 167.65,-209.61 169.98,-216.21"/>
</g>
<!-- MPSoC_GPIO&#45;&gt;PU_OR1K -->
<g id="edge29" class="edge">
<title>MPSoC_GPIO&#45;&gt;PU_OR1K</title>
<path fill="none" stroke="black" d="M126.1,-228.39C130.68,-225.76 135.06,-222.8 139,-219.5 161.96,-200.25 152.82,-182.64 175,-162.5 176.49,-161.15 178.05,-159.84 179.68,-158.58"/>
<polygon fill="black" stroke="black" points="181.96,-161.26 188.17,-152.68 177.96,-155.51 181.96,-161.26"/>
</g>
<!-- MPSoC_GPIO&#45;&gt;PU_RISCV -->
<g id="edge46" class="edge">
<title>MPSoC_GPIO&#45;&gt;PU_RISCV</title>
<path fill="none" stroke="black" d="M128.7,-228.32C132.46,-225.73 135.95,-222.81 139,-219.5 175,-180.42 140.58,-145.97 175,-105.5 176,-104.33 177.05,-103.2 178.16,-102.11"/>
<polygon fill="black" stroke="black" points="180.63,-104.61 186.07,-95.51 176.15,-99.23 180.63,-104.61"/>
</g>
<!-- MPSoC_MPI -->
<g id="node4" class="node">
<title>MPSoC_MPI</title>
<polygon fill="none" stroke="black" points="14.5,-171.5 14.5,-209.5 124.5,-209.5 124.5,-171.5 14.5,-171.5"/>
<text text-anchor="middle" x="69.5" y="-194.3" font-family="Times,serif" font-size="14.00">MPSoC_MPI </text>
<text text-anchor="middle" x="69.5" y="-179.3" font-family="Times,serif" font-size="14.00">Peripheral</text>
</g>
<!-- MPSoC_MPI&#45;&gt;SoC_MSP430 -->
<g id="edge4" class="edge">
<title>MPSoC_MPI&#45;&gt;SoC_MSP430</title>
<path fill="none" stroke="black" d="M124.75,-207.95C130.02,-211.19 134.92,-215.01 139,-219.5 174.75,-258.81 140.3,-293.27 175,-333.5 175.62,-334.22 176.26,-334.92 176.92,-335.6"/>
<polygon fill="black" stroke="black" points="174.84,-338.43 184.69,-342.32 179.42,-333.13 174.84,-338.43"/>
</g>
<!-- MPSoC_MPI&#45;&gt;SoC_OR1K -->
<g id="edge21" class="edge">
<title>MPSoC_MPI&#45;&gt;SoC_OR1K</title>
<path fill="none" stroke="black" d="M124.71,-209.66C129.8,-212.55 134.67,-215.82 139,-219.5 161.84,-238.89 152.68,-256.51 175,-276.5 176.14,-277.52 177.32,-278.51 178.54,-279.47"/>
<polygon fill="black" stroke="black" points="176.8,-282.53 187,-285.4 180.82,-276.8 176.8,-282.53"/>
</g>
<!-- MPSoC_MPI&#45;&gt;SoC_RISCV -->
<g id="edge38" class="edge">
<title>MPSoC_MPI&#45;&gt;SoC_RISCV</title>
<path fill="none" stroke="black" d="M124.89,-209.64C139.6,-214.81 155.62,-220.45 170.69,-225.75"/>
<polygon fill="black" stroke="black" points="169.85,-229.17 180.44,-229.18 172.17,-222.56 169.85,-229.17"/>
</g>
<!-- MPSoC_MPI&#45;&gt;PU_MSP430 -->
<g id="edge13" class="edge">
<title>MPSoC_MPI&#45;&gt;PU_MSP430</title>
<path fill="none" stroke="black" d="M124.89,-190.5C138.73,-190.5 153.72,-190.5 168,-190.5"/>
<polygon fill="black" stroke="black" points="168.25,-194 178.25,-190.5 168.25,-187 168.25,-194"/>
</g>
<!-- MPSoC_MPI&#45;&gt;PU_OR1K -->
<g id="edge30" class="edge">
<title>MPSoC_MPI&#45;&gt;PU_OR1K</title>
<path fill="none" stroke="black" d="M124.89,-171.36C139.6,-166.19 155.62,-160.55 170.69,-155.25"/>
<polygon fill="black" stroke="black" points="172.17,-158.44 180.44,-151.82 169.85,-151.83 172.17,-158.44"/>
</g>
<!-- MPSoC_MPI&#45;&gt;PU_RISCV -->
<g id="edge47" class="edge">
<title>MPSoC_MPI&#45;&gt;PU_RISCV</title>
<path fill="none" stroke="black" d="M124.71,-172.17C129.8,-169.34 134.67,-166.13 139,-162.5 161.96,-143.25 152.82,-125.64 175,-105.5 176.49,-104.15 178.05,-102.84 179.68,-101.58"/>
<polygon fill="black" stroke="black" points="181.96,-104.26 188.17,-95.68 177.96,-98.51 181.96,-104.26"/>
</g>
<!-- MPSoC_MPRAM -->
<g id="node5" class="node">
<title>MPSoC_MPRAM</title>
<polygon fill="none" stroke="black" points="0,-114.5 0,-152.5 139,-152.5 139,-114.5 0,-114.5"/>
<text text-anchor="middle" x="69.5" y="-137.3" font-family="Times,serif" font-size="14.00">MPSoC_MPRAM </text>
<text text-anchor="middle" x="69.5" y="-122.3" font-family="Times,serif" font-size="14.00">Peripheral</text>
</g>
<!-- MPSoC_MPRAM&#45;&gt;SoC_MSP430 -->
<g id="edge5" class="edge">
<title>MPSoC_MPRAM&#45;&gt;SoC_MSP430</title>
<path fill="none" stroke="black" d="M128.13,-152.53C132.18,-155.41 135.88,-158.71 139,-162.5 188.37,-222.45 127.22,-272.27 175,-333.5 175.49,-334.12 175.99,-334.73 176.51,-335.33"/>
<polygon fill="black" stroke="black" points="174.38,-338.13 184.07,-342.4 179.16,-333.02 174.38,-338.13"/>
</g>
<!-- MPSoC_MPRAM&#45;&gt;SoC_OR1K -->
<g id="edge22" class="edge">
<title>MPSoC_MPRAM&#45;&gt;SoC_OR1K</title>
<path fill="none" stroke="black" d="M127.41,-152.65C131.66,-155.51 135.61,-158.77 139,-162.5 174.75,-201.81 140.3,-236.27 175,-276.5 175.62,-277.22 176.26,-277.92 176.92,-278.6"/>
<polygon fill="black" stroke="black" points="174.84,-281.43 184.69,-285.32 179.42,-276.13 174.84,-281.43"/>
</g>
<!-- MPSoC_MPRAM&#45;&gt;SoC_RISCV -->
<g id="edge39" class="edge">
<title>MPSoC_MPRAM&#45;&gt;SoC_RISCV</title>
<path fill="none" stroke="black" d="M124.71,-152.66C129.8,-155.55 134.67,-158.82 139,-162.5 161.84,-181.89 152.68,-199.51 175,-219.5 176.14,-220.52 177.32,-221.51 178.54,-222.47"/>
<polygon fill="black" stroke="black" points="176.8,-225.53 187,-228.4 180.82,-219.8 176.8,-225.53"/>
</g>
<!-- MPSoC_MPRAM&#45;&gt;PU_MSP430 -->
<g id="edge14" class="edge">
<title>MPSoC_MPRAM&#45;&gt;PU_MSP430</title>
<path fill="none" stroke="black" d="M124.89,-152.64C138.86,-157.55 154.01,-162.88 168.42,-167.95"/>
<polygon fill="black" stroke="black" points="167.65,-171.39 178.25,-171.41 169.98,-164.79 167.65,-171.39"/>
</g>
<!-- MPSoC_MPRAM&#45;&gt;PU_OR1K -->
<g id="edge31" class="edge">
<title>MPSoC_MPRAM&#45;&gt;PU_OR1K</title>
<path fill="none" stroke="black" d="M139.2,-133.5C149.55,-133.5 160.17,-133.5 170.37,-133.5"/>
<polygon fill="black" stroke="black" points="170.41,-137 180.41,-133.5 170.41,-130 170.41,-137"/>
</g>
<!-- MPSoC_MPRAM&#45;&gt;PU_RISCV -->
<g id="edge48" class="edge">
<title>MPSoC_MPRAM&#45;&gt;PU_RISCV</title>
<path fill="none" stroke="black" d="M124.89,-114.36C139.6,-109.19 155.62,-103.55 170.69,-98.25"/>
<polygon fill="black" stroke="black" points="172.17,-101.44 180.44,-94.82 169.85,-94.83 172.17,-101.44"/>
</g>
<!-- MPSoC_MSI -->
<g id="node6" class="node">
<title>MPSoC_MSI</title>
<polygon fill="none" stroke="black" points="14.5,-57.5 14.5,-95.5 124.5,-95.5 124.5,-57.5 14.5,-57.5"/>
<text text-anchor="middle" x="69.5" y="-80.3" font-family="Times,serif" font-size="14.00">MPSoC_MSI </text>
<text text-anchor="middle" x="69.5" y="-65.3" font-family="Times,serif" font-size="14.00">Peripheral</text>
</g>
<!-- MPSoC_MSI&#45;&gt;SoC_MSP430 -->
<g id="edge6" class="edge">
<title>MPSoC_MSI&#45;&gt;SoC_MSP430</title>
<path fill="none" stroke="black" d="M124.79,-92.94C130.19,-96.37 135.1,-100.51 139,-105.5 202.18,-186.33 113.97,-251.04 175,-333.5 175.46,-334.12 175.93,-334.73 176.43,-335.32"/>
<polygon fill="black" stroke="black" points="174.02,-337.86 183.62,-342.34 178.91,-332.85 174.02,-337.86"/>
</g>
<!-- MPSoC_MSI&#45;&gt;SoC_OR1K -->
<g id="edge23" class="edge">
<title>MPSoC_MSI&#45;&gt;SoC_OR1K</title>
<path fill="none" stroke="black" d="M124.54,-93.14C129.99,-96.54 134.98,-100.62 139,-105.5 188.37,-165.45 127.22,-215.27 175,-276.5 175.49,-277.12 175.99,-277.73 176.51,-278.33"/>
<polygon fill="black" stroke="black" points="174.38,-281.13 184.07,-285.4 179.16,-276.02 174.38,-281.13"/>
</g>
<!-- MPSoC_MSI&#45;&gt;SoC_RISCV -->
<g id="edge40" class="edge">
<title>MPSoC_MSI&#45;&gt;SoC_RISCV</title>
<path fill="none" stroke="black" d="M124.75,-93.95C130.02,-97.19 134.92,-101.01 139,-105.5 174.75,-144.81 140.3,-179.27 175,-219.5 175.62,-220.22 176.26,-220.92 176.92,-221.6"/>
<polygon fill="black" stroke="black" points="174.84,-224.43 184.69,-228.32 179.42,-219.13 174.84,-224.43"/>
</g>
<!-- MPSoC_MSI&#45;&gt;PU_MSP430 -->
<g id="edge15" class="edge">
<title>MPSoC_MSI&#45;&gt;PU_MSP430</title>
<path fill="none" stroke="black" d="M124.71,-95.66C129.8,-98.55 134.67,-101.82 139,-105.5 161.84,-124.89 152.68,-142.51 175,-162.5 176.14,-163.52 177.32,-164.51 178.54,-165.47"/>
<polygon fill="black" stroke="black" points="176.8,-168.53 187,-171.4 180.82,-162.8 176.8,-168.53"/>
</g>
<!-- MPSoC_MSI&#45;&gt;PU_OR1K -->
<g id="edge32" class="edge">
<title>MPSoC_MSI&#45;&gt;PU_OR1K</title>
<path fill="none" stroke="black" d="M124.89,-95.64C139.6,-100.81 155.62,-106.45 170.69,-111.75"/>
<polygon fill="black" stroke="black" points="169.85,-115.17 180.44,-115.18 172.17,-108.56 169.85,-115.17"/>
</g>
<!-- MPSoC_MSI&#45;&gt;PU_RISCV -->
<g id="edge49" class="edge">
<title>MPSoC_MSI&#45;&gt;PU_RISCV</title>
<path fill="none" stroke="black" d="M124.89,-76.5C139.46,-76.5 155.31,-76.5 170.26,-76.5"/>
<polygon fill="black" stroke="black" points="170.44,-80 180.44,-76.5 170.44,-73 170.44,-80"/>
</g>
<!-- MPSoC_NoC -->
<g id="node7" class="node">
<title>MPSoC_NoC</title>
<polygon fill="none" stroke="black" points="14,-456.5 14,-494.5 125,-494.5 125,-456.5 14,-456.5"/>
<text text-anchor="middle" x="69.5" y="-479.3" font-family="Times,serif" font-size="14.00">MPSoC_NoC </text>
<text text-anchor="middle" x="69.5" y="-464.3" font-family="Times,serif" font-size="14.00">Peripheral</text>
</g>
<!-- MPSoC_NoC&#45;&gt;SoC_MSP430 -->
<g id="edge7" class="edge">
<title>MPSoC_NoC&#45;&gt;SoC_MSP430</title>
<path fill="none" stroke="black" d="M122.73,-456.46C128.37,-453.73 133.9,-450.74 139,-447.5 165.06,-430.95 190.58,-406.78 208.36,-388.27"/>
<polygon fill="black" stroke="black" points="211.16,-390.4 215.48,-380.73 206.07,-385.6 211.16,-390.4"/>
</g>
<!-- MPSoC_NoC&#45;&gt;SoC_OR1K -->
<g id="edge24" class="edge">
<title>MPSoC_NoC&#45;&gt;SoC_OR1K</title>
<path fill="none" stroke="black" d="M125.08,-458.66C130.22,-455.54 135,-451.85 139,-447.5 175,-408.42 140.58,-373.97 175,-333.5 176,-332.33 177.05,-331.2 178.16,-330.11"/>
<polygon fill="black" stroke="black" points="180.63,-332.61 186.07,-323.51 176.15,-327.23 180.63,-332.61"/>
</g>
<!-- MPSoC_NoC&#45;&gt;SoC_RISCV -->
<g id="edge41" class="edge">
<title>MPSoC_NoC&#45;&gt;SoC_RISCV</title>
<path fill="none" stroke="black" d="M125.19,-459.26C130.38,-456.02 135.13,-452.14 139,-447.5 188.74,-387.85 127.65,-338.07 175,-276.5 175.81,-275.45 176.66,-274.44 177.55,-273.46"/>
<polygon fill="black" stroke="black" points="180.06,-275.91 185.14,-266.61 175.37,-270.72 180.06,-275.91"/>
</g>
<!-- MPSoC_SPRAM -->
<g id="node8" class="node">
<title>MPSoC_SPRAM</title>
<polygon fill="none" stroke="black" points="2.5,-0.5 2.5,-38.5 136.5,-38.5 136.5,-0.5 2.5,-0.5"/>
<text text-anchor="middle" x="69.5" y="-23.3" font-family="Times,serif" font-size="14.00">MPSoC_SPRAM </text>
<text text-anchor="middle" x="69.5" y="-8.3" font-family="Times,serif" font-size="14.00">Peripheral</text>
</g>
<!-- MPSoC_SPRAM&#45;&gt;SoC_MSP430 -->
<g id="edge8" class="edge">
<title>MPSoC_SPRAM&#45;&gt;SoC_MSP430</title>
<path fill="none" stroke="black" d="M130.01,-38.56C133.37,-41.17 136.42,-44.14 139,-47.5 216.94,-149.18 100.41,-229.34 175,-333.5 175.45,-334.13 175.91,-334.74 176.4,-335.34"/>
<polygon fill="black" stroke="black" points="173.95,-337.84 183.51,-342.42 178.89,-332.88 173.95,-337.84"/>
</g>
<!-- MPSoC_SPRAM&#45;&gt;SoC_OR1K -->
<g id="edge25" class="edge">
<title>MPSoC_SPRAM&#45;&gt;SoC_OR1K</title>
<path fill="none" stroke="black" d="M129.89,-38.66C133.28,-41.24 136.37,-44.18 139,-47.5 202.93,-128.3 113.74,-193.66 175,-276.5 175.46,-277.12 175.93,-277.73 176.43,-278.32"/>
<polygon fill="black" stroke="black" points="174.02,-280.86 183.62,-285.34 178.91,-275.85 174.02,-280.86"/>
</g>
<!-- MPSoC_SPRAM&#45;&gt;SoC_RISCV -->
<g id="edge42" class="edge">
<title>MPSoC_SPRAM&#45;&gt;SoC_RISCV</title>
<path fill="none" stroke="black" d="M129.39,-38.58C132.94,-41.19 136.2,-44.14 139,-47.5 188.99,-107.51 126.99,-157.9 175,-219.5 175.49,-220.12 175.99,-220.73 176.51,-221.33"/>
<polygon fill="black" stroke="black" points="174.37,-224.13 184.07,-228.41 179.16,-219.02 174.37,-224.13"/>
</g>
<!-- MPSoC_SPRAM&#45;&gt;PU_MSP430 -->
<g id="edge16" class="edge">
<title>MPSoC_SPRAM&#45;&gt;PU_MSP430</title>
<path fill="none" stroke="black" d="M128.71,-38.67C132.47,-41.26 135.96,-44.19 139,-47.5 175.23,-86.94 140.07,-121.9 175,-162.5 175.62,-163.22 176.26,-163.92 176.92,-164.6"/>
<polygon fill="black" stroke="black" points="174.83,-167.43 184.68,-171.33 179.42,-162.14 174.83,-167.43"/>
</g>
<!-- MPSoC_SPRAM&#45;&gt;PU_OR1K -->
<g id="edge33" class="edge">
<title>MPSoC_SPRAM&#45;&gt;PU_OR1K</title>
<path fill="none" stroke="black" d="M126.12,-38.58C130.7,-41.22 135.08,-44.18 139,-47.5 162.17,-67.08 152.48,-85.17 175,-105.5 176.13,-106.52 177.31,-107.52 178.52,-108.48"/>
<polygon fill="black" stroke="black" points="176.78,-111.54 186.97,-114.43 180.81,-105.81 176.78,-111.54"/>
</g>
<!-- MPSoC_SPRAM&#45;&gt;PU_RISCV -->
<g id="edge50" class="edge">
<title>MPSoC_SPRAM&#45;&gt;PU_RISCV</title>
<path fill="none" stroke="black" d="M124.89,-38.64C139.6,-43.81 155.62,-49.45 170.69,-54.75"/>
<polygon fill="black" stroke="black" points="169.85,-58.17 180.44,-58.18 172.17,-51.56 169.85,-58.17"/>
</g>
<!-- MPSoC_UART -->
<g id="node9" class="node">
<title>MPSoC_UART</title>
<polygon fill="none" stroke="black" points="9,-399.5 9,-437.5 130,-437.5 130,-399.5 9,-399.5"/>
<text text-anchor="middle" x="69.5" y="-422.3" font-family="Times,serif" font-size="14.00">MPSoC_UART </text>
<text text-anchor="middle" x="69.5" y="-407.3" font-family="Times,serif" font-size="14.00">Peripheral</text>
</g>
<!-- MPSoC_UART&#45;&gt;SoC_MSP430 -->
<g id="edge9" class="edge">
<title>MPSoC_UART&#45;&gt;SoC_MSP430</title>
<path fill="none" stroke="black" d="M124.89,-399.36C138.86,-394.45 154.01,-389.12 168.42,-384.05"/>
<polygon fill="black" stroke="black" points="169.98,-387.21 178.25,-380.59 167.65,-380.61 169.98,-387.21"/>
</g>
<!-- MPSoC_UART&#45;&gt;SoC_OR1K -->
<g id="edge26" class="edge">
<title>MPSoC_UART&#45;&gt;SoC_OR1K</title>
<path fill="none" stroke="black" d="M126.1,-399.39C130.68,-396.76 135.06,-393.8 139,-390.5 161.96,-371.25 152.82,-353.64 175,-333.5 176.49,-332.15 178.05,-330.84 179.68,-329.58"/>
<polygon fill="black" stroke="black" points="181.96,-332.26 188.17,-323.68 177.96,-326.51 181.96,-332.26"/>
</g>
<!-- MPSoC_UART&#45;&gt;SoC_RISCV -->
<g id="edge43" class="edge">
<title>MPSoC_UART&#45;&gt;SoC_RISCV</title>
<path fill="none" stroke="black" d="M128.7,-399.32C132.46,-396.73 135.95,-393.81 139,-390.5 175,-351.42 140.58,-316.97 175,-276.5 176,-275.33 177.05,-274.2 178.16,-273.11"/>
<polygon fill="black" stroke="black" points="180.63,-275.61 186.07,-266.51 176.15,-270.23 180.63,-275.61"/>
</g>
<!-- MPSoC_UART&#45;&gt;PU_MSP430 -->
<g id="edge17" class="edge">
<title>MPSoC_UART&#45;&gt;PU_MSP430</title>
<path fill="none" stroke="black" d="M129.38,-399.42C132.94,-396.81 136.2,-393.85 139,-390.5 188.74,-330.85 127.65,-281.07 175,-219.5 175.81,-218.45 176.66,-217.44 177.55,-216.46"/>
<polygon fill="black" stroke="black" points="180.06,-218.91 185.14,-209.61 175.37,-213.72 180.06,-218.91"/>
</g>
<!-- MPSoC_UART&#45;&gt;PU_OR1K -->
<g id="edge34" class="edge">
<title>MPSoC_UART&#45;&gt;PU_OR1K</title>
<path fill="none" stroke="black" d="M129.89,-399.34C133.28,-396.76 136.37,-393.82 139,-390.5 202.68,-310.07 114.55,-245.39 175,-162.5 175.68,-161.57 176.39,-160.68 177.14,-159.8"/>
<polygon fill="black" stroke="black" points="179.81,-162.09 184.67,-152.67 175,-157.01 179.81,-162.09"/>
</g>
<!-- MPSoC_UART&#45;&gt;PU_RISCV -->
<g id="edge51" class="edge">
<title>MPSoC_UART&#45;&gt;PU_RISCV</title>
<path fill="none" stroke="black" d="M130.01,-399.43C133.37,-396.83 136.42,-393.86 139,-390.5 216.69,-289.19 101.37,-209.8 175,-105.5 175.66,-104.56 176.36,-103.66 177.1,-102.78"/>
<polygon fill="black" stroke="black" points="179.78,-105.05 184.55,-95.58 174.92,-100.01 179.78,-105.05"/>
</g>
<!-- SoC_DV -->
<g id="node16" class="node">
<title>SoC_DV</title>
<polygon fill="none" stroke="black" points="328,-285.5 328,-323.5 438,-323.5 438,-285.5 328,-285.5"/>
<text text-anchor="middle" x="383" y="-308.3" font-family="Times,serif" font-size="14.00">SoC_DV </text>
<text text-anchor="middle" x="383" y="-293.3" font-family="Times,serif" font-size="14.00">Environment</text>
</g>
<!-- SoC_MSP430&#45;&gt;SoC_DV -->
<g id="edge55" class="edge">
<title>SoC_MSP430&#45;&gt;SoC_DV</title>
<path fill="none" stroke="black" d="M284.03,-342.36C296.62,-337.49 310.27,-332.22 323.28,-327.19"/>
<polygon fill="black" stroke="black" points="324.54,-330.46 332.61,-323.59 322.02,-323.93 324.54,-330.46"/>
</g>
<!-- SoC_OR1K&#45;&gt;SoC_DV -->
<g id="edge56" class="edge">
<title>SoC_OR1K&#45;&gt;SoC_DV</title>
<path fill="none" stroke="black" d="M286.5,-304.5C296.58,-304.5 307.25,-304.5 317.67,-304.5"/>
<polygon fill="black" stroke="black" points="317.97,-308 327.97,-304.5 317.97,-301 317.97,-308"/>
</g>
<!-- SoC_RISCV&#45;&gt;SoC_DV -->
<g id="edge57" class="edge">
<title>SoC_RISCV&#45;&gt;SoC_DV</title>
<path fill="none" stroke="black" d="M284.03,-266.64C296.62,-271.51 310.27,-276.78 323.28,-281.81"/>
<polygon fill="black" stroke="black" points="322.02,-285.07 332.61,-285.41 324.54,-278.54 322.02,-285.07"/>
</g>
<!-- PU_DV -->
<g id="node17" class="node">
<title>PU_DV</title>
<polygon fill="none" stroke="black" points="328,-114.5 328,-152.5 438,-152.5 438,-114.5 328,-114.5"/>
<text text-anchor="middle" x="383" y="-137.3" font-family="Times,serif" font-size="14.00">PU_DV </text>
<text text-anchor="middle" x="383" y="-122.3" font-family="Times,serif" font-size="14.00">Environment</text>
</g>
<!-- PU_MSP430&#45;&gt;PU_DV -->
<g id="edge52" class="edge">
<title>PU_MSP430&#45;&gt;PU_DV</title>
<path fill="none" stroke="black" d="M284.03,-171.36C296.62,-166.49 310.27,-161.22 323.28,-156.19"/>
<polygon fill="black" stroke="black" points="324.54,-159.46 332.61,-152.59 322.02,-152.93 324.54,-159.46"/>
</g>
<!-- PU_OR1K&#45;&gt;PU_DV -->
<g id="edge53" class="edge">
<title>PU_OR1K&#45;&gt;PU_DV</title>
<path fill="none" stroke="black" d="M286.5,-133.5C296.58,-133.5 307.25,-133.5 317.67,-133.5"/>
<polygon fill="black" stroke="black" points="317.97,-137 327.97,-133.5 317.97,-130 317.97,-137"/>
</g>
<!-- PU_RISCV&#45;&gt;PU_DV -->
<g id="edge54" class="edge">
<title>PU_RISCV&#45;&gt;PU_DV</title>
<path fill="none" stroke="black" d="M284.03,-95.64C296.62,-100.51 310.27,-105.78 323.28,-110.81"/>
<polygon fill="black" stroke="black" points="322.02,-114.07 332.61,-114.41 324.54,-107.54 322.02,-114.07"/>
</g>
<!-- SoC_NTM -->
<g id="node18" class="node">
<title>SoC_NTM</title>
<polygon fill="none" stroke="black" points="474,-314.5 474,-352.5 566,-352.5 566,-314.5 474,-314.5"/>
<text text-anchor="middle" x="520" y="-337.3" font-family="Times,serif" font-size="14.00">SoC_NTM </text>
<text text-anchor="middle" x="520" y="-322.3" font-family="Times,serif" font-size="14.00">Advanced</text>
</g>
<!-- SoC_DV&#45;&gt;SoC_NTM -->
<g id="edge60" class="edge">
<title>SoC_DV&#45;&gt;SoC_NTM</title>
<path fill="none" stroke="black" d="M438.13,-316.13C446.67,-317.96 455.51,-319.86 464.07,-321.7"/>
<polygon fill="black" stroke="black" points="463.44,-325.15 473.96,-323.82 464.91,-318.3 463.44,-325.15"/>
</g>
<!-- SoC_DNC -->
<g id="node20" class="node">
<title>SoC_DNC</title>
<polygon fill="none" stroke="black" points="475,-257.5 475,-295.5 565,-295.5 565,-257.5 475,-257.5"/>
<text text-anchor="middle" x="520" y="-280.3" font-family="Times,serif" font-size="14.00">SoC_DNC </text>
<text text-anchor="middle" x="520" y="-265.3" font-family="Times,serif" font-size="14.00">Advanced</text>
</g>
<!-- SoC_DV&#45;&gt;SoC_DNC -->
<g id="edge61" class="edge">
<title>SoC_DV&#45;&gt;SoC_DNC</title>
<path fill="none" stroke="black" d="M438.13,-293.27C446.98,-291.44 456.15,-289.54 464.99,-287.7"/>
<polygon fill="black" stroke="black" points="465.72,-291.12 474.8,-285.67 464.3,-284.27 465.72,-291.12"/>
</g>
<!-- PU_NTM -->
<g id="node19" class="node">
<title>PU_NTM</title>
<polygon fill="none" stroke="black" points="477,-143.5 477,-181.5 563,-181.5 563,-143.5 477,-143.5"/>
<text text-anchor="middle" x="520" y="-166.3" font-family="Times,serif" font-size="14.00">PU_NTM </text>
<text text-anchor="middle" x="520" y="-151.3" font-family="Times,serif" font-size="14.00">Advanced</text>
</g>
<!-- PU_DV&#45;&gt;PU_NTM -->
<g id="edge58" class="edge">
<title>PU_DV&#45;&gt;PU_NTM</title>
<path fill="none" stroke="black" d="M438.13,-145.13C447.61,-147.17 457.46,-149.28 466.89,-151.31"/>
<polygon fill="black" stroke="black" points="466.4,-154.78 476.91,-153.46 467.87,-147.94 466.4,-154.78"/>
</g>
<!-- PU_DNC -->
<g id="node21" class="node">
<title>PU_DNC</title>
<polygon fill="none" stroke="black" points="477,-86.5 477,-124.5 563,-124.5 563,-86.5 477,-86.5"/>
<text text-anchor="middle" x="520" y="-109.3" font-family="Times,serif" font-size="14.00">PU_DNC </text>
<text text-anchor="middle" x="520" y="-94.3" font-family="Times,serif" font-size="14.00">Advanced</text>
</g>
<!-- PU_DV&#45;&gt;PU_DNC -->
<g id="edge59" class="edge">
<title>PU_DV&#45;&gt;PU_DNC</title>
<path fill="none" stroke="black" d="M438.13,-122.27C447.61,-120.31 457.46,-118.26 466.89,-116.31"/>
<polygon fill="black" stroke="black" points="467.83,-119.69 476.91,-114.23 466.41,-112.83 467.83,-119.69"/>
</g>
<!-- SoC_DefenseTech -->
<g id="node22" class="node">
<title>SoC_DefenseTech</title>
<polygon fill="none" stroke="black" points="602,-285.5 602,-323.5 718,-323.5 718,-285.5 602,-285.5"/>
<text text-anchor="middle" x="660" y="-308.3" font-family="Times,serif" font-size="14.00">SoC_DefenseTech </text>
<text text-anchor="middle" x="660" y="-293.3" font-family="Times,serif" font-size="14.00">Advanced</text>
</g>
<!-- SoC_NTM&#45;&gt;SoC_DefenseTech -->
<g id="edge64" class="edge">
<title>SoC_NTM&#45;&gt;SoC_DefenseTech</title>
<path fill="none" stroke="black" d="M566.19,-324C574.32,-322.29 582.96,-320.48 591.57,-318.67"/>
<polygon fill="black" stroke="black" points="592.56,-322.04 601.62,-316.56 591.12,-315.19 592.56,-322.04"/>
</g>
<!-- PU_DefenseTech -->
<g id="node23" class="node">
<title>PU_DefenseTech</title>
<polygon fill="none" stroke="black" points="605.5,-115.5 605.5,-153.5 714.5,-153.5 714.5,-115.5 605.5,-115.5"/>
<text text-anchor="middle" x="660" y="-138.3" font-family="Times,serif" font-size="14.00">PU_DefenseTech </text>
<text text-anchor="middle" x="660" y="-123.3" font-family="Times,serif" font-size="14.00">Advanced</text>
</g>
<!-- PU_NTM&#45;&gt;PU_DefenseTech -->
<g id="edge62" class="edge">
<title>PU_NTM&#45;&gt;PU_DefenseTech</title>
<path fill="none" stroke="black" d="M563.15,-153.95C573.35,-151.88 584.47,-149.62 595.41,-147.4"/>
<polygon fill="black" stroke="black" points="596.27,-150.8 605.37,-145.38 594.88,-143.94 596.27,-150.8"/>
</g>
<!-- SoC_DNC&#45;&gt;SoC_DefenseTech -->
<g id="edge65" class="edge">
<title>SoC_DNC&#45;&gt;SoC_DefenseTech</title>
<path fill="none" stroke="black" d="M565.04,-285.44C573.62,-287.18 582.78,-289.04 591.91,-290.89"/>
<polygon fill="black" stroke="black" points="591.26,-294.33 601.76,-292.89 592.65,-287.47 591.26,-294.33"/>
</g>
<!-- PU_DNC&#45;&gt;PU_DefenseTech -->
<g id="edge63" class="edge">
<title>PU_DNC&#45;&gt;PU_DefenseTech</title>
<path fill="none" stroke="black" d="M563.15,-114.36C573.35,-116.5 584.47,-118.84 595.41,-121.14"/>
<polygon fill="black" stroke="black" points="594.87,-124.6 605.37,-123.23 596.31,-117.75 594.87,-124.6"/>
</g>
</g>
</svg>
