<?xml version="1.0" encoding="UTF-8" standalone="no"?>
<!DOCTYPE svg PUBLIC "-//W3C//DTD SVG 1.1//EN"
 "http://www.w3.org/Graphics/SVG/1.1/DTD/svg11.dtd">
<!-- Generated by graphviz version 2.43.0 (0)
 -->
<!-- Title: Project Pages: 1 -->
<svg width="2993pt" height="177pt"
 viewBox="0.00 0.00 2993.00 177.00" xmlns="http://www.w3.org/2000/svg" xmlns:xlink="http://www.w3.org/1999/xlink">
<g id="graph0" class="graph" transform="scale(1 1) rotate(0) translate(4 173)">
<title>Project</title>
<polygon fill="white" stroke="transparent" points="-4,4 -4,-173 2989,-173 2989,4 -4,4"/>
<g id="clust1" class="cluster">
<title>cluster pu&#45;or1k</title>
<polygon fill="none" stroke="black" points="8,-8 8,-161 2977,-161 2977,-8 8,-8"/>
<text text-anchor="middle" x="1492.5" y="-145.8" font-family="Times,serif" font-size="14.00">pu&#45;or1k</text>
</g>
<g id="clust2" class="cluster">
<title>cluster core</title>
<polygon fill="none" stroke="black" points="562,-16 562,-130 2969,-130 2969,-16 562,-16"/>
<text text-anchor="middle" x="1765.5" y="-114.8" font-family="Times,serif" font-size="14.00">core</text>
</g>
<g id="clust3" class="cluster">
<title>cluster cache</title>
<polygon fill="none" stroke="black" points="2517,-24 2517,-99 2961,-99 2961,-24 2517,-24"/>
<text text-anchor="middle" x="2739" y="-83.8" font-family="Times,serif" font-size="14.00">cache</text>
</g>
<g id="clust4" class="cluster">
<title>cluster decode</title>
<polygon fill="none" stroke="black" points="2439,-24 2439,-99 2509,-99 2509,-24 2439,-24"/>
<text text-anchor="middle" x="2474" y="-83.8" font-family="Times,serif" font-size="14.00">decode</text>
</g>
<g id="clust5" class="cluster">
<title>cluster execute</title>
<polygon fill="none" stroke="black" points="1969,-24 1969,-99 2431,-99 2431,-24 1969,-24"/>
<text text-anchor="middle" x="2200" y="-83.8" font-family="Times,serif" font-size="14.00">execute</text>
</g>
<g id="clust6" class="cluster">
<title>cluster fetch</title>
<polygon fill="none" stroke="black" points="1891,-24 1891,-99 1961,-99 1961,-24 1891,-24"/>
<text text-anchor="middle" x="1926" y="-83.8" font-family="Times,serif" font-size="14.00">fetch</text>
</g>
<g id="clust7" class="cluster">
<title>cluster memory</title>
<polygon fill="none" stroke="black" points="1102,-24 1102,-99 1883,-99 1883,-24 1102,-24"/>
<text text-anchor="middle" x="1492.5" y="-83.8" font-family="Times,serif" font-size="14.00">memory</text>
</g>
<g id="clust8" class="cluster">
<title>cluster main</title>
<polygon fill="none" stroke="black" points="570,-24 570,-99 1094,-99 1094,-24 570,-24"/>
<text text-anchor="middle" x="832" y="-83.8" font-family="Times,serif" font-size="14.00">main</text>
</g>
<g id="clust9" class="cluster">
<title>cluster memory</title>
<polygon fill="none" stroke="black" points="104,-16 104,-130 554,-130 554,-16 104,-16"/>
<text text-anchor="middle" x="329" y="-114.8" font-family="Times,serif" font-size="14.00">memory</text>
</g>
<g id="clust10" class="cluster">
<title>cluster ram_1r1w</title>
<polygon fill="none" stroke="black" points="382,-24 382,-99 546,-99 546,-24 382,-24"/>
<text text-anchor="middle" x="464" y="-83.8" font-family="Times,serif" font-size="14.00">ram_1r1w</text>
</g>
<g id="clust11" class="cluster">
<title>cluster ram_1rw</title>
<polygon fill="none" stroke="black" points="218,-24 218,-99 374,-99 374,-24 218,-24"/>
<text text-anchor="middle" x="296" y="-83.8" font-family="Times,serif" font-size="14.00">ram_1rw</text>
</g>
<g id="clust12" class="cluster">
<title>cluster interface</title>
<polygon fill="none" stroke="black" points="16,-24 16,-99 96,-99 96,-24 16,-24"/>
<text text-anchor="middle" x="56" y="-83.8" font-family="Times,serif" font-size="14.00">interface</text>
</g>
<!-- dcache_core -->
<g id="node1" class="node">
<title>dcache_core</title>
<polygon fill="none" stroke="black" points="2953,-68 2849,-68 2849,-32 2953,-32 2953,-68"/>
<text text-anchor="middle" x="2901" y="-46.3" font-family="Times,serif" font-size="14.00">dcache_core</text>
</g>
<!-- dext -->
<g id="node2" class="node">
<title>dext</title>
<polygon fill="none" stroke="black" points="2831,-68 2777,-68 2777,-32 2831,-32 2831,-68"/>
<text text-anchor="middle" x="2804" y="-46.3" font-family="Times,serif" font-size="14.00">dext</text>
</g>
<!-- icache_core -->
<g id="node3" class="node">
<title>icache_core</title>
<polygon fill="none" stroke="black" points="2758.5,-68 2659.5,-68 2659.5,-32 2758.5,-32 2758.5,-68"/>
<text text-anchor="middle" x="2709" y="-46.3" font-family="Times,serif" font-size="14.00">icache_core</text>
</g>
<!-- noicache_core -->
<g id="node4" class="node">
<title>noicache_core</title>
<polygon fill="none" stroke="black" points="2641,-68 2525,-68 2525,-32 2641,-32 2641,-68"/>
<text text-anchor="middle" x="2583" y="-46.3" font-family="Times,serif" font-size="14.00">noicache_core</text>
</g>
<!-- id -->
<g id="node5" class="node">
<title>id</title>
<polygon fill="none" stroke="black" points="2501,-68 2447,-68 2447,-32 2501,-32 2501,-68"/>
<text text-anchor="middle" x="2474" y="-46.3" font-family="Times,serif" font-size="14.00">id</text>
</g>
<!-- alu -->
<g id="node6" class="node">
<title>alu</title>
<polygon fill="none" stroke="black" points="2423,-68 2369,-68 2369,-32 2423,-32 2423,-68"/>
<text text-anchor="middle" x="2396" y="-46.3" font-family="Times,serif" font-size="14.00">alu</text>
</g>
<!-- bu -->
<g id="node7" class="node">
<title>bu</title>
<polygon fill="none" stroke="black" points="2351,-68 2297,-68 2297,-32 2351,-32 2351,-68"/>
<text text-anchor="middle" x="2324" y="-46.3" font-family="Times,serif" font-size="14.00">bu</text>
</g>
<!-- div -->
<g id="node8" class="node">
<title>div</title>
<polygon fill="none" stroke="black" points="2279,-68 2225,-68 2225,-32 2279,-32 2279,-68"/>
<text text-anchor="middle" x="2252" y="-46.3" font-family="Times,serif" font-size="14.00">div</text>
</g>
<!-- execution -->
<g id="node9" class="node">
<title>execution</title>
<polygon fill="none" stroke="black" points="2207,-68 2121,-68 2121,-32 2207,-32 2207,-68"/>
<text text-anchor="middle" x="2164" y="-46.3" font-family="Times,serif" font-size="14.00">execution</text>
</g>
<!-- lsu -->
<g id="node10" class="node">
<title>lsu</title>
<polygon fill="none" stroke="black" points="2103,-68 2049,-68 2049,-32 2103,-32 2103,-68"/>
<text text-anchor="middle" x="2076" y="-46.3" font-family="Times,serif" font-size="14.00">lsu</text>
</g>
<!-- mul -->
<g id="node11" class="node">
<title>mul</title>
<polygon fill="none" stroke="black" points="2031,-68 1977,-68 1977,-32 2031,-32 2031,-68"/>
<text text-anchor="middle" x="2004" y="-46.3" font-family="Times,serif" font-size="14.00">mul</text>
</g>
<!-- if -->
<g id="node12" class="node">
<title>if</title>
<polygon fill="none" stroke="black" points="1953,-68 1899,-68 1899,-32 1953,-32 1953,-68"/>
<text text-anchor="middle" x="1926" y="-46.3" font-family="Times,serif" font-size="14.00">if</text>
</g>
<!-- dmem_ctrl -->
<g id="node13" class="node">
<title>dmem_ctrl</title>
<polygon fill="none" stroke="black" points="1875,-68 1783,-68 1783,-32 1875,-32 1875,-68"/>
<text text-anchor="middle" x="1829" y="-46.3" font-family="Times,serif" font-size="14.00">dmem_ctrl</text>
</g>
<!-- imem_ctrl -->
<g id="node14" class="node">
<title>imem_ctrl</title>
<polygon fill="none" stroke="black" points="1765,-68 1677,-68 1677,-32 1765,-32 1765,-68"/>
<text text-anchor="middle" x="1721" y="-46.3" font-family="Times,serif" font-size="14.00">imem_ctrl</text>
</g>
<!-- membuf -->
<g id="node15" class="node">
<title>membuf</title>
<polygon fill="none" stroke="black" points="1659.5,-68 1584.5,-68 1584.5,-32 1659.5,-32 1659.5,-68"/>
<text text-anchor="middle" x="1622" y="-46.3" font-family="Times,serif" font-size="14.00">membuf</text>
</g>
<!-- memmisaligned -->
<g id="node16" class="node">
<title>memmisaligned</title>
<polygon fill="none" stroke="black" points="1566,-68 1436,-68 1436,-32 1566,-32 1566,-68"/>
<text text-anchor="middle" x="1501" y="-46.3" font-family="Times,serif" font-size="14.00">memmisaligned</text>
</g>
<!-- mmu -->
<g id="node17" class="node">
<title>mmu</title>
<polygon fill="none" stroke="black" points="1418,-68 1364,-68 1364,-32 1418,-32 1418,-68"/>
<text text-anchor="middle" x="1391" y="-46.3" font-family="Times,serif" font-size="14.00">mmu</text>
</g>
<!-- mux -->
<g id="node18" class="node">
<title>mux</title>
<polygon fill="none" stroke="black" points="1346,-68 1292,-68 1292,-32 1346,-32 1346,-68"/>
<text text-anchor="middle" x="1319" y="-46.3" font-family="Times,serif" font-size="14.00">mux</text>
</g>
<!-- pmachk -->
<g id="node19" class="node">
<title>pmachk</title>
<polygon fill="none" stroke="black" points="1274,-68 1202,-68 1202,-32 1274,-32 1274,-68"/>
<text text-anchor="middle" x="1238" y="-46.3" font-family="Times,serif" font-size="14.00">pmachk</text>
</g>
<!-- pmpchk -->
<g id="node20" class="node">
<title>pmpchk</title>
<polygon fill="none" stroke="black" points="1183.5,-68 1110.5,-68 1110.5,-32 1183.5,-32 1183.5,-68"/>
<text text-anchor="middle" x="1147" y="-46.3" font-family="Times,serif" font-size="14.00">pmpchk</text>
</g>
<!-- bp -->
<g id="node21" class="node">
<title>bp</title>
<polygon fill="none" stroke="black" points="1086,-68 1032,-68 1032,-32 1086,-32 1086,-68"/>
<text text-anchor="middle" x="1059" y="-46.3" font-family="Times,serif" font-size="14.00">bp</text>
</g>
<!-- core -->
<g id="node22" class="node">
<title>core</title>
<polygon fill="none" stroke="black" points="1014,-68 960,-68 960,-32 1014,-32 1014,-68"/>
<text text-anchor="middle" x="987" y="-46.3" font-family="Times,serif" font-size="14.00">core</text>
</g>
<!-- du -->
<g id="node23" class="node">
<title>du</title>
<polygon fill="none" stroke="black" points="942,-68 888,-68 888,-32 942,-32 942,-68"/>
<text text-anchor="middle" x="915" y="-46.3" font-family="Times,serif" font-size="14.00">du</text>
</g>
<!-- memory -->
<g id="node24" class="node">
<title>memory</title>
<polygon fill="none" stroke="black" points="869.5,-68 794.5,-68 794.5,-32 869.5,-32 869.5,-68"/>
<text text-anchor="middle" x="832" y="-46.3" font-family="Times,serif" font-size="14.00">memory</text>
</g>
<!-- rf -->
<g id="node25" class="node">
<title>rf</title>
<polygon fill="none" stroke="black" points="776,-68 722,-68 722,-32 776,-32 776,-68"/>
<text text-anchor="middle" x="749" y="-46.3" font-family="Times,serif" font-size="14.00">rf</text>
</g>
<!-- state -->
<g id="node26" class="node">
<title>state</title>
<polygon fill="none" stroke="black" points="704,-68 650,-68 650,-32 704,-32 704,-68"/>
<text text-anchor="middle" x="677" y="-46.3" font-family="Times,serif" font-size="14.00">state</text>
</g>
<!-- wb -->
<g id="node27" class="node">
<title>wb</title>
<polygon fill="none" stroke="black" points="632,-68 578,-68 578,-32 632,-32 632,-68"/>
<text text-anchor="middle" x="605" y="-46.3" font-family="Times,serif" font-size="14.00">wb</text>
</g>
<!-- ram_1r1w_generic -->
<g id="node28" class="node">
<title>ram_1r1w_generic</title>
<polygon fill="none" stroke="black" points="538.5,-68 389.5,-68 389.5,-32 538.5,-32 538.5,-68"/>
<text text-anchor="middle" x="464" y="-46.3" font-family="Times,serif" font-size="14.00">ram_1r1w_generic</text>
</g>
<!-- ram_1rw_generic -->
<g id="node29" class="node">
<title>ram_1rw_generic</title>
<polygon fill="none" stroke="black" points="366,-68 226,-68 226,-32 366,-32 366,-68"/>
<text text-anchor="middle" x="296" y="-46.3" font-family="Times,serif" font-size="14.00">ram_1rw_generic</text>
</g>
<!-- ram_queue -->
<g id="node30" class="node">
<title>ram_queue</title>
<polygon fill="none" stroke="black" points="207.5,-68 112.5,-68 112.5,-32 207.5,-32 207.5,-68"/>
<text text-anchor="middle" x="160" y="-46.3" font-family="Times,serif" font-size="14.00">ram_queue</text>
</g>
<!-- bus_wb -->
<g id="node31" class="node">
<title>bus_wb</title>
<polygon fill="none" stroke="black" points="83,-68 29,-68 29,-32 83,-32 83,-68"/>
<text text-anchor="middle" x="56" y="-46.3" font-family="Times,serif" font-size="14.00">wb</text>
</g>
</g>
</svg>
