<?xml version="1.0" encoding="UTF-8" standalone="no"?>
<!DOCTYPE svg PUBLIC "-//W3C//DTD SVG 1.1//EN"
 "http://www.w3.org/Graphics/SVG/1.1/DTD/svg11.dtd">
<!-- Generated by graphviz version 2.43.0 (0)
 -->
<!-- Title: Project Pages: 1 -->
<svg width="3199pt" height="177pt"
 viewBox="0.00 0.00 3199.00 177.00" xmlns="http://www.w3.org/2000/svg" xmlns:xlink="http://www.w3.org/1999/xlink">
<g id="graph0" class="graph" transform="scale(1 1) rotate(0) translate(4 173)">
<title>Project</title>
<polygon fill="white" stroke="transparent" points="-4,4 -4,-173 3195,-173 3195,4 -4,4"/>
<g id="clust1" class="cluster">
<title>cluster pu&#45;riscv</title>
<polygon fill="none" stroke="black" points="8,-8 8,-161 3183,-161 3183,-8 8,-8"/>
<text text-anchor="middle" x="1595.5" y="-145.8" font-family="Times,serif" font-size="14.00">pu&#45;riscv</text>
</g>
<g id="clust2" class="cluster">
<title>cluster core</title>
<polygon fill="none" stroke="black" points="768,-16 768,-130 3175,-130 3175,-16 768,-16"/>
<text text-anchor="middle" x="1971.5" y="-114.8" font-family="Times,serif" font-size="14.00">core</text>
</g>
<g id="clust3" class="cluster">
<title>cluster cache</title>
<polygon fill="none" stroke="black" points="2723,-24 2723,-99 3167,-99 3167,-24 2723,-24"/>
<text text-anchor="middle" x="2945" y="-83.8" font-family="Times,serif" font-size="14.00">cache</text>
</g>
<g id="clust4" class="cluster">
<title>cluster decode</title>
<polygon fill="none" stroke="black" points="2645,-24 2645,-99 2715,-99 2715,-24 2645,-24"/>
<text text-anchor="middle" x="2680" y="-83.8" font-family="Times,serif" font-size="14.00">decode</text>
</g>
<g id="clust5" class="cluster">
<title>cluster execute</title>
<polygon fill="none" stroke="black" points="2175,-24 2175,-99 2637,-99 2637,-24 2175,-24"/>
<text text-anchor="middle" x="2406" y="-83.8" font-family="Times,serif" font-size="14.00">execute</text>
</g>
<g id="clust6" class="cluster">
<title>cluster fetch</title>
<polygon fill="none" stroke="black" points="2097,-24 2097,-99 2167,-99 2167,-24 2097,-24"/>
<text text-anchor="middle" x="2132" y="-83.8" font-family="Times,serif" font-size="14.00">fetch</text>
</g>
<g id="clust7" class="cluster">
<title>cluster memory</title>
<polygon fill="none" stroke="black" points="1308,-24 1308,-99 2089,-99 2089,-24 1308,-24"/>
<text text-anchor="middle" x="1698.5" y="-83.8" font-family="Times,serif" font-size="14.00">memory</text>
</g>
<g id="clust8" class="cluster">
<title>cluster main</title>
<polygon fill="none" stroke="black" points="776,-24 776,-99 1300,-99 1300,-24 776,-24"/>
<text text-anchor="middle" x="1038" y="-83.8" font-family="Times,serif" font-size="14.00">main</text>
</g>
<g id="clust9" class="cluster">
<title>cluster memory</title>
<polygon fill="none" stroke="black" points="310,-16 310,-130 760,-130 760,-16 310,-16"/>
<text text-anchor="middle" x="535" y="-114.8" font-family="Times,serif" font-size="14.00">memory</text>
</g>
<g id="clust10" class="cluster">
<title>cluster ram_1r1w</title>
<polygon fill="none" stroke="black" points="588,-24 588,-99 752,-99 752,-24 588,-24"/>
<text text-anchor="middle" x="670" y="-83.8" font-family="Times,serif" font-size="14.00">ram_1r1w</text>
</g>
<g id="clust11" class="cluster">
<title>cluster ram_1rw</title>
<polygon fill="none" stroke="black" points="424,-24 424,-99 580,-99 580,-24 424,-24"/>
<text text-anchor="middle" x="502" y="-83.8" font-family="Times,serif" font-size="14.00">ram_1rw</text>
</g>
<g id="clust12" class="cluster">
<title>cluster interface</title>
<polygon fill="none" stroke="black" points="16,-24 16,-99 302,-99 302,-24 16,-24"/>
<text text-anchor="middle" x="159" y="-83.8" font-family="Times,serif" font-size="14.00">interface</text>
</g>
<!-- dcache_core -->
<g id="node1" class="node">
<title>dcache_core</title>
<polygon fill="none" stroke="black" points="3159,-68 3055,-68 3055,-32 3159,-32 3159,-68"/>
<text text-anchor="middle" x="3107" y="-46.3" font-family="Times,serif" font-size="14.00">dcache_core</text>
</g>
<!-- dext -->
<g id="node2" class="node">
<title>dext</title>
<polygon fill="none" stroke="black" points="3037,-68 2983,-68 2983,-32 3037,-32 3037,-68"/>
<text text-anchor="middle" x="3010" y="-46.3" font-family="Times,serif" font-size="14.00">dext</text>
</g>
<!-- icache_core -->
<g id="node3" class="node">
<title>icache_core</title>
<polygon fill="none" stroke="black" points="2964.5,-68 2865.5,-68 2865.5,-32 2964.5,-32 2964.5,-68"/>
<text text-anchor="middle" x="2915" y="-46.3" font-family="Times,serif" font-size="14.00">icache_core</text>
</g>
<!-- noicache_core -->
<g id="node4" class="node">
<title>noicache_core</title>
<polygon fill="none" stroke="black" points="2847,-68 2731,-68 2731,-32 2847,-32 2847,-68"/>
<text text-anchor="middle" x="2789" y="-46.3" font-family="Times,serif" font-size="14.00">noicache_core</text>
</g>
<!-- id -->
<g id="node5" class="node">
<title>id</title>
<polygon fill="none" stroke="black" points="2707,-68 2653,-68 2653,-32 2707,-32 2707,-68"/>
<text text-anchor="middle" x="2680" y="-46.3" font-family="Times,serif" font-size="14.00">id</text>
</g>
<!-- alu -->
<g id="node6" class="node">
<title>alu</title>
<polygon fill="none" stroke="black" points="2629,-68 2575,-68 2575,-32 2629,-32 2629,-68"/>
<text text-anchor="middle" x="2602" y="-46.3" font-family="Times,serif" font-size="14.00">alu</text>
</g>
<!-- bu -->
<g id="node7" class="node">
<title>bu</title>
<polygon fill="none" stroke="black" points="2557,-68 2503,-68 2503,-32 2557,-32 2557,-68"/>
<text text-anchor="middle" x="2530" y="-46.3" font-family="Times,serif" font-size="14.00">bu</text>
</g>
<!-- div -->
<g id="node8" class="node">
<title>div</title>
<polygon fill="none" stroke="black" points="2485,-68 2431,-68 2431,-32 2485,-32 2485,-68"/>
<text text-anchor="middle" x="2458" y="-46.3" font-family="Times,serif" font-size="14.00">div</text>
</g>
<!-- execution -->
<g id="node9" class="node">
<title>execution</title>
<polygon fill="none" stroke="black" points="2413,-68 2327,-68 2327,-32 2413,-32 2413,-68"/>
<text text-anchor="middle" x="2370" y="-46.3" font-family="Times,serif" font-size="14.00">execution</text>
</g>
<!-- lsu -->
<g id="node10" class="node">
<title>lsu</title>
<polygon fill="none" stroke="black" points="2309,-68 2255,-68 2255,-32 2309,-32 2309,-68"/>
<text text-anchor="middle" x="2282" y="-46.3" font-family="Times,serif" font-size="14.00">lsu</text>
</g>
<!-- mul -->
<g id="node11" class="node">
<title>mul</title>
<polygon fill="none" stroke="black" points="2237,-68 2183,-68 2183,-32 2237,-32 2237,-68"/>
<text text-anchor="middle" x="2210" y="-46.3" font-family="Times,serif" font-size="14.00">mul</text>
</g>
<!-- if -->
<g id="node12" class="node">
<title>if</title>
<polygon fill="none" stroke="black" points="2159,-68 2105,-68 2105,-32 2159,-32 2159,-68"/>
<text text-anchor="middle" x="2132" y="-46.3" font-family="Times,serif" font-size="14.00">if</text>
</g>
<!-- dmem_ctrl -->
<g id="node13" class="node">
<title>dmem_ctrl</title>
<polygon fill="none" stroke="black" points="2081,-68 1989,-68 1989,-32 2081,-32 2081,-68"/>
<text text-anchor="middle" x="2035" y="-46.3" font-family="Times,serif" font-size="14.00">dmem_ctrl</text>
</g>
<!-- imem_ctrl -->
<g id="node14" class="node">
<title>imem_ctrl</title>
<polygon fill="none" stroke="black" points="1971,-68 1883,-68 1883,-32 1971,-32 1971,-68"/>
<text text-anchor="middle" x="1927" y="-46.3" font-family="Times,serif" font-size="14.00">imem_ctrl</text>
</g>
<!-- membuf -->
<g id="node15" class="node">
<title>membuf</title>
<polygon fill="none" stroke="black" points="1865.5,-68 1790.5,-68 1790.5,-32 1865.5,-32 1865.5,-68"/>
<text text-anchor="middle" x="1828" y="-46.3" font-family="Times,serif" font-size="14.00">membuf</text>
</g>
<!-- memmisaligned -->
<g id="node16" class="node">
<title>memmisaligned</title>
<polygon fill="none" stroke="black" points="1772,-68 1642,-68 1642,-32 1772,-32 1772,-68"/>
<text text-anchor="middle" x="1707" y="-46.3" font-family="Times,serif" font-size="14.00">memmisaligned</text>
</g>
<!-- mmu -->
<g id="node17" class="node">
<title>mmu</title>
<polygon fill="none" stroke="black" points="1624,-68 1570,-68 1570,-32 1624,-32 1624,-68"/>
<text text-anchor="middle" x="1597" y="-46.3" font-family="Times,serif" font-size="14.00">mmu</text>
</g>
<!-- mux -->
<g id="node18" class="node">
<title>mux</title>
<polygon fill="none" stroke="black" points="1552,-68 1498,-68 1498,-32 1552,-32 1552,-68"/>
<text text-anchor="middle" x="1525" y="-46.3" font-family="Times,serif" font-size="14.00">mux</text>
</g>
<!-- pmachk -->
<g id="node19" class="node">
<title>pmachk</title>
<polygon fill="none" stroke="black" points="1480,-68 1408,-68 1408,-32 1480,-32 1480,-68"/>
<text text-anchor="middle" x="1444" y="-46.3" font-family="Times,serif" font-size="14.00">pmachk</text>
</g>
<!-- pmpchk -->
<g id="node20" class="node">
<title>pmpchk</title>
<polygon fill="none" stroke="black" points="1389.5,-68 1316.5,-68 1316.5,-32 1389.5,-32 1389.5,-68"/>
<text text-anchor="middle" x="1353" y="-46.3" font-family="Times,serif" font-size="14.00">pmpchk</text>
</g>
<!-- bp -->
<g id="node21" class="node">
<title>bp</title>
<polygon fill="none" stroke="black" points="1292,-68 1238,-68 1238,-32 1292,-32 1292,-68"/>
<text text-anchor="middle" x="1265" y="-46.3" font-family="Times,serif" font-size="14.00">bp</text>
</g>
<!-- core -->
<g id="node22" class="node">
<title>core</title>
<polygon fill="none" stroke="black" points="1220,-68 1166,-68 1166,-32 1220,-32 1220,-68"/>
<text text-anchor="middle" x="1193" y="-46.3" font-family="Times,serif" font-size="14.00">core</text>
</g>
<!-- du -->
<g id="node23" class="node">
<title>du</title>
<polygon fill="none" stroke="black" points="1148,-68 1094,-68 1094,-32 1148,-32 1148,-68"/>
<text text-anchor="middle" x="1121" y="-46.3" font-family="Times,serif" font-size="14.00">du</text>
</g>
<!-- memory -->
<g id="node24" class="node">
<title>memory</title>
<polygon fill="none" stroke="black" points="1075.5,-68 1000.5,-68 1000.5,-32 1075.5,-32 1075.5,-68"/>
<text text-anchor="middle" x="1038" y="-46.3" font-family="Times,serif" font-size="14.00">memory</text>
</g>
<!-- rf -->
<g id="node25" class="node">
<title>rf</title>
<polygon fill="none" stroke="black" points="982,-68 928,-68 928,-32 982,-32 982,-68"/>
<text text-anchor="middle" x="955" y="-46.3" font-family="Times,serif" font-size="14.00">rf</text>
</g>
<!-- state -->
<g id="node26" class="node">
<title>state</title>
<polygon fill="none" stroke="black" points="910,-68 856,-68 856,-32 910,-32 910,-68"/>
<text text-anchor="middle" x="883" y="-46.3" font-family="Times,serif" font-size="14.00">state</text>
</g>
<!-- wb -->
<g id="node27" class="node">
<title>wb</title>
<polygon fill="none" stroke="black" points="838,-68 784,-68 784,-32 838,-32 838,-68"/>
<text text-anchor="middle" x="811" y="-46.3" font-family="Times,serif" font-size="14.00">wb</text>
</g>
<!-- ram_1r1w_generic -->
<g id="node28" class="node">
<title>ram_1r1w_generic</title>
<polygon fill="none" stroke="black" points="744.5,-68 595.5,-68 595.5,-32 744.5,-32 744.5,-68"/>
<text text-anchor="middle" x="670" y="-46.3" font-family="Times,serif" font-size="14.00">ram_1r1w_generic</text>
</g>
<!-- ram_1rw_generic -->
<g id="node29" class="node">
<title>ram_1rw_generic</title>
<polygon fill="none" stroke="black" points="572,-68 432,-68 432,-32 572,-32 572,-68"/>
<text text-anchor="middle" x="502" y="-46.3" font-family="Times,serif" font-size="14.00">ram_1rw_generic</text>
</g>
<!-- ram_queue -->
<g id="node30" class="node">
<title>ram_queue</title>
<polygon fill="none" stroke="black" points="413.5,-68 318.5,-68 318.5,-32 413.5,-32 413.5,-68"/>
<text text-anchor="middle" x="366" y="-46.3" font-family="Times,serif" font-size="14.00">ram_queue</text>
</g>
<!-- bus_axi4 -->
<g id="node31" class="node">
<title>bus_axi4</title>
<polygon fill="none" stroke="black" points="294,-68 240,-68 240,-32 294,-32 294,-68"/>
<text text-anchor="middle" x="267" y="-46.3" font-family="Times,serif" font-size="14.00">axi4</text>
</g>
<!-- bus_ahb4 -->
<g id="node32" class="node">
<title>bus_ahb4</title>
<polygon fill="none" stroke="black" points="222,-68 168,-68 168,-32 222,-32 222,-68"/>
<text text-anchor="middle" x="195" y="-46.3" font-family="Times,serif" font-size="14.00">ahb4</text>
</g>
<!-- bus_tl -->
<g id="node33" class="node">
<title>bus_tl</title>
<polygon fill="none" stroke="black" points="150,-68 96,-68 96,-32 150,-32 150,-68"/>
<text text-anchor="middle" x="123" y="-46.3" font-family="Times,serif" font-size="14.00">tl</text>
</g>
<!-- bus_wb -->
<g id="node34" class="node">
<title>bus_wb</title>
<polygon fill="none" stroke="black" points="78,-68 24,-68 24,-32 78,-32 78,-68"/>
<text text-anchor="middle" x="51" y="-46.3" font-family="Times,serif" font-size="14.00">wb</text>
</g>
</g>
</svg>
