<?xml version="1.0" encoding="UTF-8" standalone="no"?>
<!DOCTYPE svg PUBLIC "-//W3C//DTD SVG 1.1//EN"
 "http://www.w3.org/Graphics/SVG/1.1/DTD/svg11.dtd">
<!-- Generated by graphviz version 2.43.0 (0)
 -->
<!-- Title: Project Pages: 1 -->
<svg width="1436pt" height="216pt"
 viewBox="0.00 0.00 1436.00 216.00" xmlns="http://www.w3.org/2000/svg" xmlns:xlink="http://www.w3.org/1999/xlink">
<g id="graph0" class="graph" transform="scale(1 1) rotate(0) translate(4 212)">
<title>Project</title>
<polygon fill="white" stroke="transparent" points="-4,4 -4,-212 1432,-212 1432,4 -4,4"/>
<g id="clust1" class="cluster">
<title>cluster FPGA Architecture</title>
<polygon fill="none" stroke="black" points="8,-8 8,-200 1420,-200 1420,-8 8,-8"/>
<text text-anchor="middle" x="714" y="-184.8" font-family="Times,serif" font-size="14.00">FPGA Architecture</text>
</g>
<g id="clust2" class="cluster">
<title>cluster Accelerator</title>
<polygon fill="none" stroke="black" points="1280,-16 1280,-169 1412,-169 1412,-16 1280,-16"/>
<text text-anchor="middle" x="1346" y="-153.8" font-family="Times,serif" font-size="14.00">Accelerator</text>
</g>
<g id="clust3" class="cluster">
<title>cluster Complex</title>
<polygon fill="none" stroke="black" points="1288,-24 1288,-138 1404,-138 1404,-24 1288,-24"/>
<text text-anchor="middle" x="1346" y="-122.8" font-family="Times,serif" font-size="14.00">Complex</text>
</g>
<g id="clust4" class="cluster">
<title>cluster Real</title>
<polygon fill="none" stroke="black" points="1296,-32 1296,-107 1396,-107 1396,-32 1296,-32"/>
<text text-anchor="middle" x="1346" y="-91.8" font-family="Times,serif" font-size="14.00">Real</text>
</g>
<g id="clust5" class="cluster">
<title>cluster MPSoC</title>
<polygon fill="none" stroke="black" points="16,-16 16,-169 1272,-169 1272,-16 16,-16"/>
<text text-anchor="middle" x="644" y="-153.8" font-family="Times,serif" font-size="14.00">MPSoC</text>
</g>
<g id="clust6" class="cluster">
<title>cluster SoC&#45;3</title>
<polygon fill="none" stroke="black" points="960,-24 960,-138 1264,-138 1264,-24 960,-24"/>
<text text-anchor="middle" x="1112" y="-122.8" font-family="Times,serif" font-size="14.00">SoC&#45;3</text>
</g>
<g id="clust7" class="cluster">
<title>cluster PU&#45;3</title>
<polygon fill="none" stroke="black" points="1054,-32 1054,-107 1256,-107 1256,-32 1054,-32"/>
<text text-anchor="middle" x="1155" y="-91.8" font-family="Times,serif" font-size="14.00">PU&#45;3</text>
</g>
<g id="clust8" class="cluster">
<title>cluster NoC&#45;3</title>
<polygon fill="none" stroke="black" points="968,-32 968,-107 1046,-107 1046,-32 968,-32"/>
<text text-anchor="middle" x="1007" y="-91.8" font-family="Times,serif" font-size="14.00">NoC&#45;3</text>
</g>
<g id="clust9" class="cluster">
<title>cluster SoC&#45;2</title>
<polygon fill="none" stroke="black" points="648,-24 648,-138 952,-138 952,-24 648,-24"/>
<text text-anchor="middle" x="800" y="-122.8" font-family="Times,serif" font-size="14.00">SoC&#45;2</text>
</g>
<g id="clust10" class="cluster">
<title>cluster PU&#45;2</title>
<polygon fill="none" stroke="black" points="742,-32 742,-107 944,-107 944,-32 742,-32"/>
<text text-anchor="middle" x="843" y="-91.8" font-family="Times,serif" font-size="14.00">PU&#45;2</text>
</g>
<g id="clust11" class="cluster">
<title>cluster NoC&#45;2</title>
<polygon fill="none" stroke="black" points="656,-32 656,-107 734,-107 734,-32 656,-32"/>
<text text-anchor="middle" x="695" y="-91.8" font-family="Times,serif" font-size="14.00">NoC&#45;2</text>
</g>
<g id="clust12" class="cluster">
<title>cluster SoC&#45;1</title>
<polygon fill="none" stroke="black" points="336,-24 336,-138 640,-138 640,-24 336,-24"/>
<text text-anchor="middle" x="488" y="-122.8" font-family="Times,serif" font-size="14.00">SoC&#45;1</text>
</g>
<g id="clust13" class="cluster">
<title>cluster PU&#45;1</title>
<polygon fill="none" stroke="black" points="430,-32 430,-107 632,-107 632,-32 430,-32"/>
<text text-anchor="middle" x="531" y="-91.8" font-family="Times,serif" font-size="14.00">PU&#45;1</text>
</g>
<g id="clust14" class="cluster">
<title>cluster NoC&#45;1</title>
<polygon fill="none" stroke="black" points="344,-32 344,-107 422,-107 422,-32 344,-32"/>
<text text-anchor="middle" x="383" y="-91.8" font-family="Times,serif" font-size="14.00">NoC&#45;1</text>
</g>
<g id="clust15" class="cluster">
<title>cluster SoC&#45;0</title>
<polygon fill="none" stroke="black" points="24,-24 24,-138 328,-138 328,-24 24,-24"/>
<text text-anchor="middle" x="176" y="-122.8" font-family="Times,serif" font-size="14.00">SoC&#45;0</text>
</g>
<g id="clust16" class="cluster">
<title>cluster PU&#45;0</title>
<polygon fill="none" stroke="black" points="118,-32 118,-107 320,-107 320,-32 118,-32"/>
<text text-anchor="middle" x="219" y="-91.8" font-family="Times,serif" font-size="14.00">PU&#45;0</text>
</g>
<g id="clust17" class="cluster">
<title>cluster NoC&#45;0</title>
<polygon fill="none" stroke="black" points="32,-32 32,-107 110,-107 110,-32 32,-32"/>
<text text-anchor="middle" x="71" y="-91.8" font-family="Times,serif" font-size="14.00">NoC&#45;0</text>
</g>
<!-- Standard -->
<g id="node1" class="node">
<title>Standard</title>
<polygon fill="none" stroke="black" points="1387.5,-76 1304.5,-76 1304.5,-40 1387.5,-40 1387.5,-76"/>
<text text-anchor="middle" x="1346" y="-54.3" font-family="Times,serif" font-size="14.00">Standard</text>
</g>
<!-- Core_3 -->
<g id="node2" class="node">
<title>Core_3</title>
<polygon fill="none" stroke="black" points="1248,-76 1184,-76 1184,-40 1248,-40 1248,-76"/>
<text text-anchor="middle" x="1216" y="-54.3" font-family="Times,serif" font-size="14.00">Core&#45;3</text>
</g>
<!-- Peripheral_3 -->
<g id="node3" class="node">
<title>Peripheral_3</title>
<polygon fill="none" stroke="black" points="1166,-76 1062,-76 1062,-40 1166,-40 1166,-76"/>
<text text-anchor="middle" x="1114" y="-54.3" font-family="Times,serif" font-size="14.00">Peripheral&#45;3</text>
</g>
<!-- NoC_3 -->
<g id="node4" class="node">
<title>NoC_3</title>
<polygon fill="none" stroke="black" points="1037.5,-76 976.5,-76 976.5,-40 1037.5,-40 1037.5,-76"/>
<text text-anchor="middle" x="1007" y="-54.3" font-family="Times,serif" font-size="14.00">NoC&#45;3</text>
</g>
<!-- Core_2 -->
<g id="node5" class="node">
<title>Core_2</title>
<polygon fill="none" stroke="black" points="936,-76 872,-76 872,-40 936,-40 936,-76"/>
<text text-anchor="middle" x="904" y="-54.3" font-family="Times,serif" font-size="14.00">Core&#45;2</text>
</g>
<!-- Peripheral_2 -->
<g id="node6" class="node">
<title>Peripheral_2</title>
<polygon fill="none" stroke="black" points="854,-76 750,-76 750,-40 854,-40 854,-76"/>
<text text-anchor="middle" x="802" y="-54.3" font-family="Times,serif" font-size="14.00">Peripheral&#45;2</text>
</g>
<!-- NoC_2 -->
<g id="node7" class="node">
<title>NoC_2</title>
<polygon fill="none" stroke="black" points="725.5,-76 664.5,-76 664.5,-40 725.5,-40 725.5,-76"/>
<text text-anchor="middle" x="695" y="-54.3" font-family="Times,serif" font-size="14.00">NoC&#45;2</text>
</g>
<!-- Core_1 -->
<g id="node8" class="node">
<title>Core_1</title>
<polygon fill="none" stroke="black" points="624,-76 560,-76 560,-40 624,-40 624,-76"/>
<text text-anchor="middle" x="592" y="-54.3" font-family="Times,serif" font-size="14.00">Core&#45;1</text>
</g>
<!-- Peripheral_1 -->
<g id="node9" class="node">
<title>Peripheral_1</title>
<polygon fill="none" stroke="black" points="542,-76 438,-76 438,-40 542,-40 542,-76"/>
<text text-anchor="middle" x="490" y="-54.3" font-family="Times,serif" font-size="14.00">Peripheral&#45;1</text>
</g>
<!-- NoC_1 -->
<g id="node10" class="node">
<title>NoC_1</title>
<polygon fill="none" stroke="black" points="413.5,-76 352.5,-76 352.5,-40 413.5,-40 413.5,-76"/>
<text text-anchor="middle" x="383" y="-54.3" font-family="Times,serif" font-size="14.00">NoC&#45;1</text>
</g>
<!-- Core_0 -->
<g id="node11" class="node">
<title>Core_0</title>
<polygon fill="none" stroke="black" points="312,-76 248,-76 248,-40 312,-40 312,-76"/>
<text text-anchor="middle" x="280" y="-54.3" font-family="Times,serif" font-size="14.00">Core&#45;0</text>
</g>
<!-- Peripheral_0 -->
<g id="node12" class="node">
<title>Peripheral_0</title>
<polygon fill="none" stroke="black" points="230,-76 126,-76 126,-40 230,-40 230,-76"/>
<text text-anchor="middle" x="178" y="-54.3" font-family="Times,serif" font-size="14.00">Peripheral&#45;0</text>
</g>
<!-- NoC_0 -->
<g id="node13" class="node">
<title>NoC_0</title>
<polygon fill="none" stroke="black" points="101.5,-76 40.5,-76 40.5,-40 101.5,-40 101.5,-76"/>
<text text-anchor="middle" x="71" y="-54.3" font-family="Times,serif" font-size="14.00">NoC&#45;0</text>
</g>
</g>
</svg>
