<?xml version="1.0" encoding="UTF-8" standalone="no"?>
<!DOCTYPE svg PUBLIC "-//W3C//DTD SVG 1.1//EN"
 "http://www.w3.org/Graphics/SVG/1.1/DTD/svg11.dtd">
<!-- Generated by graphviz version 2.43.0 (0)
 -->
<!-- Title: Project Pages: 1 -->
<svg width="808pt" height="666pt"
 viewBox="0.00 0.00 808.00 666.00" xmlns="http://www.w3.org/2000/svg" xmlns:xlink="http://www.w3.org/1999/xlink">
<g id="graph0" class="graph" transform="scale(1 1) rotate(0) translate(4 662)">
<title>Project</title>
<polygon fill="white" stroke="transparent" points="-4,4 -4,-662 804,-662 804,4 -4,4"/>
<g id="clust1" class="cluster">
<title>cluster HardwareWorkFlow</title>
<polygon fill="none" stroke="black" points="8,-8 8,-650 792,-650 792,-8 8,-8"/>
<text text-anchor="middle" x="400" y="-634.8" font-family="Times,serif" font-size="14.00">Hardware WorkFlow</text>
</g>
<g id="clust2" class="cluster">
<title>cluster BackEnd</title>
<polygon fill="none" stroke="black" points="440,-16 440,-619 784,-619 784,-16 440,-16"/>
<text text-anchor="middle" x="612" y="-603.8" font-family="Times,serif" font-size="14.00">Back&#45;End</text>
</g>
<g id="clust3" class="cluster">
<title>cluster FrontEnd</title>
<polygon fill="none" stroke="black" points="16,-16 16,-619 432,-619 432,-16 16,-16"/>
<text text-anchor="middle" x="224" y="-603.8" font-family="Times,serif" font-size="14.00">Front&#45;End</text>
</g>
<!-- Planning_SLH -->
<g id="node1" class="node">
<title>Planning_SLH</title>
<polygon fill="none" stroke="black" points="502,-549.5 502,-587.5 776,-587.5 776,-549.5 502,-549.5"/>
<text text-anchor="middle" x="639" y="-572.3" font-family="Times,serif" font-size="14.00">Planning Switch Level of Hardware </text>
<text text-anchor="middle" x="639" y="-557.3" font-family="Times,serif" font-size="14.00">(magic)</text>
</g>
<!-- Placing_SLH -->
<g id="node2" class="node">
<title>Placing_SLH</title>
<polygon fill="none" stroke="black" points="466.5,-474.5 466.5,-512.5 729.5,-512.5 729.5,-474.5 466.5,-474.5"/>
<text text-anchor="middle" x="598" y="-497.3" font-family="Times,serif" font-size="14.00">Placing Switch Level of Hardware </text>
<text text-anchor="middle" x="598" y="-482.3" font-family="Times,serif" font-size="14.00">(graywolf)</text>
</g>
<!-- Planning_SLH&#45;&gt;Placing_SLH -->
<g id="edge1" class="edge">
<title>Planning_SLH&#45;&gt;Placing_SLH</title>
<path fill="none" stroke="black" d="M628.87,-549.46C624.13,-541.03 618.4,-530.83 613.17,-521.51"/>
<polygon fill="black" stroke="black" points="616.11,-519.6 608.16,-512.59 610.01,-523.02 616.11,-519.6"/>
</g>
<!-- Timing_SLH -->
<g id="node3" class="node">
<title>Timing_SLH</title>
<polygon fill="none" stroke="black" points="466,-399.5 466,-437.5 726,-437.5 726,-399.5 466,-399.5"/>
<text text-anchor="middle" x="596" y="-422.3" font-family="Times,serif" font-size="14.00">Timing Switch Level of Hardware </text>
<text text-anchor="middle" x="596" y="-407.3" font-family="Times,serif" font-size="14.00">(sta)</text>
</g>
<!-- Placing_SLH&#45;&gt;Timing_SLH -->
<g id="edge2" class="edge">
<title>Placing_SLH&#45;&gt;Timing_SLH</title>
<path fill="none" stroke="black" d="M597.51,-474.46C597.28,-466.38 597.02,-456.68 596.77,-447.68"/>
<polygon fill="black" stroke="black" points="600.27,-447.49 596.5,-437.59 593.27,-447.68 600.27,-447.49"/>
</g>
<!-- Routing_SLH -->
<g id="node4" class="node">
<title>Routing_SLH</title>
<polygon fill="none" stroke="black" points="459.5,-324.5 459.5,-362.5 726.5,-362.5 726.5,-324.5 459.5,-324.5"/>
<text text-anchor="middle" x="593" y="-347.3" font-family="Times,serif" font-size="14.00">Routing Switch Level of Hardware </text>
<text text-anchor="middle" x="593" y="-332.3" font-family="Times,serif" font-size="14.00">(qrouter)</text>
</g>
<!-- Timing_SLH&#45;&gt;Routing_SLH -->
<g id="edge3" class="edge">
<title>Timing_SLH&#45;&gt;Routing_SLH</title>
<path fill="none" stroke="black" d="M595.26,-399.46C594.93,-391.38 594.53,-381.68 594.16,-372.68"/>
<polygon fill="black" stroke="black" points="597.65,-372.44 593.74,-362.59 590.66,-372.73 597.65,-372.44"/>
</g>
<!-- Simulating_WLH -->
<g id="node5" class="node">
<title>Simulating_WLH</title>
<polygon fill="none" stroke="black" points="447.5,-249.5 447.5,-287.5 736.5,-287.5 736.5,-249.5 447.5,-249.5"/>
<text text-anchor="middle" x="592" y="-272.3" font-family="Times,serif" font-size="14.00">Simulating Switch Level of Hardware </text>
<text text-anchor="middle" x="592" y="-257.3" font-family="Times,serif" font-size="14.00">(irsim)</text>
</g>
<!-- Routing_SLH&#45;&gt;Simulating_WLH -->
<g id="edge4" class="edge">
<title>Routing_SLH&#45;&gt;Simulating_WLH</title>
<path fill="none" stroke="black" d="M592.75,-324.46C592.64,-316.38 592.51,-306.68 592.39,-297.68"/>
<polygon fill="black" stroke="black" points="595.88,-297.54 592.25,-287.59 588.89,-297.64 595.88,-297.54"/>
</g>
<!-- Verifying_LVS -->
<g id="node6" class="node">
<title>Verifying_LVS</title>
<polygon fill="none" stroke="black" points="449.5,-174.5 449.5,-212.5 756.5,-212.5 756.5,-174.5 449.5,-174.5"/>
<text text-anchor="middle" x="603" y="-197.3" font-family="Times,serif" font-size="14.00">Verifying Switch Level of Hardware LVS </text>
<text text-anchor="middle" x="603" y="-182.3" font-family="Times,serif" font-size="14.00">(netgen)</text>
</g>
<!-- Simulating_WLH&#45;&gt;Verifying_LVS -->
<g id="edge5" class="edge">
<title>Simulating_WLH&#45;&gt;Verifying_LVS</title>
<path fill="none" stroke="black" d="M594.72,-249.46C595.94,-241.38 597.4,-231.68 598.75,-222.68"/>
<polygon fill="black" stroke="black" points="602.24,-223 600.27,-212.59 595.32,-221.96 602.24,-223"/>
</g>
<!-- Verifying_LVS&#45;&gt;Planning_SLH -->
<g id="edge15" class="edge">
<title>Verifying_LVS&#45;&gt;Planning_SLH</title>
<path fill="none" stroke="black" d="M693.81,-212.61C713.43,-220.65 732.12,-232.25 745,-249 770.47,-282.13 755,-300.71 755,-342.5 755,-419.5 755,-419.5 755,-419.5 755,-461.66 763.52,-478.7 739,-513 729.43,-526.39 715.51,-536.83 701.09,-544.83"/>
<polygon fill="black" stroke="black" points="699.34,-541.79 692.07,-549.5 702.56,-548 699.34,-541.79"/>
</g>
<!-- Checking_DRC -->
<g id="node7" class="node">
<title>Checking_DRC</title>
<polygon fill="none" stroke="black" points="455,-99.5 455,-137.5 769,-137.5 769,-99.5 455,-99.5"/>
<text text-anchor="middle" x="612" y="-122.3" font-family="Times,serif" font-size="14.00">Checking Switch Level of Hardware DRC </text>
<text text-anchor="middle" x="612" y="-107.3" font-family="Times,serif" font-size="14.00">(magic)</text>
</g>
<!-- Verifying_LVS&#45;&gt;Checking_DRC -->
<g id="edge6" class="edge">
<title>Verifying_LVS&#45;&gt;Checking_DRC</title>
<path fill="none" stroke="black" d="M605.22,-174.46C606.22,-166.38 607.42,-156.68 608.53,-147.68"/>
<polygon fill="black" stroke="black" points="612.02,-147.94 609.77,-137.59 605.07,-147.09 612.02,-147.94"/>
</g>
<!-- Checking_DRC&#45;&gt;Planning_SLH -->
<g id="edge16" class="edge">
<title>Checking_DRC&#45;&gt;Planning_SLH</title>
<path fill="none" stroke="black" d="M713.27,-137.64C733.11,-145.68 751.82,-157.28 765,-174 790.87,-206.82 775,-225.71 775,-267.5 775,-419.5 775,-419.5 775,-419.5 775,-462.29 778.95,-479.76 752,-513 740.93,-526.65 725.62,-537.11 709.84,-545.03"/>
<polygon fill="black" stroke="black" points="708.08,-541.99 700.52,-549.41 711.06,-548.32 708.08,-541.99"/>
</g>
<!-- Printing_GDS -->
<g id="node8" class="node">
<title>Printing_GDS</title>
<polygon fill="none" stroke="black" points="459,-24.5 459,-62.5 765,-62.5 765,-24.5 459,-24.5"/>
<text text-anchor="middle" x="612" y="-47.3" font-family="Times,serif" font-size="14.00">Printing Switch Level of Hardware GDS </text>
<text text-anchor="middle" x="612" y="-32.3" font-family="Times,serif" font-size="14.00">(magic)</text>
</g>
<!-- Checking_DRC&#45;&gt;Printing_GDS -->
<g id="edge7" class="edge">
<title>Checking_DRC&#45;&gt;Printing_GDS</title>
<path fill="none" stroke="black" d="M612,-99.46C612,-91.38 612,-81.68 612,-72.68"/>
<polygon fill="black" stroke="black" points="615.5,-72.59 612,-62.59 608.5,-72.59 615.5,-72.59"/>
</g>
<!-- Modeling_SLH -->
<g id="node9" class="node">
<title>Modeling_SLH</title>
<polygon fill="none" stroke="black" points="142,-549.5 142,-587.5 424,-587.5 424,-549.5 142,-549.5"/>
<text text-anchor="middle" x="283" y="-572.3" font-family="Times,serif" font-size="14.00">Modeling System Level of Hardware </text>
<text text-anchor="middle" x="283" y="-557.3" font-family="Times,serif" font-size="14.00">(Vi)</text>
</g>
<!-- Simulating_SLH -->
<g id="node10" class="node">
<title>Simulating_SLH</title>
<polygon fill="none" stroke="black" points="46.5,-474.5 46.5,-512.5 339.5,-512.5 339.5,-474.5 46.5,-474.5"/>
<text text-anchor="middle" x="193" y="-497.3" font-family="Times,serif" font-size="14.00">Simulating System Level of Hardware </text>
<text text-anchor="middle" x="193" y="-482.3" font-family="Times,serif" font-size="14.00">(GHDL / Verilator)</text>
</g>
<!-- Modeling_SLH&#45;&gt;Simulating_SLH -->
<g id="edge8" class="edge">
<title>Modeling_SLH&#45;&gt;Simulating_SLH</title>
<path fill="none" stroke="black" d="M260.75,-549.46C249.39,-540.24 235.41,-528.9 223.1,-518.92"/>
<polygon fill="black" stroke="black" points="225.27,-516.17 215.3,-512.59 220.86,-521.61 225.27,-516.17"/>
</g>
<!-- Verifying_SLH -->
<g id="node11" class="node">
<title>Verifying_SLH</title>
<polygon fill="none" stroke="black" points="74,-399.5 74,-437.5 354,-437.5 354,-399.5 74,-399.5"/>
<text text-anchor="middle" x="214" y="-422.3" font-family="Times,serif" font-size="14.00">Verifying System Level of Hardware </text>
<text text-anchor="middle" x="214" y="-407.3" font-family="Times,serif" font-size="14.00">(OSVVM / UVM)</text>
</g>
<!-- Simulating_SLH&#45;&gt;Verifying_SLH -->
<g id="edge9" class="edge">
<title>Simulating_SLH&#45;&gt;Verifying_SLH</title>
<path fill="none" stroke="black" d="M198.19,-474.46C200.54,-466.3 203.37,-456.47 205.98,-447.39"/>
<polygon fill="black" stroke="black" points="209.39,-448.17 208.8,-437.59 202.67,-446.23 209.39,-448.17"/>
</g>
<!-- Verifying_SLH&#45;&gt;Modeling_SLH -->
<g id="edge17" class="edge">
<title>Verifying_SLH&#45;&gt;Modeling_SLH</title>
<path fill="none" stroke="black" d="M300.67,-437.57C319.28,-445.61 336.71,-457.23 348,-474 357.68,-488.38 355.33,-497.29 348,-513 342.5,-524.79 333.05,-534.94 323.03,-543.17"/>
<polygon fill="black" stroke="black" points="320.76,-540.5 314.94,-549.36 325.01,-546.06 320.76,-540.5"/>
</g>
<!-- Describing_RTL -->
<g id="node12" class="node">
<title>Describing_RTL</title>
<polygon fill="none" stroke="black" points="31.5,-324.5 31.5,-362.5 396.5,-362.5 396.5,-324.5 31.5,-324.5"/>
<text text-anchor="middle" x="214" y="-347.3" font-family="Times,serif" font-size="14.00">Describing Register Transfer Level of Hardware </text>
<text text-anchor="middle" x="214" y="-332.3" font-family="Times,serif" font-size="14.00">(Vi)</text>
</g>
<!-- Verifying_SLH&#45;&gt;Describing_RTL -->
<g id="edge10" class="edge">
<title>Verifying_SLH&#45;&gt;Describing_RTL</title>
<path fill="none" stroke="black" d="M214,-399.46C214,-391.38 214,-381.68 214,-372.68"/>
<polygon fill="black" stroke="black" points="217.5,-372.59 214,-362.59 210.5,-372.59 217.5,-372.59"/>
</g>
<!-- Simulating_RTL -->
<g id="node13" class="node">
<title>Simulating_RTL</title>
<polygon fill="none" stroke="black" points="31,-249.5 31,-287.5 397,-287.5 397,-249.5 31,-249.5"/>
<text text-anchor="middle" x="214" y="-272.3" font-family="Times,serif" font-size="14.00">Simulating Register Transfer Level of Hardware </text>
<text text-anchor="middle" x="214" y="-257.3" font-family="Times,serif" font-size="14.00">(GHDL / Icarus Verilog)</text>
</g>
<!-- Describing_RTL&#45;&gt;Simulating_RTL -->
<g id="edge11" class="edge">
<title>Describing_RTL&#45;&gt;Simulating_RTL</title>
<path fill="none" stroke="black" d="M214,-324.46C214,-316.38 214,-306.68 214,-297.68"/>
<polygon fill="black" stroke="black" points="217.5,-297.59 214,-287.59 210.5,-297.59 217.5,-297.59"/>
</g>
<!-- Synthesizing_RTL -->
<g id="node14" class="node">
<title>Synthesizing_RTL</title>
<polygon fill="none" stroke="black" points="24,-174.5 24,-212.5 404,-212.5 404,-174.5 24,-174.5"/>
<text text-anchor="middle" x="214" y="-197.3" font-family="Times,serif" font-size="14.00">Synthesizing Register Transfer Level of Hardware </text>
<text text-anchor="middle" x="214" y="-182.3" font-family="Times,serif" font-size="14.00">(GHDL / Yosys)</text>
</g>
<!-- Simulating_RTL&#45;&gt;Synthesizing_RTL -->
<g id="edge12" class="edge">
<title>Simulating_RTL&#45;&gt;Synthesizing_RTL</title>
<path fill="none" stroke="black" d="M214,-249.46C214,-241.38 214,-231.68 214,-222.68"/>
<polygon fill="black" stroke="black" points="217.5,-222.59 214,-212.59 210.5,-222.59 217.5,-222.59"/>
</g>
<!-- Optimizing_RTL -->
<g id="node15" class="node">
<title>Optimizing_RTL</title>
<polygon fill="none" stroke="black" points="33.5,-99.5 33.5,-137.5 400.5,-137.5 400.5,-99.5 33.5,-99.5"/>
<text text-anchor="middle" x="217" y="-122.3" font-family="Times,serif" font-size="14.00">Optimizing Register Transfer Level of Hardware </text>
<text text-anchor="middle" x="217" y="-107.3" font-family="Times,serif" font-size="14.00">(ABC)</text>
</g>
<!-- Synthesizing_RTL&#45;&gt;Optimizing_RTL -->
<g id="edge13" class="edge">
<title>Synthesizing_RTL&#45;&gt;Optimizing_RTL</title>
<path fill="none" stroke="black" d="M214.74,-174.46C215.07,-166.38 215.47,-156.68 215.84,-147.68"/>
<polygon fill="black" stroke="black" points="219.34,-147.73 216.26,-137.59 212.35,-147.44 219.34,-147.73"/>
</g>
<!-- Verifying_RTL -->
<g id="node16" class="node">
<title>Verifying_RTL</title>
<polygon fill="none" stroke="black" points="56.5,-24.5 56.5,-62.5 409.5,-62.5 409.5,-24.5 56.5,-24.5"/>
<text text-anchor="middle" x="233" y="-47.3" font-family="Times,serif" font-size="14.00">Verifying Register Transfer Level of Hardware </text>
<text text-anchor="middle" x="233" y="-32.3" font-family="Times,serif" font-size="14.00">(SymbiYosys-OSVVM / SymbiYosys-UVM-OSVVM / SymbiYosys-OSVVM / SymbiYosys-UVM-UVM)</text>
</g>
<!-- Optimizing_RTL&#45;&gt;Verifying_RTL -->
<g id="edge14" class="edge">
<title>Optimizing_RTL&#45;&gt;Verifying_RTL</title>
<path fill="none" stroke="black" d="M220.96,-99.46C222.74,-91.3 224.9,-81.47 226.89,-72.39"/>
<polygon fill="black" stroke="black" points="230.31,-73.11 229.03,-62.59 223.48,-71.61 230.31,-73.11"/>
</g>
<!-- Verifying_RTL&#45;&gt;Modeling_SLH -->
<g id="edge18" class="edge">
<title>Verifying_RTL&#45;&gt;Modeling_SLH</title>
<path fill="none" stroke="black" d="M354.97,-62.63C375.49,-70.75 394.72,-82.38 409,-99 436.38,-130.88 423,-150.48 423,-192.5 423,-419.5 423,-419.5 423,-419.5 423,-475.85 368.78,-519.38 327.83,-544.22"/>
<polygon fill="black" stroke="black" points="325.9,-541.3 319.05,-549.39 329.45,-547.33 325.9,-541.3"/>
</g>
</g>
</svg>
