<?xml version="1.0" encoding="UTF-8" standalone="no"?>
<!DOCTYPE svg PUBLIC "-//W3C//DTD SVG 1.1//EN"
 "http://www.w3.org/Graphics/SVG/1.1/DTD/svg11.dtd">
<!-- Generated by graphviz version 2.43.0 (0)
 -->
<!-- Title: Project Pages: 1 -->
<svg width="410pt" height="216pt"
 viewBox="0.00 0.00 410.00 216.00" xmlns="http://www.w3.org/2000/svg" xmlns:xlink="http://www.w3.org/1999/xlink">
<g id="graph0" class="graph" transform="scale(1 1) rotate(0) translate(4 212)">
<title>Project</title>
<polygon fill="white" stroke="transparent" points="-4,4 -4,-212 406,-212 406,4 -4,4"/>
<g id="clust1" class="cluster">
<title>cluster FPGA Architecture</title>
<polygon fill="none" stroke="black" points="8,-8 8,-200 394,-200 394,-8 8,-8"/>
<text text-anchor="middle" x="201" y="-184.8" font-family="Times,serif" font-size="14.00">FPGA Architecture</text>
</g>
<g id="clust2" class="cluster">
<title>cluster Accelerator</title>
<polygon fill="none" stroke="black" points="254,-16 254,-169 386,-169 386,-16 254,-16"/>
<text text-anchor="middle" x="320" y="-153.8" font-family="Times,serif" font-size="14.00">Accelerator</text>
</g>
<g id="clust3" class="cluster">
<title>cluster Complex</title>
<polygon fill="none" stroke="black" points="262,-24 262,-138 378,-138 378,-24 262,-24"/>
<text text-anchor="middle" x="320" y="-122.8" font-family="Times,serif" font-size="14.00">Complex</text>
</g>
<g id="clust4" class="cluster">
<title>cluster Real</title>
<polygon fill="none" stroke="black" points="270,-32 270,-107 370,-107 370,-32 270,-32"/>
<text text-anchor="middle" x="320" y="-91.8" font-family="Times,serif" font-size="14.00">Real</text>
</g>
<g id="clust5" class="cluster">
<title>cluster MPSoC</title>
<polygon fill="none" stroke="black" points="16,-16 16,-169 246,-169 246,-16 16,-16"/>
<text text-anchor="middle" x="131" y="-153.8" font-family="Times,serif" font-size="14.00">MPSoC</text>
</g>
<g id="clust6" class="cluster">
<title>cluster SoC</title>
<polygon fill="none" stroke="black" points="24,-24 24,-138 238,-138 238,-24 24,-24"/>
<text text-anchor="middle" x="131" y="-122.8" font-family="Times,serif" font-size="14.00">SoC</text>
</g>
<g id="clust7" class="cluster">
<title>cluster PU</title>
<polygon fill="none" stroke="black" points="142,-32 142,-107 230,-107 230,-32 142,-32"/>
<text text-anchor="middle" x="186" y="-91.8" font-family="Times,serif" font-size="14.00">PU</text>
</g>
<g id="clust8" class="cluster">
<title>cluster PRF</title>
<polygon fill="none" stroke="black" points="32,-32 32,-107 134,-107 134,-32 32,-32"/>
<text text-anchor="middle" x="83" y="-91.8" font-family="Times,serif" font-size="14.00">PRF</text>
</g>
<!-- Standard -->
<g id="node1" class="node">
<title>Standard</title>
<polygon fill="none" stroke="black" points="361.5,-76 278.5,-76 278.5,-40 361.5,-40 361.5,-76"/>
<text text-anchor="middle" x="320" y="-54.3" font-family="Times,serif" font-size="14.00">Standard</text>
</g>
<!-- PU-PRF -->
<g id="node2" class="node">
<title>PU-PRF</title>
<polygon fill="none" stroke="black" points="221.5,-76 150.5,-76 150.5,-40 221.5,-40 221.5,-76"/>
<text text-anchor="middle" x="186" y="-54.3" font-family="Times,serif" font-size="14.00">PU&#45;PRF</text>
</g>
<!-- BFM_PRF -->
<g id="node3" class="node">
<title>BFM_PRF</title>
<polygon fill="none" stroke="black" points="126,-76 40,-76 40,-40 126,-40 126,-76"/>
<text text-anchor="middle" x="83" y="-54.3" font-family="Times,serif" font-size="14.00">BFM&#45;PRF</text>
</g>
</g>
</svg>
