<?xml version="1.0" encoding="UTF-8" standalone="no"?>
<!DOCTYPE svg PUBLIC "-//W3C//DTD SVG 1.1//EN"
 "http://www.w3.org/Graphics/SVG/1.1/DTD/svg11.dtd">
<!-- Generated by graphviz version 2.43.0 (0)
 -->
<!-- Title: Project Pages: 1 -->
<svg width="235pt" height="177pt"
 viewBox="0.00 0.00 235.00 177.00" xmlns="http://www.w3.org/2000/svg" xmlns:xlink="http://www.w3.org/1999/xlink">
<g id="graph0" class="graph" transform="scale(1 1) rotate(0) translate(4 173)">
<title>Project</title>
<polygon fill="white" stroke="transparent" points="-4,4 -4,-173 231,-173 231,4 -4,4"/>
<g id="clust1" class="cluster">
<title>cluster TuringMachine</title>
<polygon fill="none" stroke="black" points="8,-8 8,-161 219,-161 219,-8 8,-8"/>
<text text-anchor="middle" x="113.5" y="-145.8" font-family="Times,serif" font-size="14.00">Turing Machine</text>
</g>
<g id="clust2" class="cluster">
<title>cluster PushdownAutomaton</title>
<polygon fill="none" stroke="black" points="16,-16 16,-130 211,-130 211,-16 16,-16"/>
<text text-anchor="middle" x="113.5" y="-114.8" font-family="Times,serif" font-size="14.00">Pushdown Automaton</text>
</g>
<g id="clust3" class="cluster">
<title>cluster FiniteStateMachine</title>
<polygon fill="none" stroke="black" points="24,-24 24,-99 203,-99 203,-24 24,-24"/>
<text text-anchor="middle" x="113.5" y="-83.8" font-family="Times,serif" font-size="14.00">Finite State Machine</text>
</g>
<!-- CombinationalLogic -->
<g id="node1" class="node">
<title>CombinationalLogic</title>
<polygon fill="none" stroke="black" points="195,-68 32,-68 32,-32 195,-32 195,-68"/>
<text text-anchor="middle" x="113.5" y="-46.3" font-family="Times,serif" font-size="14.00">Combinational Logic</text>
</g>
</g>
</svg>
