<?xml version="1.0" encoding="UTF-8" standalone="no"?>
<!DOCTYPE svg PUBLIC "-//W3C//DTD SVG 1.1//EN"
 "http://www.w3.org/Graphics/SVG/1.1/DTD/svg11.dtd">
<!-- Generated by graphviz version 2.43.0 (0)
 -->
<!-- Title: Project Pages: 1 -->
<svg width="446pt" height="441pt"
 viewBox="0.00 0.00 446.00 441.00" xmlns="http://www.w3.org/2000/svg" xmlns:xlink="http://www.w3.org/1999/xlink">
<g id="graph0" class="graph" transform="scale(1 1) rotate(0) translate(4 437)">
<title>Project</title>
<polygon fill="white" stroke="transparent" points="-4,4 -4,-437 442,-437 442,4 -4,4"/>
<g id="clust1" class="cluster">
<title>cluster WorkFlow</title>
<polygon fill="none" stroke="black" points="8,-8 8,-425 430,-425 430,-8 8,-8"/>
<text text-anchor="middle" x="219" y="-409.8" font-family="Times,serif" font-size="14.00">WorkFlow</text>
</g>
<g id="clust2" class="cluster">
<title>cluster Hardware</title>
<polygon fill="none" stroke="black" points="226,-16 226,-394 422,-394 422,-16 226,-16"/>
<text text-anchor="middle" x="324" y="-378.8" font-family="Times,serif" font-size="14.00">Hardware</text>
</g>
<g id="clust3" class="cluster">
<title>cluster Software</title>
<polygon fill="none" stroke="black" points="16,-16 16,-394 218,-394 218,-16 16,-16"/>
<text text-anchor="middle" x="117" y="-378.8" font-family="Times,serif" font-size="14.00">Software</text>
</g>
<!-- Creation_HW -->
<g id="node1" class="node">
<title>Creation_HW</title>
<polygon fill="none" stroke="black" points="248.5,-324.5 248.5,-362.5 401.5,-362.5 401.5,-324.5 248.5,-324.5"/>
<text text-anchor="middle" x="325" y="-347.3" font-family="Times,serif" font-size="14.00">Creation </text>
<text text-anchor="middle" x="325" y="-332.3" font-family="Times,serif" font-size="14.00">(VHDL/Verilog) [Vi]</text>
</g>
<!-- Production_HW -->
<g id="node2" class="node">
<title>Production_HW</title>
<polygon fill="none" stroke="black" points="237.5,-249.5 237.5,-287.5 390.5,-287.5 390.5,-249.5 237.5,-249.5"/>
<text text-anchor="middle" x="314" y="-272.3" font-family="Times,serif" font-size="14.00">Production </text>
<text text-anchor="middle" x="314" y="-257.3" font-family="Times,serif" font-size="14.00">(VHDL/Verilog) [Vi]</text>
</g>
<!-- Creation_HW&#45;&gt;Production_HW -->
<g id="edge1" class="edge">
<title>Creation_HW&#45;&gt;Production_HW</title>
<path fill="none" stroke="black" d="M319.5,-324.19C319.5,-324.19 319.5,-297.75 319.5,-297.75"/>
<polygon fill="black" stroke="black" points="323,-297.75 319.5,-287.75 316,-297.75 323,-297.75"/>
</g>
<!-- Quality_HW -->
<g id="node3" class="node">
<title>Quality_HW</title>
<polygon fill="none" stroke="black" points="238.5,-174.5 238.5,-212.5 389.5,-212.5 389.5,-174.5 238.5,-174.5"/>
<text text-anchor="middle" x="314" y="-197.3" font-family="Times,serif" font-size="14.00">Quality Assurance </text>
<text text-anchor="middle" x="314" y="-182.3" font-family="Times,serif" font-size="14.00">(Ada) [Vi]</text>
</g>
<!-- Production_HW&#45;&gt;Quality_HW -->
<g id="edge2" class="edge">
<title>Production_HW&#45;&gt;Quality_HW</title>
<path fill="none" stroke="black" d="M288.83,-249.19C288.83,-249.19 288.83,-222.75 288.83,-222.75"/>
<polygon fill="black" stroke="black" points="292.33,-222.75 288.83,-212.75 285.33,-222.75 292.33,-222.75"/>
</g>
<!-- Quality_HW&#45;&gt;Production_HW -->
<g id="edge6" class="edge">
<title>Quality_HW&#45;&gt;Production_HW</title>
<path fill="none" stroke="black" d="M339.17,-212.81C339.17,-212.81 339.17,-239.25 339.17,-239.25"/>
<polygon fill="black" stroke="black" points="335.67,-239.25 339.17,-249.25 342.67,-239.25 335.67,-239.25"/>
</g>
<!-- Certification_HW -->
<g id="node4" class="node">
<title>Certification_HW</title>
<polygon fill="none" stroke="black" points="259,-99.5 259,-137.5 369,-137.5 369,-99.5 259,-99.5"/>
<text text-anchor="middle" x="314" y="-122.3" font-family="Times,serif" font-size="14.00">Certification </text>
<text text-anchor="middle" x="314" y="-107.3" font-family="Times,serif" font-size="14.00">(Java) [Vi]</text>
</g>
<!-- Quality_HW&#45;&gt;Certification_HW -->
<g id="edge3" class="edge">
<title>Quality_HW&#45;&gt;Certification_HW</title>
<path fill="none" stroke="black" d="M295.67,-174.19C295.67,-174.19 295.67,-147.75 295.67,-147.75"/>
<polygon fill="black" stroke="black" points="299.17,-147.75 295.67,-137.75 292.17,-147.75 299.17,-147.75"/>
</g>
<!-- Certification_HW&#45;&gt;Quality_HW -->
<g id="edge7" class="edge">
<title>Certification_HW&#45;&gt;Quality_HW</title>
<path fill="none" stroke="black" d="M332.33,-137.81C332.33,-137.81 332.33,-164.25 332.33,-164.25"/>
<polygon fill="black" stroke="black" points="328.83,-164.25 332.33,-174.25 335.83,-164.25 328.83,-164.25"/>
</g>
<!-- LifeCycle_HW -->
<g id="node5" class="node">
<title>LifeCycle_HW</title>
<polygon fill="none" stroke="black" points="234.5,-24.5 234.5,-62.5 413.5,-62.5 413.5,-24.5 234.5,-24.5"/>
<text text-anchor="middle" x="324" y="-47.3" font-family="Times,serif" font-size="14.00">Design LifeCycle Data </text>
<text text-anchor="middle" x="324" y="-32.3" font-family="Times,serif" font-size="14.00">(Chisel) [Vi]</text>
</g>
<!-- Certification_HW&#45;&gt;LifeCycle_HW -->
<g id="edge4" class="edge">
<title>Certification_HW&#45;&gt;LifeCycle_HW</title>
<path fill="none" stroke="black" d="M314,-99.19C314,-99.19 314,-72.75 314,-72.75"/>
<polygon fill="black" stroke="black" points="317.5,-72.75 314,-62.75 310.5,-72.75 317.5,-72.75"/>
</g>
<!-- LifeCycle_HW&#45;&gt;Creation_HW -->
<g id="edge5" class="edge">
<title>LifeCycle_HW&#45;&gt;Creation_HW</title>
<path fill="none" stroke="black" d="M396,-62.72C396,-62.72 396,-314.44 396,-314.44"/>
<polygon fill="black" stroke="black" points="392.5,-314.44 396,-324.44 399.5,-314.44 392.5,-314.44"/>
</g>
<!-- Creation_SW -->
<g id="node6" class="node">
<title>Creation_SW</title>
<polygon fill="none" stroke="black" points="33.5,-324.5 33.5,-362.5 200.5,-362.5 200.5,-324.5 33.5,-324.5"/>
<text text-anchor="middle" x="117" y="-347.3" font-family="Times,serif" font-size="14.00">Creation </text>
<text text-anchor="middle" x="117" y="-332.3" font-family="Times,serif" font-size="14.00">(C/C++/Go/Rust) [Vi]</text>
</g>
<!-- Production_SW -->
<g id="node7" class="node">
<title>Production_SW</title>
<polygon fill="none" stroke="black" points="23.5,-249.5 23.5,-287.5 190.5,-287.5 190.5,-249.5 23.5,-249.5"/>
<text text-anchor="middle" x="107" y="-272.3" font-family="Times,serif" font-size="14.00">Production </text>
<text text-anchor="middle" x="107" y="-257.3" font-family="Times,serif" font-size="14.00">(C/C++/Go/Rust) [Vi]</text>
</g>
<!-- Creation_SW&#45;&gt;Production_SW -->
<g id="edge8" class="edge">
<title>Creation_SW&#45;&gt;Production_SW</title>
<path fill="none" stroke="black" d="M112,-324.19C112,-324.19 112,-297.75 112,-297.75"/>
<polygon fill="black" stroke="black" points="115.5,-297.75 112,-287.75 108.5,-297.75 115.5,-297.75"/>
</g>
<!-- Quality_SW -->
<g id="node8" class="node">
<title>Quality_SW</title>
<polygon fill="none" stroke="black" points="31.5,-174.5 31.5,-212.5 182.5,-212.5 182.5,-174.5 31.5,-174.5"/>
<text text-anchor="middle" x="107" y="-197.3" font-family="Times,serif" font-size="14.00">Quality Assurance </text>
<text text-anchor="middle" x="107" y="-182.3" font-family="Times,serif" font-size="14.00">(Ada) [Vi]</text>
</g>
<!-- Production_SW&#45;&gt;Quality_SW -->
<g id="edge9" class="edge">
<title>Production_SW&#45;&gt;Quality_SW</title>
<path fill="none" stroke="black" d="M81.83,-249.19C81.83,-249.19 81.83,-222.75 81.83,-222.75"/>
<polygon fill="black" stroke="black" points="85.33,-222.75 81.83,-212.75 78.33,-222.75 85.33,-222.75"/>
</g>
<!-- Quality_SW&#45;&gt;Production_SW -->
<g id="edge13" class="edge">
<title>Quality_SW&#45;&gt;Production_SW</title>
<path fill="none" stroke="black" d="M132.17,-212.81C132.17,-212.81 132.17,-239.25 132.17,-239.25"/>
<polygon fill="black" stroke="black" points="128.67,-239.25 132.17,-249.25 135.67,-239.25 128.67,-239.25"/>
</g>
<!-- Certification_SW -->
<g id="node9" class="node">
<title>Certification_SW</title>
<polygon fill="none" stroke="black" points="52,-99.5 52,-137.5 162,-137.5 162,-99.5 52,-99.5"/>
<text text-anchor="middle" x="107" y="-122.3" font-family="Times,serif" font-size="14.00">Certification </text>
<text text-anchor="middle" x="107" y="-107.3" font-family="Times,serif" font-size="14.00">(Java) [Vi]</text>
</g>
<!-- Quality_SW&#45;&gt;Certification_SW -->
<g id="edge10" class="edge">
<title>Quality_SW&#45;&gt;Certification_SW</title>
<path fill="none" stroke="black" d="M88.67,-174.19C88.67,-174.19 88.67,-147.75 88.67,-147.75"/>
<polygon fill="black" stroke="black" points="92.17,-147.75 88.67,-137.75 85.17,-147.75 92.17,-147.75"/>
</g>
<!-- Certification_SW&#45;&gt;Quality_SW -->
<g id="edge14" class="edge">
<title>Certification_SW&#45;&gt;Quality_SW</title>
<path fill="none" stroke="black" d="M125.33,-137.81C125.33,-137.81 125.33,-164.25 125.33,-164.25"/>
<polygon fill="black" stroke="black" points="121.83,-164.25 125.33,-174.25 128.83,-164.25 121.83,-164.25"/>
</g>
<!-- LifeCycle_SW -->
<g id="node10" class="node">
<title>LifeCycle_SW</title>
<polygon fill="none" stroke="black" points="27.5,-24.5 27.5,-62.5 206.5,-62.5 206.5,-24.5 27.5,-24.5"/>
<text text-anchor="middle" x="117" y="-47.3" font-family="Times,serif" font-size="14.00">Design LifeCycle Data </text>
<text text-anchor="middle" x="117" y="-32.3" font-family="Times,serif" font-size="14.00">(Scala) [Vi]</text>
</g>
<!-- Certification_SW&#45;&gt;LifeCycle_SW -->
<g id="edge11" class="edge">
<title>Certification_SW&#45;&gt;LifeCycle_SW</title>
<path fill="none" stroke="black" d="M107,-99.19C107,-99.19 107,-72.75 107,-72.75"/>
<polygon fill="black" stroke="black" points="110.5,-72.75 107,-62.75 103.5,-72.75 110.5,-72.75"/>
</g>
<!-- LifeCycle_SW&#45;&gt;Creation_SW -->
<g id="edge12" class="edge">
<title>LifeCycle_SW&#45;&gt;Creation_SW</title>
<path fill="none" stroke="black" d="M195.5,-62.72C195.5,-62.72 195.5,-314.44 195.5,-314.44"/>
<polygon fill="black" stroke="black" points="192,-314.44 195.5,-324.44 199,-314.44 192,-314.44"/>
</g>
</g>
</svg>
