<?xml version="1.0" encoding="UTF-8" standalone="no"?>
<!DOCTYPE svg PUBLIC "-//W3C//DTD SVG 1.1//EN"
 "http://www.w3.org/Graphics/SVG/1.1/DTD/svg11.dtd">
<!-- Generated by graphviz version 2.43.0 (0)
 -->
<!-- Title: Project Pages: 1 -->
<svg width="2330pt" height="109pt"
 viewBox="0.00 0.00 2330.00 109.00" xmlns="http://www.w3.org/2000/svg" xmlns:xlink="http://www.w3.org/1999/xlink">
<g id="graph0" class="graph" transform="scale(1 1) rotate(0) translate(4 105)">
<title>Project</title>
<polygon fill="white" stroke="transparent" points="-4,4 -4,-105 2326,-105 2326,4 -4,4"/>
<!-- Requirements -->
<g id="node1" class="node">
<title>Requirements</title>
<polygon fill="none" stroke="black" points="0,-14.5 0,-52.5 267,-52.5 267,-14.5 0,-14.5"/>
<text text-anchor="middle" x="133.5" y="-37.3" font-family="Times,serif" font-size="14.00">Requirements </text>
<text text-anchor="middle" x="133.5" y="-22.3" font-family="Times,serif" font-size="14.00">(Matlab/Python/PSL/UML) [Vi]</text>
</g>
<!-- Source -->
<g id="node2" class="node">
<title>Source</title>
<polygon fill="none" stroke="black" points="303,-62.5 303,-100.5 503,-100.5 503,-62.5 303,-62.5"/>
<text text-anchor="middle" x="403" y="-85.3" font-family="Times,serif" font-size="14.00">Source </text>
<text text-anchor="middle" x="403" y="-70.3" font-family="Times,serif" font-size="14.00">(C/C++/Go/Rust) [Vi]</text>
</g>
<!-- Requirements&#45;&gt;Source -->
<g id="edge1" class="edge">
<title>Requirements&#45;&gt;Source</title>
<path fill="none" stroke="black" d="M267.07,-43.33C334.83,-43.33 403,-43.33 403,-43.33 403,-43.33 403,-52.42 403,-52.42"/>
<polygon fill="black" stroke="black" points="399.5,-52.42 403,-62.42 406.5,-52.42 399.5,-52.42"/>
</g>
<!-- Model -->
<g id="node3" class="node">
<title>Model</title>
<polygon fill="none" stroke="black" points="539,-62.5 539,-100.5 778,-100.5 778,-62.5 539,-62.5"/>
<text text-anchor="middle" x="658.5" y="-85.3" font-family="Times,serif" font-size="14.00">Hardware Model </text>
<text text-anchor="middle" x="658.5" y="-70.3" font-family="Times,serif" font-size="14.00">(VHDL/SystemVerilog) [Vi]</text>
</g>
<!-- Source&#45;&gt;Model -->
<g id="edge2" class="edge">
<title>Source&#45;&gt;Model</title>
<path fill="none" stroke="black" d="M503.25,-81.5C503.25,-81.5 528.6,-81.5 528.6,-81.5"/>
<polygon fill="black" stroke="black" points="528.6,-85 538.6,-81.5 528.6,-78 528.6,-85"/>
</g>
<!-- Validation -->
<g id="node4" class="node">
<title>Validation</title>
<polygon fill="none" stroke="black" points="814,-62.5 814,-100.5 1162,-100.5 1162,-62.5 814,-62.5"/>
<text text-anchor="middle" x="988" y="-85.3" font-family="Times,serif" font-size="14.00">Hardware Validation </text>
<text text-anchor="middle" x="988" y="-70.3" font-family="Times,serif" font-size="14.00">(VHDL/SystemVerilog) [GHDL / Icarus Verilog]</text>
</g>
<!-- Model&#45;&gt;Validation -->
<g id="edge3" class="edge">
<title>Model&#45;&gt;Validation</title>
<path fill="none" stroke="black" d="M778.39,-75C778.39,-75 803.87,-75 803.87,-75"/>
<polygon fill="black" stroke="black" points="803.87,-78.5 813.87,-75 803.87,-71.5 803.87,-78.5"/>
</g>
<!-- Validation&#45;&gt;Model -->
<g id="edge10" class="edge">
<title>Validation&#45;&gt;Model</title>
<path fill="none" stroke="black" d="M813.6,-88C813.6,-88 788.39,-88 788.39,-88"/>
<polygon fill="black" stroke="black" points="788.39,-84.5 778.39,-88 788.39,-91.5 788.39,-84.5"/>
</g>
<!-- Design -->
<g id="node5" class="node">
<title>Design</title>
<polygon fill="none" stroke="black" points="1198,-62.5 1198,-100.5 1384,-100.5 1384,-62.5 1198,-62.5"/>
<text text-anchor="middle" x="1291" y="-85.3" font-family="Times,serif" font-size="14.00">Hardware Design </text>
<text text-anchor="middle" x="1291" y="-70.3" font-family="Times,serif" font-size="14.00">(VHDL/Verilog) [Vi]</text>
</g>
<!-- Validation&#45;&gt;Design -->
<g id="edge4" class="edge">
<title>Validation&#45;&gt;Design</title>
<path fill="none" stroke="black" d="M1162.06,-81.5C1162.06,-81.5 1187.92,-81.5 1187.92,-81.5"/>
<polygon fill="black" stroke="black" points="1187.92,-85 1197.92,-81.5 1187.92,-78 1187.92,-85"/>
</g>
<!-- Verification -->
<g id="node6" class="node">
<title>Verification</title>
<polygon fill="none" stroke="black" points="1420,-62.5 1420,-100.5 1768,-100.5 1768,-62.5 1420,-62.5"/>
<text text-anchor="middle" x="1594" y="-85.3" font-family="Times,serif" font-size="14.00">Hardware Verification </text>
<text text-anchor="middle" x="1594" y="-70.3" font-family="Times,serif" font-size="14.00">(VHDL/SystemVerilog) [GHDL / Icarus Verilog]</text>
</g>
<!-- Design&#45;&gt;Verification -->
<g id="edge5" class="edge">
<title>Design&#45;&gt;Verification</title>
<path fill="none" stroke="black" d="M1384.38,-75C1384.38,-75 1409.78,-75 1409.78,-75"/>
<polygon fill="black" stroke="black" points="1409.78,-78.5 1419.78,-75 1409.78,-71.5 1409.78,-78.5"/>
</g>
<!-- Verification&#45;&gt;Design -->
<g id="edge11" class="edge">
<title>Verification&#45;&gt;Design</title>
<path fill="none" stroke="black" d="M1419.94,-88C1419.94,-88 1394.08,-88 1394.08,-88"/>
<polygon fill="black" stroke="black" points="1394.08,-84.5 1384.08,-88 1394.08,-91.5 1394.08,-84.5"/>
</g>
<!-- Quality -->
<g id="node7" class="node">
<title>Quality</title>
<polygon fill="none" stroke="black" points="1804,-24.5 1804,-62.5 1955,-62.5 1955,-24.5 1804,-24.5"/>
<text text-anchor="middle" x="1879.5" y="-47.3" font-family="Times,serif" font-size="14.00">Quality Assurance </text>
<text text-anchor="middle" x="1879.5" y="-32.3" font-family="Times,serif" font-size="14.00">(Ada) [Vi]</text>
</g>
<!-- Verification&#45;&gt;Quality -->
<g id="edge6" class="edge">
<title>Verification&#45;&gt;Quality</title>
<path fill="none" stroke="black" d="M1768.2,-82C1827.91,-82 1880,-82 1880,-82 1880,-82 1880,-72.75 1880,-72.75"/>
<polygon fill="black" stroke="black" points="1883.5,-72.75 1880,-62.75 1876.5,-72.75 1883.5,-72.75"/>
</g>
<!-- Quality&#45;&gt;Requirements -->
<g id="edge12" class="edge">
<title>Quality&#45;&gt;Requirements</title>
<path fill="none" stroke="black" d="M1803.92,-33.67C1803.92,-33.67 277.02,-33.67 277.02,-33.67"/>
<polygon fill="black" stroke="black" points="277.02,-30.17 267.02,-33.67 277.02,-37.17 277.02,-30.17"/>
</g>
<!-- Certification -->
<g id="node8" class="node">
<title>Certification</title>
<polygon fill="none" stroke="black" points="1991,-24.5 1991,-62.5 2110,-62.5 2110,-24.5 1991,-24.5"/>
<text text-anchor="middle" x="2050.5" y="-47.3" font-family="Times,serif" font-size="14.00">Certification </text>
<text text-anchor="middle" x="2050.5" y="-32.3" font-family="Times,serif" font-size="14.00">(Java) [Vi]</text>
</g>
<!-- Quality&#45;&gt;Certification -->
<g id="edge7" class="edge">
<title>Quality&#45;&gt;Certification</title>
<path fill="none" stroke="black" d="M1955,-43.5C1955,-43.5 1980.81,-43.5 1980.81,-43.5"/>
<polygon fill="black" stroke="black" points="1980.81,-47 1990.81,-43.5 1980.81,-40 1980.81,-47"/>
</g>
<!-- LifeCycle -->
<g id="node9" class="node">
<title>LifeCycle</title>
<polygon fill="none" stroke="black" points="2146,-0.5 2146,-38.5 2322,-38.5 2322,-0.5 2146,-0.5"/>
<text text-anchor="middle" x="2234" y="-23.3" font-family="Times,serif" font-size="14.00">Design LifeCycle Data </text>
<text text-anchor="middle" x="2234" y="-8.3" font-family="Times,serif" font-size="14.00">(Chisel) [Vi]</text>
</g>
<!-- Certification&#45;&gt;LifeCycle -->
<g id="edge8" class="edge">
<title>Certification&#45;&gt;LifeCycle</title>
<path fill="none" stroke="black" d="M2110.08,-31.5C2110.08,-31.5 2135.74,-31.5 2135.74,-31.5"/>
<polygon fill="black" stroke="black" points="2135.74,-35 2145.74,-31.5 2135.74,-28 2135.74,-35"/>
</g>
<!-- LifeCycle&#45;&gt;Requirements -->
<g id="edge9" class="edge">
<title>LifeCycle&#45;&gt;Requirements</title>
<path fill="none" stroke="black" d="M2145.75,-19C2145.75,-19 277.01,-19 277.01,-19"/>
<polygon fill="black" stroke="black" points="277.01,-15.5 267.01,-19 277.01,-22.5 277.01,-15.5"/>
</g>
</g>
</svg>
