<?xml version="1.0" encoding="UTF-8" standalone="no"?>
<!DOCTYPE svg PUBLIC "-//W3C//DTD SVG 1.1//EN"
 "http://www.w3.org/Graphics/SVG/1.1/DTD/svg11.dtd">
<!-- Generated by graphviz version 2.43.0 (0)
 -->
<!-- Title: Project Pages: 1 -->
<svg width="2192pt" height="109pt"
 viewBox="0.00 0.00 2192.00 109.00" xmlns="http://www.w3.org/2000/svg" xmlns:xlink="http://www.w3.org/1999/xlink">
<g id="graph0" class="graph" transform="scale(1 1) rotate(0) translate(4 105)">
<title>Project</title>
<polygon fill="white" stroke="transparent" points="-4,4 -4,-105 2188,-105 2188,4 -4,4"/>
<!-- Requirements -->
<g id="node1" class="node">
<title>Requirements</title>
<polygon fill="none" stroke="black" points="0,-14.5 0,-52.5 234,-52.5 234,-14.5 0,-14.5"/>
<text text-anchor="middle" x="117" y="-37.3" font-family="Times,serif" font-size="14.00">Requirements </text>
<text text-anchor="middle" x="117" y="-22.3" font-family="Times,serif" font-size="14.00">(Matlab/Python/PSL/UML) [Vi]</text>
</g>
<!-- Model -->
<g id="node2" class="node">
<title>Model</title>
<polygon fill="none" stroke="black" points="270,-62.5 270,-100.5 476,-100.5 476,-62.5 270,-62.5"/>
<text text-anchor="middle" x="373" y="-85.3" font-family="Times,serif" font-size="14.00">Hardware Model </text>
<text text-anchor="middle" x="373" y="-70.3" font-family="Times,serif" font-size="14.00">(VHDL/SystemVerilog) [Vi]</text>
</g>
<!-- Requirements&#45;&gt;Model -->
<g id="edge1" class="edge">
<title>Requirements&#45;&gt;Model</title>
<path fill="none" stroke="black" d="M234.14,-43.33C301.54,-43.33 373,-43.33 373,-43.33 373,-43.33 373,-52.42 373,-52.42"/>
<polygon fill="black" stroke="black" points="369.5,-52.42 373,-62.42 376.5,-52.42 369.5,-52.42"/>
</g>
<!-- Validation -->
<g id="node3" class="node">
<title>Validation</title>
<polygon fill="none" stroke="black" points="512,-62.5 512,-100.5 860,-100.5 860,-62.5 512,-62.5"/>
<text text-anchor="middle" x="686" y="-85.3" font-family="Times,serif" font-size="14.00">Hardware Validation </text>
<text text-anchor="middle" x="686" y="-70.3" font-family="Times,serif" font-size="14.00">(VHDL/SystemVerilog) [GHDL / Icarus Verilog]</text>
</g>
<!-- Model&#45;&gt;Validation -->
<g id="edge2" class="edge">
<title>Model&#45;&gt;Validation</title>
<path fill="none" stroke="black" d="M476.36,-75C476.36,-75 501.82,-75 501.82,-75"/>
<polygon fill="black" stroke="black" points="501.82,-78.5 511.82,-75 501.82,-71.5 501.82,-78.5"/>
</g>
<!-- Validation&#45;&gt;Model -->
<g id="edge10" class="edge">
<title>Validation&#45;&gt;Model</title>
<path fill="none" stroke="black" d="M511.65,-88C511.65,-88 486.16,-88 486.16,-88"/>
<polygon fill="black" stroke="black" points="486.16,-84.5 476.16,-88 486.16,-91.5 486.16,-84.5"/>
</g>
<!-- Design -->
<g id="node4" class="node">
<title>Design</title>
<polygon fill="none" stroke="black" points="896,-62.5 896,-100.5 1049,-100.5 1049,-62.5 896,-62.5"/>
<text text-anchor="middle" x="972.5" y="-85.3" font-family="Times,serif" font-size="14.00">Hardware Design </text>
<text text-anchor="middle" x="972.5" y="-70.3" font-family="Times,serif" font-size="14.00">(VHDL/Verilog) [Vi]</text>
</g>
<!-- Validation&#45;&gt;Design -->
<g id="edge3" class="edge">
<title>Validation&#45;&gt;Design</title>
<path fill="none" stroke="black" d="M860.09,-81.5C860.09,-81.5 885.98,-81.5 885.98,-81.5"/>
<polygon fill="black" stroke="black" points="885.98,-85 895.98,-81.5 885.98,-78 885.98,-85"/>
</g>
<!-- Verification -->
<g id="node5" class="node">
<title>Verification</title>
<polygon fill="none" stroke="black" points="1085,-62.5 1085,-100.5 1433,-100.5 1433,-62.5 1085,-62.5"/>
<text text-anchor="middle" x="1259" y="-85.3" font-family="Times,serif" font-size="14.00">Hardware Verification </text>
<text text-anchor="middle" x="1259" y="-70.3" font-family="Times,serif" font-size="14.00">(VHDL/SystemVerilog) [GHDL / Icarus Verilog]</text>
</g>
<!-- Design&#45;&gt;Verification -->
<g id="edge4" class="edge">
<title>Design&#45;&gt;Verification</title>
<path fill="none" stroke="black" d="M1049.28,-75C1049.28,-75 1074.82,-75 1074.82,-75"/>
<polygon fill="black" stroke="black" points="1074.82,-78.5 1084.82,-75 1074.82,-71.5 1074.82,-78.5"/>
</g>
<!-- Verification&#45;&gt;Design -->
<g id="edge11" class="edge">
<title>Verification&#45;&gt;Design</title>
<path fill="none" stroke="black" d="M1084.91,-88C1084.91,-88 1059.02,-88 1059.02,-88"/>
<polygon fill="black" stroke="black" points="1059.02,-84.5 1049.02,-88 1059.02,-91.5 1059.02,-84.5"/>
</g>
<!-- Configuration -->
<g id="node6" class="node">
<title>Configuration</title>
<polygon fill="none" stroke="black" points="1469,-62.5 1469,-100.5 1636,-100.5 1636,-62.5 1469,-62.5"/>
<text text-anchor="middle" x="1552.5" y="-85.3" font-family="Times,serif" font-size="14.00">Configuration </text>
<text text-anchor="middle" x="1552.5" y="-70.3" font-family="Times,serif" font-size="14.00">(C/C++/Go/Rust) [Vi]</text>
</g>
<!-- Verification&#45;&gt;Configuration -->
<g id="edge5" class="edge">
<title>Verification&#45;&gt;Configuration</title>
<path fill="none" stroke="black" d="M1433.12,-81.5C1433.12,-81.5 1458.98,-81.5 1458.98,-81.5"/>
<polygon fill="black" stroke="black" points="1458.98,-85 1468.98,-81.5 1458.98,-78 1458.98,-85"/>
</g>
<!-- Quality -->
<g id="node7" class="node">
<title>Quality</title>
<polygon fill="none" stroke="black" points="1672,-24.5 1672,-62.5 1823,-62.5 1823,-24.5 1672,-24.5"/>
<text text-anchor="middle" x="1747.5" y="-47.3" font-family="Times,serif" font-size="14.00">Quality Assurance </text>
<text text-anchor="middle" x="1747.5" y="-32.3" font-family="Times,serif" font-size="14.00">(Ada) [Vi]</text>
</g>
<!-- Configuration&#45;&gt;Quality -->
<g id="edge6" class="edge">
<title>Configuration&#45;&gt;Quality</title>
<path fill="none" stroke="black" d="M1553,-62.13C1553,-59.4 1553,-57.5 1553,-57.5 1553,-57.5 1661.74,-57.5 1661.74,-57.5"/>
<polygon fill="black" stroke="black" points="1661.74,-61 1671.74,-57.5 1661.74,-54 1661.74,-61"/>
</g>
<!-- Quality&#45;&gt;Requirements -->
<g id="edge12" class="edge">
<title>Quality&#45;&gt;Requirements</title>
<path fill="none" stroke="black" d="M1671.86,-33.67C1671.86,-33.67 244.11,-33.67 244.11,-33.67"/>
<polygon fill="black" stroke="black" points="244.11,-30.17 234.11,-33.67 244.11,-37.17 244.11,-30.17"/>
</g>
<!-- Certification -->
<g id="node8" class="node">
<title>Certification</title>
<polygon fill="none" stroke="black" points="1859,-24.5 1859,-62.5 1969,-62.5 1969,-24.5 1859,-24.5"/>
<text text-anchor="middle" x="1914" y="-47.3" font-family="Times,serif" font-size="14.00">Certification </text>
<text text-anchor="middle" x="1914" y="-32.3" font-family="Times,serif" font-size="14.00">(Java) [Vi]</text>
</g>
<!-- Quality&#45;&gt;Certification -->
<g id="edge7" class="edge">
<title>Quality&#45;&gt;Certification</title>
<path fill="none" stroke="black" d="M1823.44,-43.5C1823.44,-43.5 1848.58,-43.5 1848.58,-43.5"/>
<polygon fill="black" stroke="black" points="1848.58,-47 1858.58,-43.5 1848.58,-40 1848.58,-47"/>
</g>
<!-- LifeCycle -->
<g id="node9" class="node">
<title>LifeCycle</title>
<polygon fill="none" stroke="black" points="2005,-0.5 2005,-38.5 2184,-38.5 2184,-0.5 2005,-0.5"/>
<text text-anchor="middle" x="2094.5" y="-23.3" font-family="Times,serif" font-size="14.00">Design LifeCycle Data </text>
<text text-anchor="middle" x="2094.5" y="-8.3" font-family="Times,serif" font-size="14.00">(Chisel) [Vi]</text>
</g>
<!-- Certification&#45;&gt;LifeCycle -->
<g id="edge8" class="edge">
<title>Certification&#45;&gt;LifeCycle</title>
<path fill="none" stroke="black" d="M1969.14,-31.5C1969.14,-31.5 1994.77,-31.5 1994.77,-31.5"/>
<polygon fill="black" stroke="black" points="1994.77,-35 2004.77,-31.5 1994.77,-28 1994.77,-35"/>
</g>
<!-- LifeCycle&#45;&gt;Requirements -->
<g id="edge9" class="edge">
<title>LifeCycle&#45;&gt;Requirements</title>
<path fill="none" stroke="black" d="M2004.72,-19C2004.72,-19 244.21,-19 244.21,-19"/>
<polygon fill="black" stroke="black" points="244.21,-15.5 234.21,-19 244.21,-22.5 244.21,-15.5"/>
</g>
</g>
</svg>
