<?xml version="1.0" encoding="UTF-8" standalone="no"?>
<!DOCTYPE svg PUBLIC "-//W3C//DTD SVG 1.1//EN"
 "http://www.w3.org/Graphics/SVG/1.1/DTD/svg11.dtd">
<!-- Generated by graphviz version 2.43.0 (0)
 -->
<!-- Title: Project Pages: 1 -->
<svg width="1514pt" height="47pt"
 viewBox="0.00 0.00 1514.00 47.00" xmlns="http://www.w3.org/2000/svg" xmlns:xlink="http://www.w3.org/1999/xlink">
<g id="graph0" class="graph" transform="scale(1 1) rotate(0) translate(4 43)">
<title>Project</title>
<polygon fill="white" stroke="transparent" points="-4,4 -4,-43 1510,-43 1510,4 -4,4"/>
<!-- Requirements -->
<g id="node1" class="node">
<title>Requirements</title>
<polygon fill="none" stroke="black" points="0,-0.5 0,-38.5 234,-38.5 234,-0.5 0,-0.5"/>
<text text-anchor="middle" x="117" y="-23.3" font-family="Times,serif" font-size="14.00">Requirements </text>
<text text-anchor="middle" x="117" y="-8.3" font-family="Times,serif" font-size="14.00">(Matlab/Python/PSL/UML) [Vi]</text>
</g>
<!-- Model -->
<g id="node2" class="node">
<title>Model</title>
<polygon fill="none" stroke="black" points="270,-0.5 270,-38.5 437,-38.5 437,-0.5 270,-0.5"/>
<text text-anchor="middle" x="353.5" y="-23.3" font-family="Times,serif" font-size="14.00">Software Model </text>
<text text-anchor="middle" x="353.5" y="-8.3" font-family="Times,serif" font-size="14.00">(C/C++/Go/Rust) [Vi]</text>
</g>
<!-- Requirements&#45;&gt;Model -->
<g id="edge1" class="edge">
<title>Requirements&#45;&gt;Model</title>
<path fill="none" stroke="black" d="M234.21,-19.5C234.21,-19.5 259.99,-19.5 259.99,-19.5"/>
<polygon fill="black" stroke="black" points="259.99,-23 269.99,-19.5 259.99,-16 259.99,-23"/>
</g>
<!-- Validation -->
<g id="node3" class="node">
<title>Validation</title>
<polygon fill="none" stroke="black" points="473,-0.5 473,-38.5 658,-38.5 658,-0.5 473,-0.5"/>
<text text-anchor="middle" x="565.5" y="-23.3" font-family="Times,serif" font-size="14.00">Software Validation </text>
<text text-anchor="middle" x="565.5" y="-8.3" font-family="Times,serif" font-size="14.00">(C/C++/Go/Rust) [GCC]</text>
</g>
<!-- Model&#45;&gt;Validation -->
<g id="edge2" class="edge">
<title>Model&#45;&gt;Validation</title>
<path fill="none" stroke="black" d="M437.29,-13C437.29,-13 462.88,-13 462.88,-13"/>
<polygon fill="black" stroke="black" points="462.88,-16.5 472.88,-13 462.88,-9.5 462.88,-16.5"/>
</g>
<!-- Validation&#45;&gt;Model -->
<g id="edge7" class="edge">
<title>Validation&#45;&gt;Model</title>
<path fill="none" stroke="black" d="M472.82,-26C472.82,-26 447.32,-26 447.32,-26"/>
<polygon fill="black" stroke="black" points="447.32,-22.5 437.32,-26 447.32,-29.5 447.32,-22.5"/>
</g>
<!-- Design -->
<g id="node4" class="node">
<title>Design</title>
<polygon fill="none" stroke="black" points="694,-0.5 694,-38.5 861,-38.5 861,-0.5 694,-0.5"/>
<text text-anchor="middle" x="777.5" y="-23.3" font-family="Times,serif" font-size="14.00">Software Design </text>
<text text-anchor="middle" x="777.5" y="-8.3" font-family="Times,serif" font-size="14.00">(C/C++/Go/Rust) [Vi]</text>
</g>
<!-- Validation&#45;&gt;Design -->
<g id="edge3" class="edge">
<title>Validation&#45;&gt;Design</title>
<path fill="none" stroke="black" d="M658.18,-19.5C658.18,-19.5 683.68,-19.5 683.68,-19.5"/>
<polygon fill="black" stroke="black" points="683.68,-23 693.68,-19.5 683.68,-16 683.68,-23"/>
</g>
<!-- Verification -->
<g id="node5" class="node">
<title>Verification</title>
<polygon fill="none" stroke="black" points="897,-0.5 897,-38.5 1082,-38.5 1082,-0.5 897,-0.5"/>
<text text-anchor="middle" x="989.5" y="-23.3" font-family="Times,serif" font-size="14.00">Software Verification </text>
<text text-anchor="middle" x="989.5" y="-8.3" font-family="Times,serif" font-size="14.00">(C/C++/Go/Rust) [GCC]</text>
</g>
<!-- Design&#45;&gt;Verification -->
<g id="edge4" class="edge">
<title>Design&#45;&gt;Verification</title>
<path fill="none" stroke="black" d="M861.29,-13C861.29,-13 886.88,-13 886.88,-13"/>
<polygon fill="black" stroke="black" points="886.88,-16.5 896.88,-13 886.88,-9.5 886.88,-16.5"/>
</g>
<!-- Verification&#45;&gt;Design -->
<g id="edge8" class="edge">
<title>Verification&#45;&gt;Design</title>
<path fill="none" stroke="black" d="M896.82,-26C896.82,-26 871.32,-26 871.32,-26"/>
<polygon fill="black" stroke="black" points="871.32,-22.5 861.32,-26 871.32,-29.5 871.32,-22.5"/>
</g>
<!-- Configuration -->
<g id="node6" class="node">
<title>Configuration</title>
<polygon fill="none" stroke="black" points="1118,-0.5 1118,-38.5 1285,-38.5 1285,-0.5 1118,-0.5"/>
<text text-anchor="middle" x="1201.5" y="-23.3" font-family="Times,serif" font-size="14.00">Configuration </text>
<text text-anchor="middle" x="1201.5" y="-8.3" font-family="Times,serif" font-size="14.00">(C/C++/Go/Rust) [Vi]</text>
</g>
<!-- Verification&#45;&gt;Configuration -->
<g id="edge5" class="edge">
<title>Verification&#45;&gt;Configuration</title>
<path fill="none" stroke="black" d="M1082.18,-19.5C1082.18,-19.5 1107.68,-19.5 1107.68,-19.5"/>
<polygon fill="black" stroke="black" points="1107.68,-23 1117.68,-19.5 1107.68,-16 1107.68,-23"/>
</g>
<!-- Implementation -->
<g id="node7" class="node">
<title>Implementation</title>
<polygon fill="none" stroke="black" points="1321,-0.5 1321,-38.5 1506,-38.5 1506,-0.5 1321,-0.5"/>
<text text-anchor="middle" x="1413.5" y="-23.3" font-family="Times,serif" font-size="14.00">Implementation </text>
<text text-anchor="middle" x="1413.5" y="-8.3" font-family="Times,serif" font-size="14.00">(C/C++/Go/Rust) [GCC]</text>
</g>
<!-- Configuration&#45;&gt;Implementation -->
<g id="edge6" class="edge">
<title>Configuration&#45;&gt;Implementation</title>
<path fill="none" stroke="black" d="M1285.29,-19.5C1285.29,-19.5 1310.88,-19.5 1310.88,-19.5"/>
<polygon fill="black" stroke="black" points="1310.88,-23 1320.88,-19.5 1310.88,-16 1310.88,-23"/>
</g>
</g>
</svg>
