<?xml version="1.0" encoding="UTF-8" standalone="no"?>
<!DOCTYPE svg PUBLIC "-//W3C//DTD SVG 1.1//EN"
 "http://www.w3.org/Graphics/SVG/1.1/DTD/svg11.dtd">
<!-- Generated by graphviz version 2.43.0 (0)
 -->
<!-- Title: Project Pages: 1 -->
<svg width="242pt" height="497pt"
 viewBox="0.00 0.00 242.00 497.00" xmlns="http://www.w3.org/2000/svg" xmlns:xlink="http://www.w3.org/1999/xlink">
<g id="graph0" class="graph" transform="scale(1 1) rotate(0) translate(4 493)">
<title>Project</title>
<polygon fill="white" stroke="transparent" points="-4,4 -4,-493 238,-493 238,4 -4,4"/>
<!-- Requirements -->
<g id="node1" class="node">
<title>Requirements</title>
<polygon fill="none" stroke="black" points="0,-450.5 0,-488.5 234,-488.5 234,-450.5 0,-450.5"/>
<text text-anchor="middle" x="117" y="-473.3" font-family="Times,serif" font-size="14.00">Requirements </text>
<text text-anchor="middle" x="117" y="-458.3" font-family="Times,serif" font-size="14.00">(Matlab/Python/PSL/UML) [Vi]</text>
</g>
<!-- Model -->
<g id="node2" class="node">
<title>Model</title>
<polygon fill="none" stroke="black" points="33.5,-375.5 33.5,-413.5 200.5,-413.5 200.5,-375.5 33.5,-375.5"/>
<text text-anchor="middle" x="117" y="-398.3" font-family="Times,serif" font-size="14.00">Software Model </text>
<text text-anchor="middle" x="117" y="-383.3" font-family="Times,serif" font-size="14.00">(C/C++/Go/Rust) [Vi]</text>
</g>
<!-- Requirements&#45;&gt;Model -->
<g id="edge1" class="edge">
<title>Requirements&#45;&gt;Model</title>
<path fill="none" stroke="black" d="M117,-450.19C117,-450.19 117,-423.75 117,-423.75"/>
<polygon fill="black" stroke="black" points="120.5,-423.75 117,-413.75 113.5,-423.75 120.5,-423.75"/>
</g>
<!-- Validation -->
<g id="node3" class="node">
<title>Validation</title>
<polygon fill="none" stroke="black" points="24.5,-300.5 24.5,-338.5 209.5,-338.5 209.5,-300.5 24.5,-300.5"/>
<text text-anchor="middle" x="117" y="-323.3" font-family="Times,serif" font-size="14.00">Software Validation </text>
<text text-anchor="middle" x="117" y="-308.3" font-family="Times,serif" font-size="14.00">(C/C++/Go/Rust) [GCC]</text>
</g>
<!-- Model&#45;&gt;Validation -->
<g id="edge2" class="edge">
<title>Model&#45;&gt;Validation</title>
<path fill="none" stroke="black" d="M89.17,-375.19C89.17,-375.19 89.17,-348.75 89.17,-348.75"/>
<polygon fill="black" stroke="black" points="92.67,-348.75 89.17,-338.75 85.67,-348.75 92.67,-348.75"/>
</g>
<!-- Validation&#45;&gt;Model -->
<g id="edge7" class="edge">
<title>Validation&#45;&gt;Model</title>
<path fill="none" stroke="black" d="M144.83,-338.81C144.83,-338.81 144.83,-365.25 144.83,-365.25"/>
<polygon fill="black" stroke="black" points="141.33,-365.25 144.83,-375.25 148.33,-365.25 141.33,-365.25"/>
</g>
<!-- Design -->
<g id="node4" class="node">
<title>Design</title>
<polygon fill="none" stroke="black" points="33.5,-225.5 33.5,-263.5 200.5,-263.5 200.5,-225.5 33.5,-225.5"/>
<text text-anchor="middle" x="117" y="-248.3" font-family="Times,serif" font-size="14.00">Software Design </text>
<text text-anchor="middle" x="117" y="-233.3" font-family="Times,serif" font-size="14.00">(C/C++/Go/Rust) [Vi]</text>
</g>
<!-- Validation&#45;&gt;Design -->
<g id="edge3" class="edge">
<title>Validation&#45;&gt;Design</title>
<path fill="none" stroke="black" d="M117,-300.19C117,-300.19 117,-273.75 117,-273.75"/>
<polygon fill="black" stroke="black" points="120.5,-273.75 117,-263.75 113.5,-273.75 120.5,-273.75"/>
</g>
<!-- Verification -->
<g id="node5" class="node">
<title>Verification</title>
<polygon fill="none" stroke="black" points="24.5,-150.5 24.5,-188.5 209.5,-188.5 209.5,-150.5 24.5,-150.5"/>
<text text-anchor="middle" x="117" y="-173.3" font-family="Times,serif" font-size="14.00">Software Verification </text>
<text text-anchor="middle" x="117" y="-158.3" font-family="Times,serif" font-size="14.00">(C/C++/Go/Rust) [GCC]</text>
</g>
<!-- Design&#45;&gt;Verification -->
<g id="edge4" class="edge">
<title>Design&#45;&gt;Verification</title>
<path fill="none" stroke="black" d="M89.17,-225.19C89.17,-225.19 89.17,-198.75 89.17,-198.75"/>
<polygon fill="black" stroke="black" points="92.67,-198.75 89.17,-188.75 85.67,-198.75 92.67,-198.75"/>
</g>
<!-- Verification&#45;&gt;Design -->
<g id="edge8" class="edge">
<title>Verification&#45;&gt;Design</title>
<path fill="none" stroke="black" d="M144.83,-188.81C144.83,-188.81 144.83,-215.25 144.83,-215.25"/>
<polygon fill="black" stroke="black" points="141.33,-215.25 144.83,-225.25 148.33,-215.25 141.33,-215.25"/>
</g>
<!-- Configuration -->
<g id="node6" class="node">
<title>Configuration</title>
<polygon fill="none" stroke="black" points="33.5,-75.5 33.5,-113.5 200.5,-113.5 200.5,-75.5 33.5,-75.5"/>
<text text-anchor="middle" x="117" y="-98.3" font-family="Times,serif" font-size="14.00">Configuration </text>
<text text-anchor="middle" x="117" y="-83.3" font-family="Times,serif" font-size="14.00">(C/C++/Go/Rust) [Vi]</text>
</g>
<!-- Verification&#45;&gt;Configuration -->
<g id="edge5" class="edge">
<title>Verification&#45;&gt;Configuration</title>
<path fill="none" stroke="black" d="M117,-150.19C117,-150.19 117,-123.75 117,-123.75"/>
<polygon fill="black" stroke="black" points="120.5,-123.75 117,-113.75 113.5,-123.75 120.5,-123.75"/>
</g>
<!-- Implementation -->
<g id="node7" class="node">
<title>Implementation</title>
<polygon fill="none" stroke="black" points="24.5,-0.5 24.5,-38.5 209.5,-38.5 209.5,-0.5 24.5,-0.5"/>
<text text-anchor="middle" x="117" y="-23.3" font-family="Times,serif" font-size="14.00">Implementation </text>
<text text-anchor="middle" x="117" y="-8.3" font-family="Times,serif" font-size="14.00">(C/C++/Go/Rust) [GCC]</text>
</g>
<!-- Configuration&#45;&gt;Implementation -->
<g id="edge6" class="edge">
<title>Configuration&#45;&gt;Implementation</title>
<path fill="none" stroke="black" d="M117,-75.19C117,-75.19 117,-48.75 117,-48.75"/>
<polygon fill="black" stroke="black" points="120.5,-48.75 117,-38.75 113.5,-48.75 120.5,-48.75"/>
</g>
</g>
</svg>
